<svg width="415" height="586" viewBox="0 0 415 586" fill="none" xmlns="http://www.w3.org/2000/svg">
<g clip-path="url(#clip0_208_486)">
<path d="M376.287 169.405C383.171 167.123 390.518 164.824 397.735 162.24C401.947 160.73 406.058 158.923 410.038 156.942C413.703 155.119 415.535 151.304 414.857 147.982C413.929 143.428 409.455 140.992 403.94 142.267C390.375 145.409 376.847 148.655 363.294 151.846C363.02 151.912 362.711 151.852 362.235 151.852V142.043C375.08 138.398 387.871 134.807 400.62 131.112C402.958 130.434 405.219 129.459 407.385 128.381C411.662 126.252 413.221 123.236 412.572 118.863C412.019 115.119 408.081 112.196 403.155 112.683C397.092 113.285 391.089 114.484 385.075 115.48C379.066 116.476 373.087 117.642 367.054 118.534C362.872 119.153 360.385 117.33 359.653 113.543C359.361 112.032 359.058 110.527 358.695 108.688C363.746 107.401 368.797 106.274 373.741 104.829C383.212 102.054 392.648 99.1527 402.048 96.1751C405.052 95.2227 407.349 93.307 408.378 90.4334C410.46 84.626 406.117 79.0868 399.091 79.2346C394.296 79.3331 389.507 80.3183 384.747 81.0792C373.884 82.8143 363.044 84.6534 352.151 86.4596C338.211 51.473 294.954 52.3871 276.665 69.136C265.879 61.703 252.178 61.4402 239.417 68.5339C237.067 69.8421 235.008 71.5826 232.735 73.0112C232.01 73.4655 231.01 73.7885 230.142 73.7885C219.1 73.783 209.366 76.9521 203.209 85.5948C200.068 90.001 197.01 91.0628 191.619 90.7946C184.754 90.4553 177.799 91.2708 170.91 91.9003C158.291 93.0552 146.137 91.342 134.19 87.6419C118.407 82.7486 104.224 75.124 90.6293 66.4266C62.8697 48.6705 32.9146 34.5544 2.28738 21.5767C-14.2875 14.5542 -30.8445 7.5098 -47.4789 0.613181C-49.0912 -0.0545867 -51.2924 -0.175004 -53.0118 0.219089C-54.8145 0.635075 -55.2607 2.03629 -53.101 3.01058C-50.0966 4.368 -47.0982 5.74733 -44.0461 7.00076C-8.51663 21.5658 27.0545 36.0651 60.716 54.1112C73.3345 60.8765 85.4296 68.4846 97.6079 75.9231C111.387 84.3359 126.242 90.5374 142.145 94.5495C151.682 96.9578 161.486 97.0892 171.308 96.3667C177.52 95.9124 183.719 95.3486 189.936 95.0475C192.042 94.949 194.19 95.5073 196.111 95.7427C188.163 129.23 191.411 161.89 201.257 194.819C196.444 194.107 191.721 193.554 187.062 192.706C165.538 188.776 150.533 176.668 139.289 160.029C133.816 151.928 128.765 143.576 123.244 135.502C114.355 122.514 103.099 111.391 90.2486 101.681C63.7502 81.6594 33.2716 68.1562 1.59134 56.8425C-18.8804 49.5354 -39.6615 42.9672 -60.3176 36.0979C-61.6205 35.6655 -63.3458 34.8554 -63.8813 36.9572C-64.3513 38.7909 -63.4886 40.099 -61.4539 40.734C-51.4709 43.8484 -41.476 46.93 -31.5287 50.132C-6.57712 58.1671 18.1305 66.7824 41.6126 78.0468C58.7289 86.2571 75.2859 95.3814 89.963 107.013C102.48 116.936 113.088 128.414 121.691 141.485C128.693 152.125 135.749 162.793 143.68 172.842C154.174 186.138 168.958 193.691 186.432 196.789C191.263 197.648 196.129 198.354 200.996 199.017C202.84 199.269 203.881 199.991 204.643 201.622C208.48 209.871 213.257 217.605 220.414 223.861C228.529 230.955 238.358 233.927 249.394 233.368C251.898 233.243 254.338 231.923 257.324 230.993C257.467 231.726 257.871 232.788 257.854 233.839C257.604 246.412 255.105 258.683 249.727 270.167C243.409 283.648 236.234 296.801 229.154 309.97C220.652 325.778 212.68 341.771 208.629 359.106C203.137 382.625 205.821 405.494 217.136 427.169C223.496 439.353 231.004 451.033 238.036 462.922C243.795 472.659 249.465 482.413 251.601 493.519C256.105 516.923 251.506 538.489 236.323 557.931C234.074 560.81 231.415 563.465 229.523 566.524C228.018 568.96 226.917 571.795 226.489 574.565C225.858 578.659 227.56 582.162 231.873 584.018C236.573 586.043 241.291 585.796 245.164 582.545C248.21 579.989 251.024 577.072 253.35 573.941C263.375 560.438 271.478 546.108 275.422 529.967C278.873 515.851 278.349 501.855 274.934 487.837C270.686 470.382 261.447 454.985 251.648 439.824C243.2 426.747 235.639 413.326 232.039 398.313C230.231 390.776 230.13 383.162 230.784 375.499C232.539 355.017 241.713 336.829 251.714 318.974C260.174 303.884 268.902 288.935 274.875 272.794C279.402 260.561 281.966 248.016 281.639 235.071C281.55 231.425 282.175 228.322 284.87 226.236C289.463 229.088 293.794 232.241 298.571 234.633C304.259 237.485 310.511 238.234 316.949 236.817C320.018 236.138 322.202 234.496 323.945 232.126C324.439 231.458 325.545 230.873 326.432 230.796C340.056 229.592 350.211 223.538 356.714 212.465C358.279 209.8 359.391 206.91 360.813 203.899C361.247 210.626 360.373 217.041 358.808 223.407C355.655 236.198 349.129 247.725 342.703 259.258C335.635 271.935 328.092 284.387 321.131 297.107C315.229 307.89 311.535 319.439 310.398 331.454C308.857 347.781 312.213 363.408 319.56 378.411C325.605 390.754 333.952 401.777 341.722 413.151C349.926 425.155 357.803 437.306 361.711 451.241C364.573 461.427 365.186 471.696 363.526 482.068C360.23 502.67 349.825 520.547 337.92 537.805C334.428 542.868 330.465 547.652 326.86 552.654C323.766 556.946 323.731 561.423 326.824 565.72C329.793 569.847 334.184 571.587 339.401 570.558C341.549 570.137 344.131 569.009 345.327 567.438C358.951 549.556 372.016 531.352 380.131 510.612C386.151 495.215 389.18 479.32 388.115 462.971C387.169 448.477 382.939 434.629 375.097 422.007C366.376 407.973 356.934 394.317 347.903 380.442C341.62 370.797 336.885 360.6 335.273 349.319C333.41 336.298 335.058 323.594 340.99 311.744C347.088 299.554 354.072 287.737 360.956 275.898C369.106 261.885 377.168 247.873 381.303 232.285C385.295 217.233 386.157 202.033 382.73 186.86C381.404 180.976 378.548 175.382 376.293 169.394L376.287 169.405ZM383.73 470.306C383.361 483.398 380.874 494.575 377.108 505.511C369.672 527.11 356.292 545.758 342.358 564.11C341.787 564.86 340.746 565.446 339.794 565.796C337.194 566.749 332.375 565.747 330.763 563.831C328.752 561.434 328.704 558.714 330.287 556.146C331.846 553.623 333.684 551.248 335.469 548.845C350.824 528.188 364.668 506.841 368.155 481.4C369.16 474.06 369.083 466.452 368.256 459.085C367.268 450.223 363.496 441.931 359.546 433.781C353.882 422.095 345.993 411.635 338.479 400.967C329.644 388.422 321.964 375.379 317.722 360.803C313.92 347.715 313.581 334.661 316.99 321.432C320.369 308.328 326.069 296.133 333.059 284.387C342.447 268.623 352.062 252.958 359.35 236.237C364.656 224.058 366.703 211.442 365.108 198.305C364.174 190.637 363.8 182.914 363.276 175.207C363.229 174.468 363.71 173.193 364.27 173.012C366.632 172.251 369.112 171.786 371.569 171.299C371.7 171.272 372.051 172.016 372.236 172.432C373.604 175.541 375.199 178.59 376.275 181.786C382.374 199.953 380.827 218.07 375.282 236.034C370.641 251.075 362.616 264.732 354.156 278.196C346.808 289.899 339.639 301.678 334.797 314.551C326.551 336.478 328.693 357.508 341.127 377.535C349.45 390.945 358.386 404.043 367.042 417.278C378.025 434.065 384.021 452.139 383.724 470.289L383.73 470.306ZM277.391 232.668C276.796 239.493 276.677 246.439 275.499 253.226C272.804 268.766 266.361 283.172 258.8 297.206C250.75 312.154 242.724 327.119 235.103 342.253C229.63 353.123 226.84 364.771 225.852 376.698C224.763 389.867 227.25 402.544 232.628 414.815C238.084 427.256 245.693 438.614 252.82 450.234C260.001 461.937 266.718 473.852 270.163 487.071C273.001 497.952 274.411 508.91 272.709 520.071C269.794 539.195 261.167 556.19 249.435 571.948C247.294 574.828 244.384 577.318 241.457 579.578C239.024 581.456 234.473 581.034 232.361 579.163C229.951 577.033 230.731 574.477 231.7 572.08C232.277 570.657 233.217 569.332 234.169 568.079C236.442 565.096 238.905 562.239 241.136 559.234C250.5 546.623 256.223 532.829 257.455 517.476C258.49 504.608 257.776 491.877 251.928 480.076C246.336 468.789 239.726 457.919 233.211 447.043C223.478 430.776 214.364 414.366 211.705 395.581C210.354 386.03 210.146 376.512 211.818 367.048C214.185 353.649 218.594 340.737 224.864 328.476C232.468 313.605 240.714 299.012 248.495 284.217C255.23 271.409 260.299 258.092 261.816 243.817C262.214 240.068 262.399 236.297 262.673 232.673H277.379L277.391 232.668ZM341.269 123.351C341.496 116.4 340.609 110.078 338.182 103.931C333.987 93.307 328.336 83.7283 317.639 77.3572C310.107 72.8689 302.319 72.7813 294.865 77.3024C289.51 80.5482 285.714 84.9982 282.912 90.2418C274.512 105.967 272.257 122.782 272.566 140.029C272.733 149.498 273.512 158.912 275.773 168.185C279.128 181.939 283.382 195.448 290.676 207.9C295.959 216.926 302.843 224.748 313.766 228.59C315.527 229.209 317.323 229.75 319.102 230.331C317.49 231.65 315.86 232.608 314.111 232.859C309.631 233.511 305.306 232.794 301.129 231.064C293.71 227.993 288.57 222.58 283.823 216.844C267.099 196.658 259.698 173.384 258.038 148.431C257.479 140.001 257.758 131.457 258.579 123.039C259.894 109.525 262.756 96.2791 270.276 84.2866C278.361 71.3965 289.766 63.2793 306.495 62.5349C324.201 61.7522 339.574 70.581 346.338 85.6988C350.182 94.2813 352.633 103.241 354.316 112.382C354.846 115.267 356.286 118.162 354.447 121.173C350.199 121.873 345.946 122.574 341.264 123.346L341.269 123.351ZM325.908 91.4788C319.858 92.891 314.117 94.1554 308.429 95.5839C302.206 97.1384 296.495 99.8533 294.026 105.557C291.682 110.97 289.891 116.739 288.998 122.503C287.327 133.285 288.308 144.112 289.986 154.889C292.193 169.082 296.263 182.749 303.081 195.656C306.204 201.567 309.714 207.271 316.193 210.796C321.506 213.686 328.466 213.943 332.429 211.119C337.813 207.287 342.037 202.454 343.477 196.34C344.696 191.168 344.607 185.744 345.19 180.434C345.285 179.558 345.666 178.163 346.273 177.971C350.164 176.751 354.162 175.793 358.487 174.654C358.487 180.374 358.79 185.76 358.421 191.102C357.678 201.978 353.745 211.644 344.637 219.11C332.988 228.661 316.502 228.289 305.252 218.289C299.166 212.881 294.621 206.488 291.378 199.416C281.163 177.139 275.791 154.014 277.463 129.673C278.188 119.082 280.199 108.77 284.12 98.8024C286.916 91.6868 290.533 84.9982 298.285 81.2817C302.141 79.4371 306.204 77.5433 310.696 79.2236C317.121 81.621 321.958 85.8083 325.902 91.4898L325.908 91.4788ZM266.022 81.5663C259.347 80.5209 253.487 82.36 248.376 86.4925C241.808 91.8018 237.632 98.4904 234.746 106C230.98 115.792 230.992 126.006 230.677 136.159C230.332 147.029 232.182 157.736 234.776 168.305C238.007 181.474 242.534 194.189 250.774 205.558C257.253 214.496 266.284 219.553 277.837 220.927C278.974 221.064 280.045 221.683 281.151 222.077C280.598 223.193 280.36 224.906 279.444 225.311C276.41 226.652 273.173 228.262 269.931 228.426C260.079 228.924 252.303 224.321 245.467 218.404C238.81 212.64 234.508 205.306 230.695 197.785C221.36 179.394 217.434 159.837 216.964 139.706C216.69 127.971 217.362 116.214 220.468 104.736C223.014 95.3267 226.703 86.3885 233.711 78.8624C242.177 69.7709 253.148 67.1436 265.522 68.4682C267.694 68.6981 269.729 70.2745 271.739 71.3637C272.983 72.0369 273.036 72.9236 272.043 74.0621C270.014 76.3993 268.17 78.8679 266.028 81.5663H266.022ZM226.846 78.5668C224.615 82.5679 222.199 86.2407 220.45 90.1652C215.113 102.147 212.841 114.769 212.371 127.631C211.681 146.356 213.007 164.922 219.391 182.897C225.644 200.516 233.205 217.424 251.535 228.475C249.941 228.743 248.846 229.055 247.74 229.094C240.357 229.373 233.61 227.408 227.726 223.429C220.742 218.705 215.857 212.246 211.853 205.289C204.077 191.775 200.585 177.068 198.539 162.071C196.201 144.955 195.493 127.757 197.938 110.603C199.122 102.3 201.341 94.2429 207.558 87.5488C212.662 82.0534 218.826 78.9719 226.846 78.5668ZM263.238 86.2078C244.67 131.468 249.762 174.583 276.267 216.297C271.674 214.72 266.801 213.335 262.714 210.85C256.081 206.822 252.19 200.44 249.12 193.932C237.828 169.991 232.825 145.048 236.591 118.972C237.852 110.258 240.642 101.873 246.782 94.8888C251.042 90.0448 255.748 85.5291 263.232 86.2024L263.238 86.2078ZM334.779 108.611C330.097 109.498 326.283 110.45 322.398 110.915C315.116 111.791 310.012 114.884 308.102 121.693C307.459 123.975 306.632 126.219 306.144 128.523C303.081 143.017 303.622 157.462 307.287 171.786C309.661 181.075 315.318 188.371 324.516 192.925C328.71 195.005 333.369 196.291 338.188 198.07C336.094 200.566 333.999 203.571 331.322 206.045C329.954 207.309 327.604 208.021 325.593 208.272C319.489 209.05 315.949 205.377 312.796 201.359C306.531 193.379 302.622 184.37 299.6 175.026C296.156 164.375 294.347 153.455 293.437 142.366C292.598 132.109 293.246 122.015 296.138 112.087C297.5 107.412 300.284 103.395 305.419 101.742C313.093 99.2731 320.964 97.3136 329.049 95.0475C331.048 99.7712 332.815 103.953 334.779 108.605V108.611ZM308.893 148.376C309.167 143.926 309.542 139.952 309.595 135.973C309.619 134.358 310.309 133.652 311.802 133.34C316.407 132.377 321 131.337 325.635 130.499C348.462 126.383 371.296 122.278 394.147 118.283C397.413 117.713 400.828 117.434 404.13 117.626C405.469 117.702 407.117 119.191 407.878 120.423C408.943 122.147 407.361 123.335 405.766 123.997C401.649 125.71 397.61 127.757 393.291 128.846C373.075 133.953 352.805 138.868 332.5 143.663C324.986 145.437 317.335 146.701 308.887 148.37L308.893 148.376ZM311.023 168.825C312.647 168.316 313.456 168.009 314.295 167.807C340.782 161.463 367.256 155.086 393.772 148.852C397.961 147.867 402.304 147.33 406.617 146.997C407.759 146.909 409.568 148.102 410.08 149.131C410.46 149.892 409.544 151.611 408.67 152.399C407.515 153.444 405.909 154.183 404.362 154.725C392.874 158.77 381.398 162.848 369.832 166.696C352.674 172.405 334.362 174.791 317.091 181.95C315.146 177.741 313.135 173.39 311.029 168.83L311.023 168.825ZM357.678 104.659C356.97 101.868 356.387 99.6781 355.863 97.4778C355.649 96.5965 355.566 95.6879 355.399 94.7958C354.667 90.9424 354.644 90.8439 358.951 90.0667C369.291 88.2057 379.631 86.3228 390.018 84.7136C393.463 84.1826 397.104 84.1389 400.555 84.5603C401.875 84.719 403.422 86.6567 403.898 88.0579C404.16 88.8242 402.643 90.521 401.501 91.1778C399.186 92.5133 396.682 93.7065 394.082 94.4564C382.094 97.9157 370.046 101.205 357.678 104.654V104.659ZM310.291 163.8C309.994 160.899 309.97 158.343 309.411 155.88C308.911 153.658 309.97 152.892 311.975 152.481C317.347 151.381 322.713 150.253 328.086 149.164C331.179 148.535 334.279 147.949 337.45 147.33C337.866 150.954 338.217 154.079 338.586 157.303C329.18 159.465 319.953 161.583 310.285 163.806L310.291 163.8ZM311.374 128.212C311.909 126.241 312.362 124.495 312.855 122.754C313.819 119.383 316.151 117.221 319.828 116.443C325.063 115.338 330.329 114.353 335.677 113.302C335.921 116.433 336.272 119.503 336.32 122.579C336.331 123.225 335.308 124.342 334.606 124.462C327.015 125.781 319.394 126.947 311.38 128.212H311.374ZM343.679 156.132C343.197 153.017 342.691 150.439 342.477 147.834C342.43 147.237 343.257 146.148 343.887 146C348.135 144.993 352.436 144.172 357.279 143.176C357.279 146.033 357.38 148.655 357.208 151.255C357.166 151.923 356.399 152.93 355.744 153.116C351.901 154.194 347.992 155.075 343.685 156.126L343.679 156.132ZM339.895 192.366C332.619 192.169 327.461 188.634 322.184 184.402C328.109 182.755 334.035 181.102 339.895 179.471V192.366Z" fill="#DF3838"/>
<path d="M383.737 470.305C384.034 452.155 378.037 434.082 367.055 417.294C358.392 404.06 349.462 390.961 341.139 377.551C328.705 357.524 326.563 336.489 334.809 314.568C339.652 301.7 346.821 289.915 354.168 278.213C362.622 264.748 370.654 251.091 375.294 236.05C380.833 218.086 382.386 199.963 376.288 181.802C375.217 178.606 373.617 175.563 372.248 172.448C372.07 172.038 371.713 171.293 371.582 171.315C369.125 171.802 366.644 172.262 364.282 173.028C363.723 173.209 363.235 174.484 363.289 175.223C363.812 182.93 364.187 190.653 365.121 198.321C366.715 211.458 364.669 224.074 359.362 236.253C352.074 252.974 342.46 268.64 333.072 284.403C326.075 296.144 320.382 308.344 317.003 321.448C313.588 334.677 313.927 347.726 317.734 360.819C321.97 375.395 329.651 388.438 338.492 400.983C346.006 411.651 353.895 422.111 359.558 433.797C363.509 441.942 367.281 450.234 368.268 459.101C369.089 466.468 369.167 474.077 368.167 481.417C364.681 506.852 350.837 528.199 335.481 548.861C333.697 551.258 331.858 553.639 330.299 556.163C328.717 558.73 328.765 561.45 330.775 563.848C332.388 565.763 337.207 566.765 339.807 565.812C340.764 565.462 341.8 564.882 342.371 564.127C356.304 545.774 369.684 527.126 377.121 505.527C380.887 494.591 383.374 483.414 383.742 470.322L383.737 470.305Z" fill="#F5F5F5"/>
<path d="M277.391 232.668H262.685C262.411 236.291 262.227 240.062 261.828 243.812C260.311 258.087 255.236 271.409 248.507 284.212C240.726 299.007 232.486 313.599 224.877 328.47C218.606 340.731 214.197 353.649 211.83 367.042C210.158 376.506 210.366 386.024 211.717 395.576C214.376 414.366 223.484 430.77 233.223 447.037C239.732 457.913 246.348 468.789 251.94 480.07C257.788 491.871 258.496 504.602 257.467 517.471C256.236 532.824 250.512 546.611 241.148 559.228C238.917 562.233 236.454 565.09 234.181 568.073C233.229 569.327 232.289 570.657 231.712 572.074C230.737 574.472 229.963 577.028 232.373 579.157C234.491 581.029 239.042 581.45 241.469 579.573C244.396 577.312 247.306 574.822 249.447 571.943C261.179 556.185 269.806 539.189 272.721 520.065C274.423 508.905 273.013 497.947 270.175 487.065C266.73 473.847 260.013 461.931 252.833 450.229C245.705 438.608 238.096 427.251 232.64 414.809C227.256 402.538 224.769 389.861 225.864 376.692C226.852 364.765 229.642 353.118 235.115 342.247C242.736 327.113 250.762 312.148 258.812 297.2C266.373 283.161 272.816 268.76 275.511 253.221C276.689 246.428 276.808 239.482 277.403 232.662L277.391 232.668Z" fill="#F5F5F5"/>
<path d="M341.27 123.351C345.952 122.579 350.206 121.878 354.454 121.178C356.286 118.167 354.852 115.272 354.323 112.387C352.639 103.247 350.188 94.2865 346.345 85.7041C339.574 70.5863 324.207 61.7575 306.502 62.5402C289.772 63.2791 278.373 71.4018 270.282 84.2919C262.756 96.2898 259.895 109.53 258.586 123.044C257.765 131.463 257.485 140.007 258.044 148.436C259.698 173.39 267.099 196.657 283.829 216.849C288.582 222.585 293.717 227.999 301.135 231.069C305.312 232.799 309.637 233.522 314.117 232.865C315.866 232.607 317.49 231.65 319.108 230.336C317.33 229.756 315.533 229.214 313.772 228.595C302.849 224.753 295.971 216.931 290.682 207.906C283.389 195.448 279.135 181.939 275.779 168.19C273.513 158.918 272.739 149.498 272.573 140.034C272.263 122.787 274.518 105.978 282.919 90.2471C285.721 85.0035 289.516 80.548 294.871 77.3077C302.331 72.7866 310.113 72.8742 317.645 77.3625C328.336 83.7336 333.994 93.3177 338.188 103.936C340.615 110.083 341.502 116.41 341.276 123.356L341.27 123.351Z" fill="#F5F5F5"/>
<path d="M325.908 91.4731C321.97 85.7916 317.127 81.6044 310.702 79.207C306.21 77.5321 302.146 79.4205 298.291 81.2651C290.545 84.9816 286.928 91.6702 284.126 98.7857C280.205 108.753 278.194 119.065 277.468 129.656C275.797 153.997 281.169 177.123 291.384 199.4C294.626 206.471 299.172 212.865 305.258 218.272C316.508 228.272 332.994 228.639 344.643 219.093C353.751 211.627 357.684 201.967 358.427 191.085C358.79 185.738 358.493 180.357 358.493 174.638C354.162 175.776 350.17 176.728 346.279 177.954C345.672 178.146 345.291 179.542 345.196 180.418C344.613 185.721 344.702 191.151 343.482 196.324C342.037 202.432 337.819 207.271 332.435 211.102C328.466 213.926 321.506 213.669 316.199 210.779C309.726 207.254 306.21 201.551 303.086 195.639C296.262 182.733 292.199 169.066 289.992 154.873C288.314 144.095 287.332 133.269 289.004 122.486C289.897 116.722 291.687 110.953 294.031 105.54C296.5 99.8421 302.212 97.1273 308.435 95.5673C314.128 94.1442 319.864 92.8798 325.914 91.4622L325.908 91.4731Z" fill="#F5F5F5"/>
<path d="M266.022 81.5662C268.164 78.8678 270.008 76.3937 272.037 74.062C273.031 72.9181 272.977 72.0368 271.734 71.3636C269.723 70.2744 267.682 68.698 265.517 68.4681C253.142 67.149 242.177 69.7708 233.705 78.8623C226.697 86.3884 223.003 95.3211 220.462 104.736C217.357 116.213 216.684 127.971 216.958 139.706C217.428 159.843 221.361 179.394 230.689 197.785C234.503 205.306 238.804 212.635 245.461 218.404C252.297 224.326 260.073 228.929 269.925 228.426C273.161 228.262 276.398 226.652 279.438 225.311C280.36 224.906 280.598 223.193 281.146 222.077C280.045 221.682 278.974 221.058 277.832 220.927C266.278 219.553 257.253 214.496 250.768 205.557C242.528 194.189 238.001 181.474 234.77 168.305C232.176 157.73 230.326 147.029 230.671 136.159C230.993 126.011 230.981 115.792 234.741 106C237.626 98.4903 241.808 91.8017 248.371 86.4924C253.487 82.3544 259.341 80.5153 266.016 81.5662H266.022Z" fill="#F5F5F5"/>
<path d="M226.846 78.5612C218.827 78.9662 212.663 82.0478 207.559 87.5432C201.336 94.2427 199.122 102.294 197.938 110.598C195.487 127.752 196.195 144.949 198.539 162.065C200.592 177.062 204.078 191.77 211.854 205.284C215.858 212.241 220.742 218.699 227.727 223.423C233.611 227.402 240.351 229.362 247.74 229.088C248.847 229.044 249.942 228.738 251.536 228.469C233.206 217.418 225.645 200.516 219.392 182.892C213.014 164.922 211.687 146.351 212.372 127.626C212.842 114.763 215.114 102.141 220.451 90.1595C222.2 86.235 224.615 82.5623 226.846 78.5612Z" fill="#F5F5F5"/>
<path d="M263.233 86.2022C255.742 85.5235 251.042 90.0391 246.783 94.8887C240.643 101.873 237.853 110.258 236.591 118.972C232.825 145.048 237.829 169.991 249.121 193.932C252.191 200.44 256.081 206.822 262.715 210.85C266.802 213.335 271.675 214.72 276.268 216.296C249.763 174.583 244.671 131.468 263.239 86.2077L263.233 86.2022Z" fill="#F5F5F5"/>
<path d="M334.773 108.605C332.803 103.953 331.036 99.771 329.043 95.0474C320.952 97.3079 313.087 99.2729 305.413 101.741C300.278 103.389 297.494 107.407 296.132 112.086C293.24 122.015 292.592 132.108 293.431 142.366C294.335 153.455 296.149 164.375 299.594 175.026C302.616 184.369 306.525 193.379 312.79 201.359C315.943 205.377 319.483 209.049 325.587 208.272C327.598 208.015 329.948 207.303 331.316 206.045C333.993 203.576 336.087 200.566 338.182 198.07C333.363 196.285 328.704 194.999 324.51 192.925C315.318 188.371 309.66 181.074 307.281 171.786C303.616 157.462 303.075 143.017 306.138 128.523C306.626 126.219 307.453 123.975 308.096 121.692C310.006 114.889 315.11 111.791 322.392 110.915C326.271 110.45 330.085 109.503 334.773 108.611V108.605Z" fill="#F5F5F5"/>
<path d="M308.888 148.37C317.33 146.706 324.987 145.442 332.501 143.663C352.806 138.868 373.075 133.953 393.291 128.846C397.61 127.757 401.65 125.705 405.767 123.997C407.361 123.334 408.944 122.141 407.879 120.423C407.117 119.186 405.469 117.702 404.131 117.626C400.829 117.434 397.414 117.708 394.148 118.282C371.296 122.284 348.463 126.383 325.635 130.499C321 131.337 316.408 132.371 311.803 133.34C310.309 133.652 309.619 134.358 309.596 135.973C309.542 139.952 309.167 143.926 308.894 148.376L308.888 148.37Z" fill="#F5F5F5"/>
<path d="M311.017 168.819C313.123 173.379 315.134 177.736 317.079 181.939C334.356 174.774 352.662 172.388 369.82 166.685C381.386 162.837 392.862 158.759 404.35 154.714C405.897 154.172 407.497 153.428 408.658 152.388C409.532 151.6 410.448 149.881 410.068 149.12C409.55 148.097 407.741 146.898 406.605 146.985C402.298 147.325 397.949 147.856 393.76 148.841C367.244 155.081 340.77 161.457 314.283 167.796C313.444 167.998 312.635 168.305 311.011 168.814L311.017 168.819Z" fill="#F5F5F5"/>
<path d="M357.673 104.653C370.047 101.205 382.089 97.9156 394.077 94.4563C396.676 93.7064 399.181 92.5077 401.495 91.1777C402.638 90.5209 404.155 88.8186 403.893 88.0578C403.411 86.6511 401.87 84.719 400.55 84.5602C397.099 84.1388 393.458 84.1825 390.013 84.7135C379.626 86.3172 369.286 88.2001 358.946 90.0666C354.638 90.8438 354.662 90.9423 355.394 94.7957C355.561 95.6879 355.644 96.5965 355.858 97.4777C356.387 99.678 356.965 101.867 357.673 104.659V104.653Z" fill="#F5F5F5"/>
<path d="M310.286 163.795C319.954 161.572 329.181 159.454 338.587 157.292C338.218 154.068 337.861 150.948 337.451 147.319C334.28 147.938 331.174 148.524 328.086 149.153C322.714 150.248 317.348 151.37 311.975 152.47C309.976 152.88 308.912 153.647 309.411 155.869C309.965 158.327 309.994 160.888 310.292 163.789L310.286 163.795Z" fill="#F5F5F5"/>
<path d="M311.368 128.206C319.382 126.936 327.003 125.776 334.594 124.456C335.302 124.336 336.319 123.219 336.308 122.574C336.26 119.497 335.909 116.421 335.665 113.296C330.317 114.352 325.051 115.332 319.816 116.438C316.139 117.215 313.807 119.383 312.843 122.749C312.349 124.489 311.891 126.235 311.362 128.206H311.368Z" fill="#F5F5F5"/>
<path d="M343.674 156.126C347.987 155.075 351.89 154.194 355.733 153.116C356.387 152.93 357.155 151.923 357.196 151.255C357.363 148.649 357.268 146.033 357.268 143.176C352.431 144.172 348.124 144.988 343.876 146C343.251 146.148 342.418 147.237 342.466 147.834C342.68 150.434 343.186 153.017 343.668 156.132L343.674 156.126Z" fill="#F5F5F5"/>
<path d="M339.89 192.361V179.465C334.03 181.096 328.104 182.749 322.178 184.397C327.456 188.628 332.614 192.158 339.89 192.361Z" fill="#F5F5F5"/>
</g>
<defs>
<clipPath id="clip0_208_486">
<rect width="479" height="585.32" fill="white" transform="matrix(-1 0 0 1 415 0)"/>
</clipPath>
</defs>
</svg>
