<svg width="882" height="509" viewBox="0 0 882 509" fill="none" xmlns="http://www.w3.org/2000/svg">
<path d="M130.169 2.74411C132.136 4.52349 132.93 11.1839 134.68 14.1713C151.802 43.4577 190.143 30.8551 193.968 0.9484C213.31 -1.94106 208.402 4.24597 214.393 13.8775C222.061 26.2189 228.719 31.4101 245.246 30.2021C264.154 28.8145 268.196 14.7917 274.89 1.53609C293.979 -2.12063 288.873 3.9358 293.871 13.8122C304.552 34.9362 334.431 36.8136 347.476 16.5874C353.394 7.41295 349.424 -2.3655 366.078 0.719855C371.509 1.73198 371.797 10.7921 374.666 15.8038C385.762 35.2301 415.172 35.5239 427.261 16.9302C432.673 8.62097 427.567 0.0995203 441.803 0.687206C453.26 1.16062 449.958 8.80054 454.992 16.571C467.893 36.5197 498.259 34.7893 508.597 13.7795C512.982 4.86631 508.742 -2.05533 524.836 0.719855C531.331 1.84625 531.096 11.2492 534.38 16.571C547.714 38.1685 578.495 33.8915 589.302 11.7063C593.019 4.0664 587.318 -0.879956 602.474 0.621908C612.054 1.56873 610.809 11.1513 615.591 18.1545C628.148 36.536 656.205 33.9894 667.175 15.2324C671.252 8.2455 668.781 0.572934 679.967 0.556609C693.427 0.52396 688.501 5.64989 692.615 13.7795C707.735 43.7025 747.916 30.4959 752.986 1.40549L768.412 2.30334C776.856 40.9763 823.316 39.3275 832.392 1.40549H845.112C849.027 4.44187 845.707 20.7828 860.665 28.2431C871.581 33.6956 886.141 27.1331 880.367 44.8779C849.839 47.7184 834.377 81.9021 863.66 97.3615C869.289 100.333 880.061 100.822 881.197 105.981C884.535 121.097 873.872 117.408 863.66 122.812C843.506 133.455 843.019 157.24 862.217 168.863C868.08 172.406 880.043 172.749 881.197 177.809C884.752 193.497 870.282 190.004 859.492 197.382C840.908 210.083 846.141 234.847 866.745 243.14C872.122 245.311 880.187 244.365 881.252 249.719C884.12 263.938 874.558 261.636 865.121 266.158C851.102 272.884 845.906 284.148 849.117 298.268C852.798 314.43 880.764 318.282 881.252 320.111L879.556 333.089C871.039 336.762 863.894 337.072 856.75 343.471C843.831 355.029 845.635 374.847 860.737 384.071C866.276 387.45 879.357 389.278 880.819 393.637C886.7 411.235 869.253 405.75 858.608 413.7C843.055 425.323 845.491 448.079 862.541 457.531C872.97 463.31 885.167 459.294 880.404 475.864C860.719 477.79 845.653 487.014 846.736 506.619L831.075 506.375C827.232 477.627 788.277 466.575 772.833 494.425C768.232 502.718 772.923 508.97 759.355 508.497C748.06 508.105 751.037 499.339 745.57 491.487C731.966 471.962 703.098 474.737 692.633 495.306C687.491 505.411 691.947 512.921 672.732 506.783C663.62 469.742 617.846 468.126 608.807 506.113C606.84 508.578 592.514 508.66 590.98 506.456C590.457 478.166 550.294 467.228 534.705 492.809C528.3 503.322 531.71 513.345 511.682 506.391C505.277 467.506 456.201 470.771 448.28 507.664L432.818 506.766C428.379 479.129 391.049 466.151 374.991 493.592C369.957 502.179 373.836 508.97 360.611 508.497C349.208 508.089 352.077 497.804 345.293 489.609C327.25 467.75 292.193 480.19 290.84 506.473C289.974 507.632 275.485 509.623 273.97 506.783C264.353 469.024 218.831 468.893 209.25 506.913L194.906 508.448C190.45 500.041 189.476 491.209 181.14 484.663C167.806 474.166 145.163 477.709 136.25 491.47C131.54 498.751 134.283 508.497 122.483 508.529C109.131 508.562 113.859 503.518 109.835 495.306C99.7131 474.737 70.3937 472.093 56.8977 491.487C54.3537 495.143 51.0699 506.636 49.4641 507.615C47.2629 508.937 38.6926 508.986 36.6357 507.664C34.5789 506.342 33.9474 495.731 32.2513 492.058C30.1403 487.471 23.5548 481.953 18.5389 479.978C12.8374 477.741 1.92153 478.9 0.658542 473.285C-2.46285 459.441 11.0511 463.033 20.5957 457.025C39.5587 445.108 37.5198 422.401 18.16 411.741C9.30101 406.876 1.10961 409.782 0.622456 399.775C-0.00903906 387.123 8.68755 391.074 18.1961 386.274C46.5592 371.941 33.1896 336.223 2.28239 334.346L0.875054 319.18C42.7703 315.752 45.6932 266.746 2.78758 263.252C-7.96588 241.557 19.0621 247.874 29.2382 233.035C43.2394 212.597 24.8899 193.562 2.42673 189.285C-4.62798 171.769 4.82641 175.605 16.3196 170.757C47.0283 157.812 33.785 121.081 2.8778 117.865C-0.261637 113.115 -0.135338 107.058 2.84171 102.243C31.674 100.953 45.621 69.3158 21.3896 52.9423C10.8346 45.8084 -5.98118 48.9754 2.35456 32.4222C15.1288 32.1937 28.8232 26.1536 33.2257 14.6447C34.8856 10.3187 33.9834 2.09112 37.8807 0.91575C53.7222 -3.91633 51.3766 11.5267 59.2613 20.3094C79.0542 42.3966 111.17 26.7413 114.219 1.40549C116.962 -0.341244 127.733 0.507635 130.151 2.69513L130.169 2.74411Z" fill="#DF3838"/>
</svg>
