<svg width="194" height="194" viewBox="0 0 194 194" fill="none" xmlns="http://www.w3.org/2000/svg">
<g clip-path="url(#clip0_208_549)">
<path d="M143.912 71.306C148.45 72.5596 152.589 73.6086 156.679 74.8489C160.782 76.093 161.564 77.9933 159.047 81.4915C156.599 84.8877 153.672 87.9322 150.611 91.5313C153.258 93.4335 155.937 95.3664 158.623 97.2914C159.067 97.6084 159.557 97.8702 159.977 98.2187C162.672 100.474 162.634 102.398 159.664 104.279C156.591 106.228 153.382 107.953 150.241 109.79C149.777 110.061 149.357 110.405 148.844 110.767C151.218 114.502 153.669 118.104 155.853 121.861C157.726 125.085 157.264 126.072 153.776 127.264C149.73 128.65 145.66 129.982 141.327 131.427C142.594 133.776 143.765 135.909 144.89 138.057C145.392 139.023 145.911 140.005 146.243 141.036C147.677 145.539 144.494 149.295 139.828 148.394C132.47 146.976 125.873 143.61 119.685 139.572C112.06 134.597 106.569 127.495 101.471 120.084C99.9761 117.913 98.5854 115.643 96.8752 113.654C94.7266 111.154 92.5172 111.254 90.5359 114.029C88.375 117.059 86.5989 120.364 84.599 123.513C77.8514 134.145 68.6086 141.646 56.6206 145.635C54.392 146.378 51.9145 147.447 49.9155 145.392C48.0072 143.433 48.8127 140.943 49.4144 138.646C49.8006 137.17 50.3508 135.73 50.8567 134.178C46.4849 133.471 42.2435 132.921 38.0646 132.079C33.4721 131.157 32.7457 129.412 35.1908 125.451C37.1972 122.201 39.384 119.058 41.6528 115.625C38.4828 114.236 35.3217 112.932 32.2288 111.488C25.7182 108.443 25.5456 106.161 31.3991 101.816C31.9158 101.435 32.3931 101.008 32.8782 100.589C34.7378 98.9718 36.5934 97.3508 38.5452 95.6467C36.8746 94.0192 35.3493 92.4948 33.7739 91.014C32.5726 89.8822 31.2753 88.8568 30.101 87.6974C26.8144 84.4572 27.1286 82.5186 31.3509 80.6123C35.252 78.8544 39.2251 77.2512 43.4488 75.4617C42.5159 74.0071 41.5838 72.6148 40.7213 71.1826C39.6918 69.4724 38.6042 67.7825 37.7448 65.9844C34.9911 60.2422 37.5031 56.0318 43.9488 55.761C52.2656 55.4141 59.9913 57.8971 67.5009 61.1536C76.3803 65.0064 82.5919 71.8263 87.7972 79.7108C92.0464 86.1488 95.1814 85.9971 99.7121 79.8248C104.182 73.7389 108.645 67.4469 114.162 62.3898C122.069 55.1401 131.848 51.2666 142.773 50.962C143.933 50.9307 145.15 51.171 146.252 51.5374C149.973 52.7788 151.124 55.1918 149.597 58.7777C147.854 62.8687 145.931 66.8843 143.916 71.2942L143.912 71.306ZM35.8402 129.128C41.1746 129.935 45.6706 130.609 50.1589 131.292C53.1692 131.749 54.1119 133.359 53.1017 136.288C52.5345 137.926 51.8893 139.543 51.4236 141.203C50.88 143.164 51.7427 143.989 53.7271 143.639C54.4417 143.513 55.1639 143.378 55.8539 143.159C63.1183 140.826 69.271 136.749 74.7744 131.485C80.3471 126.159 83.8861 119.428 88.0649 113.128C91.5065 107.94 96.1286 107.815 99.6285 112.854C104.892 120.434 110.102 128.062 117.184 134.138C123.723 139.747 131.106 143.756 139.544 145.642C143.111 146.442 144.699 144.583 143.298 141.173C142.198 138.495 140.699 135.974 139.305 133.424C137.795 130.662 137.987 129.803 140.943 128.739C145.217 127.198 149.555 125.835 153.965 124.366C153.697 123.72 153.537 123.095 153.208 122.582C151.628 120.136 149.959 117.749 148.407 115.284C144.749 109.491 143.653 110.491 150.261 106.711C153.213 105.021 156.101 103.222 159.373 101.259C154.961 97.9212 151.004 94.9276 146.882 91.8117C150.786 87.2048 154.403 82.9326 158.345 78.2785C156.586 77.6252 155.525 77.1532 154.412 76.8297C151.177 75.8852 147.883 75.1283 144.69 74.0626C141.11 72.8659 140.824 72.1498 142.318 68.6383C143.811 65.1267 145.562 61.7206 147.052 58.2053C148.201 55.4885 147.487 54.0932 144.587 53.798C142.249 53.5574 139.786 53.5871 137.496 54.062C123.792 56.9109 112.944 63.9633 105.491 76.0369C103.629 79.0513 101.475 81.9569 99.0827 84.5622C96.3528 87.5379 92.2827 89.1619 88.4856 84.6327C87.0869 82.9626 85.6801 81.2692 84.4934 79.4444C75.0048 64.8812 60.9021 59.1457 44.221 58.5324C39.4589 58.3598 38.0967 60.8382 40.3604 65.0653C41.9027 67.9438 43.7119 70.6826 45.4359 73.4614C47.017 76.0164 46.9269 76.5897 44.2875 77.7855C41.385 79.1017 38.4186 80.2864 35.4961 81.56C33.8587 82.2712 32.2572 83.0481 30.6126 83.8061C34.0406 87.1455 37.1555 90.349 40.4622 93.332C42.3478 95.0305 42.2313 96.2931 40.2753 97.6625C39.7505 98.0278 39.222 98.4047 38.7409 98.8277C35.7655 101.472 32.8059 104.132 29.6268 106.977C31.0466 107.838 32.0014 108.56 33.066 109.036C36.3928 110.516 39.7309 111.969 43.1143 113.305C44.9174 114.016 45.4428 114.943 44.2571 116.602C43.7829 117.27 43.3872 117.991 42.9325 118.671C40.7508 121.904 38.5573 125.133 35.8557 129.12L35.8402 129.128Z" fill="#DF3838"/>
<path d="M62.1497 111.47C62.0546 111.024 61.8032 110.533 61.9414 110.376C62.3212 109.938 62.8624 109.336 63.3411 109.333C70.8287 109.285 77.2264 105.808 83.7747 102.862C91.2635 99.4947 98.5777 99.5857 105.96 103.218C109.132 104.778 112.398 106.391 115.809 107.123C118.748 107.757 121.95 107.11 125.034 107.169C125.765 107.182 126.489 107.772 127.213 108.101C126.643 108.583 126.09 109.459 125.495 109.486C121.986 109.651 118.365 110.159 114.983 109.501C111.288 108.785 107.683 107.203 104.276 105.521C97.3287 102.09 90.591 102.353 83.7403 105.704C80.4716 107.301 77.1724 108.946 73.7138 109.989C70.5228 110.955 67.1083 111.173 63.783 111.67C63.2858 111.747 62.7501 111.548 62.1536 111.466L62.1497 111.47Z" fill="#DF3838"/>
<path d="M62.0474 86.5547C65.2648 86.7599 68.5519 86.6256 71.6812 87.2524C77.0306 88.3277 82.3746 89.5898 87.5492 91.3019C94.2088 93.5075 100.359 92.9877 106.514 89.6734C111.516 86.982 116.885 85.2158 122.65 85.0205C123.382 84.9949 124.166 84.8597 124.83 85.0686C125.385 85.2479 125.798 85.865 126.278 86.2866C125.847 86.6661 125.416 87.3764 124.98 87.3824C116.886 87.4849 109.79 90.8665 102.607 94.0313C98.2638 95.9431 93.8031 95.9105 89.2216 94.6224C82.6559 92.7775 76.027 91.1631 69.3907 89.5799C67.9073 89.2265 66.2691 89.5602 64.7556 89.2928C63.6791 89.1051 62.686 88.4375 61.6528 87.9846C61.783 87.5041 61.9172 87.0274 62.0473 86.5469L62.0474 86.5547Z" fill="#DF3838"/>
</g>
<defs>
<clipPath id="clip0_208_549">
<rect width="138.795" height="135.459" fill="white" transform="translate(94.5219) rotate(44.2501)"/>
</clipPath>
</defs>
</svg>
