<svg width="828" height="706" viewBox="0 0 828 706" fill="none" xmlns="http://www.w3.org/2000/svg">
<g clip-path="url(#clip0_208_29)">
<path d="M0 230.01C0.98 129.38 30.01 37.82 87.03 -44.82C108.49 -75.92 134.26 -103.26 162.59 -128.3C220.13 -179.18 286.63 -212.39 361.02 -230.4C404.31 -240.88 448.3 -244.4 492.66 -242.52C560.44 -239.64 625.01 -223.53 685.99 -193.55C737.97 -168 782.85 -133.18 822.05 -90.62C867.32 -41.47 900.13 14.85 921.22 78.1C931.41 108.68 939 139.94 941.85 172.06C943.97 195.88 946 219.88 945.37 243.73C943.37 320.06 924.58 392.15 887.46 459.19C862.92 503.51 832.18 543.15 795.44 577.83C736.46 633.51 667.28 671.2 588.6 691.08C544.49 702.23 499.64 706.67 454.15 704.64C352.9 700.12 261.92 667.14 182.36 604.47C106.62 544.8 53.52 468.75 23.48 376.92C14.18 348.5 7.51 319.41 4.21 289.71C2.01 269.89 1.35 249.91 0 230L0 230.01ZM472.61 -236.88C212.88 -239.47 -2.98 -24.63 6.76 250.36C15.2 488.57 216.29 706.02 487.22 699.27C735.86 693.07 943.35 483.99 939.9 224.62C936.46 -34.24 730.6 -236.84 472.61 -236.88Z" fill="#DF3838"/>
<path d="M472.61 -236.88C730.6 -236.84 936.47 -34.24 939.91 224.61C943.36 483.98 735.87 693.07 487.23 699.26C216.29 706.02 15.1996 488.57 6.75962 250.36C-2.98038 -24.63 212.88 -239.47 472.61 -236.88ZM906.32 229.9C905.74 8.20999 738.31 -194.39 483.44 -202.21C368.57 -205.73 265.43 -169.45 180.62 -90.37C87.7396 -3.78 40.9796 104.33 40.6796 231.69C40.1296 464.7 222.54 653.1 453.25 663.76C700.52 675.18 906.48 479.76 906.32 229.9Z" fill="#F5F5F5"/>
<path d="M906.32 229.91C906.48 479.76 700.51 675.19 453.25 663.77C222.54 653.11 40.13 464.72 40.68 231.7C40.98 104.34 87.74 -3.77 180.62 -90.37C265.43 -169.45 368.57 -205.73 483.44 -202.21C738.31 -194.39 905.74 8.22 906.32 229.9V229.91ZM900.7 231.27C899.05 -2.00002 721.52 -190.64 482.89 -196.3C227.73 -202.37 46.0699 -0.839996 46.2599 230.98C46.4599 475.84 242.54 656.74 470.6 658.65C701.86 660.58 899.04 475.69 900.69 231.26L900.7 231.27Z" fill="#DF3838"/>
<path d="M900.7 231.26C899.05 475.69 701.87 660.58 470.61 658.65C242.55 656.75 46.4697 475.84 46.2697 230.98C46.0797 -0.839996 227.73 -202.37 482.89 -196.31C721.52 -190.65 899.05 -2.00999 900.7 231.26ZM573.11 554.21C603.49 555.08 634.25 544.98 654.98 533.07C694.46 510.39 721.7 476.24 744.06 437.55C745.58 434.91 747.68 432.43 750.01 430.47C758.01 423.71 766.39 417.39 774.33 410.57C811.3 378.82 827.7 337.5 829.9 289.77C831.25 260.42 825.1 232.42 814.19 205.29C813.3 203.07 813.46 200.17 813.9 197.73C815.39 189.42 817.71 181.23 818.82 172.88C821.73 151.17 819.1 129.77 813.87 108.67C806.97 80.82 794.73 55.71 775.02 34.53C757.34 15.53 735.06 4.02 711.15 -4.78C707.48 -6.13 705.14 -7.89 703.52 -11.68C694.42 -33.01 681.25 -51.36 662.46 -65.31C633.48 -86.81 600.8 -96.94 564.81 -96.92C562.36 -96.92 559.36 -97.5 557.56 -98.97C543.24 -110.64 527.47 -119.58 509.9 -125.26C487.83 -132.4 465.2 -133.47 442.38 -130.56C426.33 -128.51 410.81 -124.49 397.33 -114.75C395.9 -113.72 393.58 -113.78 391.64 -113.59C381.56 -112.58 371.29 -112.52 361.4 -110.54C320.71 -102.4 287.08 -82.82 263.2 -48.04C262 -46.29 259.87 -44.75 257.85 -44.04C208.59 -26.68 173.07 5.16 153.93 54.29C144.79 77.77 142.79 102.35 143.22 127.25C143.28 130.87 142.72 133.81 140.23 136.81C135.78 142.16 131.85 147.98 128.04 153.83C107.08 186.04 98.4797 221.46 104.25 259.32C109.61 294.48 126.97 322.41 160.09 338.61C162.22 339.65 164.07 340.36 163.66 343.6C161.68 359.11 162.89 374.64 166.23 389.73C179.62 450.22 216.11 489.79 275.35 508.32C278.1 509.18 281.06 510.55 283.04 512.55C310.2 539.93 343.75 552.17 381.54 554.11C411.21 555.63 439.28 548.63 465.78 535.83C474.01 531.85 480.46 531.9 488.76 535.55C515.54 547.31 543.5 554.69 573.09 554.22L573.11 554.21Z" fill="#F5F5F5"/>
<path d="M573.11 554.22C543.52 554.69 515.56 547.31 488.78 535.55C480.47 531.9 474.02 531.85 465.8 535.83C439.3 548.63 411.23 555.64 381.56 554.11C343.77 552.17 310.22 539.93 283.06 512.55C281.08 510.55 278.12 509.18 275.37 508.32C216.13 489.8 179.64 450.23 166.25 389.73C162.91 374.64 161.7 359.11 163.68 343.6C164.09 340.36 162.24 339.65 160.11 338.61C126.99 322.41 109.63 294.48 104.27 259.32C98.4999 221.46 107.1 186.04 128.06 153.83C131.87 147.98 135.8 142.17 140.25 136.81C142.74 133.81 143.31 130.87 143.24 127.25C142.81 102.35 144.8 77.77 153.95 54.29C173.09 5.16003 208.61 -26.69 257.87 -44.04C259.89 -44.75 262.01 -46.29 263.22 -48.04C287.1 -82.82 320.72 -102.4 361.42 -110.54C371.31 -112.52 381.57 -112.58 391.66 -113.59C393.59 -113.78 395.91 -113.71 397.35 -114.75C410.83 -124.49 426.34 -128.51 442.4 -130.56C465.21 -133.47 487.85 -132.41 509.92 -125.26C527.49 -119.57 543.26 -110.64 557.58 -98.97C559.38 -97.5 562.38 -96.92 564.83 -96.92C600.82 -96.94 633.5 -86.81 662.48 -65.31C681.27 -51.37 694.44 -33.02 703.54 -11.68C705.16 -7.88996 707.5 -6.12997 711.17 -4.77997C735.08 4.02003 757.37 15.53 775.04 34.53C794.75 55.72 806.98 80.82 813.89 108.67C819.12 129.77 821.75 151.17 818.84 172.88C817.72 181.23 815.4 189.42 813.92 197.73C813.48 200.18 813.32 203.08 814.21 205.29C825.12 232.41 831.27 260.42 829.92 289.77C827.72 337.5 811.32 378.82 774.35 410.57C766.41 417.39 758.03 423.71 750.03 430.47C747.7 432.44 745.61 434.92 744.08 437.55C721.72 476.25 694.48 510.4 655 533.07C634.26 544.98 603.51 555.08 573.13 554.21L573.11 554.22ZM663.95 158.68C663.95 153.02 664.12 147.36 663.92 141.71C663.34 125.31 657.39 111.39 643.22 102.42C635.02 97.23 626.15 92.82 617.1 89.31C604.16 84.29 591.85 78.52 581.25 69.37C571.81 61.22 562.36 53.03 552.5 45.4C542.48 37.64 531.68 30.82 518.75 29.33C504.53 27.69 491.03 23.95 478.68 16.86C459.68 5.96002 439.99 3.47003 418.76 9.06003C393.42 15.73 368.36 22.61 345.32 35.82C322.66 48.82 307.36 67.31 299.92 92.09C290.68 122.82 281.6 153.61 273.37 184.62C269.65 198.65 270.98 212.91 277.45 226.41C284.7 241.54 297.75 249.14 312.79 254.17C322.37 257.37 329.09 263.55 333.01 272.76C335.15 277.78 337.17 282.86 338.95 288.02C347.42 312.46 368 328.38 394.6 327.04C407.27 326.4 419.88 323.78 432.43 321.58C444.59 319.45 456.83 317.02 468.92 320.44C477.62 322.9 485.91 326.93 494.23 330.6C517.99 341.05 541.12 341.38 563.43 326.75C577.46 317.55 585.84 303.93 592.93 289.21C596.09 282.65 599.55 276.16 603.61 270.14C611.33 258.69 623.14 251.79 634.14 244.03C647.51 234.6 657.09 222.36 660.86 206.26C664.52 190.64 665.44 174.71 663.96 158.7L663.95 158.68ZM704.27 421.95C723.71 410.48 742.01 398.25 755.98 380.96C777.44 354.38 785.69 322.76 787.81 289.45C789.62 261.1 781.71 234.66 769.34 209.38C757.33 184.84 739.44 164.74 721.19 144.87C705.55 127.83 691.28 110.11 681.53 88.55C654.64 29.13 610.2 -8.66998 544.15 -17.99C513.95 -22.25 484.1 -19.9 454.88 -11.38C444.03 -8.21997 433.63 -3.54997 423.02 0.430023L423.47 2.16003C440.8 -2.01996 457.31 0.240021 473.27 7.76003C475.04 8.60002 477.88 8.31003 479.81 7.52003C502.98 -2.03996 526.84 -1.89996 550.78 3.03003C561.73 5.28003 572.26 9.54002 583.03 12.73C597.03 16.88 610.32 22.37 620.53 33.29C635.37 49.17 647.6 66.8 657.04 86.5C663.04 99.02 669.06 111.94 677.49 122.8C692.16 141.69 708.76 159.09 724.46 177.19C740.57 195.78 753.77 215.9 760.71 239.99C768.93 268.49 770.44 296.8 761.86 325.32C752.92 355.03 733.33 377.03 709.91 396.21C708.26 397.56 706.39 399.58 706.11 401.51C705.15 408.05 704.87 414.68 704.27 421.96V421.95ZM532.13 26.31C538.43 30 544.23 33.54 550.19 36.78C551.79 37.65 554.1 38.38 555.7 37.9C570.47 33.43 583.24 37.91 594.94 46.57C605.95 54.71 614.26 65.46 620.85 77.25C624.56 83.89 629.46 87.95 636.06 91.22C657.45 101.81 668.94 118.9 669.08 143.21C669.1 145.99 670.29 149.15 671.89 151.47C677.25 159.27 682.74 167.02 688.73 174.34C703.52 192.39 717.26 211.14 727.69 232.08C748.21 273.29 747.08 313.33 718.55 350.42C696.48 379.11 665.69 394.75 631.06 403C620.8 405.44 609.83 404.92 599.62 407.51C587.67 410.54 576.2 415.46 564.53 419.6C563.44 419.99 562.45 420.65 560.7 421.55C564.25 422.6 566.89 423.56 569.61 424.17C592.25 429.23 614.82 427.98 637.32 423.2C677.87 414.57 711.35 394.26 736.71 361.46C757.25 334.89 764.99 304.41 761.08 271.06C758.67 250.48 753.19 230.8 743 212.62C731.26 191.66 714.95 174.27 698.91 156.71C682.96 139.24 667.57 121.46 657.12 99.91C648.86 82.89 640.61 65.84 628.14 51.25C618.79 40.32 609.31 29.95 595.72 23.85C573.95 14.09 553.01 15.5 532.15 26.34L532.13 26.31ZM696.78 452.34C712.5 446.58 726.82 439.07 740.3 429.97C764.34 413.75 786.78 395.61 801.66 370.21C825.32 329.8 829.49 286.2 819.13 241.24C811.14 206.53 797.4 173.95 779.4 143.08C766.36 120.71 754.95 97.33 737.51 77.83C731.88 71.53 725.55 65.84 719.55 59.87L718.2 60.74C718.2 68.04 717.83 75.37 718.37 82.63C718.6 85.67 720.25 88.93 722.11 91.46C727.93 99.35 734.56 106.66 740.15 114.69C762.03 146.07 777.11 180.86 790.09 216.61C800.16 244.37 805.48 272.8 802.07 302.58C798.64 332.52 786.56 358.22 766.31 380.28C748.82 399.33 728.32 414.51 705.88 427.22C704.31 428.11 702.6 429.75 702.12 431.39C700.16 438.03 698.65 444.8 696.77 452.33L696.78 452.34ZM386.65 396.46C399.98 406.2 414.02 413.21 428.77 418.91C455.7 429.31 483.36 435.03 512.09 428.83C550.51 420.53 587.05 406.99 621.16 387.16C648.82 371.08 670.14 349.26 683.54 319.97C695.59 293.63 699.04 266.66 689.94 238.69C685.46 224.94 677.9 213.04 668.41 202.12C666.04 208.53 664.09 214.65 661.49 220.49C660.34 223.08 660.27 224.85 661.74 227.24C674.37 247.77 676.33 270 671.29 293.02C665.17 320.98 648.12 341.98 625.65 358.13C590.07 383.69 550.19 400.31 507.13 408.22C473.44 414.4 441.77 407.83 412.98 388.72C411.69 387.86 409.46 387.33 408.1 387.83C401.13 390.39 394.31 393.34 386.65 396.48V396.46ZM423.72 492.32C423.61 491.81 423.49 491.3 423.38 490.79C418.8 488.91 413.97 487.47 409.69 485.04C401.04 480.14 393 479.65 383.11 482.85C359.73 490.4 335.44 490.48 311.06 488.26C272.47 484.73 240.08 469.53 215.97 438.6C202.55 421.38 193.75 401.95 192.04 380.02C191.13 368.31 190.88 356.34 192.22 344.71C193.99 329.3 196.1 313.6 200.92 298.96C204.72 287.42 208.49 276.43 208.75 264.1C208.96 253.96 211.09 243.87 212.37 233.82C212.38 233.82 212.15 233.81 212.07 233.91C209.61 237.24 207.15 240.57 204.73 243.94C172.86 288.21 161.52 337.36 172.23 390.73C186.5 461.87 246.52 503.51 310.05 509.27C335.04 511.53 359.51 508.68 383.73 503.1C397.17 500.01 410.4 495.95 423.72 492.32ZM233.83 29.94C231.25 32.96 228.44 35.98 225.94 39.23C215.71 52.54 205.88 66.17 195.32 79.22C177.74 100.94 159.13 121.84 142.02 143.91C113.59 180.57 101.86 221.88 112.06 267.89C118.67 297.71 136.09 319.83 164.46 334.92C164.19 331.06 164.72 327.83 163.63 325.3C160.17 317.27 156.16 309.49 152.25 301.66C151.07 299.3 149.74 296.96 148.12 294.9C136.1 279.67 129.78 262.31 128.99 243.03C128.02 219.38 134.42 197.43 145.37 176.69C157.06 154.55 174.22 136.52 190.07 117.51C203.79 101.04 217.4 84.47 230.86 67.79C232.25 66.07 232.83 63.33 232.94 61.03C233.4 50.78 233.55 40.5201 233.82 29.95L233.83 29.94ZM490.42 -72.26C444.24 -112.72 372.26 -120.03 314.71 -87.7C286.21 -71.69 266.29 -48.19 253.54 -18.4C243.27 5.61003 238.42 30.69 238.96 57.43C246.65 50.15 253.75 43.51 260.71 36.72C261.52 35.93 261.88 34.29 261.82 33.08C261.33 23.43 263.94 14.42 266.95 5.40002C275.97 -21.68 289.71 -45.29 313.68 -62.15C340.92 -81.31 370.86 -90.52 404.13 -87.69C423.89 -86.01 442.15 -79.18 459.49 -69.73C460.99 -68.91 462.88 -68.07 464.46 -68.27C473 -69.4 481.51 -70.85 490.43 -72.26H490.42ZM434.67 326.84C431.21 327.41 428.91 327.62 426.7 328.2C417.28 330.66 406.95 331.53 398.67 336.1C377.09 348 354.62 353.27 330.26 350.15C306.85 347.15 287.39 336.66 274.23 316.89C258.57 293.37 257.7 267.42 266.62 241.48C269.76 232.34 271.37 224.62 267.95 215.36C265.76 209.43 266.05 202.58 265.21 196C264.76 196.6 264.34 197.09 264.01 197.64C247.64 224.81 239.81 254.27 241.07 285.95C241.56 298.22 243.2 310.52 249.65 321.37C268.69 353.38 298.06 368.81 334.15 371.99C358.02 374.09 380.63 368.12 401.82 357.1C415.02 350.24 425.92 340.72 434.65 326.84H434.67ZM454.74 512.22C455.09 512.61 455.33 513.05 455.7 513.26C460.02 515.72 464.27 518.32 468.72 520.55C505.58 538.97 543.93 551.15 585.84 548.2C612.7 546.31 637.37 537.83 659.98 523.33C692.39 502.55 715.85 473.47 735.71 441.11C735.8 440.97 735.5 440.59 735.58 440.77C723.57 446.27 711.64 451.98 699.5 457.16C695.73 458.77 693.27 460.79 691.42 464.49C681.6 484.13 667.62 500.05 648.54 511.23C617.89 529.19 584.46 531.08 550.52 526.55C524.27 523.05 500.27 512.35 477.57 498.45C470.05 502.99 462.47 507.55 454.74 512.21V512.22ZM711.44 126.11C711.94 125.84 712.44 125.57 712.95 125.31C712.95 103.7 712.9 82.09 712.96 60.47C713.02 38.34 709.34 16.93 701.02 -3.63997C693.01 -23.46 682.07 -41.35 665.61 -55.28C642.44 -74.87 615.44 -85.87 585.44 -89.59C579.69 -90.3 573.85 -90.3 567.73 -90.64C573.61 -83.14 578.83 -76.29 584.32 -69.66C585.29 -68.49 587.3 -67.79 588.91 -67.61C604.59 -65.8 619.39 -61.13 632.99 -53.23C661.99 -36.39 678.35 -9.97996 686.73 21.51C692.74 44.08 692.79 67.5 693.19 90.75C693.25 94.2 692.31 98.39 693.89 100.97C699.23 109.66 705.51 117.78 711.43 126.11H711.44ZM216.59 215.22C217.04 215.12 217.48 215.02 217.93 214.91C221.78 206.57 225.7 198.26 229.41 189.86C229.95 188.64 229.68 186.94 229.42 185.52C227.13 172.99 226.6 160.36 228.32 147.77C231.08 127.47 238.27 108.65 248.86 91.16C267.28 60.74 291.95 37.84 326.6 27.04C327.77 26.67 329.1 25.8 329.7 24.78C333.45 18.41 337.01 11.94 340.97 4.92003C337.46 5.62003 334.52 6.05003 331.66 6.80003C304.19 14 279.74 26.8 258.98 46.34C218.46 84.47 199.8 130.51 209.08 186.31C210.71 196.1 214.05 205.6 216.6 215.23L216.59 215.22ZM283.99 128.37C283.17 128.59 282.95 128.57 282.86 128.68C277.98 133.9 273.01 139.04 268.24 144.36C229.39 187.7 209.43 237.68 214.89 296.56C216.96 318.87 223.54 339.7 235.58 358.67C243.21 370.68 252.4 380.32 260.1 384.51C251.83 370.64 247.66 355.71 244.5 340.48C242.99 333.19 243.1 325.47 240.84 318.46C234.64 299.2 233.55 279.64 236.15 259.84C239.32 235.71 246.89 212.86 260.29 192.53C273.22 172.91 276.4 150.13 283.99 128.37ZM699.77 403.24C696.34 405.24 693.66 407.4 690.6 408.47C682.83 411.18 680.48 416.84 678.68 424.5C670.24 460.45 649.81 486.35 613.56 497.66C588.41 505.51 562.9 505.25 537.33 499.65C525.31 497.02 513.75 490.99 500.82 495.99C497.78 497.17 493.89 496.18 490.4 496.18C489.16 496.18 487.91 496.18 486.67 496.18C488.12 498.3 489.83 499.44 491.63 500.44C527.75 520.38 566.02 527.72 606.89 520.33C670.66 508.81 696.97 459.3 699.77 403.23V403.24ZM329.43 38.51C339.05 33.1 348.72 27.71 358.33 22.21C359.55 21.51 360.68 20.42 361.47 19.25C375.49 -1.63997 394.54 -16.43 417.2 -26.83C440.12 -37.36 464.19 -44.15 489.25 -46.46C502.92 -47.72 516.84 -47.64 530.55 -46.72C541.96 -45.95 553.23 -43.08 564.95 -41.07C561.4 -46.14 557.61 -51.35 554.04 -56.7C551.48 -60.53 548.03 -62.91 543.56 -63.55C535.02 -64.77 526.48 -66.21 517.9 -66.76C496.68 -68.11 475.77 -65.36 455.09 -60.82C430.79 -55.48 407.69 -47.15 386.85 -33.16C360.15 -15.24 342.53 9.88004 329.44 38.5L329.43 38.51ZM207.79 296.71C191.75 335.34 196.82 385.45 232.02 425.74C270.36 469.63 329.72 473.44 363.13 461.42C356.1 456.61 349.15 451.81 342.13 447.12C341.24 446.53 339.96 446.35 338.85 446.31C328.27 445.9 317.45 446.85 307.14 444.98C264.6 437.28 236.23 412.82 224.14 370.94C221.22 360.83 221.1 349.94 218.78 339.61C215.43 324.71 211.25 310 207.81 296.7L207.79 296.71ZM604.71 -5.19997C590.78 -63.31 559.33 -105.11 499.87 -121.67C471.63 -129.54 417.41 -124.4 408.85 -114.15C421.06 -111.01 433.84 -107.7 446.63 -104.46C448.35 -104.02 450.23 -103.6 451.95 -103.84C466.14 -105.83 480.34 -105.29 494 -101.4C536.66 -89.27 566.1 -63.12 578.58 -19.56C579.09 -17.79 580.56 -15.7 582.14 -14.95C589.32 -11.56 596.69 -8.59996 604.71 -5.17996V-5.19997ZM464.95 436.39C454.72 433.36 444.12 431.21 434.35 427.08C421.85 421.81 409.07 419.55 395.72 419.16C377.77 418.64 359.98 416.61 342.57 412.13C312.46 404.39 288.83 388.38 275.84 359.04C275.58 358.45 275.18 357.87 274.7 357.44C266.01 349.57 257.3 341.73 249.12 334.36C249.3 335.65 249.45 338.13 250.04 340.5C251.22 345.31 252.55 350.09 253.98 354.84C264.49 389.75 285.87 414.74 320.51 427.63C337.11 433.81 354.35 436.71 371.92 438.21C398.02 440.45 424.09 440.27 450.17 438.11C455.22 437.69 460.25 436.94 464.96 436.38L464.95 436.39ZM643.27 244.61C638.45 248 633.74 251.04 629.39 254.53C628.05 255.61 626.91 257.96 627.01 259.65C627.68 270.51 626.91 281.12 623.95 291.68C615.52 321.75 591.88 340.03 561.32 340.4C554.28 340.49 547.28 342.21 540.23 342.79C533.64 343.34 526.98 343.9 520.4 343.52C506.05 342.68 493.38 336.2 480.46 330.64C476.44 328.91 472.3 327.48 468.5 326.02C464.7 333.45 461.27 340.15 457.73 347.08C485.69 343.16 512.01 348.09 537.14 360.17C538.16 360.66 539.32 361.11 540.42 361.12C550.03 361.2 559.74 362.08 569.22 360.98C588.12 358.79 605.03 351.55 618.74 337.87C635.26 321.38 644.11 301.12 646.67 278.25C647.92 267.14 647.81 255.77 643.25 244.62L643.27 244.61ZM808.92 190.76C819.04 148.84 812.88 108.93 793.69 70.98C775.78 35.57 746.11 13.92 708.93 1.00003C710.79 7.79002 712.33 14.52 714.55 21.02C715.34 23.33 717.36 25.93 719.51 26.96C733.93 33.88 746.7 42.99 757.56 54.69C777.67 76.36 786.31 103.1 790.91 131.52C792.31 140.18 792.19 149.28 794.84 157.51C798.51 168.93 804.13 179.72 808.92 190.78V190.76ZM149.29 124.37C155.09 117.5 160.61 111.5 165.45 104.98C167.91 101.66 169.69 97.57 170.82 93.57C173.73 83.24 175.21 72.43 178.85 62.39C190.23 30.9901 212.98 9.06004 240.27 -8.78996C241.79 -9.77996 243.87 -10.6 244.56 -12.04C248.52 -20.31 252.14 -28.75 256.01 -37.41C186.18 -12.84 145.48 51.93 149.3 124.38L149.29 124.37ZM534.83 429.5C527.87 431.28 522.16 432.32 516.77 434.24C512.72 435.69 508.53 437.65 505.35 440.47C498.13 446.86 491.78 454.24 484.56 460.64C453.63 488.09 416.78 502.81 376.59 510.13C366.63 511.94 356.61 513.37 346.14 515.04C347.01 515.52 347.5 515.9 348.06 516.09C376.14 525.36 404.14 524.82 432.06 515.41C463.06 504.96 488.06 485.45 510.9 462.8C520.36 453.42 528.19 442.74 534.82 429.5H534.83ZM284.31 363.42C291.59 379.03 302.45 388.56 317.5 393.13C339.42 399.79 361.2 397.78 382.7 391.13C413.53 381.59 439.17 364.81 456.49 336.86C458.8 333.14 460.49 329.03 462.94 324.17C459.69 324.17 457.59 324.23 455.5 324.17C447.82 323.93 442.4 325.66 437.15 333.07C415.19 364.05 382.82 375.84 346.36 378.06C324.9 379.37 304.51 374.53 284.31 363.44V363.42ZM393.3 332.42C379.94 332.66 369.06 329.19 358.86 323.25C357.99 322.74 356.76 322.6 355.73 322.67C349.3 323.11 342.87 324.21 336.46 324.06C319.09 323.66 304.96 316.49 295.14 302C284.79 286.72 283.86 269.44 285.47 251.75C285.65 249.75 285.81 247.2 284.79 245.75C281.97 241.75 278.52 238.21 275.21 234.36C274.76 235.18 274.32 235.88 273.99 236.63C267.34 251.93 265.51 267.8 267.84 284.31C270.41 302.58 278.49 317.61 292.92 329.15C319.97 350.77 361.6 350.09 393.3 332.42ZM422.77 -58.66C413.46 -60.14 405.1 -62.32 396.68 -62.66C366.23 -63.86 337.78 -57.1 312.2 -39.85C292.83 -26.8 276.84 -11.18 271.31 12.62C270.01 18.21 268.73 23.81 267.44 29.4C267.95 29.76 268.45 30.12 268.96 30.49C274.37 26.08 281.32 22.67 284.95 17.1C306.77 -16.38 337.27 -35.77 376.54 -41.81C382.06 -42.66 388.05 -42.19 393.08 -44.2C402.8 -48.09 411.99 -53.31 422.77 -58.65V-58.66ZM290.73 512.07C337.64 554.96 412.23 559.69 469.85 527.35C463.81 523.98 457.81 520.81 452 517.33C449.25 515.69 447.09 515.32 443.85 516.66C417.13 527.75 389.41 531.84 361.09 524.89C344.29 520.77 328.33 513.03 310.39 514.58C310.23 514.59 310.06 514.51 309.9 514.49C303.86 513.72 297.81 512.95 290.72 512.06L290.73 512.07ZM670.6 352.94C684.18 343.89 695.43 332.79 703.61 318.73C716.83 296.02 720.72 271.56 716.98 245.81C714.31 227.43 708.99 209.9 697.68 194.77C692.21 187.45 686.24 180.5 680.64 173.27C677.26 168.91 674.17 164.34 670.95 159.86C670.5 159.96 670.04 160.07 669.59 160.17C669.59 170.95 669.55 181.73 669.64 192.51C669.65 193.84 670.09 195.37 670.84 196.45C672.45 198.76 674.43 200.81 676.21 203C698.94 230.99 705.31 262.65 697.06 297.44C692.23 317.8 682.65 335.96 670.6 352.92V352.94ZM372.22 15.93C378.02 14.16 383.74 11.97 389.65 10.73C398.29 8.92003 405.44 4.39003 412.9 0.0600281C421.88 -5.15997 431.24 -9.96996 440.92 -13.7C461.68 -21.7 483.52 -25.12 505.66 -25.37C519.89 -25.53 534.17 -24.18 548.36 -22.84C556.6 -22.06 564.72 -19.97 573.54 -18.36C572.33 -22.1 571.71 -25.61 570.07 -28.56C568.76 -30.92 566.49 -33.79 564.15 -34.35C552.1 -37.21 539.99 -40.7 527.73 -41.56C491.06 -44.14 455.78 -37.49 422 -22.85C402.11 -14.23 385.58 -1.33997 372.22 15.91V15.93ZM325.76 34.5C325.31 34.17 324.86 33.84 324.4 33.51C259.87 55.33 223.45 134.38 234.9 179.12C240.31 171.28 245.89 163.68 250.91 155.74C253.15 152.2 255.08 148.11 255.79 144.03C260.44 117.25 272.55 94.2701 292.21 75.89C300.46 68.18 308.88 60.86 315.22 51.5C318.96 45.99 322.26 40.18 325.76 34.51V34.5ZM210.65 102.19C207.09 106.27 202.81 110.91 198.84 115.81C184.79 133.1 169.52 149.58 157.18 168.02C138.65 195.7 129.52 226.37 136.99 260.18C138.98 269.16 142.53 277.49 148.51 285.71C146.69 263.49 147.54 242.6 153.68 222.03C162.3 193.19 177.07 167.98 196.95 145.55C199.22 142.99 201.75 140.1 202.58 136.94C205.66 125.31 208.08 113.51 210.65 102.2V102.19ZM165.59 318.16C167.57 310.79 168.88 303.91 171.31 297.46C173.81 290.83 173.61 284.36 173.39 277.47C173.02 266.21 173.21 254.8 174.68 243.65C177.71 220.7 187.65 200.33 200.09 181.05C201.32 179.14 201.87 176.44 201.84 174.12C201.74 166.23 201.24 158.35 200.9 150.51C200.99 150.49 200.55 150.45 200.39 150.64C196.77 154.98 193.03 159.23 189.61 163.72C162.57 199.2 148.97 238.75 154.02 283.71C155.38 295.79 158.94 307.31 165.61 318.17L165.59 318.16ZM426.96 377.68C439.08 376.21 452.36 374.4 465.68 373.04C492.25 370.33 516.64 376.52 538.83 391.44C540.19 392.36 542.41 393.25 543.74 392.77C551.29 390.06 558.7 386.94 567.18 383.55C561.24 379.86 556.29 376.63 551.2 373.65C523.34 357.36 493.8 347.95 461.08 352.29C457.32 352.79 452.89 353.5 450.19 355.78C441.89 362.82 434.27 370.68 426.96 377.67V377.68ZM686.15 82.6C687.84 29.63 651.58 -26.62 596.42 -47.73C599.11 -40.58 601.68 -33.29 604.64 -26.16C605.52 -24.05 607.17 -21.91 609.04 -20.61C628.33 -7.25997 643.45 9.56003 653.15 31.09C654.43 33.92 656.24 36.59 658.2 39.02C668.68 51.98 678.07 65.62 684.93 80.88C685.15 81.36 685.55 81.76 686.15 82.6ZM549.89 466.68C552.69 467.72 555.45 468.85 558.28 469.76C582.08 477.37 606.15 480.09 630.82 474.17C647.18 470.24 659.6 461.65 665.88 445.6C668.58 438.69 670.78 431.58 673.02 424.5C673.72 422.28 673.81 419.86 674.22 417.26C667.54 418.8 663.43 421.83 660.64 427.7C654.78 440.01 644.53 447.73 631.75 452.11C609.25 459.82 586.71 458.57 564.29 451.83C561.15 450.89 559.98 451.53 558.46 454.11C556.03 458.25 553.07 462.08 549.9 466.68H549.89ZM552.42 368.62C558.11 371.97 564.2 375.34 570.03 379.11C572.43 380.66 574.29 380.68 576.81 379.58C601.19 368.87 623.72 355.59 642.02 335.7C664.62 311.12 672.43 282.65 665.78 250.15C664.3 242.93 661.61 235.99 656.84 229.69C653.95 232.97 651.32 235.74 649 238.73C648.36 239.55 648.17 241.22 648.53 242.23C654.21 258.03 654.58 274.14 650.9 290.3C642.64 326.56 622.01 352.17 585.6 362.94C574.98 366.08 563.65 366.78 552.43 368.64L552.42 368.62ZM196.51 371.85C196.3 371.89 196.09 371.94 195.87 371.98C197.03 378.75 197.69 385.65 199.41 392.27C213.87 447.84 259.48 479.48 313.31 482.96C328.98 483.98 344.85 483.09 360.55 481.93C369.67 481.25 378.62 478.29 387.64 476.36C383.07 472.49 378.52 470.17 374.18 467.51C371.41 465.82 368.93 465.59 365.78 466.57C342.51 473.83 318.75 475.73 295.06 469.76C252.31 458.99 221.75 433.2 204 392.69C201.04 385.94 198.99 378.81 196.51 371.85ZM777.95 357.44C777.45 357.62 777.8 357.61 777.93 357.43C778.59 356.48 779.24 355.51 779.8 354.5C797.18 323.15 801.85 289.87 794.62 254.89C784.48 205.82 763.07 161.55 736.25 119.69C731.14 111.72 724.95 104.44 718.97 96.46C718.97 107.5 718.7 117.62 719.12 127.71C719.26 131.15 720.38 135.03 722.33 137.81C725.56 142.4 729.84 146.25 733.66 150.43C753.35 172.03 770.66 195.12 781.37 222.74C793.43 253.85 798.1 285.53 789.8 318.27C786.41 331.63 781.85 344.69 777.96 357.46L777.95 357.44ZM291.53 251.48C290.14 261.89 290.68 272.09 292.98 282.16C299.99 312.89 329.11 321.7 350.61 316.54C342.35 309.07 337.43 299.76 333.3 289.95C330.92 284.31 328.5 278.69 326.16 273.03C323.58 266.79 318.71 262.99 312.73 260.42C305.91 257.48 299.05 254.65 291.53 251.48ZM533.91 396.21C533.47 395.56 533.35 395.22 533.11 395.04C532.31 394.44 531.51 393.85 530.65 393.34C514.66 383.83 497.37 377.95 478.76 378.4C463.54 378.77 448.36 381.05 433.18 382.63C428.15 383.15 423.16 384.14 418.16 384.91C455.02 407.87 493.64 409.53 533.91 396.21ZM333.54 441.41C333.8 440.96 334.05 440.5 334.31 440.05C331.23 438.35 328.31 436.19 325.04 435.04C311.02 430.09 297.76 423.72 286.3 414.15C276.03 405.56 267.08 395.4 255.1 388.87C252.54 387.47 250.31 385.23 248.33 383.02C240.9 374.68 233.63 366.18 226.92 358.46C235.26 414.51 284.39 444.58 333.53 441.43L333.54 441.41ZM716.75 33.38C717.15 38.14 717.85 42.75 717.81 47.34C717.78 50.85 719.13 53.02 721.62 55.36C729.5 62.74 737.57 70.02 744.63 78.16C759.84 95.68 771.13 115.84 782.07 136.18C783.44 138.73 784.83 141.28 786.61 144.57C789.31 102.89 751.8 43.49 716.75 33.38ZM708.1 325.41C707.66 325.32 707.22 325.23 706.78 325.13C706.31 325.7 705.8 326.25 705.37 326.85C696.63 338.92 686.78 349.93 674.23 358.15C667.86 362.32 661.01 365.76 654.71 370.02C643.58 377.53 632.77 385.49 621.69 393.07C617.64 395.84 613.2 398.06 608.2 400.97C609.72 401.07 610.22 401.19 610.71 401.13C640.56 397.79 667.61 387.23 691.4 368.93C698.23 363.68 706.59 359.09 706.74 348.39C706.85 340.72 707.64 333.07 708.12 325.4L708.1 325.41ZM343.31 440.39C346.71 442.9 349.44 445 352.26 446.97C376.02 463.56 401.28 477.28 428.86 486.43C430.72 487.05 433.31 487.17 434.97 486.34C442.04 482.81 448.88 478.84 456.58 474.6C453.93 473.92 452.34 473.49 450.74 473.12C431.74 468.76 413.6 462.09 397.03 451.75C389.73 447.2 382.53 443.7 373.63 443.42C363.79 443.1 354 441.52 343.31 440.39ZM398.5 445.57C416.31 456.68 435.25 464.28 455.62 468.18C460.17 469.05 464.66 470.36 468.78 466.59C478.72 457.5 488.81 448.59 498.8 439.55C499.65 438.78 500.13 437.61 500.79 436.62C500.6 436.2 500.41 435.77 500.22 435.35C466.8 443.7 432.89 446.58 398.51 445.57H398.5ZM307.25 -46.66C310.09 -47.42 313.22 -47.64 315.71 -49.02C335.11 -59.74 355.7 -66.48 377.85 -68.27C394.43 -69.61 410.64 -68.33 426.24 -62.03C428.02 -61.31 430.18 -60.49 431.91 -60.87C438.2 -62.25 444.38 -64.12 451.3 -65.99C403.58 -93.54 342.35 -83.7 307.25 -46.66ZM639.43 477.63C632.86 479.13 626.37 481.11 619.72 482.05C595.28 485.5 571.77 481.4 549.01 472.41C546.16 471.28 544.72 472.1 542.59 473.85C536.84 478.59 530.74 482.92 524.79 487.42C523.98 488.03 523.22 488.7 521.94 489.73C563.4 502.17 602.88 503.31 639.43 477.62V477.63ZM490.37 489.99C497.11 490.84 504.34 490.57 511.43 487.58C526.55 481.21 538.47 470.86 548.58 458.23C555.75 449.27 559.82 438.94 561.93 427.7C559.61 426.81 557.62 426.05 555.62 425.29C549.54 422.98 543.76 425.65 540.23 431.18C533.37 441.91 526.83 453.02 518.61 462.66C510.09 472.65 499.73 481.07 490.36 490L490.37 489.99ZM656.62 423.94C626.79 433.51 597.41 436.15 567.77 429.97C566.07 435.67 564.62 440.53 563.08 445.69C585.62 452.85 608.02 454.44 630.51 446.19C641.62 442.11 650.62 435.45 656.62 423.95V423.94ZM177.48 91.72C180.71 88.05 183.46 85.22 185.88 82.13C200.01 64.11 214.03 45.99 228.18 27.99C230.74 24.74 234.9 22.26 236.26 18.65C238.8 11.93 239.84 4.63002 241.68 -3.15997C207.55 20.07 183.3 49.03 177.47 91.72H177.48ZM179.02 276C188.39 256.34 199.92 239.68 212.85 223.94C213.56 223.08 213.12 220.93 212.69 219.54C210.28 211.82 207.64 204.18 205.23 196.47C204.39 193.79 203.97 190.97 203.22 187.54C185.47 214.51 176.57 242.95 179.02 276ZM294.4 14.05C308.68 7.37003 323.32 2.31004 338.72 -0.399963C342.46 -1.05997 345.76 -1.34998 348.64 -4.81998C354.68 -12.08 361.36 -18.83 368.11 -25.45C372.43 -29.69 377.35 -33.33 382.2 -37.4C345.76 -32.08 315.75 -16.32 294.39 14.05H294.4ZM620.51 260.37C616.75 264.18 612.8 267.03 610.42 270.85C604.57 280.25 599.02 289.89 594.12 299.82C587.39 313.45 578.21 324.63 565.15 332.52C564.12 333.14 563.19 333.93 561.7 335.01C597.41 335.78 627.43 297.86 620.52 260.37H620.51ZM713.46 346.6C742.28 309.38 741.18 267.36 721.13 233.75C722.06 239.91 723.4 245.91 723.82 251.97C725.31 273.7 721.84 294.63 712.85 314.57C712.39 315.6 711.93 316.78 711.98 317.87C712.4 327.28 712.93 336.68 713.46 346.6ZM539.08 -71.22C522.36 -87.18 485.43 -102.35 461.55 -98.18C474.92 -91.82 487.14 -84.35 497.7 -74.31C498.91 -73.16 501.32 -73 503.2 -72.89C515.28 -72.24 527.36 -71.74 539.08 -71.21V-71.22ZM557.8 10.68C534.09 3.76003 499.5 4.42003 484.1 13.96C493.76 17.1 503.52 19.96 513.43 22.07C517.82 23.01 522.9 23.62 527.02 22.32C537.77 18.93 548.16 14.41 557.8 10.68ZM617.24 82.29C613.6 76.83 610.5 71.75 606.96 66.99C599 56.26 589.54 47.34 576.23 43.7C571.03 42.28 565.69 41.02 559.6 43.5C578.05 57.71 592.94 75.92 617.24 82.29ZM262.91 141.06C268.1 135.72 273.04 130.1 278.56 125.13C284.29 119.98 287.92 114.16 289.62 106.48C291.78 96.74 295.26 87.29 298.29 77.31C280.31 95.19 267.59 115.66 262.9 141.06H262.91ZM327.28 401.16C338.9 407.73 382.07 414.93 401.62 413.57C394.43 408.59 387.6 403.77 380.64 399.14C379.76 398.55 378.22 398.79 377 398.91C365.97 399.97 354.97 401.35 343.93 402.06C338.54 402.4 333.07 401.52 327.28 401.16ZM589.72 -61.6C593.52 -55.73 644 -28.47 656.85 -24.95C639.51 -46.1 616.89 -57.26 589.72 -61.6ZM650.13 -20.68C656.02 -13.02 662.59 -5.47997 667.99 2.82004C673.47 11.24 677.81 20.41 683.11 30.11C680.59 17.69 676.2 6.98004 671.36 -3.72997C666.92 -13.55 659.14 -17.95 650.13 -20.67V-20.68ZM639.22 18.47C631.48 5.87003 621.1 -3.98996 608.75 -12.23C609.73 -7.85996 610.45 -2.71997 613.4 -0.229965C621.46 6.57004 630.46 12.25 639.22 18.47ZM292.66 -33.82C292.95 -33.49 293.25 -33.17 293.54 -32.84C296.72 -35.42 299.9 -38 303.08 -40.58C297.27 -41.18 295.83 -36.44 292.66 -33.82Z" fill="#DF3838"/>
<path d="M663.94 158.67C665.42 174.68 664.5 190.61 660.84 206.23C657.07 222.33 647.49 234.57 634.12 244C623.12 251.76 611.31 258.66 603.59 270.11C599.53 276.13 596.07 282.63 592.91 289.18C585.82 303.9 577.45 317.52 563.41 326.72C541.1 341.35 517.97 341.02 494.21 330.57C485.89 326.91 477.6 322.88 468.9 320.41C456.82 316.99 444.57 319.43 432.41 321.55C419.86 323.75 407.25 326.37 394.58 327.01C367.98 328.35 347.4 312.43 338.93 287.99C337.14 282.84 335.12 277.75 332.99 272.73C329.07 263.52 322.35 257.35 312.77 254.14C297.72 249.11 284.68 241.51 277.43 226.38C270.96 212.89 269.63 198.62 273.35 184.59C281.58 153.58 290.66 122.79 299.9 92.06C307.35 67.28 322.65 48.78 345.3 35.79C368.34 22.58 393.4 15.7 418.74 9.03C439.97 3.44 459.67 5.92999 478.66 16.83C491.02 23.92 504.52 27.66 518.73 29.3C531.66 30.79 542.46 37.62 552.48 45.37C562.34 53 571.78 61.19 581.23 69.34C591.83 78.49 604.14 84.26 617.08 89.28C626.13 92.79 635 97.2 643.2 102.39C657.37 111.37 663.32 125.29 663.9 141.68C664.1 147.33 663.93 152.99 663.93 158.65L663.94 158.67ZM461.7 175.01C462.22 174.99 462.74 174.97 463.26 174.96C463.49 176.25 463.9 177.53 463.93 178.83C464.02 182.33 463.93 185.83 463.95 189.33C464.11 209.92 472.87 226.13 489.21 238.32C501.64 247.6 515.91 252.06 531.21 253.55C546.71 255.06 562.08 253.76 577.4 251.41C581.23 250.82 582.47 248.5 581.81 245.02C578.12 225.77 571.66 207.64 559.87 191.72C549.59 177.84 537.75 165.83 520.21 161.74C513.35 160.14 506.19 159.77 498.65 158.77C499.38 158.1 499.79 157.64 500.28 157.29C512 148.9 518.89 137.26 522.95 123.69C527.69 107.85 527.03 91.82 524.48 75.79C523.37 68.78 522.05 61.71 519.84 55C516.91 46.09 510.58 43.28 501.47 44.77C492.17 46.3 485.08 51.52 477.99 57.09C464.38 67.78 451.91 79.28 446.17 96.38C441.8 109.4 439.88 122.68 441.35 137.46C440.28 136.14 439.87 135.7 439.53 135.22C428.36 119.51 412.16 112.69 393.85 111.37C368.3 109.53 344.63 116.66 322.68 129.63C317.9 132.45 316.95 136.11 320.75 140.26C332.76 153.37 344.16 167.27 357.57 178.8C383.27 200.89 422.76 201.45 448.36 181.38C450.05 180.05 451.82 178.83 454.44 176.91C449.67 186.75 445.43 195.52 441.19 204.28C440.54 205.62 439.59 206.93 439.37 208.35C439.1 210.14 439.44 212.01 439.51 213.85C441.04 212.91 442.97 212.28 444.01 210.95C445.62 208.89 446.72 206.4 447.86 204.01C452.5 194.35 457.08 184.67 461.68 174.99L461.7 175.01ZM389.7 41.4C389.39 40.98 389.08 40.55 388.78 40.13C380.26 41.61 373.6 46.33 368.05 52.85C367.53 53.46 367.7 55.02 368.11 55.88C368.3 56.28 370.13 56.46 370.69 56.03C377.09 51.23 383.38 46.29 389.7 41.39V41.4ZM384.94 279.46C384.92 276.23 380.82 270.78 378.87 271.95C377.05 273.04 375.21 276.12 375.44 278.08C375.73 280.53 377.7 284.06 379.72 284.7C382.05 285.44 385.15 283.48 384.94 279.45V279.46ZM630.14 138.41C630.7 138.1 631.25 137.79 631.81 137.48C632.18 130.81 625.02 120.87 617.32 119.26C621.59 125.65 625.86 132.03 630.13 138.42L630.14 138.41ZM558.7 139.25C558.67 138.54 558.64 137.83 558.6 137.11C556.59 135.92 554.6 133.87 552.58 133.84C551.13 133.82 548.46 136.49 548.44 137.99C548.4 140.61 549.76 143.93 553.5 142.99C555.42 142.51 556.98 140.54 558.7 139.24V139.25ZM412.55 243.54C413.43 244.26 414.49 245.82 415.78 246.04C418.42 246.49 422.45 241.73 421.72 238.84C421.43 237.7 419.34 236.42 417.94 236.26C413.33 235.72 413.51 239.51 412.54 243.53L412.55 243.54ZM362.46 221.94L360.42 221.81C359.21 223.55 357.36 225.15 356.94 227.07C356.22 230.34 358.65 232.34 361.55 231.91C363.17 231.67 365.6 229.19 365.63 227.69C365.66 225.79 363.62 223.85 362.47 221.93L362.46 221.94ZM597.93 172.28C600.8 174.47 602.64 176.92 604.16 176.74C605.83 176.54 608.72 173.44 608.41 172.44C607.76 170.38 605.57 168.42 603.52 167.41C602.85 167.08 600.67 169.83 597.94 172.28H597.93ZM441.33 48.9C443.31 46.34 445.18 44.81 445.66 42.91C445.89 42.02 442.85 39.16 442.34 39.4C440.03 40.5 438.08 42.39 436.01 43.99C437.42 45.29 438.82 46.59 441.32 48.9H441.33ZM473.51 285.26C475.55 282.21 477.56 280.47 477.64 278.65C477.7 277.32 475.21 275.88 473.86 274.49C472.31 276.31 470.38 277.96 469.44 280.06C469.13 280.76 471.36 282.6 473.52 285.27L473.51 285.26ZM323.57 193.57C321.1 191.16 319.61 189.71 318.11 188.25C316.51 190.08 314.5 191.74 313.55 193.86C313.25 194.54 315.95 197.73 316.92 197.57C318.92 197.24 320.68 195.43 323.56 193.57H323.57ZM635.57 174.33C630.33 173.83 629.56 176.59 629.56 179.25C629.56 180.56 631.22 181.86 632.12 183.17C634.09 181.51 636.39 180.07 637.81 178.03C638.21 177.45 636.04 175.08 635.56 174.33H635.57ZM519.76 293.39C522.74 295.61 524.33 297.63 526.12 297.81C527.24 297.92 529.93 294.91 529.65 293.94C529.11 292.08 527.21 290.19 525.4 289.31C524.66 288.95 522.66 291.21 519.77 293.38L519.76 293.39ZM419.76 83.64C417 82 415 80.02 414.09 80.43C412.35 81.22 410.61 83.21 410.13 85.03C409.87 86 412.9 89.01 413.33 88.8C415.32 87.84 416.91 86.07 419.76 83.64ZM332.96 90.85C334.83 88.26 336.9 86.61 336.65 85.45C336.31 83.83 334.23 82.57 332.9 81.16C331.59 82.4 329.24 83.62 329.23 84.87C329.22 86.46 331.1 88.06 332.95 90.85H332.96ZM563.53 101.11C565.28 98.8 566.81 97.58 567.06 96.13C567.22 95.22 565.45 93.98 564.55 92.89C563.35 93.94 561.56 94.8 561.15 96.1C560.84 97.1 562.28 98.64 563.53 101.11Z" fill="#F5F5F5"/>
<path d="M704.27 421.95C704.87 414.68 705.15 408.04 706.11 401.5C706.39 399.57 708.26 397.55 709.91 396.2C733.33 377.02 752.92 355.02 761.86 325.31C770.44 296.79 768.92 268.47 760.71 239.98C753.76 215.89 740.57 195.77 724.46 177.18C708.76 159.07 692.17 141.68 677.49 122.79C669.06 111.93 663.03 99.01 657.04 86.49C647.6 66.79 635.37 49.16 620.53 33.28C610.32 22.36 597.04 16.87 583.03 12.72C572.26 9.52998 561.73 5.26998 550.78 3.01998C526.84 -1.91002 502.98 -2.05003 479.81 7.50997C477.89 8.29997 475.05 8.57998 473.27 7.74998C457.31 0.229975 440.81 -2.03003 423.47 2.14997L423.02 0.419973C433.63 -3.56003 444.03 -8.23002 454.88 -11.39C484.1 -19.91 513.95 -22.26 544.15 -18C610.2 -8.67002 654.64 29.12 681.53 88.54C691.28 110.1 705.55 127.82 721.19 144.86C739.44 164.74 757.33 184.83 769.34 209.37C781.71 234.65 789.61 261.09 787.81 289.44C785.69 322.76 777.44 354.38 755.98 380.95C742.02 398.24 723.72 410.48 704.27 421.94V421.95Z" fill="#F5F5F5"/>
<path d="M532.12 26.31C552.98 15.48 573.92 14.06 595.69 23.82C609.28 29.92 618.76 40.29 628.11 51.22C640.59 65.81 648.84 82.86 657.09 99.88C667.55 121.43 682.93 139.21 698.88 156.68C714.92 174.24 731.22 191.63 742.97 212.59C753.16 230.78 758.64 250.45 761.05 271.03C764.96 304.38 757.21 334.86 736.68 361.43C711.33 394.23 677.84 414.54 637.29 423.17C614.79 427.96 592.22 429.2 569.58 424.14C566.86 423.53 564.22 422.57 560.67 421.52C562.42 420.62 563.41 419.96 564.5 419.57C576.17 415.43 587.64 410.51 599.59 407.48C609.79 404.9 620.77 405.42 631.03 402.97C665.66 394.72 696.45 379.09 718.52 350.39C747.05 313.3 748.19 273.26 727.66 232.05C717.23 211.11 703.49 192.36 688.7 174.31C682.71 166.99 677.22 159.24 671.86 151.44C670.26 149.11 669.07 145.96 669.05 143.18C668.91 118.87 657.42 101.78 636.03 91.19C629.43 87.92 624.53 83.87 620.82 77.22C614.23 65.43 605.92 54.69 594.91 46.54C583.21 37.89 570.43 33.41 555.67 37.87C554.07 38.35 551.76 37.62 550.16 36.75C544.2 33.5 538.4 29.97 532.1 26.28L532.12 26.31Z" fill="#F5F5F5"/>
<path d="M696.78 452.33C698.66 444.8 700.17 438.03 702.13 431.39C702.61 429.76 704.32 428.11 705.89 427.22C728.33 414.52 748.83 399.34 766.32 380.28C786.57 358.22 798.65 332.52 802.08 302.58C805.5 272.8 800.18 244.37 790.1 216.61C777.12 180.86 762.04 146.07 740.16 114.69C734.56 106.66 727.93 99.35 722.12 91.46C720.26 88.93 718.6 85.67 718.38 82.63C717.84 75.37 718.21 68.04 718.21 60.74L719.56 59.87C725.57 65.84 731.89 71.52 737.52 77.83C754.95 97.33 766.36 120.7 779.41 143.08C797.41 173.95 811.15 206.53 819.14 241.24C829.5 286.2 825.33 329.8 801.67 370.21C786.8 395.62 764.35 413.75 740.31 429.97C726.83 439.07 712.51 446.58 696.79 452.34L696.78 452.33Z" fill="#F5F5F5"/>
<path d="M386.65 396.45C394.3 393.32 401.13 390.37 408.1 387.8C409.46 387.3 411.68 387.83 412.98 388.69C441.77 407.8 473.44 414.37 507.13 408.19C550.2 400.28 590.07 383.66 625.65 358.1C648.13 341.95 665.17 320.95 671.29 292.99C676.33 269.97 674.37 247.74 661.74 227.21C660.27 224.82 660.34 223.05 661.49 220.46C664.08 214.62 666.04 208.5 668.41 202.09C677.9 213.01 685.46 224.91 689.94 238.66C699.04 266.63 695.6 293.6 683.54 319.94C670.14 349.23 648.82 371.05 621.16 387.13C587.05 406.96 550.51 420.5 512.09 428.8C483.37 435 455.7 429.28 428.77 418.88C414.02 413.19 399.98 406.17 386.65 396.43V396.45Z" fill="#F5F5F5"/>
<path d="M423.72 492.31C410.4 495.93 397.18 499.99 383.73 503.09C359.5 508.67 335.04 511.52 310.05 509.26C246.52 503.51 186.5 461.86 172.23 390.72C161.52 337.35 172.87 288.2 204.73 243.93C207.15 240.57 209.61 237.24 212.07 233.9C212.15 233.8 212.38 233.81 212.37 233.81C211.1 243.86 208.96 253.96 208.75 264.09C208.5 276.42 204.72 287.41 200.92 298.95C196.1 313.59 193.99 329.28 192.22 344.7C190.88 356.33 191.13 368.3 192.04 380.01C193.75 401.94 202.55 421.37 215.97 438.59C240.07 469.52 272.47 484.73 311.06 488.25C335.44 490.48 359.74 490.4 383.11 482.84C393 479.64 401.04 480.13 409.69 485.03C413.97 487.45 418.8 488.89 423.38 490.78C423.49 491.29 423.61 491.8 423.72 492.31Z" fill="#F5F5F5"/>
<path d="M233.83 29.94C233.56 40.5 233.41 50.77 232.95 61.02C232.85 63.32 232.26 66.07 230.87 67.78C217.4 84.46 203.8 101.03 190.08 117.5C174.23 136.52 157.07 154.54 145.38 176.68C134.43 197.42 128.03 219.37 129 243.02C129.79 262.31 136.1 279.67 148.13 294.89C149.76 296.95 151.08 299.29 152.26 301.65C156.17 309.47 160.18 317.26 163.64 325.29C164.73 327.82 164.19 331.05 164.47 334.91C136.1 319.82 118.68 297.7 112.07 267.88C101.87 221.87 113.6 180.56 142.03 143.9C159.14 121.83 177.75 100.93 195.33 79.21C205.89 66.17 215.72 52.53 225.95 39.22C228.45 35.97 231.26 32.95 233.84 29.93L233.83 29.94Z" fill="#F5F5F5"/>
<path d="M490.42 -72.26C481.5 -70.85 473 -69.4 464.45 -68.27C462.88 -68.06 460.98 -68.91 459.48 -69.73C442.14 -79.18 423.88 -86.01 404.12 -87.69C370.85 -90.52 340.92 -81.32 313.67 -62.15C289.71 -45.29 275.96 -21.69 266.94 5.40002C263.94 14.42 261.32 23.43 261.81 33.08C261.87 34.29 261.51 35.93 260.7 36.72C253.74 43.51 246.64 50.15 238.95 57.43C238.41 30.69 243.25 5.61003 253.53 -18.4C266.28 -48.19 286.2 -71.69 314.7 -87.7C372.25 -120.03 444.23 -112.72 490.41 -72.26H490.42Z" fill="#F5F5F5"/>
<path d="M434.68 326.84C425.95 340.72 415.05 350.23 401.85 357.1C380.66 368.12 358.04 374.09 334.18 371.99C298.08 368.81 268.72 353.38 249.68 321.37C243.23 310.52 241.58 298.22 241.1 285.95C239.84 254.27 247.67 224.81 264.04 197.64C264.37 197.09 264.8 196.61 265.24 196C266.08 202.58 265.79 209.42 267.98 215.36C271.4 224.62 269.79 232.34 266.65 241.48C257.73 267.42 258.6 293.37 274.26 316.89C287.42 336.66 306.88 347.15 330.29 350.15C354.66 353.27 377.12 348.01 398.7 336.1C406.98 331.53 417.31 330.66 426.73 328.2C428.94 327.62 431.24 327.42 434.7 326.84H434.68Z" fill="#F5F5F5"/>
<path d="M454.75 512.22C462.48 507.56 470.06 502.99 477.58 498.46C500.28 512.36 524.28 523.06 550.53 526.56C584.47 531.08 617.9 529.2 648.55 511.24C667.63 500.06 681.61 484.13 691.43 464.5C693.28 460.8 695.73 458.78 699.51 457.17C711.66 451.99 723.58 446.28 735.59 440.78C735.51 440.6 735.81 440.98 735.72 441.12C715.86 473.48 692.39 502.55 659.99 523.34C637.38 537.84 612.71 546.32 585.85 548.21C543.94 551.16 505.59 538.98 468.73 520.56C464.29 518.34 460.04 515.73 455.71 513.27C455.34 513.06 455.1 512.62 454.75 512.23V512.22Z" fill="#F5F5F5"/>
<path d="M711.45 126.1C705.53 117.76 699.25 109.65 693.91 100.96C692.32 98.38 693.27 94.2 693.21 90.74C692.81 67.49 692.76 44.07 686.75 21.5C678.37 -9.99003 662.01 -36.4 633.01 -53.24C619.41 -61.14 604.61 -65.81 588.93 -67.62C587.32 -67.81 585.31 -68.5 584.34 -69.67C578.85 -76.3 573.63 -83.16 567.75 -90.65C573.87 -90.31 579.71 -90.31 585.46 -89.6C615.46 -85.88 642.46 -74.88 665.63 -55.29C682.1 -41.36 693.03 -23.47 701.04 -3.65002C709.36 16.92 713.04 38.33 712.98 60.46C712.92 82.07 712.97 103.68 712.97 125.3C712.47 125.57 711.97 125.84 711.46 126.1H711.45Z" fill="#F5F5F5"/>
<path d="M216.6 215.21C214.05 205.58 210.71 196.08 209.08 186.29C199.8 130.49 218.45 84.46 258.98 46.32C279.74 26.78 304.19 13.98 331.66 6.78003C334.52 6.03003 337.46 5.60002 340.97 4.90002C337.02 11.92 333.45 18.4 329.7 24.76C329.1 25.78 327.77 26.66 326.6 27.02C291.95 37.82 267.28 60.72 248.86 91.14C238.27 108.63 231.09 127.45 228.32 147.75C226.61 160.34 227.14 172.97 229.42 185.5C229.68 186.91 229.95 188.62 229.41 189.84C225.7 198.24 221.79 206.55 217.93 214.89C217.48 214.99 217.04 215.09 216.59 215.2L216.6 215.21Z" fill="#F5F5F5"/>
<path d="M283.99 128.36C276.41 150.12 273.23 172.9 260.29 192.52C246.89 212.85 239.32 235.71 236.15 259.83C233.55 279.63 234.64 299.19 240.84 318.45C243.1 325.45 242.99 333.18 244.5 340.47C247.66 355.7 251.83 370.63 260.1 384.5C252.4 380.31 243.21 370.67 235.58 358.66C223.54 339.69 216.96 318.86 214.89 296.55C209.43 237.67 229.39 187.69 268.24 144.35C273.01 139.03 277.98 133.89 282.86 128.67C282.96 128.57 283.17 128.58 283.99 128.36Z" fill="#F5F5F5"/>
<path d="M699.77 403.23C696.97 459.3 670.66 508.81 606.89 520.33C566.02 527.71 527.75 520.37 491.63 500.44C489.83 499.45 488.12 498.3 486.67 496.18C487.91 496.18 489.16 496.18 490.4 496.18C493.9 496.18 497.78 497.17 500.82 495.99C513.76 490.99 525.32 497.01 537.33 499.65C562.9 505.25 588.41 505.5 613.56 497.66C649.81 486.35 670.24 460.46 678.68 424.5C680.48 416.83 682.82 411.18 690.6 408.47C693.66 407.4 696.33 405.25 699.77 403.24V403.23Z" fill="#F5F5F5"/>
<path d="M329.43 38.51C342.53 9.89001 360.14 -15.23 386.84 -33.15C407.69 -47.14 430.78 -55.47 455.08 -60.81C475.76 -65.35 496.67 -68.1 517.89 -66.75C526.48 -66.2 535.02 -64.76 543.55 -63.54C548.02 -62.9 551.47 -60.52 554.03 -56.69C557.6 -51.34 561.39 -46.13 564.94 -41.06C553.22 -43.07 541.95 -45.94 530.54 -46.71C516.83 -47.63 502.91 -47.72 489.24 -46.45C464.18 -44.14 440.11 -37.35 417.19 -26.82C394.53 -16.41 375.47 -1.62999 361.46 19.26C360.67 20.43 359.54 21.53 358.32 22.22C348.71 27.72 339.05 33.11 329.42 38.52L329.43 38.51Z" fill="#F5F5F5"/>
<path d="M207.79 296.71C211.23 310.01 215.42 324.72 218.76 339.62C221.08 349.95 221.2 360.84 224.12 370.95C236.21 412.83 264.58 437.3 307.12 444.99C317.43 446.86 328.25 445.91 338.83 446.32C339.94 446.36 341.22 446.54 342.11 447.13C349.13 451.82 356.08 456.62 363.11 461.43C329.71 473.45 270.35 469.64 232 425.75C196.8 385.46 191.73 335.35 207.77 296.72L207.79 296.71Z" fill="#F5F5F5"/>
<path d="M464.95 436.39C460.24 436.95 455.22 437.7 450.16 438.12C424.08 440.29 398.01 440.46 371.91 438.22C354.34 436.71 337.1 433.82 320.5 427.64C285.86 414.74 264.49 389.76 253.97 354.85C252.54 350.1 251.21 345.32 250.03 340.51C249.45 338.14 249.3 335.66 249.11 334.37C257.29 341.74 266 349.59 274.69 357.45C275.16 357.88 275.57 358.46 275.83 359.05C288.81 388.39 312.45 404.39 342.56 412.14C359.98 416.62 377.76 418.65 395.71 419.17C409.06 419.56 421.85 421.82 434.34 427.09C444.11 431.21 454.72 433.37 464.94 436.4L464.95 436.39Z" fill="#F5F5F5"/>
<path d="M643.27 244.61C647.83 255.76 647.94 267.13 646.69 278.24C644.12 301.11 635.28 321.37 618.76 337.86C605.05 351.54 588.13 358.78 569.24 360.97C559.76 362.07 550.05 361.18 540.44 361.11C539.34 361.11 538.18 360.65 537.16 360.16C512.03 348.08 485.71 343.14 457.75 347.07C461.29 340.14 464.72 333.44 468.52 326.01C472.32 327.47 476.46 328.9 480.48 330.63C493.39 336.19 506.06 342.67 520.42 343.51C527 343.9 533.66 343.33 540.25 342.78C547.3 342.2 554.3 340.47 561.34 340.39C591.9 340.02 615.54 321.74 623.97 291.67C626.93 281.12 627.7 270.51 627.03 259.64C626.93 257.95 628.06 255.6 629.41 254.52C633.76 251.03 638.47 247.99 643.29 244.6L643.27 244.61Z" fill="#F5F5F5"/>
<path d="M808.92 190.76C804.13 179.7 798.51 168.91 794.84 157.49C792.19 149.26 792.31 140.17 790.91 131.5C786.3 103.08 777.67 76.34 757.56 54.67C746.7 42.97 733.93 33.86 719.51 26.94C717.36 25.91 715.34 23.31 714.55 21C712.33 14.5 710.78 7.77998 708.93 0.97998C746.11 13.9 775.78 35.55 793.69 70.96C812.88 108.91 819.04 148.82 808.92 190.74V190.76Z" fill="#F5F5F5"/>
<path d="M149.29 124.37C145.47 51.93 186.16 -12.85 256 -37.42C252.14 -28.76 248.52 -20.33 244.55 -12.05C243.86 -10.61 241.78 -9.78999 240.26 -8.79999C212.97 9.05001 190.22 30.98 178.84 62.38C175.2 72.42 173.72 83.23 170.81 93.56C169.68 97.57 167.91 101.65 165.44 104.97C160.61 111.48 155.08 117.48 149.28 124.36L149.29 124.37Z" fill="#F5F5F5"/>
<path d="M534.83 429.5C528.19 442.75 520.37 453.42 510.91 462.8C488.07 485.44 463.07 504.95 432.07 515.41C404.15 524.82 376.14 525.36 348.07 516.09C347.51 515.91 347.02 515.52 346.15 515.04C356.62 513.36 366.64 511.94 376.6 510.13C416.78 502.81 453.64 488.09 484.57 460.64C491.78 454.24 498.13 446.86 505.36 440.47C508.54 437.66 512.73 435.69 516.78 434.24C522.17 432.32 527.88 431.27 534.84 429.5H534.83Z" fill="#F5F5F5"/>
<path d="M284.31 363.41C304.52 374.5 324.9 379.34 346.36 378.03C382.82 375.81 415.19 364.02 437.15 333.04C442.4 325.64 447.82 323.91 455.5 324.14C457.6 324.21 459.7 324.14 462.94 324.14C460.49 329 458.79 333.11 456.49 336.83C439.18 364.78 413.54 381.56 382.7 391.1C361.2 397.75 339.43 399.76 317.5 393.1C302.44 388.53 291.59 378.99 284.31 363.39V363.41Z" fill="#F5F5F5"/>
<path d="M393.3 332.41C361.59 350.09 319.97 350.77 292.92 329.14C278.48 317.6 270.41 302.57 267.84 284.3C265.51 267.78 267.34 251.92 273.99 236.62C274.32 235.87 274.76 235.17 275.21 234.35C278.52 238.2 281.97 241.74 284.79 245.74C285.81 247.19 285.65 249.74 285.47 251.74C283.87 269.44 284.79 286.71 295.14 301.99C304.96 316.49 319.1 323.66 336.46 324.05C342.87 324.2 349.3 323.1 355.73 322.66C356.76 322.59 357.99 322.73 358.86 323.24C369.06 329.17 379.93 332.65 393.3 332.41Z" fill="#F5F5F5"/>
<path d="M422.77 -58.67C411.99 -53.32 402.8 -48.1 393.08 -44.22C388.05 -42.21 382.06 -42.68 376.54 -41.83C337.27 -35.79 306.77 -16.4 284.95 17.08C281.32 22.65 274.37 26.06 268.96 30.47C268.45 30.11 267.95 29.75 267.44 29.38C268.73 23.79 270.01 18.19 271.31 12.6C276.84 -11.2 292.83 -26.82 312.2 -39.87C337.78 -57.11 366.24 -63.88 396.68 -62.68C405.11 -62.35 413.46 -60.16 422.77 -58.68V-58.67Z" fill="#F5F5F5"/>
<path d="M290.74 512.06C297.83 512.96 303.87 513.73 309.92 514.49C310.08 514.51 310.25 514.59 310.41 514.58C328.34 513.02 344.31 520.77 361.11 524.89C389.43 531.84 417.15 527.74 443.87 516.66C447.11 515.32 449.27 515.68 452.02 517.33C457.83 520.81 463.82 523.98 469.87 527.35C412.25 559.69 337.66 554.95 290.75 512.07L290.74 512.06Z" fill="#F5F5F5"/>
<path d="M670.61 352.92C682.66 335.96 692.24 317.79 697.07 297.44C705.33 262.65 698.95 231 676.22 203C674.44 200.81 672.46 198.76 670.85 196.45C670.1 195.37 669.66 193.84 669.65 192.51C669.56 181.73 669.6 170.95 669.6 160.17C670.05 160.07 670.51 159.96 670.96 159.86C674.18 164.34 677.28 168.91 680.65 173.27C686.25 180.5 692.22 187.44 697.69 194.77C709 209.9 714.32 227.43 716.99 245.81C720.73 271.56 716.84 296.02 703.62 318.73C695.43 332.79 684.18 343.89 670.61 352.94V352.92Z" fill="#F5F5F5"/>
<path d="M372.22 15.93C385.59 -1.31999 402.11 -14.21 422 -22.83C455.79 -37.47 491.06 -44.12 527.73 -41.54C539.99 -40.68 552.1 -37.18 564.15 -34.33C566.49 -33.77 568.76 -30.9 570.07 -28.54C571.71 -25.59 572.33 -22.08 573.54 -18.34C564.72 -19.96 556.6 -22.05 548.36 -22.82C534.17 -24.16 519.88 -25.51 505.66 -25.35C483.53 -25.1 461.68 -21.68 440.92 -13.68C431.24 -9.94998 421.88 -5.13998 412.9 0.0800171C405.44 4.41002 398.29 8.94001 389.65 10.75C383.74 11.99 378.02 14.18 372.22 15.95V15.93Z" fill="#F5F5F5"/>
<path d="M325.76 34.5C322.26 40.17 318.95 45.97 315.22 51.49C308.88 60.85 300.46 68.17 292.21 75.88C272.55 94.26 260.44 117.24 255.79 144.02C255.08 148.1 253.15 152.19 250.91 155.73C245.89 163.68 240.31 171.28 234.9 179.11C223.45 134.38 259.88 55.32 324.4 33.5C324.85 33.83 325.3 34.16 325.76 34.49V34.5Z" fill="#F5F5F5"/>
<path d="M210.65 102.2C208.08 113.51 205.66 125.31 202.58 136.94C201.74 140.1 199.21 142.99 196.95 145.55C177.08 167.97 162.3 193.19 153.68 222.03C147.53 242.6 146.69 263.49 148.51 285.71C142.53 277.48 138.98 269.16 136.99 260.18C129.52 226.38 138.65 195.71 157.18 168.02C169.52 149.58 184.79 133.1 198.84 115.81C202.81 110.92 207.1 106.28 210.65 102.19V102.2Z" fill="#F5F5F5"/>
<path d="M165.6 318.17C158.94 307.32 155.37 295.8 154.01 283.71C148.96 238.75 162.56 199.21 189.6 163.72C193.02 159.23 196.76 154.98 200.38 150.64C200.54 150.45 200.98 150.5 200.89 150.51C201.23 158.35 201.73 166.23 201.83 174.12C201.86 176.44 201.31 179.14 200.08 181.05C187.64 200.33 177.7 220.7 174.67 243.65C173.2 254.8 173.01 266.21 173.38 277.47C173.61 284.36 173.8 290.83 171.3 297.46C168.87 303.91 167.56 310.79 165.58 318.16L165.6 318.17Z" fill="#F5F5F5"/>
<path d="M426.97 377.69C434.29 370.69 441.9 362.84 450.2 355.8C452.9 353.51 457.33 352.81 461.09 352.31C493.81 347.96 523.35 357.38 551.21 373.67C556.3 376.65 561.24 379.88 567.19 383.57C558.71 386.96 551.3 390.09 543.75 392.79C542.42 393.26 540.21 392.37 538.84 391.46C516.65 376.55 492.25 370.35 465.69 373.06C452.36 374.42 439.08 376.23 426.97 377.7V377.69Z" fill="#F5F5F5"/>
<path d="M686.16 82.61C685.56 81.77 685.16 81.37 684.94 80.89C678.08 65.63 668.69 51.99 658.21 39.03C656.25 36.61 654.44 33.93 653.16 31.1C643.46 9.57004 628.34 -7.24998 609.05 -20.6C607.18 -21.9 605.53 -24.03 604.65 -26.15C601.69 -33.28 599.12 -40.57 596.43 -47.72C651.59 -26.61 687.85 29.63 686.16 82.61Z" fill="#F5F5F5"/>
<path d="M549.9 466.69C553.07 462.09 556.02 458.26 558.46 454.12C559.98 451.54 561.15 450.9 564.29 451.84C586.71 458.57 609.25 459.82 631.75 452.12C644.53 447.74 654.78 440.02 660.64 427.71C663.44 421.83 667.54 418.8 674.22 417.27C673.81 419.87 673.72 422.28 673.02 424.51C670.78 431.59 668.58 438.7 665.88 445.61C659.61 461.66 647.19 470.26 630.82 474.18C606.15 480.1 582.08 477.38 558.28 469.77C555.45 468.87 552.7 467.73 549.89 466.69H549.9Z" fill="#F5F5F5"/>
<path d="M552.43 368.63C563.65 366.77 574.99 366.07 585.6 362.93C622 352.17 642.64 326.56 650.9 290.29C654.58 274.13 654.21 258.02 648.53 242.22C648.17 241.21 648.36 239.54 649 238.72C651.33 235.73 653.95 232.97 656.84 229.68C661.61 235.99 664.31 242.92 665.78 250.14C672.42 282.63 664.62 311.11 642.02 335.69C623.73 355.58 601.2 368.86 576.81 379.57C574.29 380.68 572.43 380.65 570.03 379.1C564.2 375.33 558.11 371.96 552.42 368.61L552.43 368.63Z" fill="#F5F5F5"/>
<path d="M196.53 371.86C199 378.82 201.06 385.96 204.02 392.7C221.77 433.22 252.33 459 295.08 469.77C318.77 475.74 342.52 473.84 365.8 466.58C368.95 465.6 371.44 465.83 374.2 467.52C378.55 470.18 383.1 472.5 387.66 476.37C378.63 478.3 369.69 481.26 360.57 481.94C344.87 483.1 329 483.99 313.33 482.97C259.5 479.48 213.89 447.84 199.43 392.28C197.71 385.66 197.04 378.76 195.89 371.99C196.1 371.95 196.31 371.9 196.53 371.86Z" fill="#F5F5F5"/>
<path d="M777.97 357.45C781.87 344.68 786.43 331.62 789.81 318.26C798.11 285.52 793.44 253.84 781.38 222.73C770.67 195.12 753.36 172.02 733.67 150.42C729.86 146.24 725.57 142.39 722.34 137.8C720.39 135.02 719.27 131.14 719.13 127.7C718.72 117.61 718.98 107.5 718.98 96.45C724.96 104.43 731.15 111.71 736.26 119.68C763.08 161.54 784.48 205.81 794.63 254.88C801.86 289.85 797.2 323.14 779.81 354.49C779.25 355.5 778.6 356.47 777.94 357.42C777.82 357.6 777.46 357.61 777.96 357.43L777.97 357.45Z" fill="#F5F5F5"/>
<path d="M291.55 251.48C299.07 254.65 305.93 257.48 312.75 260.42C318.73 263 323.6 266.79 326.18 273.03C328.52 278.69 330.94 284.31 333.32 289.95C337.45 299.76 342.38 309.06 350.63 316.54C329.13 321.71 300.01 312.89 293 282.16C290.7 272.09 290.16 261.89 291.55 251.48Z" fill="#F5F5F5"/>
<path d="M533.93 396.22C493.66 409.54 455.04 407.87 418.18 384.92C423.19 384.15 428.17 383.16 433.2 382.64C448.38 381.06 463.56 378.78 478.78 378.41C497.39 377.96 514.67 383.84 530.67 393.35C531.52 393.86 532.33 394.45 533.13 395.05C533.37 395.23 533.5 395.57 533.93 396.22Z" fill="#F5F5F5"/>
<path d="M333.56 441.41C284.43 444.56 235.3 414.49 226.95 358.44C233.66 366.17 240.93 374.66 248.36 383C250.33 385.22 252.56 387.46 255.13 388.85C267.1 395.38 276.06 405.54 286.33 414.13C297.78 423.71 311.04 430.07 325.07 435.02C328.34 436.18 331.26 438.34 334.34 440.03C334.08 440.48 333.83 440.94 333.57 441.39L333.56 441.41Z" fill="#F5F5F5"/>
<path d="M716.77 33.39C751.82 43.5 789.33 102.9 786.63 144.58C784.85 141.29 783.47 138.74 782.09 136.19C771.15 115.85 759.86 95.69 744.65 78.17C737.59 70.04 729.52 62.76 721.64 55.37C719.15 53.04 717.8 50.86 717.83 47.35C717.87 42.75 717.17 38.15 716.77 33.39Z" fill="#F5F5F5"/>
<path d="M708.11 325.41C707.63 333.07 706.84 340.73 706.73 348.4C706.58 359.1 698.21 363.68 691.39 368.94C667.6 387.24 640.55 397.8 610.7 401.14C610.22 401.19 609.71 401.08 608.19 400.98C613.2 398.07 617.63 395.86 621.68 393.08C632.76 385.5 643.57 377.53 654.7 370.03C661.01 365.78 667.86 362.34 674.22 358.16C686.78 349.93 696.62 338.92 705.36 326.86C705.79 326.26 706.3 325.71 706.77 325.14C707.21 325.23 707.65 325.32 708.09 325.42L708.11 325.41Z" fill="#F5F5F5"/>
<path d="M343.32 440.4C354.01 441.53 363.8 443.11 373.64 443.43C382.55 443.72 389.75 447.21 397.04 451.76C413.61 462.1 431.75 468.77 450.75 473.13C452.35 473.5 453.93 473.93 456.59 474.61C448.88 478.85 442.04 482.82 434.98 486.35C433.32 487.18 430.72 487.05 428.87 486.44C401.29 477.28 376.03 463.56 352.27 446.98C349.45 445.01 346.73 442.91 343.32 440.4Z" fill="#F5F5F5"/>
<path d="M398.51 445.57C432.89 446.58 466.81 443.7 500.22 435.35C500.41 435.77 500.6 436.2 500.79 436.62C500.14 437.61 499.65 438.78 498.8 439.55C488.82 448.59 478.72 457.51 468.78 466.59C464.66 470.35 460.17 469.05 455.62 468.18C435.25 464.28 416.31 456.68 398.5 445.57H398.51Z" fill="#F5F5F5"/>
<path d="M639.44 477.64C602.89 503.33 563.41 502.19 521.95 489.75C523.22 488.71 523.99 488.05 524.8 487.44C530.75 482.94 536.85 478.61 542.6 473.87C544.73 472.11 546.17 471.3 549.02 472.43C571.78 481.42 595.3 485.53 619.73 482.07C626.38 481.13 632.87 479.15 639.44 477.65V477.64Z" fill="#F5F5F5"/>
<path d="M490.38 490C499.75 481.07 510.11 472.65 518.63 462.66C526.85 453.03 533.39 441.91 540.25 431.18C543.78 425.66 549.56 422.99 555.64 425.29C557.63 426.05 559.63 426.81 561.95 427.7C559.83 438.94 555.77 449.27 548.6 458.23C538.49 470.86 526.57 481.21 511.45 487.58C504.36 490.57 497.13 490.84 490.39 489.99L490.38 490Z" fill="#F5F5F5"/>
<path d="M656.63 423.95C650.63 435.45 641.64 442.12 630.52 446.19C608.03 454.44 585.62 452.85 563.09 445.69C564.63 440.53 566.08 435.67 567.78 429.97C597.42 436.15 626.8 433.52 656.63 423.94V423.95Z" fill="#F5F5F5"/>
<path d="M177.48 91.72C183.31 49.03 207.55 20.07 241.69 -3.16003C239.85 4.63997 238.82 11.93 236.27 18.65C234.9 22.26 230.74 24.73 228.19 27.99C214.04 46 200.02 64.11 185.89 82.13C183.47 85.22 180.72 88.05 177.49 91.72H177.48Z" fill="#F5F5F5"/>
<path d="M179.02 276C176.57 242.95 185.47 214.51 203.22 187.54C203.98 190.97 204.39 193.78 205.23 196.47C207.64 204.18 210.28 211.83 212.69 219.54C213.12 220.93 213.56 223.08 212.85 223.94C199.92 239.68 188.39 256.34 179.02 276Z" fill="#F5F5F5"/>
<path d="M294.4 14.05C315.75 -16.32 345.76 -32.09 382.21 -37.4C377.36 -33.32 372.44 -29.69 368.12 -25.45C361.37 -18.83 354.68 -12.08 348.65 -4.82004C345.77 -1.35004 342.47 -1.06002 338.73 -0.400024C323.34 2.30997 308.69 7.36996 294.41 14.05H294.4Z" fill="#F5F5F5"/>
<path d="M620.52 260.36C627.43 297.85 597.4 335.77 561.7 335C563.2 333.91 564.13 333.13 565.15 332.51C578.22 324.62 587.4 313.44 594.12 299.81C599.02 289.88 604.57 280.24 610.42 270.84C612.8 267.02 616.76 264.18 620.51 260.36H620.52Z" fill="#F5F5F5"/>
<path d="M713.47 346.6C712.94 336.68 712.41 327.28 711.99 317.87C711.94 316.78 712.39 315.6 712.86 314.57C721.85 294.64 725.32 273.7 723.83 251.97C723.41 245.91 722.08 239.91 721.14 233.75C741.19 267.36 742.29 309.38 713.47 346.6Z" fill="#F5F5F5"/>
<path d="M557.8 10.67C548.16 14.39 537.77 18.92 527.02 22.31C522.9 23.61 517.82 23 513.43 22.06C503.52 19.95 493.76 17.09 484.1 13.95C499.5 4.42002 534.09 3.75 557.8 10.67Z" fill="#F5F5F5"/>
<path d="M617.25 82.29C592.95 75.91 578.06 57.71 559.61 43.5C565.7 41.02 571.05 42.27 576.24 43.7C589.55 47.35 599.01 56.27 606.97 66.99C610.5 71.75 613.6 76.83 617.25 82.29Z" fill="#F5F5F5"/>
<path d="M262.92 141.06C267.61 115.65 280.33 95.19 298.31 77.31C295.28 87.29 291.8 96.74 289.64 106.48C287.94 114.16 284.31 119.98 278.58 125.13C273.05 130.1 268.12 135.72 262.93 141.06H262.92Z" fill="#F5F5F5"/>
<path d="M327.28 401.16C333.08 401.51 338.55 402.4 343.93 402.06C354.98 401.35 365.98 399.97 377 398.91C378.21 398.79 379.76 398.55 380.64 399.14C387.6 403.77 394.43 408.59 401.62 413.57C382.07 414.93 338.9 407.74 327.28 401.16Z" fill="#F5F5F5"/>
<path d="M650.13 -20.69C659.14 -17.97 666.92 -13.57 671.36 -3.75002C676.2 6.95998 680.59 17.67 683.11 30.09C677.81 20.4 673.47 11.23 667.99 2.79999C662.59 -5.50001 656.02 -13.04 650.13 -20.7V-20.69Z" fill="#F5F5F5"/>
<path d="M639.23 18.46C630.47 12.24 621.47 6.56001 613.41 -0.23999C610.46 -2.72999 609.75 -7.85999 608.76 -12.24C621.11 -3.99999 631.49 5.86001 639.23 18.46Z" fill="#F5F5F5"/>
<path d="M461.71 175.01C457.11 184.68 452.53 194.37 447.89 204.03C446.74 206.42 445.65 208.91 444.04 210.97C443 212.3 441.07 212.93 439.54 213.87C439.46 212.03 439.12 210.15 439.4 208.37C439.62 206.95 440.57 205.65 441.22 204.3C445.46 195.53 449.7 186.77 454.47 176.93C451.86 178.85 450.09 180.08 448.39 181.4C422.78 201.47 383.29 200.91 357.6 178.82C344.19 167.29 332.78 153.39 320.78 140.28C316.98 136.13 317.93 132.47 322.71 129.65C344.66 116.68 368.33 109.55 393.88 111.39C412.19 112.71 428.39 119.53 439.56 135.24C439.9 135.72 440.31 136.16 441.38 137.48C439.91 122.7 441.83 109.42 446.2 96.4C451.94 79.31 464.41 67.8 478.02 57.11C485.11 51.54 492.2 46.32 501.5 44.79C510.61 43.29 516.94 46.11 519.87 55.02C522.08 61.74 523.39 68.81 524.51 75.81C527.06 91.84 527.72 107.87 522.98 123.71C518.92 137.28 512.04 148.92 500.31 157.31C499.82 157.66 499.41 158.12 498.68 158.79C506.22 159.79 513.37 160.16 520.24 161.76C537.79 165.85 549.62 177.86 559.9 191.74C571.69 207.66 578.15 225.79 581.84 245.04C582.51 248.52 581.26 250.84 577.43 251.43C562.11 253.78 546.74 255.08 531.24 253.57C515.94 252.08 501.67 247.62 489.24 238.34C472.9 226.14 464.14 209.93 463.98 189.35C463.95 185.85 464.05 182.35 463.96 178.85C463.93 177.56 463.52 176.27 463.29 174.98C462.77 175 462.25 175.02 461.73 175.03L461.71 175.01ZM449.53 171.91C441.69 168.48 434.68 165.07 427.4 162.41C424.94 161.51 421.59 161.96 418.96 162.79C412.68 164.78 406.69 167.72 400.38 169.6C393.14 171.75 385.75 172.06 377.8 168.5C391.18 166.11 404.05 164.92 415.83 158.45C401.54 154.21 387.15 150.78 372.83 147.14C367.12 145.69 361.54 143.75 355.9 142.03C356.06 141.51 356.22 140.99 356.38 140.47C377.37 141.36 397.51 146.91 418.31 151.46C411.52 144.73 404.73 138 397.94 131.27C408.01 134.2 415.9 140.09 421.17 148.5C428.15 159.65 440.63 160.27 451.42 167.04C448.8 161.1 447.16 156.54 444.88 152.33C435.99 135.89 423.51 123.56 404.74 119.14C384.13 114.29 364.16 117.54 344.76 125.05C337.79 127.75 331.18 131.39 322.76 135.38C333.75 147.14 343.32 157.95 353.5 168.16C369.2 183.91 388.35 191.58 410.68 190.11C425.56 189.13 438.69 183.86 449.52 171.92L449.53 171.91ZM575.9 246.86C575.9 244.7 576.02 244.01 575.88 243.38C571.51 222.6 563.61 203.46 549.43 187.32C535.82 171.84 519.08 163.44 498.06 164.61C489.01 165.11 480.38 166.91 471.94 171.5C476.16 173.63 480.17 175.22 483.7 177.53C491.6 182.69 499.95 185.24 509.51 184.32C513.57 183.93 517.86 184.55 521.88 185.46C526.51 186.51 530.95 188.39 535.48 189.91C535.34 190.38 535.2 190.85 535.06 191.33C525.22 190.47 515.38 189.61 505.54 188.75C523.42 202.78 542.23 214.7 556.13 232.64C536.56 221.78 520.84 205.11 499.45 195.79L512.66 230.58C512.28 230.85 511.91 231.11 511.53 231.38C508.36 226.91 504.33 222.8 502.21 217.88C499.08 210.64 497.32 202.81 494.94 195.24C494.45 193.67 494.27 191.41 493.17 190.73C485.82 186.18 478.26 181.98 470.11 177.29C466.61 201.63 474.37 220.16 492.82 233.99C509.46 246.46 528.96 249.12 549.06 248.61C557.95 248.38 566.83 247.48 575.91 246.86H575.9ZM508.38 100.92C508.79 101.32 509.2 101.71 509.6 102.11C507.48 104.98 505.69 108.2 503.16 110.65C498.15 115.5 493.17 120.61 487.37 124.38C478.63 130.06 473.21 137.21 471.65 147.68C470.75 153.72 468.5 159.56 466.65 166.23C472.52 164.26 477.44 162.81 482.21 160.98C496.78 155.38 507.85 146.03 514.21 131.4C525.24 106.04 521.34 80.7 514.27 55.4C512.87 50.4 508.21 48.23 502.63 49.3C499.42 49.92 496.06 50.85 493.32 52.53C481.04 60.07 469.8 69.13 461.39 80.84C443.56 105.66 442.05 132.26 454.57 159.89C455.75 162.49 456.99 165.05 458.2 167.64C459.96 165.93 460.52 164.45 460.93 162.94C463.23 154.48 465.71 146.06 467.65 137.51C468.34 134.47 468.4 130.95 467.57 127.97C464.57 117.3 464.11 106.74 467.36 98.57C468.75 107.72 470 115.99 471.25 124.25C473.29 121.59 474.13 118.97 474.99 116.35C480.81 98.66 487.59 81.41 498.4 66.07C500.2 63.51 502.59 61.37 504.7 59.03L506.2 60.04C495.92 80.68 483.82 100.57 479.2 124.79C489.35 116.48 498.86 108.7 508.37 100.92H508.38Z" fill="#DF3838"/>
<path d="M389.71 41.4C383.39 46.3 377.1 51.24 370.7 56.04C370.14 56.46 368.31 56.29 368.12 55.89C367.71 55.04 367.54 53.47 368.06 52.86C373.61 46.34 380.27 41.61 388.79 40.14C389.1 40.56 389.41 40.99 389.71 41.41V41.4Z" fill="#DF3838"/>
<path d="M384.94 279.46C385.15 283.49 382.05 285.45 379.72 284.71C377.7 284.07 375.73 280.54 375.44 278.09C375.21 276.13 377.05 273.04 378.87 271.96C380.82 270.79 384.92 276.24 384.94 279.47V279.46Z" fill="#DF3838"/>
<path d="M630.14 138.41C625.87 132.02 621.6 125.64 617.33 119.25C625.02 120.86 632.18 130.8 631.82 137.47C631.26 137.78 630.71 138.09 630.15 138.4L630.14 138.41Z" fill="#DF3838"/>
<path d="M558.7 139.26C556.98 140.56 555.43 142.53 553.5 143.01C549.76 143.94 548.4 140.63 548.44 138.01C548.46 136.51 551.13 133.84 552.58 133.86C554.6 133.89 556.6 135.94 558.6 137.13C558.63 137.84 558.66 138.55 558.7 139.27V139.26Z" fill="#DF3838"/>
<path d="M412.55 243.55C413.52 239.52 413.33 235.73 417.95 236.28C419.35 236.44 421.45 237.72 421.73 238.86C422.46 241.75 418.42 246.51 415.79 246.06C414.5 245.84 413.43 244.27 412.56 243.56L412.55 243.55Z" fill="#DF3838"/>
<path d="M362.46 221.95C363.61 223.87 365.65 225.81 365.62 227.71C365.6 229.21 363.17 231.69 361.54 231.93C358.65 232.35 356.22 230.35 356.93 227.09C357.35 225.17 359.2 223.57 360.41 221.83L362.45 221.96L362.46 221.95Z" fill="#DF3838"/>
<path d="M597.93 172.29C600.66 169.84 602.84 167.09 603.51 167.42C605.56 168.43 607.75 170.39 608.4 172.45C608.71 173.45 605.83 176.55 604.15 176.75C602.63 176.93 600.79 174.48 597.92 172.29H597.93Z" fill="#DF3838"/>
<path d="M441.33 48.91C438.83 46.6 437.42 45.3 436.02 44C438.1 42.4 440.04 40.51 442.35 39.41C442.86 39.17 445.9 42.03 445.67 42.92C445.18 44.81 443.31 46.35 441.34 48.91H441.33Z" fill="#DF3838"/>
<path d="M473.51 285.27C471.35 282.6 469.12 280.76 469.43 280.06C470.37 277.96 472.3 276.31 473.85 274.49C475.2 275.88 477.69 277.32 477.63 278.65C477.55 280.47 475.54 282.21 473.5 285.26L473.51 285.27Z" fill="#DF3838"/>
<path d="M323.57 193.58C320.68 195.45 318.93 197.25 316.93 197.58C315.96 197.74 313.25 194.55 313.56 193.87C314.51 191.75 316.52 190.09 318.12 188.26C319.61 189.72 321.11 191.17 323.58 193.58H323.57Z" fill="#DF3838"/>
<path d="M635.57 174.35C636.05 175.11 638.22 177.47 637.82 178.05C636.4 180.1 634.1 181.53 632.13 183.19C631.22 181.88 629.57 180.58 629.57 179.27C629.57 176.61 630.34 173.85 635.58 174.35H635.57Z" fill="#DF3838"/>
<path d="M519.77 293.41C522.67 291.24 524.67 288.98 525.4 289.34C527.22 290.22 529.12 292.1 529.65 293.97C529.93 294.93 527.24 297.95 526.12 297.84C524.34 297.66 522.74 295.63 519.76 293.42L519.77 293.41Z" fill="#DF3838"/>
<path d="M419.76 83.66C416.91 86.09 415.31 87.86 413.33 88.82C412.9 89.03 409.87 86.03 410.13 85.05C410.61 83.23 412.36 81.24 414.09 80.45C415 80.04 417 82.01 419.76 83.66Z" fill="#DF3838"/>
<path d="M332.96 90.87C331.1 88.08 329.23 86.48 329.24 84.89C329.24 83.65 331.6 82.42 332.91 81.18C334.24 82.59 336.31 83.85 336.66 85.47C336.91 86.63 334.84 88.28 332.97 90.87H332.96Z" fill="#DF3838"/>
<path d="M563.53 101.14C562.28 98.67 560.84 97.13 561.15 96.13C561.55 94.83 563.35 93.97 564.55 92.92C565.45 94.01 567.22 95.26 567.06 96.16C566.81 97.6 565.27 98.82 563.53 101.14Z" fill="#DF3838"/>
<path d="M449.53 171.9C438.7 183.85 425.57 189.11 410.69 190.09C388.35 191.57 369.21 183.89 353.51 168.14C343.33 157.93 333.76 147.13 322.77 135.36C331.19 131.37 337.8 127.73 344.77 125.03C364.16 117.51 384.14 114.26 404.75 119.12C423.52 123.54 436 135.87 444.89 152.31C447.17 156.52 448.81 161.08 451.43 167.02C440.64 160.25 428.16 159.63 421.18 148.48C415.91 140.07 408.02 134.18 397.95 131.25C404.74 137.98 411.53 144.71 418.32 151.44C397.52 146.89 377.38 141.34 356.39 140.45C356.23 140.97 356.07 141.49 355.91 142.01C361.55 143.73 367.13 145.67 372.84 147.12C387.17 150.76 401.55 154.19 415.84 158.43C404.06 164.9 391.19 166.09 377.81 168.48C385.76 172.04 393.16 171.73 400.39 169.58C406.7 167.7 412.69 164.76 418.97 162.77C421.6 161.94 424.94 161.49 427.41 162.39C434.69 165.04 441.7 168.46 449.54 171.89L449.53 171.9Z" fill="#F5F5F5"/>
<path d="M575.89 246.86C566.81 247.47 557.93 248.38 549.04 248.61C528.94 249.12 509.44 246.46 492.8 233.99C474.34 220.16 466.58 201.63 470.09 177.29C478.24 181.98 485.8 186.19 493.15 190.73C494.25 191.41 494.43 193.67 494.92 195.24C497.3 202.81 499.06 210.64 502.19 217.88C504.32 222.8 508.34 226.91 511.51 231.38C511.89 231.11 512.26 230.85 512.64 230.58L499.43 195.79C520.82 205.11 536.55 221.78 556.11 232.64C542.21 214.69 523.4 202.78 505.52 188.75C515.36 189.61 525.2 190.47 535.04 191.33C535.18 190.86 535.32 190.39 535.46 189.91C530.94 188.39 526.49 186.51 521.86 185.46C517.84 184.55 513.55 183.93 509.49 184.32C499.93 185.24 491.59 182.69 483.68 177.53C480.15 175.22 476.14 173.63 471.92 171.5C480.36 166.91 488.99 165.11 498.04 164.61C519.07 163.44 535.81 171.84 549.41 187.32C563.6 203.46 571.5 222.59 575.86 243.38C575.99 244.02 575.88 244.71 575.88 246.86H575.89Z" fill="#F5F5F5"/>
<path d="M508.37 100.92C498.86 108.7 489.35 116.49 479.2 124.79C483.82 100.58 495.92 80.68 506.2 60.04L504.7 59.03C502.58 61.37 500.2 63.51 498.4 66.07C487.59 81.42 480.81 98.67 474.99 116.35C474.13 118.97 473.29 121.59 471.25 124.25C470 115.98 468.75 107.72 467.36 98.57C464.11 106.75 464.57 117.3 467.57 127.97C468.41 130.94 468.35 134.47 467.65 137.51C465.7 146.05 463.22 154.47 460.93 162.94C460.52 164.45 459.97 165.93 458.2 167.64C456.99 165.06 455.75 162.49 454.57 159.89C442.05 132.26 443.57 105.66 461.39 80.84C469.8 69.13 481.04 60.08 493.32 52.53C496.06 50.85 499.43 49.92 502.63 49.3C508.21 48.22 512.87 50.39 514.27 55.4C521.33 80.7 525.23 106.04 514.21 131.4C507.85 146.02 496.78 155.38 482.21 160.98C477.44 162.81 472.52 164.26 466.65 166.23C468.5 159.57 470.75 153.73 471.65 147.68C473.21 137.21 478.63 130.06 487.37 124.38C493.17 120.61 498.15 115.51 503.16 110.65C505.69 108.2 507.48 104.98 509.6 102.11C509.19 101.71 508.78 101.32 508.38 100.92H508.37Z" fill="#F5F5F5"/>
</g>
<defs>
<clipPath id="clip0_208_29">
<rect width="945.48" height="948.13" fill="white" transform="translate(0 -243)"/>
</clipPath>
</defs>
</svg>
