<svg width="1249" height="304" viewBox="0 0 1249 304" fill="none" xmlns="http://www.w3.org/2000/svg">
<g clip-path="url(#clip0_247_55)">
<path d="M737.332 123.287C737.415 120.861 741.969 120.35 743.768 121.308C745.863 126.416 749.757 130.263 755.483 132.865C756.556 133.328 756.539 133.87 755.483 134.461C755.368 139.106 750.946 142.554 742.25 144.805C738.982 147.279 740.187 149.259 745.88 150.791C750.566 162.125 754.625 160.369 762.084 152.02L761.952 149.897C764.806 150.344 767.711 150.089 770.334 148.828C770.334 146.992 771.984 145.922 775.284 145.635C772.76 142.778 773.057 142.602 776.935 142.442L776.423 140.176C783.007 139.138 785.779 136.776 784.69 133.104L788.485 134.461C800.679 141.58 817.593 127.661 828.88 129.608C835.051 130.662 839.523 147.391 848.631 147.343C854.093 147.311 858.911 142.889 864.39 148.844C862.657 156.266 849.638 161.103 841.866 163.865C818.484 172.165 792.907 171.974 768.684 169.595C754.873 171.846 718.488 161.917 709.264 151.302C708.852 150.823 708.984 149.897 709.264 148.844C715.832 143.831 721.508 137.654 726.293 130.327C727.96 128.619 738.636 121.068 735.567 126.049L737.332 123.303V123.287Z" fill="#E1E1E1"/>
<path d="M852.394 126.719C855.347 126.16 861.024 128.107 861.04 130.47C861.073 133.247 846.932 136.536 845.397 140.814C838.698 136.057 846.684 127.804 852.394 126.703V126.719Z" fill="white"/>
<path d="M847.872 115.322C848.746 116.072 840.199 131.955 836.338 131.268C835.76 122.265 835.892 113.326 847.872 115.322Z" fill="#E2E2E2"/>
<path d="M714.214 129.672C712.251 128.299 712.531 121.786 718.323 123.319C724.115 124.851 718.075 132.386 714.214 129.672Z" fill="#E9E9E9"/>
<path d="M776.909 106.864C775.64 106.533 774.654 105.987 773.951 105.225C773.248 104.463 773.016 103.651 773.254 102.787C773.377 102.34 773.589 102.023 773.889 101.836C774.209 101.639 774.571 101.592 774.973 101.697C775.283 101.778 775.525 101.923 775.699 102.134C775.873 102.345 775.969 102.601 775.985 102.903C775.542 103.184 775.263 103.533 775.149 103.95C775.017 104.428 775.119 104.901 775.455 105.369C775.79 105.836 776.322 106.165 777.05 106.354C778.025 106.609 778.882 106.6 779.621 106.33C780.363 106.044 780.837 105.53 781.041 104.79C781.16 104.358 781.117 104 780.914 103.716C780.71 103.431 780.267 103.051 779.585 102.576L776.429 100.39C775.187 99.5375 774.751 98.4403 775.121 97.0984C775.423 96.0032 776.049 95.2074 776.999 94.7109C777.953 94.1989 779.096 94.1164 780.427 94.4632C781.527 94.7495 782.393 95.248 783.027 95.9586C783.681 96.6578 783.88 97.4702 783.625 98.3957C783.523 98.7659 783.339 99.0404 783.074 99.2194C782.813 99.3829 782.52 99.4223 782.195 99.3376C781.87 99.253 781.623 99.0976 781.453 98.8714C781.302 98.6339 781.27 98.3609 781.355 98.0524C781.599 97.9506 781.783 97.8249 781.907 97.6754C782.035 97.5105 782.133 97.3046 782.201 97.0578C782.32 96.6259 782.225 96.2208 781.914 95.8423C781.619 95.4679 781.077 95.1778 780.287 94.9722C779.606 94.7947 778.988 94.7495 778.433 94.8364C777.897 94.9119 777.459 95.0871 777.118 95.3619C776.777 95.6367 776.557 95.9515 776.459 96.3063C776.357 96.6764 776.408 97.0038 776.612 97.2883C776.831 97.5768 777.268 97.947 777.924 98.3987L780.856 100.402C781.538 100.878 782.005 101.412 782.256 102.007C782.507 102.601 782.524 103.292 782.307 104.078C781.997 105.204 781.383 106.045 780.467 106.6C779.551 107.155 778.365 107.243 776.909 106.864Z" fill="#DF3838"/>
<path d="M791.47 146.287C790.2 145.957 789.214 145.411 788.511 144.649C787.809 143.887 787.576 143.074 787.814 142.211C787.938 141.763 788.149 141.447 788.45 141.26C788.77 141.063 789.131 141.016 789.534 141.121C789.843 141.202 790.085 141.347 790.26 141.558C790.434 141.769 790.529 142.025 790.545 142.327C790.103 142.608 789.824 142.957 789.709 143.374C789.577 143.852 789.679 144.325 790.015 144.793C790.351 145.26 790.883 145.589 791.61 145.778C792.586 146.032 793.443 146.024 794.181 145.754C794.924 145.468 795.397 144.954 795.601 144.214C795.72 143.782 795.678 143.424 795.474 143.139C795.271 142.855 794.828 142.475 794.146 142L790.989 139.814C789.747 138.961 789.311 137.864 789.681 136.522C789.983 135.427 790.609 134.631 791.559 134.135C792.513 133.623 793.656 133.54 794.988 133.887C796.087 134.173 796.954 134.672 797.588 135.382C798.241 136.082 798.441 136.894 798.185 137.82C798.083 138.19 797.9 138.464 797.635 138.643C797.374 138.807 797.081 138.846 796.756 138.761C796.431 138.677 796.183 138.521 796.013 138.295C795.863 138.058 795.83 137.785 795.915 137.476C796.159 137.374 796.343 137.249 796.467 137.099C796.596 136.934 796.694 136.728 796.762 136.482C796.881 136.05 796.785 135.645 796.475 135.266C796.18 134.892 795.637 134.602 794.848 134.396C794.166 134.219 793.548 134.173 792.993 134.26C792.458 134.336 792.02 134.511 791.678 134.786C791.337 135.061 791.118 135.375 791.02 135.73C790.918 136.1 790.969 136.428 791.172 136.712C791.391 137.001 791.829 137.371 792.484 137.823L795.417 139.826C796.099 140.301 796.566 140.836 796.817 141.431C797.068 142.025 797.085 142.716 796.868 143.502C796.557 144.628 795.944 145.469 795.028 146.024C794.111 146.578 792.925 146.666 791.47 146.287Z" fill="#DF3838"/>
</g>
<g clip-path="url(#clip1_247_55)">
<path d="M46.3187 233.219C46.582 234.226 50.5 237.478 50.9491 239.444C51.011 245.252 45.8077 235.79 45.6838 235.403C39.4585 216.665 44.5533 186.684 44.1662 166.614C34.5339 154.411 6.5817 156.114 7.74314 137.438C9.36917 111.158 21.8973 106.141 44.0268 118.979C77.9257 88.3786 138.104 84.9407 180.304 97.6857C188.836 100.256 199.429 103.617 205.824 110.09C196.982 106.776 188.991 102.424 179.839 99.6988C144.965 89.3542 92.0024 89.9736 60.3955 109.455C35.7108 124.678 32.4898 146.002 58.2275 162.479C84.4762 179.297 128.317 182.41 158.406 178.027C188.914 173.598 245.856 152.692 212.05 114.767C215.178 114.101 216.03 117.616 218.957 117.771C227.768 118.251 243.424 101.851 250.858 121.642C263.324 154.875 239.801 151.345 218.507 164.554C216.711 167.388 219.158 216.293 218.244 225.461C217.656 231.376 216.092 237.896 211.291 241.736C208.395 239.646 215.163 235.124 215.163 233.235V158.127C197.354 170.408 174.14 179.622 152.413 181.325C115.835 184.221 75.7576 179.885 46.3652 156.579V233.235L46.3187 233.219ZM21.5412 142.626C19.9771 140.845 18.5369 141.774 18.3046 137.252C17.3909 118.716 28.0608 117.26 41.6575 125.607L42.5557 120.93C21.2934 108.092 8.84265 115.479 10.5926 140.381C11.5062 153.28 34.5804 153.993 43.2061 162.758C45.2812 149.781 28.9435 151.035 21.5412 142.626L43.2215 151.902C34.1313 142.332 44.8631 126.985 30.8637 123.207C19.9461 120.249 20.7978 134.837 21.5412 142.626ZM218.229 162.758C224.903 156.083 245.856 152.026 249.82 145.599C253.134 140.257 250.687 126.567 248.442 120.915C243.316 107.937 219.932 119.134 219.793 121.72C219.483 127.248 232.724 119.955 234.489 120.016C242.743 120.326 245.716 138.662 241.458 143.431C239.29 145.863 219.592 153.435 218.461 155.278C217.454 156.904 218.523 160.621 218.229 162.773V162.758ZM239.491 142.239C242.851 138.77 240.11 125.22 236.812 123.16C233.823 121.302 226.405 125.096 223.587 127.047C225.879 136.261 223.773 143.245 221.326 151.918C224.95 147.659 236.657 145.15 239.491 142.239Z" fill="#DF3838"/>
<path d="M172.917 281.613C172.762 282 167.187 286.661 166.351 286.739C164.508 286.924 156.595 283.967 156.223 282.48C154.194 274.21 164.368 267.474 164.028 258.755L170.997 271.113C172.003 274.303 174.28 278.19 172.917 281.597V281.613Z" fill="#DF3838"/>
<path d="M97.9952 264.377C98.3204 264.95 99.7451 265.043 100.334 266.251C101.185 268.031 104.917 278.206 104.778 279.46C104.019 286.646 92.9622 290.533 90.98 282.263L88.1461 283.548C87.8364 275 92.3118 267.737 95.8891 260.319C98.4598 259.87 96.9731 262.58 97.9952 264.377Z" fill="#DF3838"/>
<path d="M136.06 283.626C135.131 288.69 140.256 293.258 139.002 297.904C136.617 306.809 119.614 305.554 122.928 291.276C124.801 283.254 127.062 286.63 128.023 286.181C128.611 285.902 130.129 281.148 136.06 283.626Z" fill="#DF3838"/>
<path d="M55.6414 43.5154L58.6922 44.2588C54.6503 50.7784 46.2414 59.0788 54.8362 65.1494C58.1502 61.154 58.4444 56.3223 61.8048 52.0172C64.1432 49.0284 70.2912 45.7609 71.081 44.2588C73.1561 40.2789 63.2605 42.0907 63.3534 38.8696C88.0226 40.7279 77.9722 63.7711 61.9132 70.6469L48.2236 61.123L55.6414 43.5154ZM75.7268 46.6126C65.3202 46.4733 59.0019 59.1563 58.7076 68.2775C68.9439 68.0143 76.7333 56.3688 75.7268 46.6126Z" fill="#DF3838"/>
<path d="M182.58 182.905C182.952 185.135 179.901 184.996 178.275 185.522C148.743 195.124 116.687 192.243 86.5671 187.52C86.5361 184.826 85.6844 184.206 88.7506 184.547C95.7348 185.306 103.462 188.434 110.601 189.053C134.775 191.159 159.072 187.799 182.58 182.905Z" fill="#DF3838"/>
<path d="M43.2214 10.9799C38.0646 10.283 34.1157 3.79439 29.315 2.35419C15.8112 -1.73411 -5.80722 25.4128 6.58157 38.3281C9.60134 41.4718 31.576 55.9977 36.454 58.7851C39.6596 60.628 47.2013 59.451 43.9802 63.6477C40.5423 63.7252 37.8013 61.8514 34.9829 60.2563C28.5407 56.5861 9.24516 44.1973 4.63034 39.5051C-3.29849 31.4833 0.309744 22.517 5.42012 14.2165C15.4705 -2.12126 31.1424 -5.89984 43.2214 10.9799Z" fill="#DF3838"/>
<path d="M215.116 91.4914V88.4251C222.782 95.2235 235.713 88.9052 233.436 78.7154C232.848 76.0673 229.487 73.1869 229.487 72.1648C229.487 70.0433 238.856 62.3622 230.556 55.1922C222.255 48.0222 216.603 57.0196 214.342 57.035C212.608 57.035 209.758 51.584 202.325 53.0861C192.151 55.1612 195.449 64.1121 195.774 71.3905C186.885 63.7714 194.752 48.8739 205.592 50.7013C208.751 51.2278 212.282 54.1856 214.094 54.0772C218.694 53.783 224.81 47.3873 232.104 53.6591C239.398 59.9309 232.755 67.8597 232.739 72.1803C232.724 76.5009 238.856 79.0871 234.381 86.7372C229.905 94.3872 223.061 94.1704 215.147 91.5223L215.116 91.4914Z" fill="#DF3838"/>
<path d="M149.301 266.514C151.283 266.282 153.776 262.131 153.172 268.062H107.489C107.133 268.062 104.655 265.368 105.166 264.981C107.675 263.85 110.942 266.514 112.135 266.514C123.532 266.514 138.461 267.753 149.301 266.514Z" fill="#DF3838"/>
<path d="M88.1312 263.401C77.6471 260.382 64.515 256.324 57.1592 247.946L88.1312 263.401Z" fill="#DF3838"/>
<path d="M196.518 77.585L196.533 91.5069L210.455 89.184L194.984 94.6041L193.467 78.3283L196.518 77.585Z" fill="#DF3838"/>
<path d="M204.275 247.946C198.329 255.163 186.854 259.251 177.949 261.853L204.275 247.946Z" fill="#DF3838"/>
<path d="M66.4503 113.202C45.1261 129.556 45.4668 144.345 69.5165 157.368C101.929 174.914 167.171 174.728 198.561 154.736C223.432 138.909 211.291 120.109 189.192 110.477C153.327 94.8515 101.96 98.119 66.4503 113.202C94.7742 91.491 167.76 93.8139 197.957 112.552C222.441 127.744 218.801 147.535 194.488 159.924C161.333 176.834 88.9824 178.042 59.528 153.419C42.2457 138.987 46.6592 121.611 66.4658 113.187L66.4503 113.202Z" fill="#DF3838"/>
<g clip-path="url(#clip2_247_55)">
<path d="M60.5967 150.783C65.3517 142.072 66.3707 139.359 61.911 129.005C62.4426 121.775 74.8175 116.364 79.2772 123.77C82.9247 143.744 97.4113 135.825 87.724 118.945C86.7789 114.149 87.724 113.299 91.6521 111.348C104.824 104.822 104.411 121.995 103.318 130.692C107.97 111.319 125.026 108.313 133.133 127.905C142.732 109.896 159.566 111.466 164.159 131.689C179.044 126.967 181.422 127.407 186.133 142.453L190.282 143.011C197.562 138.655 205.699 139.843 200.87 149.317C176.416 177.753 87.4139 176.844 60.5967 150.783Z" fill="#E1E1E1"/>
<path d="M111.558 144.917C118.351 143.026 118.351 154.113 111.558 152.221C108.59 151.399 108.59 145.739 111.558 144.917Z" fill="#F7F7F7"/>
<path d="M188.495 127.451C194.875 125.427 197.223 132.95 193.59 135.473C187.181 139.931 182.825 129.255 188.495 127.451Z" fill="#E3E3E3"/>
<path d="M135.895 112.653C138.952 115.704 133.119 121.555 130.003 118.505C127.611 116.158 133.503 110.278 135.895 112.653Z" fill="#E4E4E4"/>
</g>
</g>
<g clip-path="url(#clip3_247_55)">
<path d="M545.271 121.85C545.709 122.304 545.271 125.798 547.762 126.487C551.913 127.646 561.563 117.511 566.858 127.678C578.027 149.155 555.03 149.531 542.905 159.385L543.72 165.714C545.255 165.024 546.79 164.633 548.404 164.147C545.96 166.779 544.096 169.035 543.61 172.685C540.634 195.196 551.098 231.117 534.979 248.631C508.488 277.393 436.004 276.923 401.9 264.438C399.534 263.576 394.067 262.26 393.315 259.722C431.57 273.602 486.995 277.393 522.853 255.305C527.099 252.689 540.571 241.55 540.571 236.992V161.014C525.329 171.698 508.895 178.92 490.488 182.209C450.651 189.368 402.385 185.06 369.817 159.447V237.775C366.966 236.976 366.793 230.036 366.621 227.655C365.289 208.418 367.968 187.833 366.652 168.549C357.582 158.335 331.734 158.429 330.7 142.811C330.481 139.458 332.83 126.158 334.193 123.056C339.567 110.727 353.603 113.735 361.968 120.283C355.592 118.623 346.538 115.161 340.71 118.623C334.883 122.085 332.11 142.09 334.93 148.121C337.749 154.152 360.84 159.369 366.652 165.714C370.804 152.038 343.326 152.413 341.587 141.338C341.102 138.205 343.42 127.02 345.472 124.936C350.83 119.72 359.932 127.443 364.287 126.55C368.955 125.594 363.879 121.787 361.968 120.283C364.349 120.894 367.295 120.941 369.801 121.866C361.201 135.51 361.514 148.137 373.733 159.447C406.364 189.65 492.603 189.196 529.135 166.027C548.185 153.949 556.754 134.852 537.015 118.263C528.007 110.696 518.248 108.221 509.24 101.5C521.584 104.931 536.404 112.623 545.271 121.85ZM366.684 154.732C357.551 145.129 368.454 127.787 352.992 125.265C344.219 123.824 342.794 138.127 345.535 143.797C346.71 146.21 365.759 155.594 366.684 154.732ZM565.229 144.957C568.628 141.448 565.855 127.74 562.519 125.657C559.495 123.777 551.991 127.615 549.14 129.589C550.91 138.283 550.362 145.129 546.853 153.165C547.558 153.886 564.524 145.677 565.229 144.957Z" fill="#DF3838"/>
<path d="M571.903 118.717C561.846 114.19 554.702 120.08 545.271 121.85C554.921 116.132 562.66 110.273 571.903 118.717Z" fill="#DF3838"/>
<path d="M548.404 164.147C556.174 155.782 572.326 155.187 576.242 147.323C580.002 139.756 574.738 126.409 571.903 118.717C578.56 124.796 582.07 139.427 578.545 148.075C575.976 154.372 555.375 162.064 548.404 164.147Z" fill="#DF3838"/>
<path d="M547.12 96.5503C547.386 97.0829 552.587 95.9863 548.373 99.1037C546.086 100.796 543.485 101.798 540.572 101.485V93.6678L545.224 95.2344C551.6 83.5635 545.663 72.7543 537.423 63.9189C546.76 66.5664 550.66 79.3495 549.814 88.0282C549.579 90.4407 546.853 96.0803 547.104 96.5659L547.12 96.5503Z" fill="#DF3838"/>
<path d="M507.659 186.095C506.907 188.962 500.828 189.4 498.291 190.011C470.437 196.857 437.696 198.502 410.548 188.413C419.211 187.912 427.843 191.625 436.412 192.314C460.427 194.225 484.317 191.045 507.659 186.095Z" fill="#DF3838"/>
<path d="M439.498 103.005C442.396 102.582 444.135 104.587 443.43 99.9185L407.415 104.634C407.478 106.091 408.48 106.467 409.702 106.764C413.368 105.981 417.3 105.464 421.404 105.276C427.436 104.461 433.514 103.866 439.514 103.005H439.498Z" fill="#DF3838"/>
<path d="M509.241 109.333C515.021 114.284 521.977 115.741 528.055 121.051C549.235 139.583 531.862 155.28 512.342 163.332C480.667 176.397 433.921 176.444 401.9 164.178C385.781 158.006 365.212 144.565 379.232 125.782C380.595 123.949 384.809 120.002 388.115 117.667C390.167 115.333 392.971 113.234 396.355 111.448C395.352 107.986 396.527 102.096 396.464 99.9183C400.381 99.3231 402.652 104.446 402.778 108.675C403.78 108.331 404.799 108.002 405.848 107.704C405.973 105.48 406.083 103.349 405.926 101.548L445.012 93.6678C432.683 91.0673 415.545 99.9653 404.83 99.8713C401.148 99.84 399.065 96.6286 397.42 96.8792C394.412 97.3335 393.613 103.427 391.702 105.354C388.052 109.036 376.303 111.605 372.966 117.949L393.316 107.767C391.702 116.618 381.065 118.122 376.068 125.751C362.361 146.664 387.566 161.813 404.642 167.719C437.712 179.155 494.233 178.904 524.499 159.839C554.451 140.962 536.154 116.32 509.241 109.349V109.333Z" fill="#DF3838"/>
</g>
<path d="M1032.42 121.104C1026.41 128.625 1020.29 142.097 1023.42 151.764C1022.72 149.022 1019.75 147.129 1019.79 141.845C1019.84 134.198 1027.83 127.543 1023.42 121.104C1025.75 121.339 1030.3 121.483 1032.42 121.104Z" fill="#DF3838"/>
<path d="M1023.43 121.104C1012.7 120.04 1003.43 110.878 994.571 121.952C989.423 128.39 986.453 151.763 992.825 157.174C992.447 156.903 990.593 157.823 989.135 155.984C981.629 146.353 988.055 115.063 1002.69 113.746C1007.84 113.277 1020.44 116.758 1023.43 121.122V121.104Z" fill="#DF3838"/>
<path d="M993.383 157.571C993.203 157.444 993.023 157.318 992.825 157.174C992.987 157.3 993.167 157.444 993.383 157.571Z" fill="#DF3838"/>
<path d="M1248.39 140.059C1247.76 127.705 1243.95 112.321 1228.2 114.215C1223.01 114.828 1209.35 123.178 1206.38 122.619C1205.1 122.385 1191.64 110.482 1185.41 107.596C1148.8 90.5894 1059.59 87.1087 1032.43 121.104C1037.48 120.203 1047.22 111.636 1053.52 108.877C1091.14 92.447 1139.58 95.4228 1178.23 106.695C1178.66 109.382 1171.71 109.851 1170.38 109.706C1162.51 108.859 1151.77 104.422 1142.93 103.286C1115.39 99.7331 1081.91 102.114 1056.44 113.584C1030.81 125.144 1019.21 144.982 1047.01 163.324C1080.7 185.579 1164.83 187.382 1195.43 159.05C1195.79 158.725 1196.12 158.382 1196.44 158.058C1182.01 170.159 1152.74 178.455 1118.95 178.455C1070.86 178.455 1031.89 161.683 1031.89 140.979C1031.89 120.275 1070.84 103.502 1118.93 103.502C1143.94 103.502 1166.45 108.047 1182.33 115.297C1182.02 115.045 1181.81 114.864 1181.79 114.792C1178.6 105.504 1193.56 114.846 1196.12 116.704C1215.05 130.482 1219.43 147.616 1200.76 164.424C1166.51 195.282 1070.96 195.029 1036.01 165.308C1034.21 163.775 1023.71 152.647 1023.43 151.764C1025.03 157.967 1029.24 166.336 1024.33 171.566C1019.66 163.847 998.549 160.763 993.383 157.571C999.197 161.647 1001.9 161.574 1007.85 164.64C1010.86 166.191 1025.24 173.712 1026.14 175.173C1029.04 179.88 1024.61 194.614 1031.51 200.476L1028.83 164.388L1054.58 179.14C1101.82 195.895 1164.1 195.949 1205.19 164.388C1212.35 214.813 1164.55 241.306 1120.61 241.956L1135.67 243.525L1165.59 236.527C1170.65 261.577 1129.9 266.05 1112.4 265.455C1095.1 264.878 1059.64 258.566 1066.61 234.706C1077.21 237.339 1087.31 242.28 1098.31 243.507C1100.7 243.777 1109.29 245.4 1109.77 241.938L1078.79 236.004L1050.39 222.099L1063.91 232.812C1056.56 258.043 1087.96 265.906 1107 267.24C1129.01 268.773 1176.41 265.581 1167.41 232.992C1183.25 227.78 1203.21 208.303 1206.56 191.891C1207.51 187.202 1205.82 180.439 1207.89 176.994C1211.22 171.421 1235.77 163.775 1242.99 157.156C1241.59 158.418 1231.76 160.42 1228.83 161.899C1225.8 163.414 1209.76 173.099 1208.79 172.504C1202.71 168.734 1215.18 150.249 1215.38 143.341C1215.56 136.975 1211.65 130.428 1209.64 124.675C1217.86 119.914 1232.53 113.385 1240.36 121.014C1245.8 126.298 1249.02 151.709 1242.99 157.156C1249.99 150.718 1248.86 150.068 1248.36 140.041L1248.39 140.059Z" fill="#DF3838"/>
<path d="M1136.71 141.046C1134.54 140.759 1132.79 140.057 1131.46 138.939C1130.13 137.822 1129.56 136.523 1129.76 135.042C1129.86 134.276 1130.14 133.707 1130.59 133.336C1131.07 132.943 1131.66 132.792 1132.34 132.883C1132.87 132.953 1133.3 133.144 1133.64 133.458C1133.97 133.771 1134.19 134.176 1134.29 134.673C1133.62 135.23 1133.24 135.866 1133.15 136.58C1133.04 137.399 1133.31 138.162 1133.97 138.868C1134.63 139.574 1135.58 140.009 1136.83 140.174C1138.49 140.394 1139.9 140.204 1141.06 139.604C1142.22 138.977 1142.88 138.029 1143.05 136.76C1143.15 136.02 1142.99 135.435 1142.59 135.005C1142.19 134.576 1141.38 134.037 1140.14 133.39L1134.44 130.417C1132.2 129.26 1131.24 127.531 1131.54 125.231C1131.79 123.354 1132.64 121.907 1134.09 120.888C1135.55 119.844 1137.41 119.472 1139.69 119.773C1141.56 120.021 1143.1 120.669 1144.31 121.716C1145.55 122.74 1146.06 124.046 1145.85 125.632C1145.77 126.266 1145.53 126.759 1145.13 127.11C1144.74 127.435 1144.26 127.56 1143.71 127.487C1143.15 127.413 1142.71 127.207 1142.38 126.867C1142.08 126.504 1141.96 126.059 1142.03 125.53C1142.41 125.311 1142.68 125.065 1142.86 124.792C1143.03 124.492 1143.14 124.13 1143.2 123.707C1143.3 122.967 1143.05 122.315 1142.45 121.752C1141.88 121.192 1140.92 120.823 1139.57 120.645C1138.41 120.491 1137.38 120.543 1136.48 120.801C1135.62 121.037 1134.94 121.417 1134.44 121.943C1133.94 122.468 1133.65 123.035 1133.57 123.643C1133.48 124.278 1133.64 124.81 1134.04 125.239C1134.47 125.672 1135.27 126.196 1136.46 126.81L1141.74 129.527C1142.98 130.174 1143.87 130.964 1144.42 131.898C1144.97 132.831 1145.15 133.972 1144.97 135.32C1144.72 137.25 1143.9 138.769 1142.51 139.877C1141.13 140.985 1139.2 141.375 1136.71 141.046Z" fill="#DF3838"/>
<path d="M1169.02 152.9C1165.56 153.424 1162.56 153.124 1160.02 151.999C1157.47 150.874 1156.02 149.13 1155.67 146.767C1155.48 145.544 1155.65 144.547 1156.18 143.776C1156.75 142.957 1157.58 142.464 1158.68 142.298C1159.52 142.17 1160.27 142.272 1160.93 142.605C1161.58 142.937 1162.09 143.464 1162.46 144.185C1161.68 145.338 1161.38 146.484 1161.56 147.623C1161.75 148.931 1162.52 149.98 1163.85 150.772C1165.17 151.563 1166.83 151.808 1168.81 151.508C1171.47 151.105 1173.55 150.186 1175.06 148.749C1176.56 147.27 1177.16 145.518 1176.85 143.493C1176.68 142.312 1176.18 141.48 1175.38 140.998C1174.57 140.516 1173.08 140.052 1170.89 139.606L1160.81 137.573C1156.85 136.792 1154.59 134.566 1154.04 130.896C1153.58 127.901 1154.25 125.298 1156.03 123.086C1157.8 120.833 1160.5 119.431 1164.13 118.881C1167.12 118.428 1169.78 118.737 1172.1 119.81C1174.46 120.834 1175.83 122.611 1176.21 125.143C1176.36 126.155 1176.21 127.019 1175.76 127.735C1175.3 128.409 1174.63 128.813 1173.74 128.947C1172.86 129.081 1172.09 128.961 1171.42 128.586C1170.8 128.163 1170.42 127.53 1170.3 126.686C1170.78 126.181 1171.09 125.681 1171.23 125.185C1171.37 124.646 1171.38 124.04 1171.28 123.365C1171.1 122.184 1170.43 121.293 1169.26 120.694C1168.13 120.088 1166.49 119.948 1164.34 120.274C1162.48 120.555 1160.93 121.093 1159.66 121.888C1158.44 122.634 1157.56 123.523 1157.03 124.553C1156.49 125.583 1156.3 126.584 1156.44 127.554C1156.6 128.566 1157.08 129.314 1157.88 129.796C1158.73 130.271 1160.2 130.717 1162.3 131.134L1171.63 132.956C1173.82 133.402 1175.54 134.221 1176.8 135.411C1178.05 136.601 1178.85 138.272 1179.17 140.423C1179.64 143.503 1179.06 146.202 1177.42 148.521C1175.79 150.84 1172.99 152.299 1169.02 152.9Z" fill="#DF3838"/>
<g clip-path="url(#clip4_247_55)">
<path d="M903.536 118.424C898.126 111.891 875.096 118.376 874.84 122.407C874.409 129.195 891.183 116.034 896.274 124.877C898.301 128.398 900.073 140.508 897.966 143.95C896.226 146.77 884.879 151.056 881.192 151.885C891.183 143.95 901.429 145.177 895.109 129.211C891.167 119.284 886.491 123.969 878.751 127.889C880.793 137.13 879.469 144.762 876.42 153.478C878 152.793 879.485 152.267 881.192 151.885C875.974 156.027 870.42 157.143 873.994 164.616C882.326 155.995 908.531 153.892 908.212 140.142C908.164 138.022 904.238 119.284 903.536 118.424C906.425 121.818 906.409 121.117 907.845 126.072C917.469 159.278 892.779 151.916 873.994 167.802C868.632 194.236 883.522 233.752 860.301 252.92C828.828 278.892 757.68 279.449 721.946 262.273C720.046 261.365 717.221 261.428 716.807 258.656C724.914 260.345 732 264.312 740.06 266.495C773.639 275.561 833.106 274.127 860.445 249.892C862.775 247.821 870.005 239.52 870.005 237.13V159.851C851.874 173.586 829.371 180.916 806.756 183.545C769.697 187.847 725.76 182.254 696.043 158.258V237.13C696.043 239.089 703.017 243.742 700.033 245.877C694.734 241.814 693.441 233.943 692.867 227.537C691.127 208.29 694.08 186.731 693.011 167.324C671.688 152.697 645.754 156.362 660.117 121.611C666.852 105.327 683.802 115.381 695.101 120.129C698.676 114.632 705.156 110.282 710.917 107C750.147 84.6288 824.918 85.1705 862.535 110.728C865.392 112.672 870.85 119.428 872.622 119.762C879.245 121.021 890.784 103.526 903.52 118.424H903.536ZM769.155 93.4082C750.003 94.89 721.195 101.295 705.778 112.991C667.555 141.942 705.411 167.755 736.309 176.247C769.506 185.361 812.342 184.628 844.469 171.786C871.696 160.903 893.449 138.644 863.669 114.441C841.261 96.2284 797.212 91.2731 769.171 93.4241L769.155 93.4082ZM692.851 121.659C671.656 111.588 659.718 111.349 659.208 138.341C658.936 153.016 666.262 150.435 675.854 155.294C678.838 156.808 691.111 164.616 692.053 164.584C694.654 164.52 693.649 161.684 693.33 160.154C690.84 148.379 657.532 152.06 669.709 126.391C674.401 116.496 682.924 123.491 690.313 126.439L692.835 121.659H692.851ZM692.867 153.462C686.627 145.352 688.813 137.273 687.313 127.952C678.583 122.758 672.279 119.428 670.683 132.127C668.688 147.869 681.184 147.981 692.867 153.462Z" fill="#DF3838"/>
<path d="M890.736 81.7608C883.06 82.1432 891.375 76.3753 892.699 73.3479C903.169 49.6386 879.82 27.0607 855.816 38.1186C829.562 50.2123 841.277 93.2012 873.915 88.0387C878.511 87.3057 881.735 82.8125 885.964 84.1509C857.46 106.984 822.396 66.4168 847.613 41.0823C874.074 14.4731 913.655 51.8534 890.736 81.7608Z" fill="#DF3838"/>
<path d="M836.489 185.361L820.897 191.273C793.526 195.304 763.856 198.124 737.555 187.72C745.806 187.672 754.089 191.018 762.308 191.687C786.998 193.679 812.534 190.986 836.489 185.361Z" fill="#DF3838"/>
<path d="M882.788 51.503C880.155 52.1244 871.473 45.2729 870.036 46.7388C868.345 48.4597 870.723 51.7898 873.26 52.2997L870.052 56.2831L866.828 45.1295C858.609 46.6432 851.379 52.0288 852.465 61.0632L858.849 62.6406C847.932 59.5017 853.183 72.2486 857.253 75.4034C856.455 74.798 854.539 75.499 852.64 72.9018C841.74 58.0836 855.545 40.5088 873.931 43.6318C881.416 44.9065 880.059 47.5355 882.788 51.503Z" fill="#DF3838"/>
<path d="M882.789 51.5029C883.379 52.3633 885.438 52.937 886.364 55.0243C888.422 59.6609 887.353 68.8387 884.48 72.7903C883.315 74.3996 881.4 73.6029 881.193 73.81C882.39 72.6469 885.167 63.4054 884.401 62.6565L878.017 61.079L884.416 60.2505L882.805 51.5029H882.789Z" fill="#DF3838"/>
<path d="M857.253 75.403C857.716 75.7536 866.478 78.9403 866.813 78.5898L870.005 72.2163C866.223 82.7803 878.512 76.4069 881.177 73.8256C872.08 82.382 867.595 83.3539 857.237 75.419L857.253 75.403Z" fill="#DF3838"/>
<path d="M850.343 111.78C819.461 94.7146 764.846 94.3322 731.889 105.613L719.999 112.034C754.281 99.5903 793.43 96.3239 828.861 106.123C843.592 110.202 868.234 119.794 866.925 138.309C866.382 145.989 862.871 150.227 859.568 150.928C850.008 164.042 819.732 173.618 783.838 173.618C747.945 173.618 717.238 163.898 707.902 150.658C695.756 141.4 700.448 126.423 712.003 117.611C709.833 115.189 703.098 122.662 701.757 124.909C695.182 135.919 698.597 146.403 707.87 154.37C738.353 180.565 814.098 179.195 848.763 161.731C875.288 148.363 876.884 126.438 850.343 111.764V111.78Z" fill="#DF3838"/>
<path d="M735.3 153.413C730.111 154.2 725.609 153.75 721.794 152.063C717.979 150.376 715.803 147.761 715.267 144.217C714.99 142.382 715.249 140.886 716.045 139.73C716.895 138.5 718.142 137.761 719.787 137.511C721.053 137.319 722.176 137.473 723.158 137.971C724.14 138.469 724.906 139.259 725.458 140.341C724.296 142.071 723.844 143.79 724.102 145.499C724.399 147.46 725.543 149.034 727.535 150.221C729.527 151.408 732.01 151.776 734.984 151.324C738.971 150.72 742.095 149.34 744.358 147.184C746.612 144.965 747.509 142.337 747.049 139.299C746.781 137.527 746.042 136.28 744.833 135.557C743.623 134.834 741.382 134.139 738.109 133.47L722.987 130.423C717.049 129.253 713.664 125.914 712.831 120.409C712.152 115.916 713.147 112.011 715.817 108.693C718.477 105.312 722.528 103.208 727.97 102.383C732.462 101.701 736.448 102.165 739.928 103.773C743.461 105.309 745.515 107.975 746.09 111.772C746.319 113.29 746.095 114.587 745.416 115.661C744.727 116.671 743.718 117.278 742.39 117.479C741.061 117.681 739.901 117.501 738.91 116.939C737.972 116.304 737.408 115.354 737.216 114.089C737.943 113.331 738.412 112.58 738.623 111.836C738.825 111.029 738.849 110.119 738.696 109.106C738.428 107.335 737.417 105.999 735.662 105.1C733.972 104.191 731.513 103.982 728.285 104.471C725.501 104.894 723.164 105.701 721.273 106.894C719.436 108.014 718.116 109.347 717.315 110.893C716.513 112.439 716.222 113.939 716.442 115.395C716.672 116.914 717.391 118.034 718.601 118.757C719.874 119.47 722.079 120.139 725.216 120.764L739.222 123.494C742.494 124.163 745.075 125.39 746.963 127.175C748.851 128.96 750.039 131.466 750.528 134.693C751.226 139.313 750.35 143.362 747.899 146.841C745.448 150.32 741.248 152.511 735.3 153.413Z" fill="#DF3838"/>
<path d="M831.231 151.133C828.74 150.307 826.835 149.085 825.517 147.468C824.198 145.85 823.82 144.191 824.382 142.489C824.674 141.608 825.128 141 825.744 140.665C826.401 140.31 827.124 140.263 827.914 140.525C828.521 140.727 828.987 141.05 829.312 141.495C829.637 141.939 829.8 142.466 829.801 143.073C828.892 143.58 828.301 144.244 828.03 145.065C827.719 146.006 827.873 146.968 828.492 147.949C829.111 148.929 830.135 149.657 831.562 150.13C833.476 150.765 835.181 150.858 836.677 150.41C838.183 149.932 839.178 148.964 839.66 147.506C839.941 146.655 839.894 145.931 839.518 145.335C839.143 144.738 838.301 143.92 836.994 142.879L830.943 138.091C828.561 136.222 827.808 133.966 828.682 131.323C829.395 129.166 830.722 127.651 832.663 126.777C834.613 125.873 836.894 125.854 839.506 126.721C841.663 127.436 843.335 128.546 844.522 130.053C845.749 131.539 846.062 133.193 845.459 135.016C845.218 135.745 844.824 136.272 844.279 136.597C843.743 136.891 843.156 136.933 842.519 136.721C841.881 136.51 841.405 136.166 841.09 135.691C840.816 135.196 840.779 134.644 840.98 134.036C841.475 133.863 841.854 133.635 842.116 133.351C842.389 133.037 842.605 132.637 842.766 132.151C843.048 131.3 842.899 130.475 842.32 129.677C841.772 128.888 840.724 128.237 839.175 127.723C837.838 127.28 836.614 127.11 835.501 127.213C834.429 127.296 833.539 127.591 832.832 128.098C832.125 128.605 831.656 129.208 831.425 129.907C831.184 130.636 831.251 131.299 831.627 131.895C832.033 132.502 832.865 133.3 834.121 134.29L839.746 138.684C841.053 139.725 841.926 140.857 842.364 142.081C842.802 143.305 842.764 144.692 842.252 146.241C841.518 148.459 840.212 150.065 838.333 151.06C836.453 152.055 834.086 152.079 831.231 151.133Z" fill="#DF3838"/>
<path d="M767.597 167.117C764.109 166.845 761.253 165.874 759.029 164.203C756.805 162.531 755.786 160.505 755.971 158.123C756.067 156.889 756.46 155.957 757.151 155.326C757.888 154.656 758.81 154.364 759.916 154.45C760.766 154.516 761.473 154.785 762.035 155.257C762.598 155.729 762.977 156.358 763.173 157.143C762.157 158.091 761.605 159.14 761.516 160.288C761.413 161.607 761.92 162.802 763.035 163.873C764.15 164.944 765.707 165.558 767.706 165.714C770.386 165.922 772.623 165.498 774.417 164.439C776.214 163.338 777.193 161.767 777.351 159.725C777.444 158.534 777.152 157.612 776.475 156.961C775.798 156.309 774.447 155.519 772.422 154.59L763.06 150.33C759.38 148.674 757.684 145.995 757.972 142.294C758.207 139.274 759.441 136.888 761.674 135.136C763.91 133.342 766.857 132.587 770.516 132.873C773.536 133.108 776.055 134.011 778.073 135.58C780.136 137.11 781.069 139.152 780.87 141.704C780.791 142.725 780.45 143.533 779.847 144.128C779.248 144.68 778.502 144.922 777.609 144.852C776.715 144.782 775.989 144.49 775.43 143.976C774.917 143.423 774.693 142.72 774.759 141.87C775.345 141.487 775.763 141.07 776.012 140.619C776.264 140.125 776.417 139.538 776.47 138.857C776.562 137.666 776.107 136.647 775.103 135.798C774.141 134.953 772.576 134.445 770.407 134.276C768.535 134.13 766.895 134.302 765.488 134.792C764.126 135.242 763.069 135.908 762.315 136.791C761.562 137.674 761.147 138.605 761.071 139.583C760.992 140.604 761.291 141.44 761.967 142.092C762.687 142.747 764.018 143.514 765.961 144.393L774.646 148.28C776.671 149.208 778.162 150.394 779.12 151.839C780.077 153.283 780.472 155.09 780.303 157.259C780.062 160.364 778.883 162.862 776.768 164.751C774.653 166.64 771.596 167.429 767.597 167.117Z" fill="#DF3838"/>
<path d="M820.979 128.205C819.673 128.084 818.607 127.705 817.782 127.066C816.957 126.428 816.585 125.662 816.667 124.77C816.71 124.308 816.862 123.961 817.125 123.728C817.405 123.48 817.752 123.376 818.166 123.414C818.484 123.443 818.748 123.548 818.956 123.728C819.165 123.908 819.304 124.146 819.373 124.441C818.987 124.791 818.775 125.181 818.735 125.612C818.69 126.106 818.873 126.556 819.285 126.964C819.698 127.372 820.279 127.61 821.027 127.679C822.031 127.771 822.872 127.624 823.55 127.237C824.23 126.833 824.605 126.249 824.676 125.485C824.717 125.038 824.612 124.691 824.362 124.443C824.111 124.195 823.609 123.892 822.855 123.533L819.367 121.886C817.996 121.245 817.374 120.232 817.501 118.846C817.605 117.715 818.081 116.826 818.927 116.181C819.775 115.521 820.885 115.253 822.255 115.38C823.386 115.484 824.326 115.836 825.074 116.435C825.84 117.02 826.178 117.79 826.091 118.746C826.055 119.128 825.923 119.43 825.694 119.649C825.467 119.853 825.185 119.94 824.851 119.909C824.516 119.878 824.246 119.765 824.039 119.569C823.849 119.359 823.769 119.094 823.798 118.776C824.02 118.635 824.179 118.481 824.275 118.313C824.372 118.13 824.432 117.91 824.456 117.655C824.497 117.209 824.331 116.824 823.959 116.501C823.603 116.179 823.019 115.98 822.206 115.905C821.505 115.841 820.89 115.896 820.359 116.073C819.846 116.234 819.446 116.478 819.159 116.805C818.872 117.132 818.712 117.479 818.678 117.846C818.643 118.228 818.75 118.543 819.001 118.791C819.267 119.041 819.762 119.335 820.486 119.675L823.722 121.179C824.476 121.538 825.029 121.99 825.38 122.537C825.732 123.083 825.87 123.763 825.796 124.576C825.689 125.739 825.234 126.669 824.43 127.366C823.627 128.063 822.477 128.343 820.979 128.205Z" fill="#DF3838"/>
<path d="M763.854 127.835C762.568 127.578 761.547 127.089 760.794 126.368C760.04 125.646 759.75 124.846 759.925 123.968C760.015 123.512 760.203 123.183 760.489 122.979C760.793 122.762 761.149 122.694 761.557 122.776C761.871 122.838 762.122 122.97 762.31 123.171C762.499 123.371 762.612 123.622 762.65 123.924C762.23 124.231 761.978 124.597 761.893 125.021C761.797 125.507 761.932 125.975 762.3 126.423C762.667 126.872 763.22 127.17 763.957 127.317C764.946 127.514 765.798 127.455 766.513 127.141C767.231 126.811 767.665 126.269 767.814 125.516C767.902 125.077 767.834 124.721 767.611 124.448C767.388 124.175 766.92 123.821 766.207 123.385L762.911 121.381C761.614 120.601 761.101 119.528 761.373 118.163C761.594 117.048 762.16 116.215 763.069 115.662C763.981 115.093 765.112 114.944 766.462 115.213C767.576 115.435 768.474 115.883 769.155 116.557C769.856 117.219 770.112 118.021 769.925 118.962C769.85 119.339 769.687 119.625 769.436 119.819C769.189 119.998 768.9 120.055 768.571 119.989C768.241 119.924 767.984 119.783 767.798 119.566C767.632 119.337 767.58 119.066 767.642 118.752C767.877 118.636 768.051 118.499 768.164 118.342C768.28 118.169 768.363 117.958 768.413 117.706C768.5 117.267 768.376 116.867 768.04 116.506C767.719 116.149 767.159 115.89 766.359 115.731C765.668 115.593 765.05 115.584 764.504 115.703C763.977 115.81 763.554 116.012 763.234 116.307C762.915 116.602 762.719 116.93 762.647 117.291C762.572 117.668 762.646 117.992 762.869 118.265C763.108 118.541 763.57 118.886 764.254 119.3L767.315 121.134C768.028 121.57 768.531 122.078 768.823 122.658C769.116 123.239 769.182 123.929 769.023 124.729C768.795 125.875 768.246 126.752 767.374 127.362C766.502 127.971 765.329 128.129 763.854 127.835Z" fill="#DF3838"/>
<path d="M787.18 161.392C785.894 161.135 784.873 160.646 784.12 159.925C783.366 159.203 783.076 158.403 783.251 157.525C783.342 157.07 783.529 156.74 783.815 156.536C784.119 156.319 784.475 156.251 784.883 156.333C785.197 156.395 785.448 156.527 785.636 156.728C785.825 156.928 785.938 157.179 785.976 157.481C785.556 157.788 785.304 158.154 785.219 158.578C785.123 159.064 785.258 159.532 785.626 159.98C785.993 160.429 786.546 160.727 787.283 160.874C788.272 161.071 789.124 161.012 789.839 160.698C790.557 160.368 790.991 159.827 791.141 159.073C791.228 158.634 791.16 158.278 790.937 158.005C790.714 157.732 790.246 157.378 789.533 156.942L786.237 154.939C784.94 154.158 784.427 153.085 784.699 151.72C784.92 150.606 785.486 149.772 786.395 149.219C787.308 148.651 788.438 148.501 789.788 148.77C790.902 148.992 791.8 149.44 792.481 150.115C793.182 150.776 793.438 151.578 793.251 152.519C793.176 152.896 793.013 153.182 792.763 153.377C792.515 153.556 792.226 153.612 791.897 153.546C791.567 153.481 791.31 153.34 791.125 153.123C790.958 152.894 790.906 152.623 790.968 152.309C791.204 152.193 791.378 152.056 791.49 151.899C791.606 151.727 791.689 151.515 791.739 151.264C791.826 150.824 791.702 150.424 791.366 150.063C791.046 149.706 790.485 149.447 789.685 149.288C788.995 149.15 788.376 149.141 787.831 149.261C787.304 149.368 786.88 149.569 786.561 149.864C786.241 150.159 786.045 150.487 785.973 150.848C785.899 151.225 785.973 151.549 786.196 151.822C786.434 152.098 786.896 152.443 787.58 152.857L790.642 154.691C791.354 155.127 791.857 155.635 792.149 156.215C792.442 156.796 792.508 157.486 792.349 158.286C792.121 159.432 791.572 160.309 790.7 160.919C789.829 161.528 788.655 161.686 787.18 161.392Z" fill="#DF3838"/>
</g>
<g clip-path="url(#clip5_247_55)">
<path d="M406.332 124.287C406.415 121.861 410.969 121.35 412.768 122.308C414.863 127.416 418.757 131.263 424.483 133.865C425.556 134.328 425.539 134.87 424.483 135.461C424.368 140.106 419.946 143.554 411.25 145.805C407.982 148.279 409.187 150.259 414.88 151.791C419.566 163.125 423.625 161.369 431.084 153.02L430.952 150.897C433.806 151.344 436.711 151.089 439.334 149.828C439.334 147.992 440.984 146.922 444.284 146.635C441.76 143.778 442.057 143.602 445.935 143.442L445.423 141.176C452.007 140.138 454.779 137.776 453.69 134.104L457.485 135.461C469.679 142.58 486.593 128.661 497.88 130.608C504.051 131.662 508.523 148.391 517.631 148.343C523.093 148.311 527.911 143.889 533.39 149.844C531.657 157.266 518.638 162.103 510.866 164.865C487.484 173.165 461.907 172.974 437.684 170.595C423.873 172.846 387.488 162.917 378.264 152.302C377.852 151.823 377.984 150.897 378.264 149.844C384.832 144.831 390.508 138.654 395.293 131.327C396.96 129.619 407.636 122.068 404.567 127.049L406.332 124.303V124.287Z" fill="#E1E1E1"/>
<path d="M521.393 127.719C524.346 127.16 530.023 129.107 530.039 131.47C530.072 134.247 515.931 137.536 514.396 141.814C507.697 137.057 515.683 128.804 521.393 127.703V127.719Z" fill="white"/>
<path d="M516.872 116.322C517.746 117.072 509.199 132.955 505.338 132.268C504.76 123.265 504.892 114.326 516.872 116.322Z" fill="#E2E2E2"/>
<path d="M533.373 85.9756C529.941 89.2799 523.357 82.9746 526.789 79.6064C529.429 77.0204 536.046 83.3896 533.373 85.9756Z" fill="white"/>
<path d="M383.214 130.672C381.251 129.299 381.531 122.786 387.323 124.319C393.115 125.851 387.075 133.386 383.214 130.672Z" fill="#E9E9E9"/>
<path d="M445.909 107.864C444.64 107.533 443.654 106.987 442.951 106.225C442.248 105.463 442.016 104.651 442.254 103.787C442.377 103.34 442.589 103.023 442.889 102.836C443.209 102.639 443.571 102.592 443.973 102.697C444.283 102.778 444.525 102.923 444.699 103.134C444.873 103.345 444.969 103.601 444.985 103.903C444.542 104.184 444.263 104.533 444.149 104.95C444.017 105.428 444.119 105.901 444.455 106.369C444.79 106.836 445.322 107.165 446.05 107.354C447.025 107.609 447.882 107.6 448.621 107.33C449.363 107.044 449.837 106.53 450.041 105.79C450.16 105.358 450.117 105 449.914 104.716C449.71 104.431 449.267 104.051 448.585 103.576L445.429 101.39C444.187 100.538 443.751 99.4403 444.121 98.0984C444.423 97.0032 445.049 96.2074 445.999 95.7109C446.953 95.1989 448.096 95.1164 449.427 95.4632C450.527 95.7495 451.393 96.248 452.027 96.9586C452.681 97.6578 452.88 98.4702 452.625 99.3957C452.523 99.7659 452.339 100.04 452.074 100.219C451.813 100.383 451.52 100.422 451.195 100.338C450.87 100.253 450.623 100.098 450.453 99.8714C450.302 99.6339 450.27 99.3609 450.355 99.0524C450.599 98.9506 450.783 98.8249 450.907 98.6754C451.035 98.5105 451.133 98.3046 451.201 98.0578C451.32 97.6259 451.225 97.2208 450.914 96.8423C450.619 96.4679 450.077 96.1778 449.287 95.9722C448.606 95.7947 447.988 95.7495 447.433 95.8364C446.897 95.9119 446.459 96.0871 446.118 96.3619C445.777 96.6367 445.557 96.9515 445.459 97.3063C445.357 97.6764 445.408 98.0038 445.612 98.2883C445.831 98.5768 446.268 98.947 446.924 99.3987L449.856 101.402C450.538 101.878 451.005 102.412 451.256 103.007C451.507 103.601 451.524 104.292 451.307 105.078C450.997 106.204 450.383 107.045 449.467 107.6C448.551 108.155 447.365 108.243 445.909 107.864Z" fill="#DF3838"/>
<path d="M460.469 147.287C459.199 146.957 458.213 146.411 457.51 145.649C456.808 144.887 456.575 144.074 456.813 143.211C456.937 142.763 457.149 142.447 457.449 142.26C457.769 142.063 458.13 142.016 458.533 142.121C458.842 142.202 459.084 142.347 459.259 142.558C459.433 142.769 459.528 143.025 459.544 143.327C459.102 143.608 458.823 143.957 458.708 144.374C458.576 144.852 458.678 145.325 459.014 145.793C459.35 146.26 459.882 146.589 460.609 146.778C461.585 147.032 462.442 147.024 463.18 146.754C463.923 146.468 464.396 145.954 464.6 145.214C464.719 144.782 464.677 144.424 464.473 144.139C464.27 143.855 463.827 143.475 463.145 143L459.988 140.814C458.746 139.961 458.31 138.864 458.68 137.522C458.982 136.427 459.608 135.631 460.558 135.135C461.512 134.623 462.655 134.54 463.987 134.887C465.086 135.173 465.953 135.672 466.587 136.382C467.24 137.082 467.44 137.894 467.184 138.82C467.082 139.19 466.899 139.464 466.634 139.643C466.373 139.807 466.08 139.846 465.755 139.761C465.43 139.677 465.182 139.521 465.012 139.295C464.862 139.058 464.829 138.785 464.914 138.476C465.158 138.374 465.342 138.249 465.466 138.099C465.595 137.934 465.693 137.728 465.761 137.482C465.88 137.05 465.784 136.645 465.474 136.266C465.179 135.892 464.636 135.602 463.847 135.396C463.165 135.219 462.547 135.173 461.992 135.26C461.457 135.336 461.019 135.511 460.677 135.786C460.336 136.061 460.117 136.375 460.019 136.73C459.917 137.1 459.968 137.428 460.171 137.712C460.39 138.001 460.828 138.371 461.483 138.823L464.416 140.826C465.098 141.301 465.565 141.836 465.816 142.431C466.067 143.025 466.084 143.716 465.867 144.502C465.556 145.628 464.943 146.469 464.027 147.024C463.11 147.578 461.924 147.666 460.469 147.287Z" fill="#DF3838"/>
</g>
<path d="M418.154 154.446C415.992 154.773 414.116 154.585 412.526 153.882C410.936 153.179 410.029 152.089 409.805 150.613C409.69 149.848 409.797 149.225 410.129 148.743C410.483 148.231 411.003 147.923 411.688 147.819C412.216 147.739 412.684 147.803 413.093 148.011C413.502 148.219 413.821 148.548 414.051 148.998C413.567 149.719 413.379 150.435 413.487 151.147C413.611 151.965 414.088 152.621 414.918 153.115C415.748 153.61 416.783 153.763 418.022 153.576C419.683 153.324 420.985 152.749 421.928 151.851C422.866 150.927 423.24 149.832 423.048 148.566C422.936 147.828 422.628 147.308 422.124 147.007C421.62 146.706 420.686 146.416 419.322 146.137L413.021 144.866C410.547 144.378 409.136 142.987 408.788 140.693C408.505 138.821 408.919 137.194 410.031 135.812C411.139 134.403 412.827 133.527 415.095 133.184C416.967 132.9 418.628 133.094 420.078 133.764C421.55 134.404 422.406 135.515 422.646 137.097C422.742 137.73 422.648 138.27 422.366 138.717C422.079 139.138 421.658 139.391 421.105 139.475C420.551 139.559 420.068 139.484 419.655 139.249C419.264 138.985 419.029 138.589 418.949 138.062C419.252 137.746 419.447 137.433 419.535 137.123C419.619 136.787 419.629 136.408 419.565 135.986C419.453 135.248 419.032 134.691 418.301 134.317C417.596 133.938 416.571 133.85 415.227 134.054C414.066 134.23 413.093 134.566 412.305 135.063C411.539 135.529 410.99 136.085 410.656 136.729C410.322 137.373 410.201 137.998 410.292 138.604C410.388 139.237 410.688 139.704 411.192 140.005C411.723 140.302 412.642 140.581 413.949 140.842L419.785 141.981C421.149 142.26 422.224 142.771 423.011 143.515C423.798 144.259 424.294 145.303 424.497 146.648C424.789 148.572 424.424 150.259 423.403 151.709C422.382 153.158 420.632 154.07 418.154 154.446Z" fill="#DF3838"/>
<path d="M436.272 144.492C432.858 143.728 430.169 142.361 428.205 140.391C426.241 138.421 425.52 136.271 426.042 133.939C426.312 132.732 426.834 131.865 427.608 131.338C428.432 130.779 429.386 130.621 430.468 130.863C431.301 131.05 431.962 131.416 432.452 131.963C432.942 132.51 433.228 133.186 433.31 133.991C432.17 134.786 431.475 135.745 431.223 136.869C430.934 138.16 431.266 139.415 432.217 140.633C433.169 141.852 434.623 142.68 436.58 143.118C439.203 143.705 441.478 143.602 443.404 142.808C445.34 141.974 446.531 140.557 446.979 138.558C447.239 137.393 447.081 136.439 446.504 135.698C445.926 134.956 444.701 133.983 442.829 132.777L434.167 127.231C430.759 125.07 429.461 122.178 430.271 118.555C430.933 115.599 432.493 113.412 434.953 111.995C437.422 110.537 440.446 110.208 444.027 111.009C446.983 111.671 449.349 112.921 451.123 114.761C452.948 116.569 453.582 118.722 453.023 121.22C452.799 122.219 452.347 122.97 451.666 123.474C450.994 123.936 450.221 124.069 449.346 123.873C448.472 123.677 447.795 123.285 447.314 122.697C446.885 122.076 446.763 121.349 446.95 120.517C447.584 120.221 448.057 119.868 448.367 119.457C448.687 119.004 448.922 118.444 449.071 117.778C449.332 116.612 449.026 115.538 448.152 114.555C447.321 113.582 445.843 112.858 443.72 112.383C441.888 111.973 440.24 111.911 438.777 112.195C437.366 112.448 436.224 112.957 435.353 113.724C434.482 114.491 433.939 115.354 433.725 116.311C433.501 117.311 433.678 118.181 434.255 118.922C434.874 119.673 436.083 120.621 437.882 121.767L445.927 126.846C447.799 128.052 449.107 129.438 449.85 131.003C450.592 132.568 450.726 134.413 450.251 136.536C449.571 139.576 448.05 141.88 445.687 143.45C443.325 145.02 440.186 145.368 436.272 144.492Z" fill="#DF3838"/>
<path d="M489.171 133.41C482.253 134.458 476.25 133.857 471.162 131.607C466.074 129.357 463.173 125.869 462.457 121.145C462.086 118.698 462.432 116.704 463.493 115.162C464.625 113.523 466.289 112.538 468.482 112.206C470.17 111.95 471.668 112.155 472.977 112.819C474.286 113.484 475.308 114.538 476.045 115.98C474.495 118.286 473.893 120.578 474.238 122.856C474.634 125.471 476.161 127.57 478.817 129.153C481.473 130.736 484.784 131.227 488.749 130.626C494.065 129.821 498.231 127.981 501.248 125.108C504.252 122.15 505.448 118.646 504.834 114.596C504.476 112.234 503.491 110.571 501.878 109.607C500.264 108.643 497.276 107.715 492.911 106.822L472.747 102.756C464.829 101.194 460.314 96.7424 459.202 89.4021C458.295 83.4118 459.621 78.2052 463.18 73.7823C466.726 69.275 472.127 66.4718 479.383 65.3728C485.374 64.4654 490.689 65.0843 495.329 67.2296C500.041 69.2777 502.78 72.8328 503.547 77.8951C503.854 79.92 503.555 81.6483 502.65 83.08C501.732 84.4273 500.387 85.2352 498.615 85.5036C496.843 85.7719 495.296 85.5316 493.975 84.7824C492.724 83.9361 491.972 82.6692 491.716 80.9818C492.685 79.9719 493.31 78.971 493.591 77.9791C493.86 76.9027 493.892 75.6896 493.687 74.3396C493.33 71.9772 491.981 70.1965 489.642 68.9973C487.387 67.7853 484.108 67.5052 479.805 68.157C476.093 68.7193 472.976 69.7955 470.455 71.3857C468.006 72.8787 466.247 74.6555 465.178 76.7161C464.109 78.7768 463.722 80.7774 464.016 82.7179C464.322 84.7428 465.282 86.2372 466.896 87.2012C468.593 88.1523 471.533 89.0447 475.716 89.8784L494.392 93.5224C498.757 94.4149 502.198 96.0513 504.716 98.4317C507.234 100.812 508.819 104.154 509.471 108.457C510.404 114.616 509.237 120.014 505.969 124.652C502.701 129.289 497.102 132.209 489.171 133.41Z" fill="#DF3838"/>
<path d="M1067.34 152.9C1063.88 153.424 1060.88 153.123 1058.34 151.998C1055.79 150.873 1054.34 149.129 1053.99 146.767C1053.8 145.544 1053.97 144.546 1054.5 143.776C1055.07 142.956 1055.9 142.463 1057 142.297C1057.84 142.17 1058.59 142.272 1059.24 142.604C1059.9 142.937 1060.41 143.463 1060.78 144.184C1060 145.337 1059.7 146.483 1059.88 147.622C1060.07 148.93 1060.84 149.98 1062.16 150.771C1063.49 151.562 1065.15 151.808 1067.13 151.508C1069.79 151.105 1071.87 150.185 1073.38 148.749C1074.88 147.27 1075.48 145.518 1075.17 143.493C1074.99 142.312 1074.5 141.48 1073.7 140.998C1072.89 140.516 1071.39 140.052 1069.21 139.606L1059.13 137.573C1055.17 136.791 1052.91 134.566 1052.36 130.896C1051.9 127.9 1052.57 125.297 1054.35 123.086C1056.12 120.832 1058.82 119.43 1062.45 118.881C1065.44 118.427 1068.1 118.737 1070.42 119.809C1072.78 120.833 1074.15 122.611 1074.53 125.142C1074.68 126.155 1074.53 127.019 1074.08 127.735C1073.62 128.408 1072.95 128.812 1072.06 128.946C1071.18 129.081 1070.4 128.96 1069.74 128.586C1069.12 128.163 1068.74 127.529 1068.61 126.685C1069.1 126.181 1069.41 125.68 1069.55 125.184C1069.69 124.646 1069.7 124.039 1069.6 123.364C1069.42 122.183 1068.75 121.293 1067.58 120.693C1066.45 120.087 1064.81 119.947 1062.66 120.273C1060.8 120.554 1059.24 121.092 1057.98 121.887C1056.76 122.634 1055.88 123.522 1055.35 124.553C1054.81 125.583 1054.62 126.583 1054.76 127.554C1054.92 128.566 1055.4 129.313 1056.2 129.795C1057.05 130.271 1058.52 130.717 1060.61 131.134L1069.95 132.956C1072.13 133.402 1073.86 134.22 1075.11 135.41C1076.37 136.601 1077.17 138.271 1077.49 140.423C1077.96 143.502 1077.37 146.202 1075.74 148.52C1074.11 150.839 1071.31 152.299 1067.34 152.9Z" fill="#DF3838"/>
<path d="M1073.05 172.141C1069.79 170.883 1067.33 169.136 1065.67 166.899C1064.02 164.662 1063.62 162.429 1064.48 160.199C1064.93 159.044 1065.57 158.263 1066.41 157.856C1067.31 157.425 1068.28 157.409 1069.31 157.807C1070.11 158.114 1070.71 158.574 1071.11 159.187C1071.52 159.8 1071.7 160.51 1071.66 161.319C1070.42 161.937 1069.59 162.784 1069.18 163.859C1068.7 165.093 1068.85 166.383 1069.61 167.728C1070.37 169.073 1071.69 170.106 1073.56 170.827C1076.07 171.793 1078.33 172.025 1080.35 171.524C1082.39 170.983 1083.78 169.757 1084.51 167.846C1084.94 166.731 1084.93 165.764 1084.46 164.946C1084 164.128 1082.93 162.985 1081.26 161.517L1073.51 154.758C1070.45 152.119 1069.59 149.068 1070.93 145.604C1072.02 142.777 1073.88 140.844 1076.52 139.803C1079.18 138.723 1082.22 138.843 1085.64 140.162C1088.47 141.251 1090.63 142.835 1092.11 144.916C1093.65 146.972 1093.96 149.195 1093.04 151.584C1092.67 152.539 1092.11 153.216 1091.37 153.614C1090.63 153.972 1089.85 153.99 1089.01 153.668C1088.18 153.346 1087.57 152.858 1087.18 152.206C1086.84 151.529 1086.83 150.792 1087.14 149.996C1087.81 149.797 1088.33 149.517 1088.69 149.155C1089.08 148.754 1089.39 148.235 1089.64 147.598C1090.07 146.483 1089.92 145.376 1089.2 144.276C1088.52 143.191 1087.17 142.258 1085.14 141.476C1083.39 140.801 1081.77 140.497 1080.28 140.563C1078.84 140.606 1077.64 140.942 1076.66 141.572C1075.69 142.203 1075.03 142.976 1074.67 143.892C1074.31 144.848 1074.35 145.734 1074.81 146.552C1075.32 147.386 1076.37 148.502 1077.98 149.899L1085.19 156.106C1086.87 157.574 1087.96 159.137 1088.46 160.794C1088.97 162.452 1088.83 164.296 1088.05 166.326C1086.93 169.233 1085.08 171.289 1082.52 172.495C1079.95 173.7 1076.79 173.582 1073.05 172.141Z" fill="#DF3838"/>
<path d="M1083.78 138.521C1080.32 139.045 1077.31 138.744 1074.77 137.619C1072.23 136.494 1070.78 134.75 1070.42 132.388C1070.23 131.165 1070.41 130.168 1070.94 129.397C1071.5 128.577 1072.33 128.085 1073.43 127.918C1074.27 127.791 1075.02 127.893 1075.68 128.225C1076.33 128.558 1076.84 129.084 1077.21 129.805C1076.44 130.958 1076.14 132.104 1076.31 133.243C1076.51 134.551 1077.27 135.601 1078.6 136.392C1079.93 137.183 1081.58 137.429 1083.56 137.129C1086.22 136.726 1088.31 135.806 1089.81 134.37C1091.32 132.891 1091.91 131.139 1091.61 129.114C1091.43 127.933 1090.94 127.101 1090.13 126.619C1089.32 126.137 1087.83 125.673 1085.65 125.227L1075.56 123.194C1071.6 122.413 1069.35 120.187 1068.79 116.517C1068.34 113.522 1069 110.918 1070.78 108.707C1072.55 106.453 1075.25 105.052 1078.88 104.502C1081.88 104.048 1084.53 104.358 1086.85 105.43C1089.21 106.454 1090.58 108.232 1090.96 110.763C1091.12 111.776 1090.97 112.64 1090.51 113.356C1090.06 114.029 1089.38 114.433 1088.5 114.567C1087.61 114.702 1086.84 114.581 1086.18 114.207C1085.55 113.784 1085.18 113.15 1085.05 112.307C1085.53 111.802 1085.85 111.301 1085.99 110.805C1086.12 110.267 1086.14 109.66 1086.03 108.985C1085.85 107.804 1085.18 106.914 1084.01 106.314C1082.88 105.708 1081.24 105.568 1079.09 105.894C1077.24 106.175 1075.68 106.713 1074.42 107.508C1073.19 108.255 1072.31 109.143 1071.78 110.174C1071.24 111.204 1071.05 112.204 1071.2 113.175C1071.35 114.187 1071.83 114.934 1072.64 115.416C1073.49 115.892 1074.96 116.338 1077.05 116.755L1086.39 118.577C1088.57 119.023 1090.29 119.841 1091.55 121.031C1092.81 122.222 1093.6 123.892 1093.93 126.044C1094.39 129.123 1093.81 131.823 1092.17 134.142C1090.54 136.46 1087.74 137.92 1083.78 138.521Z" fill="#DF3838"/>
<path d="M1050.91 160.089C1047.45 160.613 1044.45 160.313 1041.9 159.188C1039.36 158.062 1037.91 156.319 1037.55 153.956C1037.37 152.733 1037.54 151.736 1038.07 150.965C1038.64 150.146 1039.47 149.653 1040.56 149.487C1041.41 149.359 1042.16 149.461 1042.81 149.794C1043.47 150.126 1043.98 150.653 1044.35 151.374C1043.57 152.527 1043.27 153.673 1043.44 154.812C1043.64 156.12 1044.4 157.169 1045.73 157.96C1047.06 158.752 1048.72 158.997 1050.7 158.697C1053.36 158.294 1055.44 157.375 1056.95 155.938C1058.45 154.459 1059.05 152.707 1058.74 150.682C1058.56 149.501 1058.07 148.669 1057.26 148.187C1056.46 147.705 1054.96 147.241 1052.78 146.795L1042.7 144.762C1038.74 143.981 1036.48 141.755 1035.93 138.085C1035.47 135.09 1036.13 132.487 1037.91 130.275C1039.69 128.022 1042.39 126.62 1046.02 126.07C1049.01 125.617 1051.67 125.926 1053.99 126.999C1056.34 128.023 1057.71 129.8 1058.1 132.332C1058.25 133.344 1058.1 134.208 1057.65 134.924C1057.19 135.598 1056.52 136.002 1055.63 136.136C1054.75 136.27 1053.97 136.15 1053.31 135.775C1052.69 135.352 1052.31 134.719 1052.18 133.875C1052.67 133.37 1052.98 132.87 1053.12 132.374C1053.25 131.835 1053.27 131.229 1053.17 130.554C1052.99 129.373 1052.31 128.482 1051.14 127.883C1050.02 127.277 1048.38 127.137 1046.23 127.463C1044.37 127.744 1042.81 128.282 1041.55 129.077C1040.33 129.823 1039.45 130.712 1038.91 131.742C1038.38 132.772 1038.18 133.773 1038.33 134.743C1038.49 135.755 1038.97 136.503 1039.77 136.985C1040.62 137.46 1042.09 137.906 1044.18 138.323L1053.52 140.145C1055.7 140.591 1057.42 141.41 1058.68 142.6C1059.94 143.79 1060.73 145.461 1061.06 147.612C1061.53 150.692 1060.94 153.391 1059.31 155.71C1057.67 158.029 1054.87 159.488 1050.91 160.089Z" fill="#DF3838"/>
<path d="M1107.36 157.039C1102.17 157.825 1097.67 157.375 1093.85 155.687C1090.03 154 1087.86 151.384 1087.32 147.84C1087.04 146.005 1087.3 144.51 1088.1 143.353C1088.95 142.124 1090.2 141.385 1091.84 141.136C1093.11 140.944 1094.23 141.098 1095.21 141.596C1096.19 142.095 1096.96 142.885 1097.51 143.966C1096.35 145.696 1095.9 147.415 1096.16 149.124C1096.45 151.085 1097.6 152.659 1099.59 153.847C1101.58 155.034 1104.07 155.402 1107.04 154.951C1111.03 154.347 1114.15 152.968 1116.42 150.813C1118.67 148.594 1119.56 145.966 1119.1 142.929C1118.84 141.157 1118.1 139.91 1116.89 139.187C1115.68 138.464 1113.44 137.768 1110.16 137.098L1095.04 134.049C1089.1 132.877 1085.71 129.539 1084.88 124.033C1084.2 119.541 1085.19 115.636 1087.86 112.319C1090.52 108.938 1094.57 106.836 1100.02 106.011C1104.51 105.331 1108.5 105.795 1111.98 107.404C1115.51 108.94 1117.56 111.606 1118.14 115.403C1118.37 116.922 1118.15 118.218 1117.47 119.292C1116.78 120.302 1115.77 120.908 1114.44 121.11C1113.11 121.311 1111.95 121.13 1110.96 120.569C1110.02 119.934 1109.46 118.984 1109.27 117.718C1109.99 116.961 1110.46 116.21 1110.67 115.466C1110.87 114.659 1110.9 113.749 1110.74 112.737C1110.48 110.965 1109.46 109.629 1107.71 108.73C1106.02 107.821 1103.56 107.611 1100.33 108.1C1097.55 108.521 1095.21 109.328 1093.32 110.521C1091.48 111.641 1090.16 112.973 1089.36 114.519C1088.56 116.064 1088.27 117.565 1088.49 119.02C1088.72 120.539 1089.44 121.66 1090.65 122.383C1091.92 123.096 1094.13 123.765 1097.27 124.391L1111.27 127.124C1114.55 127.793 1117.13 129.02 1119.02 130.806C1120.9 132.591 1122.09 135.097 1122.58 138.324C1123.28 142.944 1122.41 146.992 1119.96 150.471C1117.51 153.949 1113.31 156.139 1107.36 157.039Z" fill="#DF3838"/>
<path d="M1133.07 170.36C1129.62 170.884 1126.61 170.584 1124.07 169.459C1121.53 168.333 1120.08 166.59 1119.72 164.227C1119.53 163.004 1119.7 162.007 1120.24 161.236C1120.8 160.417 1121.63 159.924 1122.73 159.758C1123.57 159.63 1124.32 159.732 1124.98 160.065C1125.63 160.397 1126.14 160.924 1126.51 161.645C1125.74 162.798 1125.44 163.944 1125.61 165.083C1125.81 166.391 1126.57 167.44 1127.9 168.231C1129.23 169.023 1130.88 169.268 1132.86 168.968C1135.52 168.565 1137.6 167.646 1139.11 166.209C1140.62 164.73 1141.21 162.978 1140.91 160.953C1140.73 159.772 1140.23 158.94 1139.43 158.458C1138.62 157.976 1137.13 157.512 1134.94 157.066L1124.86 155.033C1120.9 154.252 1118.65 152.026 1118.09 148.356C1117.64 145.361 1118.3 142.758 1120.08 140.546C1121.85 138.293 1124.55 136.891 1128.18 136.341C1131.18 135.888 1133.83 136.197 1136.15 137.27C1138.51 138.294 1139.88 140.071 1140.26 142.603C1140.42 143.615 1140.27 144.479 1139.81 145.195C1139.35 145.869 1138.68 146.273 1137.8 146.407C1136.91 146.541 1136.14 146.421 1135.48 146.046C1134.85 145.623 1134.47 144.99 1134.35 144.146C1134.83 143.641 1135.14 143.141 1135.28 142.645C1135.42 142.106 1135.43 141.5 1135.33 140.825C1135.15 139.644 1134.48 138.753 1133.31 138.154C1132.18 137.548 1130.54 137.408 1128.39 137.734C1126.54 138.015 1124.98 138.553 1123.72 139.348C1122.49 140.094 1121.61 140.983 1121.08 142.013C1120.54 143.043 1120.35 144.044 1120.5 145.014C1120.65 146.026 1121.13 146.774 1121.94 147.256C1122.79 147.731 1124.26 148.177 1126.35 148.594L1135.69 150.416C1137.87 150.862 1139.59 151.681 1140.85 152.871C1142.11 154.061 1142.9 155.732 1143.22 157.883C1143.69 160.963 1143.11 163.662 1141.47 165.981C1139.84 168.3 1137.04 169.759 1133.07 170.36Z" fill="#DF3838"/>
<path d="M1104.9 180.197C1101.42 179.792 1098.61 178.712 1096.45 176.958C1094.29 175.203 1093.35 173.139 1093.63 170.765C1093.77 169.536 1094.2 168.62 1094.91 168.016C1095.67 167.374 1096.61 167.118 1097.71 167.246C1098.56 167.345 1099.25 167.641 1099.8 168.133C1100.34 168.626 1100.69 169.269 1100.86 170.061C1099.81 170.97 1099.22 171.996 1099.08 173.141C1098.93 174.454 1099.39 175.668 1100.46 176.781C1101.54 177.894 1103.07 178.566 1105.06 178.798C1107.73 179.109 1109.98 178.77 1111.82 177.781C1113.65 176.749 1114.69 175.216 1114.93 173.182C1115.07 171.995 1114.81 171.063 1114.16 170.386C1113.51 169.709 1112.19 168.868 1110.2 167.863L1101.01 163.249C1097.39 161.454 1095.8 158.712 1096.23 155.025C1096.58 152.016 1097.91 149.679 1100.21 148.014C1102.51 146.306 1105.48 145.665 1109.13 146.089C1112.14 146.439 1114.62 147.437 1116.58 149.082C1118.58 150.69 1119.43 152.766 1119.14 155.308C1119.02 156.326 1118.65 157.12 1118.02 157.691C1117.4 158.221 1116.65 158.433 1115.76 158.33C1114.87 158.226 1114.15 157.907 1113.61 157.371C1113.12 156.799 1112.92 156.089 1113.02 155.241C1113.62 154.881 1114.06 154.481 1114.32 154.039C1114.59 153.555 1114.77 152.974 1114.85 152.296C1114.99 151.11 1114.57 150.073 1113.6 149.187C1112.67 148.306 1111.13 147.739 1108.97 147.487C1107.1 147.27 1105.46 147.379 1104.03 147.815C1102.65 148.213 1101.57 148.838 1100.78 149.692C1100 150.545 1099.55 151.459 1099.43 152.434C1099.31 153.451 1099.58 154.298 1100.23 154.976C1100.93 155.658 1102.23 156.475 1104.13 157.428L1112.66 161.642C1114.65 162.647 1116.1 163.889 1117 165.369C1117.9 166.848 1118.23 168.669 1117.97 170.83C1117.61 173.924 1116.34 176.374 1114.15 178.182C1111.97 179.989 1108.88 180.661 1104.9 180.197Z" fill="#DF3838"/>
<defs>
<clipPath id="clip0_247_55">
<rect width="152" height="80" fill="white" transform="translate(709 91)"/>
</clipPath>
<clipPath id="clip1_247_55">
<rect width="254.28" height="303.541" fill="white"/>
</clipPath>
<clipPath id="clip2_247_55">
<rect width="141.736" height="60.5971" fill="white" transform="translate(60.5967 109.896)"/>
</clipPath>
<clipPath id="clip3_247_55">
<rect width="249.223" height="208.649" fill="white" transform="translate(330.7 63.9033)"/>
</clipPath>
<clipPath id="clip4_247_55">
<rect width="254" height="242" fill="white" transform="translate(656 32)"/>
</clipPath>
<clipPath id="clip5_247_55">
<rect width="156" height="93" fill="white" transform="translate(378 79)"/>
</clipPath>
</defs>
</svg>
