<svg width="959" height="208" viewBox="0 0 959 208" fill="none" xmlns="http://www.w3.org/2000/svg">
<path d="M99.624 127.28C94.9733 127.28 90.8987 126.149 87.4 123.888C83.9013 121.627 81.192 118.469 79.272 114.416C77.3947 110.363 76.456 105.691 76.456 100.4C76.456 95.1093 77.416 90.4373 79.336 86.384C81.2987 82.288 84.0507 79.1307 87.592 76.912C91.176 74.6507 95.2933 73.52 99.944 73.52C101.779 73.52 103.635 73.84 105.512 74.48C107.432 75.12 109.16 76.016 110.696 77.168L114.984 73.52H116.328V89.392H114.984L111.016 79.472C109.523 78.1067 107.773 77.0187 105.768 76.208C103.805 75.3973 101.864 74.992 99.944 74.992C96.9573 74.992 94.312 75.76 92.008 77.296C89.7467 78.832 87.976 81.072 86.696 84.016C85.416 86.96 84.776 90.4587 84.776 94.512V106.224C84.776 110.277 85.3947 113.776 86.632 116.72C87.8693 119.664 89.5973 121.925 91.816 123.504C94.0347 125.04 96.6373 125.808 99.624 125.808C101.8 125.808 103.976 125.339 106.152 124.4C108.328 123.419 110.141 122.117 111.592 120.496L115.304 110.192H116.648V126.64H115.304L110.696 123.376C109.16 124.613 107.411 125.573 105.448 126.256C103.485 126.939 101.544 127.28 99.624 127.28ZM123.248 124.592L129.135 123.696V77.104L123.248 76.144V74.8H142.064V76.144L136.176 77.104V97.2H145.264C151.536 97.2 156.208 98.3947 159.28 100.784C162.394 103.131 163.952 106.736 163.952 111.6C163.952 116.464 162.394 120.091 159.28 122.48C156.208 124.827 151.536 126 145.264 126H123.248V124.592ZM144.368 124.4C148.336 124.4 151.301 123.461 153.264 121.584C155.226 119.707 156.208 116.805 156.208 112.88V110.32C156.208 106.395 155.226 103.493 153.264 101.616C151.301 99.696 148.336 98.736 144.368 98.736H136.176V124.4H144.368ZM168.685 126V124.656L174.573 123.696V77.104L168.685 76.208V74.8H207.213V89.456H205.485L200.557 76.4H181.613V99.44H189.933L193.709 90.16H195.373V110.384H193.709L189.869 100.976H181.613V124.464H201.709L206.957 110.384H208.621V126H168.685ZM214.81 126V124.656L220.698 123.696V77.104L214.81 76.208V74.8H233.626V76.208L227.738 77.104V124.4H245.018V77.104L239.13 76.208H239.066V74.8H258.01V76.208H257.946L252.058 77.104V124.4H269.338V77.104L263.386 76.208V74.8H282.33V76.208L276.378 77.104V123.696L282.33 124.656V126H214.81ZM287.435 124.592L293.323 123.696V77.104L287.435 76.144V74.8H306.251V76.144L300.363 77.104V97.2H309.451C315.723 97.2 320.395 98.3947 323.467 100.784C326.582 103.131 328.139 106.736 328.139 111.6C328.139 116.464 326.582 120.091 323.467 122.48C320.395 124.827 315.723 126 309.451 126H287.435V124.592ZM308.555 124.4C312.523 124.4 315.488 123.461 317.451 121.584C319.414 119.707 320.395 116.805 320.395 112.88V110.32C320.395 106.395 319.414 103.493 317.451 101.616C315.488 99.696 312.523 98.736 308.555 98.736H300.363V124.4H308.555ZM347.865 126V124.656L353.753 123.696V77.104L347.865 76.208V74.8H366.681V76.208L360.793 77.104V118.576L385.753 78.896V77.104L379.801 76.208V74.8H398.745V76.208L392.793 77.104V123.696L398.745 124.656V126H379.801V124.656L385.753 123.696V81.904L360.793 121.584V123.696L366.681 124.656V126H347.865ZM401.128 126V124.656L407.464 121.072L422.12 101.488L405.928 77.104L400.488 76.208V74.8H419.88V76.208L414.824 76.976L427.24 95.792L439.592 79.28L431.976 76.208V74.8H447.272V76.208L441.192 79.6L428.136 97.072L445.864 123.76L451.368 124.656V126H431.912V124.656L436.968 123.824L423.016 102.832L408.872 121.648L416.424 124.656V126H401.128ZM467.498 126V124.656L473.385 123.696V77.104L467.498 76.208V74.8H517.098V76.208L511.146 77.104V123.696L517.098 124.656V126H498.154V124.656L504.106 123.696V76.4H480.426V123.696L486.314 124.656V126H467.498ZM547.272 127.28C542.621 127.28 538.461 126.149 534.792 123.888C531.122 121.627 528.264 118.469 526.216 114.416C524.168 110.32 523.144 105.648 523.144 100.4C523.144 95.152 524.168 90.5013 526.216 86.448C528.264 82.352 531.122 79.1733 534.792 76.912C538.461 74.6507 542.621 73.52 547.272 73.52C551.922 73.52 556.082 74.6507 559.752 76.912C563.421 79.1733 566.28 82.352 568.328 86.448C570.376 90.5013 571.4 95.152 571.4 100.4C571.4 105.648 570.376 110.32 568.328 114.416C566.28 118.469 563.421 121.627 559.752 123.888C556.082 126.149 551.922 127.28 547.272 127.28ZM547.272 125.808C550.344 125.808 553.096 124.997 555.528 123.376C558.002 121.755 559.944 119.408 561.352 116.336C562.76 113.221 563.464 109.552 563.464 105.328V95.472C563.464 91.248 562.76 87.6 561.352 84.528C559.944 81.4133 558.002 79.0453 555.528 77.424C553.096 75.8027 550.344 74.992 547.272 74.992C544.157 74.992 541.384 75.8027 538.952 77.424C536.52 79.0453 534.6 81.4133 533.192 84.528C531.784 87.6 531.08 91.248 531.08 95.472V105.328C531.08 109.552 531.784 113.221 533.192 116.336C534.6 119.408 536.52 121.755 538.952 123.376C541.384 124.997 544.157 125.808 547.272 125.808ZM601.499 127.28C596.848 127.28 592.774 126.149 589.275 123.888C585.776 121.627 583.067 118.469 581.147 114.416C579.27 110.363 578.331 105.691 578.331 100.4C578.331 95.1093 579.291 90.4373 581.211 86.384C583.174 82.288 585.926 79.1307 589.467 76.912C593.051 74.6507 597.168 73.52 601.819 73.52C603.654 73.52 605.51 73.84 607.387 74.48C609.307 75.12 611.035 76.016 612.571 77.168L616.859 73.52H618.203V89.392H616.859L612.891 79.472C611.398 78.1067 609.648 77.0187 607.643 76.208C605.68 75.3973 603.739 74.992 601.819 74.992C598.832 74.992 596.187 75.76 593.883 77.296C591.622 78.832 589.851 81.072 588.571 84.016C587.291 86.96 586.651 90.4587 586.651 94.512V106.224C586.651 110.277 587.27 113.776 588.507 116.72C589.744 119.664 591.472 121.925 593.691 123.504C595.91 125.04 598.512 125.808 601.499 125.808C603.675 125.808 605.851 125.339 608.027 124.4C610.203 123.419 612.016 122.117 613.467 120.496L617.179 110.192H618.523V126.64H617.179L612.571 123.376C611.035 124.613 609.286 125.573 607.323 126.256C605.36 126.939 603.419 127.28 601.499 127.28ZM662.307 126.64C659.917 126.64 658.125 126.064 656.931 124.912C655.736 123.76 654.925 121.797 654.499 119.024L652.963 108.208C652.536 105.179 651.619 102.981 650.211 101.616C648.803 100.251 646.541 99.568 643.427 99.568H638.051V123.696L643.939 124.656V126H625.123V124.656L631.01 123.696V77.104L625.123 76.208V74.8H643.939V76.208L638.051 77.104V98.032H644.771C646.819 97.9893 648.568 97.2 650.019 95.664C651.469 94.0853 652.515 91.9947 653.155 89.392L655.139 81.328C655.736 78.9387 656.632 77.1467 657.826 75.952C659.064 74.7573 660.536 74.16 662.243 74.16C663.651 74.16 664.867 74.5653 665.891 75.376C666.957 76.1867 667.491 77.2533 667.491 78.576C667.491 79.8133 667.128 80.816 666.403 81.584C665.72 82.352 664.803 82.736 663.651 82.736H662.371C661.688 80.9013 660.621 79.984 659.171 79.984C657.763 79.984 656.888 80.7093 656.547 82.16L654.562 90.224C654.051 92.2293 653.304 93.936 652.323 95.344C651.341 96.7093 650.211 97.6907 648.931 98.288C652.472 98.7147 655.181 99.7387 657.059 101.36C658.936 102.981 660.088 105.179 660.515 107.952L661.987 117.616C662.328 119.792 662.691 121.307 663.075 122.16C663.459 123.013 664.013 123.525 664.739 123.696C664.867 123.739 665.059 123.76 665.315 123.76C666.595 123.76 667.939 123.035 669.347 121.584L670.435 122.736C668.131 125.339 665.421 126.64 662.307 126.64ZM697.397 127.28C692.746 127.28 688.586 126.149 684.917 123.888C681.247 121.627 678.389 118.469 676.341 114.416C674.293 110.32 673.269 105.648 673.269 100.4C673.269 95.152 674.293 90.5013 676.341 86.448C678.389 82.352 681.247 79.1733 684.917 76.912C688.586 74.6507 692.746 73.52 697.397 73.52C702.047 73.52 706.207 74.6507 709.877 76.912C713.546 79.1733 716.405 82.352 718.453 86.448C720.501 90.5013 721.525 95.152 721.525 100.4C721.525 105.648 720.501 110.32 718.453 114.416C716.405 118.469 713.546 121.627 709.877 123.888C706.207 126.149 702.047 127.28 697.397 127.28ZM697.397 125.808C700.469 125.808 703.221 124.997 705.653 123.376C708.127 121.755 710.069 119.408 711.477 116.336C712.885 113.221 713.589 109.552 713.589 105.328V95.472C713.589 91.248 712.885 87.6 711.477 84.528C710.069 81.4133 708.127 79.0453 705.653 77.424C703.221 75.8027 700.469 74.992 697.397 74.992C694.282 74.992 691.509 75.8027 689.077 77.424C686.645 79.0453 684.725 81.4133 683.317 84.528C681.909 87.6 681.205 91.248 681.205 95.472V105.328C681.205 109.552 681.909 113.221 683.317 116.336C684.725 119.408 686.645 121.755 689.077 123.376C691.509 124.997 694.282 125.808 697.397 125.808ZM727.56 124.656L733.448 123.696V77.104L727.56 76.208V74.8H747.656C753.971 74.8 758.664 76.144 761.736 78.832C764.808 81.52 766.344 85.4027 766.344 90.48C766.344 95.5573 764.808 99.44 761.736 102.128C758.664 104.816 753.971 106.16 747.656 106.16H740.488V123.696L746.376 124.656V126H727.56V124.656ZM746.76 104.624C754.653 104.624 758.6 100.336 758.6 91.76V89.2C758.6 80.6667 754.653 76.4 746.76 76.4H740.488V104.624H746.76ZM771.31 126V124.656L777.198 123.696V77.104L771.31 76.208V74.8H809.838V89.456H808.11L803.182 76.4H784.238V99.44H792.558L796.334 90.16H797.998V110.384H796.334L792.494 100.976H784.238V124.464H804.334L809.582 110.384H811.246V126H771.31ZM817.435 126V124.656L823.323 123.696V77.104L817.435 76.208V74.8H855.963V89.456H854.235L849.307 76.4H830.363V99.44H838.683L842.459 90.16H844.123V110.384H842.459L838.619 100.976H830.363V124.464H850.459L855.707 110.384H857.371V126H817.435ZM868.616 115.44C868.573 111.173 868.381 107.056 868.04 103.088C867.741 99.12 867.336 94.832 866.824 90.224C866.568 87.792 866.333 85.4667 866.12 83.248C865.949 81.0293 865.864 79.2373 865.864 77.872C865.864 76.8907 866.184 76.0373 866.824 75.312C867.464 74.544 868.317 74.16 869.384 74.16C870.451 74.16 871.304 74.544 871.944 75.312C872.584 76.0373 872.904 76.8907 872.904 77.872C872.904 79.2373 872.797 81.0507 872.584 83.312C872.413 85.5733 872.2 87.9413 871.944 90.416C871.432 95.5787 871.027 100.016 870.728 103.728C870.429 107.397 870.237 111.301 870.152 115.44H868.616ZM869.384 126.64C868.317 126.64 867.421 126.277 866.696 125.552C865.971 124.784 865.608 123.867 865.608 122.8C865.608 121.733 865.971 120.859 866.696 120.176C867.421 119.451 868.317 119.088 869.384 119.088C870.451 119.088 871.347 119.451 872.072 120.176C872.797 120.859 873.16 121.733 873.16 122.8C873.16 123.867 872.797 124.784 872.072 125.552C871.347 126.277 870.451 126.64 869.384 126.64Z" fill="#DF3838"/>
<path d="M469.733 0.000146287C589.11 -0.0369963 694.132 6.99534 792.478 25.059C838.546 33.5275 880.508 44.175 913.423 59.2302C973.846 86.8642 974.313 119.438 914.091 147.357C863.983 170.571 796.317 183.831 722.374 193.228C621.191 206.08 516.736 210.438 410.512 206.723C296.41 202.724 188.117 191.842 95.4127 165.235C60.294 155.145 30.8505 143.16 13.7252 127.659C-13.7488 102.811 1.80749 80.4014 44.504 60.0721C88.202 39.2598 148.491 27.0647 213.187 17.6057C298.88 5.0763 388.246 -0.0865144 469.733 0.0249133V0.000146287ZM504.952 201.028C543.776 198.849 606.436 196.67 667.359 191.606C753.62 184.438 831.669 170.584 892.325 145.562C949.677 121.914 954.918 92.8566 904.71 67.1911C866.287 47.5426 812.474 35.137 753.019 26.3961C595.887 3.30584 435.316 1.57252 273.276 18.2619C194.96 26.3342 122.72 38.876 66.2696 61.7311C9.08495 84.8709 5.01225 115.699 56.5886 140.548C81.7258 152.669 113.005 162.053 148.057 169.853C250.676 192.671 364.11 199.443 504.986 201.04L504.952 201.028Z" fill="#DF3838"/>
</svg>
