<svg width="1455" height="151" viewBox="0 0 1455 151" fill="none" xmlns="http://www.w3.org/2000/svg">
<rect x="292" width="75" height="75" fill="#F5F5F5"/>
<rect x="365" y="75" width="75" height="75" fill="#F5F5F5"/>
<rect x="436" width="75" height="75" fill="#F5F5F5"/>
<rect x="509" y="75" width="75" height="75" fill="#F5F5F5"/>
<rect x="580" y="0.213867" width="75" height="75" fill="#F5F5F5"/>
<rect x="653" y="75.2139" width="75" height="75" fill="#F5F5F5"/>
<rect x="724" width="75" height="75" fill="#F5F5F5"/>
<rect x="797" y="75" width="75" height="75" fill="#F5F5F5"/>
<rect x="868" width="75" height="75" fill="#F5F5F5"/>
<rect x="941" y="75" width="75" height="75" fill="#F5F5F5"/>
<rect x="1012" width="75" height="75" fill="#F5F5F5"/>
<rect x="1085" y="75" width="75" height="75" fill="#F5F5F5"/>
<rect x="148" y="0.213867" width="75" height="75" fill="#F5F5F5"/>
<rect x="221" y="75.2139" width="75" height="75" fill="#F5F5F5"/>
<rect y="0.213867" width="75" height="75" fill="#F5F5F5"/>
<rect x="73" y="75.2139" width="75" height="75" fill="#F5F5F5"/>
<rect x="1307" y="0.213867" width="75" height="75" fill="#F5F5F5"/>
<rect x="1380" y="75.2139" width="75" height="75" fill="#F5F5F5"/>
<rect x="1160" y="0.213867" width="75" height="75" fill="#F5F5F5"/>
<rect x="1233" y="75.2139" width="75" height="75" fill="#F5F5F5"/>
</svg>
