<svg width="191" height="193" viewBox="0 0 191 193" fill="none" xmlns="http://www.w3.org/2000/svg">
<g clip-path="url(#clip0_208_585)">
<path d="M152.341 91.5753C156.238 94.797 159.833 97.6426 163.298 100.655C166.772 103.675 166.704 105.882 162.701 108.205C158.81 110.458 154.604 112.156 150.024 114.34C151.783 117.366 153.559 120.437 155.347 123.503C155.642 124.009 156.007 124.481 156.267 125.007C157.917 128.401 157.035 130.269 153.298 130.809C149.43 131.369 145.528 131.651 141.642 132.072C141.069 132.134 140.506 132.287 139.845 132.416C140.531 137.119 141.351 141.725 141.842 146.367C142.262 150.35 141.375 151.114 137.433 150.75C132.859 150.332 128.286 149.85 123.404 149.363C123.615 152.222 123.826 154.826 123.984 157.426C124.053 158.593 124.129 159.783 124.002 160.939C123.43 165.982 118.661 168.266 114.484 165.333C107.895 160.712 102.908 154.516 98.6163 147.841C93.3285 139.617 91.0657 130.245 89.3238 120.742C88.8124 117.958 88.4462 115.123 87.6435 112.423C86.6358 109.029 84.4264 108.157 81.2661 110.006C77.8175 112.027 74.6252 114.486 71.2824 116.694C60.0002 124.15 47.6473 127.443 34.1463 126.088C31.636 125.837 28.7385 125.797 27.6818 122.905C26.6717 120.147 28.5548 118.06 30.1532 116.074C31.1801 114.796 32.3516 113.627 33.5291 112.328C29.5549 109.715 25.6393 107.314 21.9135 104.653C17.8175 101.733 17.8721 99.7029 22.0077 96.8952C25.4014 94.5911 28.9251 92.4707 32.6561 90.1029C30.1594 87.3493 27.6338 84.6835 25.237 81.9094C20.1931 76.0665 21.0262 73.7538 28.6714 72.0656C29.3451 71.9195 30.0003 71.7107 30.6598 71.513C33.1925 70.7446 35.723 69.9708 38.3843 69.1579C37.4617 66.8292 36.6362 64.6653 35.7426 62.5221C35.0623 60.8853 34.2412 59.3106 33.5994 57.6586C31.8012 53.0397 32.9606 51.2777 37.9359 51.2637C42.5312 51.2541 47.1292 51.4276 52.0546 51.5287C51.7792 49.6934 51.4771 47.9195 51.2607 46.137C51.0028 44.0088 50.679 41.8749 50.6264 39.7353C50.4494 32.8982 54.7604 29.8749 61.1965 32.4402C69.4998 35.7527 75.9811 41.579 81.911 48.0685C88.9213 55.744 92.0141 65.1559 93.6531 75.1692C94.9903 83.3449 98.1295 84.573 105.281 80.5135C112.334 76.5117 119.471 72.3051 127.099 69.772C138.033 66.1393 149.318 66.6374 160.159 71.1367C161.309 71.6152 162.396 72.3853 163.316 73.2284C166.417 76.0791 166.486 78.9496 163.414 81.7933C159.909 85.0373 156.261 88.1284 152.349 91.5655L152.341 91.5753ZM21.0294 100.784C25.9032 103.918 30.0134 106.553 34.1126 109.193C36.8622 110.963 37.0789 112.955 34.8026 115.382C33.5272 116.738 32.185 118.039 30.9994 119.462C29.6054 121.145 30.0886 122.333 32.1872 122.861C32.943 123.051 33.7099 123.237 34.4826 123.324C42.6267 124.228 50.4473 122.934 58.1524 120.193C65.9532 117.42 72.3776 112.377 79.2397 108.038C84.8912 104.465 89.4763 106.372 90.6934 112.848C92.5233 122.588 94.2796 132.352 98.5519 141.417C102.497 149.786 107.972 156.958 115.414 162.511C118.559 164.862 120.932 163.738 121.056 159.781C121.154 156.672 120.792 153.543 120.546 150.432C120.279 147.062 120.844 146.304 124.209 146.56C129.074 146.926 133.924 147.496 138.892 147.993C138.912 147.241 139.03 146.559 138.932 145.912C138.458 142.821 137.871 139.749 137.432 136.65C136.392 129.367 134.878 129.865 143.014 129.063C146.65 128.703 150.271 128.209 154.34 127.721C151.481 122.512 148.917 117.841 146.246 112.977C152.096 110.176 157.516 107.577 163.424 104.748C161.987 103.335 161.154 102.406 160.205 101.6C157.45 99.254 154.554 97.0655 151.892 94.6187C148.909 91.8736 148.944 91.0464 151.95 88.2607C154.955 85.4749 158.168 82.9059 161.171 80.1146C163.49 77.9567 163.403 76.2755 160.691 74.7129C158.505 73.4503 156.078 72.3976 153.625 71.8572C138.944 68.6315 125.215 70.7792 112.608 79.3389C109.459 81.4758 106.072 83.3772 102.583 84.8801C98.6008 86.5976 93.8986 86.4018 92.1663 80.2953C91.5289 78.0442 90.8938 75.7668 90.5322 73.4573C87.6283 55.0172 76.3255 43.2027 60.2462 35.2758C55.6547 33.0154 53.2313 34.8461 53.5935 39.9831C53.8409 43.4817 54.4113 46.9603 54.8806 50.4408C55.3081 53.6393 54.968 54.1616 51.8561 54.1745C48.4335 54.1898 45.0059 54.0481 41.5823 54.0129C39.6652 53.9908 37.7544 54.0489 35.8097 54.0696C37.7028 58.8478 39.3488 63.3555 41.2796 67.7312C42.3817 70.2239 41.7131 71.4102 39.1946 71.8933C38.5199 72.0208 37.8364 72.1582 37.1791 72.3614C33.1017 73.6464 29.0331 74.9534 24.6677 76.3461C25.6813 77.8127 26.2998 78.9403 27.1342 79.8742C29.7445 82.786 32.3781 85.676 35.1074 88.4708C36.5624 89.9596 36.6702 91.0988 34.7798 92.2036C34.0216 92.6501 33.3169 93.1835 32.5729 93.6498C29.0148 95.8602 25.4469 98.0617 21.0481 100.783L21.0294 100.784Z" fill="#DF3838"/>
<path d="M54.5698 95.0323C54.6725 94.5532 54.6417 93.9617 54.8463 93.8679C55.4106 93.6062 56.2058 93.2531 56.6761 93.4607C64.0354 96.7024 71.8325 96.1041 79.5441 96.0926C88.3625 96.081 95.491 99.3824 101.131 106.184C103.555 109.106 106.047 112.122 109.069 114.337C111.67 116.248 115.094 117.021 118.089 118.433C118.801 118.767 119.251 119.663 119.816 120.303C119.046 120.526 118.119 121.141 117.524 120.906C114.013 119.527 110.241 118.435 107.214 116.304C103.908 113.98 101.07 110.847 98.4692 107.702C93.1672 101.288 86.4483 98.5869 78.2625 98.8626C74.3573 98.9927 70.4016 99.1556 66.5537 98.6594C63.0021 98.2047 59.56 96.9187 56.0828 95.9452C55.5618 95.8022 55.1241 95.3719 54.5753 95.0302L54.5698 95.0323Z" fill="#DF3838"/>
<path d="M65.4114 70.568C68.4745 72.1821 71.7551 73.4941 74.5467 75.4826C79.3173 78.8857 84.0005 82.4696 88.32 86.42C93.8784 91.5063 100.135 93.698 107.622 93.1526C113.707 92.7117 119.744 93.3383 125.48 95.6788C126.208 95.975 127.036 96.187 127.596 96.6834C128.061 97.1028 128.194 97.8888 128.48 98.5128C127.89 98.6954 127.156 99.2024 126.726 99.0168C118.748 95.5627 110.309 95.7608 101.879 95.7077C96.7828 95.6742 92.4254 93.6832 88.5009 90.4088C82.8763 85.7173 77.0885 81.2239 71.2798 76.7579C69.9811 75.7601 68.229 75.3676 66.8631 74.4409C65.8905 73.7842 65.2104 72.6938 64.3967 71.7961C64.7353 71.3824 65.0761 70.9741 65.4147 70.5604L65.4114 70.568Z" fill="#DF3838"/>
</g>
<defs>
<clipPath id="clip0_208_585">
<rect width="149.061" height="145.478" fill="white" transform="translate(135.25) rotate(68.3869)"/>
</clipPath>
</defs>
</svg>
