<svg width="1440" height="357" viewBox="0 0 1440 357" fill="none" xmlns="http://www.w3.org/2000/svg">
<rect width="75" height="75" fill="#F5F5F5"/>
<rect x="73" y="75" width="75" height="75" fill="#F5F5F5"/>
<rect x="144" width="75" height="75" fill="#F5F5F5"/>
<rect x="217" y="75" width="75" height="75" fill="#F5F5F5"/>
<path d="M568.243 116.116C569.772 118.137 570.39 125.7 571.751 129.092C585.069 162.349 614.889 148.038 617.864 114.077C632.908 110.796 629.091 117.822 633.75 128.759C639.714 142.773 644.892 148.668 657.747 147.296C672.453 145.721 675.597 129.797 680.803 114.744C695.65 110.592 691.679 117.469 695.566 128.685C703.874 152.672 727.113 154.804 737.259 131.836C741.862 121.418 738.775 110.314 751.727 113.817C755.951 114.967 756.176 125.255 758.407 130.946C767.037 153.006 789.912 153.34 799.314 132.225C803.524 122.79 799.552 113.113 810.625 113.78C819.536 114.318 816.968 122.994 820.883 131.817C830.917 154.47 854.535 152.505 862.576 128.647C865.986 118.526 862.688 110.666 875.206 113.817C880.257 115.097 880.075 125.774 882.629 131.817C893 156.343 916.94 151.486 925.346 126.293C928.237 117.618 923.803 112.001 935.591 113.706C943.042 114.781 942.074 125.663 945.793 133.616C955.56 154.489 977.381 151.597 985.914 130.297C989.085 122.363 987.163 113.651 995.863 113.632C1006.33 113.595 1002.5 119.416 1005.7 128.647C1017.46 162.627 1048.71 147.63 1052.66 114.596L1064.65 115.616C1071.22 159.531 1107.36 157.659 1114.42 114.596H1124.31C1127.35 118.044 1124.77 136.6 1136.41 145.072C1144.9 151.263 1156.22 143.811 1151.73 163.962C1127.99 167.187 1115.96 206.005 1138.74 223.56C1143.11 226.934 1151.49 227.49 1152.38 233.348C1154.97 250.513 1146.68 246.324 1138.74 252.46C1123.06 264.546 1122.68 291.556 1137.61 304.754C1142.17 308.777 1151.48 309.166 1152.38 314.913C1155.14 332.728 1143.89 328.761 1135.49 337.14C1121.04 351.562 1125.11 379.683 1141.14 389.1C1145.32 391.566 1151.59 390.491 1152.42 396.571C1154.65 412.717 1147.21 410.103 1139.87 415.238C1128.97 422.876 1124.93 435.667 1127.42 451.702C1130.29 470.054 1152.04 474.429 1152.42 476.505L1151.1 491.242C1144.48 495.413 1138.92 495.765 1133.36 503.032C1123.31 516.157 1124.72 538.661 1136.46 549.135C1140.77 552.972 1150.94 555.049 1152.08 559.998C1156.66 579.982 1143.09 573.753 1134.81 582.781C1122.71 595.98 1124.6 621.821 1137.87 632.554C1145.98 639.117 1155.46 634.556 1151.76 653.372C1136.45 655.559 1124.73 666.033 1125.57 688.297L1113.39 688.019C1110.4 655.374 1080.1 642.824 1068.09 674.449C1064.51 683.866 1068.16 690.966 1057.61 690.428C1048.82 689.984 1051.14 680.029 1046.89 671.112C1036.31 648.941 1013.85 652.093 1005.71 675.45C1001.72 686.925 1005.18 695.452 990.236 688.482C983.149 646.42 947.547 644.585 940.516 687.722C938.987 690.521 927.844 690.614 926.651 688.111C926.244 655.986 895.006 643.566 882.882 672.614C877.9 684.552 880.552 695.934 864.975 688.037C859.993 643.881 821.823 647.588 815.663 689.483L803.636 688.464C800.184 657.079 771.149 642.342 758.66 673.504C754.744 683.254 757.761 690.966 747.475 690.428C738.606 689.965 740.837 678.286 735.561 668.98C721.528 644.159 694.261 658.284 693.209 688.13C692.535 689.446 681.266 691.708 680.088 688.482C672.608 645.605 637.202 645.456 629.75 688.63L618.594 690.373C615.128 680.826 614.37 670.797 607.887 663.364C597.516 651.444 579.904 655.467 572.972 671.094C569.309 679.362 571.442 690.428 562.265 690.466C551.88 690.503 555.557 684.775 552.427 675.45C544.555 652.093 521.751 649.09 511.254 671.112C509.275 675.265 506.721 688.315 505.472 689.427C503.76 690.929 497.094 690.985 495.494 689.483C493.895 687.982 493.404 675.932 492.084 671.761C490.442 666.552 485.32 660.286 481.419 658.043C476.985 655.504 468.495 656.82 467.512 650.443C465.084 634.723 475.595 638.801 483.019 631.98C497.768 618.447 496.182 592.661 481.124 580.556C474.234 575.032 467.863 578.332 467.484 566.968C466.993 552.602 473.757 557.088 481.152 551.638C503.213 535.362 492.814 494.802 468.775 492.67L467.681 475.448C500.266 471.555 502.539 415.906 469.168 411.939C460.804 387.302 481.826 394.476 489.741 377.626C500.631 354.417 486.359 332.802 468.887 327.945C463.4 308.054 470.754 312.41 479.693 306.905C503.578 292.204 493.277 250.495 469.238 246.843C466.797 241.449 466.895 234.571 469.21 229.103C491.635 227.638 502.483 191.712 483.636 173.119C475.427 165.018 462.348 168.614 468.831 149.817C478.767 149.558 489.418 142.699 492.842 129.63C494.133 124.718 493.432 115.375 496.463 114.04C508.784 108.553 506.96 126.089 513.092 136.063C528.487 161.144 553.466 143.366 555.837 114.596C557.97 112.612 566.348 113.576 568.229 116.06L568.243 116.116Z" fill="#DF3838"/>
<path d="M-48.7573 116.116C-47.2277 118.137 -46.6102 125.7 -45.249 129.092C-31.9314 162.349 -2.11084 148.038 0.864212 114.077C15.9078 110.796 12.0908 117.822 16.7498 128.759C22.714 142.773 27.8922 148.668 40.7467 147.296C55.4535 145.721 58.5969 129.797 63.8033 114.744C78.6504 110.592 74.679 117.469 78.5662 128.685C86.8739 152.672 110.113 154.804 120.259 131.836C124.862 121.418 121.775 110.314 134.727 113.817C138.951 114.967 139.176 125.255 141.407 130.946C150.037 153.006 172.912 153.34 182.314 132.225C186.524 122.79 182.552 113.113 193.625 113.78C202.536 114.318 199.968 122.994 203.883 131.817C213.917 154.47 237.535 152.505 245.576 128.647C248.986 118.526 245.688 110.666 258.206 113.817C263.257 115.097 263.075 125.774 265.629 131.817C276 156.343 299.94 151.486 308.346 126.293C311.237 117.618 306.803 112.001 318.591 113.706C326.042 114.781 325.074 125.663 328.793 133.616C338.56 154.489 360.381 151.597 368.914 130.297C372.085 122.363 370.163 113.651 378.863 113.632C389.332 113.595 385.501 119.416 388.701 128.647C400.46 162.627 431.712 147.63 435.656 114.596L447.654 115.616C454.222 159.531 490.357 157.659 497.416 114.596H507.309C510.355 118.044 507.773 136.6 519.406 145.072C527.896 151.263 539.221 143.811 534.73 163.962C510.986 167.187 498.96 206.005 521.736 223.56C526.114 226.934 534.492 227.49 535.376 233.348C537.972 250.513 529.678 246.324 521.736 252.46C506.06 264.546 505.682 291.556 520.613 304.754C525.174 308.777 534.478 309.166 535.376 314.913C538.14 332.728 526.886 328.761 518.494 337.14C504.04 351.562 508.109 379.683 524.135 389.1C528.317 391.566 534.59 390.491 535.418 396.571C537.649 412.717 530.212 410.103 522.872 415.238C511.968 422.876 507.927 435.667 510.425 451.702C513.288 470.054 535.039 474.429 535.418 476.505L534.099 491.242C527.475 495.413 521.918 495.765 516.361 503.032C506.313 516.157 507.716 538.661 519.462 549.135C523.77 552.972 533.944 555.049 535.081 559.998C539.656 579.982 526.086 573.753 517.806 582.781C505.71 595.98 507.604 621.821 520.865 632.554C528.977 639.117 538.463 634.556 534.758 653.372C519.448 655.559 507.73 666.033 508.572 688.297L496.392 688.019C493.402 655.374 463.105 642.824 451.092 674.449C447.514 683.866 451.162 690.966 440.609 690.428C431.825 689.984 434.14 680.029 429.888 671.112C419.307 648.941 396.854 652.093 388.715 675.45C384.715 686.925 388.181 695.452 373.236 688.482C366.149 646.42 330.547 644.585 323.516 687.722C321.987 690.521 310.844 690.614 309.651 688.111C309.244 655.986 278.006 643.566 265.882 672.614C260.9 684.552 263.552 695.934 247.975 688.037C242.993 643.881 204.823 647.588 198.663 689.483L186.636 688.464C183.184 657.079 154.149 642.342 141.66 673.504C137.744 683.254 140.761 690.966 130.475 690.428C121.606 689.965 123.837 678.286 118.561 668.98C104.528 644.159 77.2611 658.284 76.2086 688.13C75.535 689.446 64.2663 691.708 63.0876 688.482C55.6078 645.605 20.202 645.456 12.7504 688.63L1.59393 690.373C-1.87227 680.826 -2.63007 670.797 -9.11342 663.364C-19.484 651.444 -37.0957 655.467 -44.0281 671.094C-47.6908 679.362 -45.5577 690.428 -54.7354 690.466C-65.12 690.503 -61.4433 684.775 -64.5727 675.45C-72.4454 652.093 -95.2494 649.09 -105.746 671.112C-107.725 675.265 -110.279 688.315 -111.528 689.427C-113.24 690.929 -119.906 690.985 -121.506 689.483C-123.105 687.982 -123.596 675.932 -124.916 671.761C-126.558 666.552 -131.68 660.286 -135.581 658.043C-140.015 655.504 -148.505 656.82 -149.488 650.443C-151.916 634.723 -141.405 638.801 -133.981 631.98C-119.232 618.447 -120.818 592.661 -135.876 580.556C-142.766 575.032 -149.137 578.332 -149.516 566.968C-150.007 552.602 -143.243 557.088 -135.848 551.638C-113.787 535.362 -124.186 494.802 -148.225 492.67L-149.319 475.448C-116.734 471.555 -114.461 415.906 -147.832 411.939C-156.196 387.302 -135.174 394.476 -127.259 377.626C-116.369 354.417 -130.641 332.802 -148.113 327.945C-153.6 308.054 -146.246 312.41 -137.307 306.905C-113.422 292.204 -123.723 250.495 -147.762 246.843C-150.203 241.449 -150.105 234.571 -147.79 229.103C-125.365 227.638 -114.517 191.712 -133.364 173.119C-141.573 165.018 -154.652 168.614 -148.169 149.817C-138.233 149.558 -127.582 142.699 -124.158 129.63C-122.867 124.718 -123.568 115.375 -120.537 114.04C-108.216 108.553 -110.04 126.089 -103.908 136.063C-88.5134 161.144 -63.5343 143.366 -61.1627 114.596C-59.0296 112.612 -50.6518 113.576 -48.7713 116.06L-48.7573 116.116Z" fill="#DF3838"/>
<path d="M1005.24 116.116C1006.77 118.137 1007.39 125.7 1008.75 129.092C1022.07 162.349 1051.89 148.038 1054.86 114.077C1069.91 110.796 1066.09 117.822 1070.75 128.759C1076.71 142.773 1081.89 148.668 1094.75 147.296C1109.45 145.721 1112.6 129.797 1117.8 114.744C1132.65 110.592 1128.68 117.469 1132.57 128.685C1140.87 152.672 1164.11 154.804 1174.26 131.836C1178.86 121.418 1175.77 110.314 1188.73 113.817C1192.95 114.967 1193.18 125.255 1195.41 130.946C1204.04 153.006 1226.91 153.34 1236.31 132.225C1240.52 122.79 1236.55 113.113 1247.62 113.78C1256.54 114.318 1253.97 122.994 1257.88 131.817C1267.92 154.47 1291.53 152.505 1299.58 128.647C1302.99 118.526 1299.69 110.666 1312.21 113.817C1317.26 115.097 1317.08 125.774 1319.63 131.817C1330 156.343 1353.94 151.486 1362.35 126.293C1365.24 117.618 1360.8 112.001 1372.59 113.706C1380.04 114.781 1379.07 125.663 1382.79 133.616C1392.56 154.489 1414.38 151.597 1422.91 130.297C1426.09 122.363 1424.16 113.651 1432.86 113.632C1443.33 113.595 1439.5 119.416 1442.7 128.647C1454.46 162.627 1485.71 147.63 1489.66 114.596L1501.65 115.616C1508.22 159.531 1544.36 157.659 1551.42 114.596H1561.31C1564.35 118.044 1561.77 136.6 1573.41 145.072C1581.9 151.263 1593.22 143.811 1588.73 163.962C1564.99 167.187 1552.96 206.005 1575.74 223.56C1580.11 226.934 1588.49 227.49 1589.38 233.348C1591.97 250.513 1583.68 246.324 1575.74 252.46C1560.06 264.546 1559.68 291.556 1574.61 304.754C1579.17 308.777 1588.48 309.166 1589.38 314.913C1592.14 332.728 1580.89 328.761 1572.49 337.14C1558.04 351.562 1562.11 379.683 1578.14 389.1C1582.32 391.566 1588.59 390.491 1589.42 396.571C1591.65 412.717 1584.21 410.103 1576.87 415.238C1565.97 422.876 1561.93 435.667 1564.42 451.702C1567.29 470.054 1589.04 474.429 1589.42 476.505L1588.1 491.242C1581.48 495.413 1575.92 495.765 1570.36 503.032C1560.31 516.157 1561.72 538.661 1573.46 549.135C1577.77 552.972 1587.94 555.049 1589.08 559.998C1593.66 579.982 1580.09 573.753 1571.81 582.781C1559.71 595.98 1561.6 621.821 1574.87 632.554C1582.98 639.117 1592.46 634.556 1588.76 653.372C1573.45 655.559 1561.73 666.033 1562.57 688.297L1550.39 688.019C1547.4 655.374 1517.1 642.824 1505.09 674.449C1501.51 683.866 1505.16 690.966 1494.61 690.428C1485.82 689.984 1488.14 680.029 1483.89 671.112C1473.31 648.941 1450.85 652.093 1442.71 675.45C1438.72 686.925 1442.18 695.452 1427.24 688.482C1420.15 646.42 1384.55 644.585 1377.52 687.722C1375.99 690.521 1364.84 690.614 1363.65 688.111C1363.24 655.986 1332.01 643.566 1319.88 672.614C1314.9 684.552 1317.55 695.934 1301.98 688.037C1296.99 643.881 1258.82 647.588 1252.66 689.483L1240.64 688.464C1237.18 657.079 1208.15 642.342 1195.66 673.504C1191.74 683.254 1194.76 690.966 1184.48 690.428C1175.61 689.965 1177.84 678.286 1172.56 668.98C1158.53 644.159 1131.26 658.284 1130.21 688.13C1129.54 689.446 1118.27 691.708 1117.09 688.482C1109.61 645.605 1074.2 645.456 1066.75 688.63L1055.59 690.373C1052.13 680.826 1051.37 670.797 1044.89 663.364C1034.52 651.444 1016.9 655.467 1009.97 671.094C1006.31 679.362 1008.44 690.428 999.265 690.466C988.88 690.503 992.557 684.775 989.427 675.45C981.555 652.093 958.751 649.09 948.254 671.112C946.275 675.265 943.721 688.315 942.472 689.427C940.76 690.929 934.094 690.985 932.494 689.483C930.895 687.982 930.404 675.932 929.084 671.761C927.442 666.552 922.32 660.286 918.419 658.043C913.985 655.504 905.495 656.82 904.512 650.443C902.084 634.723 912.595 638.801 920.019 631.98C934.768 618.447 933.182 592.661 918.124 580.556C911.234 575.032 904.863 578.332 904.484 566.968C903.993 552.602 910.757 557.088 918.152 551.638C940.213 535.362 929.814 494.802 905.775 492.67L904.681 475.448C937.266 471.555 939.539 415.906 906.168 411.939C897.804 387.302 918.826 394.476 926.741 377.626C937.631 354.417 923.359 332.802 905.887 327.945C900.4 308.054 907.754 312.41 916.693 306.905C940.578 292.204 930.277 250.495 906.238 246.843C903.797 241.449 903.895 234.571 906.21 229.103C928.635 227.638 939.483 191.712 920.636 173.119C912.427 165.018 899.348 168.614 905.831 149.817C915.767 149.558 926.418 142.699 929.842 129.63C931.133 124.718 930.432 115.375 933.463 114.04C945.784 108.553 943.96 126.089 950.092 136.063C965.487 161.144 990.466 143.366 992.837 114.596C994.97 112.612 1003.35 113.576 1005.23 116.06L1005.24 116.116Z" fill="#DF3838"/>
</svg>
