<svg width="1740" height="578" viewBox="0 0 1740 578" fill="none" xmlns="http://www.w3.org/2000/svg">
<path d="M101.243 3.1161C102.772 5.13669 103.39 12.7 104.751 16.0924C118.069 49.3488 147.889 35.0378 150.864 1.07696C165.908 -2.20418 162.091 4.82155 166.75 15.7587C172.714 29.7731 177.892 35.6681 190.747 34.2963C205.453 32.7206 208.597 16.7968 213.803 1.74432C228.65 -2.4081 224.679 4.46934 228.566 15.6846C236.874 39.6722 260.113 41.804 270.259 18.836C274.862 8.41784 271.775 -2.68616 284.727 0.817439C288.951 1.96677 289.176 12.2551 291.407 17.9462C300.037 40.0059 322.912 40.3395 332.314 19.2252C336.524 9.78962 332.552 0.113011 343.625 0.780364C352.536 1.31795 349.968 9.99354 353.883 18.8174C363.917 41.4703 387.535 39.5053 395.576 15.6475C398.986 5.52598 395.688 -2.33395 408.206 0.817439C413.257 2.09653 413.075 12.7742 415.629 18.8174C426 43.3426 449.94 38.4858 458.346 13.2932C461.237 4.61764 456.803 -0.999243 468.591 0.706214C476.042 1.78139 475.074 12.6629 478.793 20.6156C488.56 41.4889 510.381 38.597 518.914 17.2973C522.085 9.36326 520.163 0.650601 528.863 0.632063C539.332 0.594988 535.501 6.41579 538.701 15.6475C550.46 49.6269 581.712 34.63 585.656 1.59602L597.654 2.61558C604.222 46.5311 640.357 44.6588 647.416 1.59602H657.309C660.355 5.044 657.773 23.6001 669.406 32.0718C677.896 38.2633 689.221 30.8112 684.73 50.9616C660.986 54.1871 648.96 93.0048 671.736 110.56C676.114 113.934 684.492 114.49 685.376 120.348C687.972 137.513 679.678 133.324 671.736 139.46C656.06 151.546 655.682 178.556 670.613 191.754C675.174 195.777 684.478 196.166 685.376 201.913C688.14 219.728 676.886 215.761 668.494 224.14C654.04 238.562 658.109 266.683 674.135 276.1C678.317 278.566 684.59 277.491 685.418 283.571C687.649 299.717 680.212 297.103 672.872 302.238C661.968 309.876 657.927 322.667 660.425 338.702C663.288 357.054 685.039 361.429 685.418 363.505L684.099 378.242C677.475 382.413 671.918 382.765 666.361 390.032C656.313 403.157 657.716 425.661 669.462 436.135C673.77 439.972 683.944 442.049 685.081 446.998C689.656 466.982 676.086 460.753 667.806 469.781C655.71 482.98 657.604 508.821 670.865 519.554C678.977 526.117 688.463 521.556 684.758 540.372C669.448 542.559 657.73 553.033 658.572 575.297L646.392 575.019C643.402 542.374 613.105 529.824 601.092 561.449C597.514 570.866 601.162 577.966 590.609 577.428C581.825 576.984 584.14 567.029 579.888 558.112C569.307 535.941 546.854 539.093 538.715 562.45C534.715 573.925 538.181 582.452 523.236 575.482C516.149 533.42 480.547 531.585 473.516 574.722C471.987 577.521 460.844 577.614 459.651 575.111C459.244 542.986 428.006 530.566 415.882 559.614C410.9 571.552 413.552 582.934 397.975 575.037C392.993 530.881 354.823 534.588 348.663 576.483L336.636 575.464C333.184 544.079 304.149 529.342 291.66 560.504C287.744 570.254 290.761 577.966 280.475 577.428C271.606 576.965 273.837 565.286 268.561 555.98C254.528 531.159 227.261 545.284 226.209 575.13C225.535 576.446 214.266 578.708 213.088 575.482C205.608 532.605 170.202 532.456 162.75 575.63L151.594 577.373C148.128 567.826 147.37 557.797 140.887 550.364C130.516 538.444 112.904 542.467 105.972 558.094C102.309 566.362 104.442 577.428 95.2646 577.466C84.88 577.503 88.5567 571.775 85.4273 562.45C77.5546 539.093 54.7506 536.09 44.2538 558.112C42.2751 562.265 39.721 575.315 38.4721 576.427C36.76 577.929 30.0942 577.985 28.4945 576.483C26.8947 574.982 26.4035 562.932 25.0844 558.761C23.4425 553.552 18.3204 547.286 14.4191 545.043C9.98463 542.504 1.49452 543.82 0.512199 537.443C-1.91555 521.723 8.59534 525.801 16.0189 518.98C30.7678 505.447 29.1821 479.661 14.1244 467.556C7.23412 462.032 0.86303 465.332 0.484133 453.968C-0.00703038 439.602 6.75699 444.088 14.1525 438.638C36.2127 422.362 25.8141 381.802 1.77519 379.67L0.680598 362.448C33.2658 358.555 35.5391 302.906 2.16812 298.939C-6.19568 274.302 14.8261 281.476 22.7408 264.626C33.6306 241.417 19.3588 219.802 1.88746 214.945C-3.59954 195.054 3.75388 199.41 12.693 193.905C36.5776 179.204 26.2772 137.495 2.23829 133.843C-0.203496 128.449 -0.105263 121.571 2.21022 116.103C24.6353 114.638 35.483 78.7123 16.6364 60.1191C8.42694 52.0182 -4.65203 55.6145 1.83132 36.8174C11.7668 36.5579 22.4181 29.699 25.8422 16.63C27.1332 11.7175 26.4316 2.37459 29.4627 1.03989C41.7839 -4.44723 39.9596 13.0893 46.0921 23.0625C61.4866 48.1439 86.4657 30.3663 88.8373 1.59602C90.9704 -0.387503 99.3482 0.57645 101.229 3.06048L101.243 3.1161Z" fill="#DF3838"/>
<path d="M1155.24 3.1161C1156.77 5.13669 1157.39 12.7 1158.75 16.0924C1172.07 49.3488 1201.89 35.0378 1204.86 1.07696C1219.91 -2.20418 1216.09 4.82155 1220.75 15.7587C1226.71 29.7731 1231.89 35.6681 1244.75 34.2963C1259.45 32.7206 1262.6 16.7968 1267.8 1.74432C1282.65 -2.4081 1278.68 4.46934 1282.57 15.6846C1290.87 39.6722 1314.11 41.804 1324.26 18.836C1328.86 8.41784 1325.77 -2.68616 1338.73 0.817439C1342.95 1.96677 1343.18 12.2551 1345.41 17.9462C1354.04 40.0059 1376.91 40.3395 1386.31 19.2252C1390.52 9.78962 1386.55 0.113011 1397.62 0.780364C1406.54 1.31795 1403.97 9.99354 1407.88 18.8174C1417.92 41.4703 1441.53 39.5053 1449.58 15.6475C1452.99 5.52598 1449.69 -2.33395 1462.21 0.817439C1467.26 2.09653 1467.08 12.7742 1469.63 18.8174C1480 43.3426 1503.94 38.4858 1512.35 13.2932C1515.24 4.61764 1510.8 -0.999243 1522.59 0.706214C1530.04 1.78139 1529.07 12.6629 1532.79 20.6156C1542.56 41.4889 1564.38 38.597 1572.91 17.2973C1576.09 9.36326 1574.16 0.650601 1582.86 0.632063C1593.33 0.594988 1589.5 6.41579 1592.7 15.6475C1604.46 49.6269 1635.71 34.63 1639.66 1.59602L1651.65 2.61558C1658.22 46.5311 1694.36 44.6588 1701.42 1.59602H1711.31C1714.35 5.044 1711.77 23.6001 1723.41 32.0718C1731.9 38.2633 1743.22 30.8112 1738.73 50.9616C1714.99 54.1871 1702.96 93.0048 1725.74 110.56C1730.11 113.934 1738.49 114.49 1739.38 120.348C1741.97 137.513 1733.68 133.324 1725.74 139.46C1710.06 151.546 1709.68 178.556 1724.61 191.754C1729.17 195.777 1738.48 196.166 1739.38 201.913C1742.14 219.728 1730.89 215.761 1722.49 224.14C1708.04 238.562 1712.11 266.683 1728.14 276.1C1732.32 278.566 1738.59 277.491 1739.42 283.571C1741.65 299.717 1734.21 297.103 1726.87 302.238C1715.97 309.876 1711.93 322.667 1714.42 338.702C1717.29 357.054 1739.04 361.429 1739.42 363.505L1738.1 378.242C1731.48 382.413 1725.92 382.765 1720.36 390.032C1710.31 403.157 1711.72 425.661 1723.46 436.135C1727.77 439.972 1737.94 442.049 1739.08 446.998C1743.66 466.982 1730.09 460.753 1721.81 469.781C1709.71 482.98 1711.6 508.821 1724.87 519.554C1732.98 526.117 1742.46 521.556 1738.76 540.372C1723.45 542.559 1711.73 553.033 1712.57 575.297L1700.39 575.019C1697.4 542.374 1667.1 529.824 1655.09 561.449C1651.51 570.866 1655.16 577.966 1644.61 577.428C1635.82 576.984 1638.14 567.029 1633.89 558.112C1623.31 535.941 1600.85 539.093 1592.71 562.45C1588.72 573.925 1592.18 582.452 1577.24 575.482C1570.15 533.42 1534.55 531.585 1527.52 574.722C1525.99 577.521 1514.84 577.614 1513.65 575.111C1513.24 542.986 1482.01 530.566 1469.88 559.614C1464.9 571.552 1467.55 582.934 1451.98 575.037C1446.99 530.881 1408.82 534.588 1402.66 576.483L1390.64 575.464C1387.18 544.079 1358.15 529.342 1345.66 560.504C1341.74 570.254 1344.76 577.966 1334.48 577.428C1325.61 576.965 1327.84 565.286 1322.56 555.98C1308.53 531.159 1281.26 545.284 1280.21 575.13C1279.54 576.446 1268.27 578.708 1267.09 575.482C1259.61 532.605 1224.2 532.456 1216.75 575.63L1205.59 577.373C1202.13 567.826 1201.37 557.797 1194.89 550.364C1184.52 538.444 1166.9 542.467 1159.97 558.094C1156.31 566.362 1158.44 577.428 1149.26 577.466C1138.88 577.503 1142.56 571.775 1139.43 562.45C1131.55 539.093 1108.75 536.09 1098.25 558.112C1096.28 562.265 1093.72 575.315 1092.47 576.427C1090.76 577.929 1084.09 577.985 1082.49 576.483C1080.89 574.982 1080.4 562.932 1079.08 558.761C1077.44 553.552 1072.32 547.286 1068.42 545.043C1063.98 542.504 1055.49 543.82 1054.51 537.443C1052.08 521.723 1062.6 525.801 1070.02 518.98C1084.77 505.447 1083.18 479.661 1068.12 467.556C1061.23 462.032 1054.86 465.332 1054.48 453.968C1053.99 439.602 1060.76 444.088 1068.15 438.638C1090.21 422.362 1079.81 381.802 1055.78 379.67L1054.68 362.448C1087.27 358.555 1089.54 302.906 1056.17 298.939C1047.8 274.302 1068.83 281.476 1076.74 264.626C1087.63 241.417 1073.36 219.802 1055.89 214.945C1050.4 195.054 1057.75 199.41 1066.69 193.905C1090.58 179.204 1080.28 137.495 1056.24 133.843C1053.8 128.449 1053.89 121.571 1056.21 116.103C1078.64 114.638 1089.48 78.7123 1070.64 60.1191C1062.43 52.0182 1049.35 55.6145 1055.83 36.8174C1065.77 36.5579 1076.42 29.699 1079.84 16.63C1081.13 11.7175 1080.43 2.37459 1083.46 1.03989C1095.78 -4.44723 1093.96 13.0893 1100.09 23.0625C1115.49 48.1439 1140.47 30.3663 1142.84 1.59602C1144.97 -0.387503 1153.35 0.57645 1155.23 3.06048L1155.24 3.1161Z" fill="#DF3838"/>
<path d="M595.243 3.1161C596.772 5.13669 597.39 12.7 598.751 16.0924C612.069 49.3488 641.889 35.0378 644.864 1.07696C659.908 -2.20418 656.091 4.82155 660.75 15.7587C666.714 29.7731 671.892 35.6681 684.747 34.2963C699.453 32.7206 702.597 16.7968 707.803 1.74432C722.65 -2.4081 718.679 4.46934 722.566 15.6846C730.874 39.6722 754.113 41.804 764.259 18.836C768.862 8.41784 765.775 -2.68616 778.727 0.817439C782.951 1.96677 783.176 12.2551 785.407 17.9462C794.037 40.0059 816.912 40.3395 826.314 19.2252C830.524 9.78962 826.552 0.113011 837.625 0.780364C846.536 1.31795 843.968 9.99354 847.883 18.8174C857.917 41.4703 881.535 39.5053 889.576 15.6475C892.986 5.52598 889.688 -2.33395 902.206 0.817439C907.257 2.09653 907.075 12.7742 909.629 18.8174C920 43.3426 943.94 38.4858 952.346 13.2932C955.237 4.61764 950.803 -0.999243 962.591 0.706214C970.042 1.78139 969.074 12.6629 972.793 20.6156C982.56 41.4889 1004.38 38.597 1012.91 17.2973C1016.09 9.36326 1014.16 0.650601 1022.86 0.632063C1033.33 0.594988 1029.5 6.41579 1032.7 15.6475C1044.46 49.6269 1075.71 34.63 1079.66 1.59602L1091.65 2.61558C1098.22 46.5311 1134.36 44.6588 1141.42 1.59602H1151.31C1154.35 5.044 1151.77 23.6001 1163.41 32.0718C1171.9 38.2633 1183.22 30.8112 1178.73 50.9616C1154.99 54.1871 1142.96 93.0048 1165.74 110.56C1170.11 113.934 1178.49 114.49 1179.38 120.348C1181.97 137.513 1173.68 133.324 1165.74 139.46C1150.06 151.546 1149.68 178.556 1164.61 191.754C1169.17 195.777 1178.48 196.166 1179.38 201.913C1182.14 219.728 1170.89 215.761 1162.49 224.14C1148.04 238.562 1152.11 266.683 1168.14 276.1C1172.32 278.566 1178.59 277.491 1179.42 283.571C1181.65 299.717 1174.21 297.103 1166.87 302.238C1155.97 309.876 1151.93 322.667 1154.42 338.702C1157.29 357.054 1179.04 361.429 1179.42 363.505L1178.1 378.242C1171.48 382.413 1165.92 382.765 1160.36 390.032C1150.31 403.157 1151.72 425.661 1163.46 436.135C1167.77 439.972 1177.94 442.049 1179.08 446.998C1183.66 466.982 1170.09 460.753 1161.81 469.781C1149.71 482.98 1151.6 508.821 1164.87 519.554C1172.98 526.117 1182.46 521.556 1178.76 540.372C1163.45 542.559 1151.73 553.033 1152.57 575.297L1140.39 575.019C1137.4 542.374 1107.1 529.824 1095.09 561.449C1091.51 570.866 1095.16 577.966 1084.61 577.428C1075.82 576.984 1078.14 567.029 1073.89 558.112C1063.31 535.941 1040.85 539.093 1032.71 562.45C1028.72 573.925 1032.18 582.452 1017.24 575.482C1010.15 533.42 974.547 531.585 967.516 574.722C965.987 577.521 954.844 577.614 953.651 575.111C953.244 542.986 922.006 530.566 909.882 559.614C904.9 571.552 907.552 582.934 891.975 575.037C886.993 530.881 848.823 534.588 842.663 576.483L830.636 575.464C827.184 544.079 798.149 529.342 785.66 560.504C781.744 570.254 784.761 577.966 774.475 577.428C765.606 576.965 767.837 565.286 762.561 555.98C748.528 531.159 721.261 545.284 720.209 575.13C719.535 576.446 708.266 578.708 707.088 575.482C699.608 532.605 664.202 532.456 656.75 575.63L645.594 577.373C642.128 567.826 641.37 557.797 634.887 550.364C624.516 538.444 606.904 542.467 599.972 558.094C596.309 566.362 598.442 577.428 589.265 577.466C578.88 577.503 582.557 571.775 579.427 562.45C571.555 539.093 548.751 536.09 538.254 558.112C536.275 562.265 533.721 575.315 532.472 576.427C530.76 577.929 524.094 577.985 522.494 576.483C520.895 574.982 520.404 562.932 519.084 558.761C517.442 553.552 512.32 547.286 508.419 545.043C503.985 542.504 495.495 543.82 494.512 537.443C492.084 521.723 502.595 525.801 510.019 518.98C524.768 505.447 523.182 479.661 508.124 467.556C501.234 462.032 494.863 465.332 494.484 453.968C493.993 439.602 500.757 444.088 508.152 438.638C530.213 422.362 519.814 381.802 495.775 379.67L494.681 362.448C527.266 358.555 529.539 302.906 496.168 298.939C487.804 274.302 508.826 281.476 516.741 264.626C527.631 241.417 513.359 219.802 495.887 214.945C490.4 195.054 497.754 199.41 506.693 193.905C530.578 179.204 520.277 137.495 496.238 133.843C493.797 128.449 493.895 121.571 496.21 116.103C518.635 114.638 529.483 78.7123 510.636 60.1191C502.427 52.0182 489.348 55.6145 495.831 36.8174C505.767 36.5579 516.418 29.699 519.842 16.63C521.133 11.7175 520.432 2.37459 523.463 1.03989C535.784 -4.44723 533.96 13.0893 540.092 23.0625C555.487 48.1439 580.466 30.3663 582.837 1.59602C584.97 -0.387503 593.348 0.57645 595.229 3.06048L595.243 3.1161Z" fill="#DF3838"/>
</svg>
