<svg width="194" height="105" viewBox="0 0 194 105" fill="none" xmlns="http://www.w3.org/2000/svg">
<g clip-path="url(#clip0_208_484)">
<path d="M146.687 27.4903C150.731 26.1222 154.814 24.7684 158.879 23.361C166.451 20.7356 173.858 20.6749 181.048 24.6398C190.004 29.58 195.313 40.839 193.718 50.9264C192.27 60.0816 187.029 66.1326 178.706 69.5117C153.258 79.8349 127.761 90.0367 102.238 100.174C96.5751 102.424 90.7155 104.157 84.5984 104.818C71.2239 106.264 58.0961 99.2204 55.0358 85.0072C54.0777 80.5565 54.1528 76.0557 55.6364 71.3906C52.9122 72.4444 50.4203 73.6053 47.8141 74.3733C41.3574 76.2808 34.9508 78.6419 28.344 79.6813C15.7954 81.6567 1.63433 73.4696 0.150655 58.1777C-1.18644 44.3789 6.53581 34.5808 19.2668 30.6694C49.9663 21.2428 80.6229 11.6841 111.34 2.31818C115.38 1.08582 119.66 0.0820818 123.85 0.00349701C132.827 -0.164389 139.144 4.67929 143.624 12.1341C145.669 15.5419 146.734 19.3104 147.038 23.2575C147.138 24.5827 146.83 25.94 146.687 27.4867V27.4903ZM143.162 23.9897C143.048 23.111 142.973 22.2251 142.812 21.3571C141.589 14.6953 138.261 9.46225 132.312 6.04738C127.078 3.0433 121.619 3.45766 116.124 5.14366C92.1026 12.5128 68.0886 19.8997 44.0781 27.2938C39.931 28.5691 35.8017 29.9122 31.1683 31.3803C42.8268 35.9989 48.2181 44.411 48.5112 56.4524C80.1009 45.6184 111.605 34.813 143.162 23.9897ZM102.124 80.01C131.379 68.483 160.462 57.0239 189.617 45.5362C189.524 44.9683 189.435 44.2646 189.292 43.568C187.883 36.6919 184.48 31.2195 178.034 28.019C172.135 25.0899 166.107 25.5114 160.066 27.6403C138.761 35.1488 117.447 42.6393 96.146 50.1585C92.4065 51.4765 88.7062 52.9089 84.5841 54.4413C96.0245 59.3922 101.906 67.665 102.12 80.01H102.124ZM97.526 79.5206C97.4831 74.9948 96.4428 71.0334 94.1368 67.44C87.8947 57.7169 75.1887 55.5094 66.6049 62.8177C59.9766 68.4616 58.0139 75.87 59.5941 84.2107C61.707 95.3411 72.7148 101.982 83.601 98.8882C91.7487 96.5735 97.4045 88.5971 97.526 79.5206ZM24.0074 75.377C34.4503 75.4056 43.7563 65.9647 43.7921 55.3022C43.8278 44.0288 35.0831 34.9451 24.1754 34.9273C13.2892 34.9094 4.49084 43.8931 4.47297 55.0414C4.45509 66.1862 13.257 75.3449 24.0074 75.3735V75.377ZM189.66 48.5368C189.288 48.6332 189.117 48.6618 188.956 48.7261C173.476 54.8057 157.992 60.8746 142.515 66.9685C129.352 72.1515 116.195 77.3524 103.05 82.5747C102.528 82.7819 101.845 83.2712 101.738 83.7427C100.504 89.1651 98.1624 93.9873 93.8758 98.2952C95.17 97.8558 96.0138 97.6129 96.8217 97.2915C123.535 86.6396 150.252 75.9914 176.954 65.311C180.304 63.9715 183.3 62.0533 185.61 59.2136C188.116 56.1309 189.224 52.5339 189.66 48.5403V48.5368ZM142.294 27.0902C141.968 27.1581 141.686 27.1903 141.421 27.2796C137.163 28.7119 132.902 30.1336 128.655 31.5946C102.199 40.6854 75.7429 49.7798 49.312 58.9349C48.665 59.16 47.9964 60.053 47.8105 60.7567C46.9417 64.0072 45.5868 66.9935 43.4667 69.6153C42.9162 70.2976 42.3084 70.9334 41.7292 71.5907C47.049 70.0297 52.1471 68.1544 57.2274 66.2398C57.6313 66.0862 58.0103 65.7004 58.2534 65.3253C61.9823 59.6208 67.2556 56.088 73.63 53.8412C95.3774 46.1756 117.075 38.3672 138.819 30.6909C140.66 30.0407 141.832 29.0799 142.294 27.0867V27.0902Z" fill="#DF3838"/>
</g>
<defs>
<clipPath id="clip0_208_484">
<rect width="194" height="105" fill="white"/>
</clipPath>
</defs>
</svg>
