<svg width="190" height="152" viewBox="0 0 190 152" fill="none" xmlns="http://www.w3.org/2000/svg">
<g clip-path="url(#clip0_208_477)">
<path d="M121.215 3.83184C123.945 3.88772 126.346 4.92487 128.718 6.07235C139.176 11.1362 148.722 17.6474 158.055 24.4885C158.71 24.9675 159.252 25.6282 159.765 26.2694C161.394 28.3043 161.425 30.951 159.446 32.6414C157.114 34.6323 154.628 36.5472 151.944 38.0073C143.143 42.7896 134.254 47.4113 125.34 51.9765C107.463 61.1364 89.5855 70.2962 71.621 79.2863C66.5882 81.8065 61.3627 84.0577 56.0284 85.8447C48.3453 88.4199 40.6962 87.1327 33.2096 84.4909C23.0311 80.9013 14.0408 75.3233 5.97787 68.2365C4.02761 66.525 2.07913 64.4766 2.93616 61.618C3.47261 59.8306 4.62074 58.116 5.85607 56.6731C8.95243 53.0568 12.9904 50.6089 17.2459 48.6163C44.6471 35.7891 72.0657 22.9995 99.5159 10.2851C104.908 7.78905 110.409 5.45733 116.318 4.38463C117.931 4.09156 119.581 4.01295 121.215 3.83493L121.215 3.83184ZM56.9825 80.9804C61.0633 79.115 64.8592 77.5214 68.5267 75.6795C88.9612 65.4263 109.367 55.1103 129.784 44.8224C138.277 40.5431 146.796 36.311 154.718 31.0114C156.899 29.5533 156.963 28.8322 154.925 27.2414C146.81 20.8978 138.284 15.165 129.13 10.3976C125.743 8.6325 122.172 7.45173 118.301 8.30718C115.958 8.82348 113.576 9.40649 111.401 10.3734C96.4313 17.0296 81.4851 23.7391 66.5793 30.5396C53.2573 36.6165 39.999 42.8314 26.7088 48.9773C25.9498 49.3294 25.1589 49.6124 24.0084 50.0814C25.6716 50.3371 26.916 50.5017 28.1493 50.7246C36.5016 52.2235 44.2204 55.2562 50.5123 61.0266C56.1963 66.2362 60.3191 72.2321 56.9763 80.9802L56.9825 80.9804ZM23.2922 54.5951C17.7588 54.518 13.3559 55.8041 9.73253 59.3196C6.86517 62.1028 6.86023 63.1009 9.90403 65.6984C16.5587 71.3789 23.9707 75.817 32.0782 79.1005C36.4732 80.8802 40.9813 82.336 45.7581 82.5025C51.0431 82.6857 54.4446 78.4675 53.3562 73.2793C52.7072 70.195 50.9465 67.717 48.7076 65.6343C41.3859 58.8316 32.478 55.6485 23.2922 54.5951Z" fill="#DF3838"/>
<path d="M62.6398 147.977C56.2998 147.623 48.2128 144.377 40.5474 139.909C37.2002 137.957 33.9962 135.796 31.7402 132.538C29.3273 129.053 29.2893 125.497 31.4402 121.865C33.5682 118.272 36.5735 115.537 40.1064 113.453C51.7991 106.559 63.4425 99.5645 75.3198 92.9982C92.1408 83.6985 109.132 74.7073 126.096 65.6719C130.692 63.2239 135.595 61.3484 140.86 61.1972C144.489 61.0941 148.181 61.4135 151.765 62.0198C159.053 63.2549 166.245 64.9752 173.193 67.5591C177.296 69.085 181.295 70.8331 184.785 73.5318C188.033 76.0434 188.262 78.8975 185.065 81.4349C182.093 83.7942 178.88 85.8798 175.63 87.8467C155.391 100.088 135.098 112.24 114.853 124.465C104.731 130.58 94.7402 136.921 84.5502 142.915C78.6773 146.369 72.2738 148.414 62.6398 147.977ZM80.132 140.146C81.3797 139.457 82.4709 138.906 83.512 138.276C100.271 128.13 117.018 117.969 133.777 107.826C148.469 98.9356 163.179 90.0764 177.86 81.1637C179.55 80.1376 181.09 78.8623 183.047 77.4524C180.954 76.1194 179.327 74.8574 177.514 73.9694C167.109 68.8609 156.028 66.1286 144.519 65.1842C139.82 64.7977 135.286 66.1104 131.11 68.1427C122.38 72.3833 113.631 76.6233 105.14 81.3076C86.1905 91.7642 67.3933 102.495 48.5316 113.115C47.7163 113.574 46.9012 114.029 46.1049 114.476C48.9644 114.854 51.7348 115.109 54.4631 115.607C61.3287 116.859 67.7426 119.302 73.2112 123.704C78.3415 127.832 81.8155 132.814 80.1287 140.152L80.132 140.146ZM49.2912 119.433C43.6439 119.235 41.3814 119.472 39.1742 120.667C34.6873 123.094 32.1772 128.024 37.6665 132.177C40.9558 134.665 44.5622 136.845 48.2773 138.649C54.7365 141.788 61.471 143.911 68.8966 143.321C76.2972 142.733 77.5522 136.077 74.5582 131.874C73.6095 130.544 72.5581 129.224 71.3147 128.181C64.4301 122.419 56.2354 120.088 49.2943 119.433L49.2912 119.433Z" fill="#DF3838"/>
<path d="M62.9402 71.079C62.4549 70.6551 61.6574 70.2919 61.6011 69.8357C61.5231 69.1903 61.7959 68.2504 62.2682 67.8456C63.0661 67.161 64.1212 66.7661 65.0977 66.3068C91.8054 53.7256 118.516 41.1476 145.227 28.5727C145.365 28.5062 145.495 28.4208 145.64 28.3637C146.563 28.0047 147.556 27.5336 148.183 28.7472C148.839 30.0237 147.812 30.4999 146.929 30.9283C143.743 32.4738 140.536 33.9755 137.344 35.5085C113.455 46.9709 89.5693 58.4365 65.6805 69.8958C64.8518 70.292 63.9971 70.6285 62.9463 71.0823L62.9402 71.079Z" fill="#DF3838"/>
<path d="M55.9464 59.9568C55.4556 59.5079 54.5652 59.0459 54.5821 58.6261C54.6156 57.8916 55.0221 56.848 55.6034 56.524C57.7518 55.3275 60.0348 54.3734 62.268 53.3312C84.364 43.009 106.506 32.7842 129.131 23.6477C130.222 23.2076 131.583 22.2665 132.257 24.0226C132.86 25.5909 131.457 26.101 130.324 26.6108C106.323 37.4235 82.3217 48.2394 58.3179 59.0458C57.6284 59.3569 56.9044 59.5896 55.9402 59.9566L55.9464 59.9568Z" fill="#DF3838"/>
<path d="M162.345 78.7398C162.756 79.0779 163.444 79.3725 163.484 79.7386C163.547 80.3001 163.348 81.1528 162.938 81.4607C161.631 82.4469 160.19 83.2556 158.782 84.1056C134.616 98.6991 110.45 113.286 86.2819 127.874C85.7534 128.193 85.2317 128.686 84.6716 128.742C84.0586 128.802 83.1962 128.622 82.8438 128.209C82.578 127.897 82.8522 127.013 83.069 126.454C83.1944 126.131 83.6698 125.918 84.0178 125.71C109.562 110.321 135.109 94.9353 160.659 79.559C161.13 79.2747 161.655 79.0726 162.345 78.7398Z" fill="#DF3838"/>
<path d="M75.2857 119.945C74.768 119.561 74.1305 119.329 74.0463 118.968C73.9269 118.448 74.0294 117.691 74.3556 117.297C74.8271 116.728 75.553 116.347 76.2168 115.967C93.3339 106.152 110.442 96.3208 127.592 86.559C133.218 83.3567 138.949 80.3433 144.633 77.2449C145.038 77.0233 145.476 76.6205 145.862 76.661C146.502 76.7254 147.11 77.0823 147.729 77.3159C147.492 77.9201 147.432 78.8113 146.989 79.0842C144.362 80.6976 141.643 82.1628 138.963 83.688C118.587 95.2691 98.2142 106.85 77.8412 118.438C77.0069 118.911 76.1902 119.413 75.2825 119.948L75.2857 119.945Z" fill="#DF3838"/>
</g>
<defs>
<clipPath id="clip0_208_477">
<rect width="185" height="146" fill="white" transform="translate(4.80314) rotate(1.88527)"/>
</clipPath>
</defs>
</svg>
