<svg width="451" height="734" viewBox="0 0 451 734" fill="none" xmlns="http://www.w3.org/2000/svg">
<path d="M412.32 726.839C408.207 728.727 404.393 730.46 400.608 732.223C396.705 734.04 392.9 734.147 388.897 732.253C384.744 730.287 380.412 728.459 375.931 726.469C371.778 728.346 367.486 730.323 363.134 732.235C359.379 733.891 355.605 733.998 351.731 732.235C347.389 730.258 342.928 728.387 338.287 726.374C334.542 728.012 330.758 729.745 326.834 731.365C319.565 734.361 317.991 734.344 310.861 731.383C308.819 730.538 306.827 729.65 304.856 728.745C303.043 727.911 301.3 727.023 299.558 726.177C294.907 728.197 290.465 730.091 286.093 732.039C282.289 733.73 278.634 733.831 274.78 732.05C270.468 730.061 266.017 728.179 261.575 726.225C256.646 728.387 251.606 730.597 246.577 732.813C243.062 734.361 239.636 734.373 236.171 732.712C231.649 730.543 227.058 728.435 222.278 726.207C217.607 728.149 212.867 730.091 208.177 732.086C204.173 733.79 200.349 733.837 196.376 731.985C192.332 730.097 188.13 728.328 184.146 726.571C179.476 728.631 174.845 730.686 170.194 732.718C167.157 734.04 163.97 734.034 160.923 732.795C156.411 730.966 152.01 729.036 147.339 727.053C143.136 728.888 138.595 730.829 134.134 732.831C131.116 734.183 128.158 734.338 125.041 732.98C120.092 730.829 115.103 728.709 109.994 726.523C106.12 728.25 101.927 729.995 97.9737 731.913C93.6914 733.992 89.5486 733.879 85.356 731.973C81.2829 730.127 77.2994 728.215 73.2462 726.315C68.6453 728.411 64.0245 730.496 59.4534 732.616C56.5455 733.968 53.7172 733.915 50.8391 732.616C46.6266 730.71 42.4041 728.81 38.1418 726.886C33.4712 728.959 28.7806 730.966 24.2295 733.087C21.5606 734.332 19.1804 734.302 16.6708 733.009C12.3986 730.817 8.09642 728.649 3.79426 726.487C0.916197 725.04 0 723.241 0 720.978C0.0896283 670.945 -0.0597254 620.906 0.089655 570.873C0.468085 443.605 0.975955 316.33 1.43405 189.062C1.64319 130.19 1.87223 71.324 1.99174 12.4519C1.99174 10.2541 3.01746 8.68755 5.88556 7.34143C9.66987 5.56645 13.255 3.64852 16.87 1.75442C19.4892 0.384472 22.2178 0.277258 25.0162 1.45661C29.4777 3.33284 33.8795 5.25672 38.4107 7.20443C42.5436 5.40563 46.8059 3.54131 51.0881 1.69486C54.4342 0.253432 57.8302 0.187913 61.1464 1.70677C65.4784 3.69022 69.7706 5.7094 74.4014 7.85963C78.0463 6.10848 81.8107 4.21437 85.7245 2.42748C91.63 -0.276679 93.1436 -0.294548 99.3678 2.18327C101.569 3.05885 103.67 4.02973 105.741 5.02443C107.673 5.95361 109.496 6.96023 111.677 8.09788C115.84 6.20973 119.923 4.2382 124.215 2.43939C130.758 -0.312416 131.614 -0.276678 138.257 2.43344C140.308 3.26732 142.27 4.19055 144.182 5.13164C146.094 6.07274 147.887 7.09722 149.968 8.21105C154.798 6.03104 159.598 3.95825 164.209 1.74846C168.173 -0.151596 172.066 -0.115858 175.98 1.62338C180.462 3.61874 184.843 5.70345 189.275 7.74646C193.468 5.84044 197.859 3.91656 202.132 1.89142C206.354 -0.103945 210.477 -0.139682 214.779 1.76633C219.141 3.70213 223.553 5.59028 228.094 7.56181C232.476 5.50093 236.917 3.45196 241.269 1.34343C244.854 -0.389849 248.529 -0.431542 252.164 1.13497C256.725 3.10054 261.147 5.17334 265.837 7.29378C269.811 5.43541 273.984 3.52344 278.087 1.55191C282.01 -0.336241 286.044 -0.258809 289.967 1.39109C294.289 3.20776 298.422 5.19121 303.023 7.27591C307.136 5.44137 311.647 3.4877 316.039 1.45065C319.236 -0.0324704 322.303 -0.0920328 325.51 1.37917C330.101 3.4877 334.722 5.58432 339.313 7.67498C343.934 5.63197 348.704 3.51153 353.494 1.403C356.482 0.092613 359.618 -0.0324696 362.686 1.24218C367.556 3.26732 372.346 5.36394 377.295 7.48438C381.438 5.53071 385.67 3.48175 390.002 1.50426C393.04 0.122394 396.237 -0.205202 399.583 1.24218C404.124 3.21371 408.715 5.14951 413.684 7.264C417.469 5.41755 421.482 3.21967 425.943 1.41491C427.597 0.747806 431.012 0.40234 432.417 0.974145C438.272 3.35666 443.829 6.04296 449.117 8.86624C450.382 9.54526 450.591 11.2071 450.591 12.4222C450.561 57.2969 450.302 102.166 450.372 147.04C450.492 220.803 451.019 294.56 450.999 368.323C450.97 485.966 450.611 603.603 450.482 721.246C450.482 723.414 449.615 725.022 446.757 726.368C442.714 728.268 438.79 730.258 434.946 732.295C432.158 733.766 429.349 733.879 426.372 732.664C421.741 730.77 417.16 728.834 412.33 726.815L412.32 726.839ZM445.323 696.462V34.8834H7.60846C6.77193 255.588 5.93538 475.983 5.09885 696.462H445.323ZM147.16 722.753C152.189 725.099 156.79 727.196 161.301 729.364C164.229 730.77 166.908 730.657 169.726 729.257C173.291 727.482 177.215 725.939 180.511 724.003C183.21 722.419 185.062 722.699 187.612 723.992C191.386 725.904 195.479 727.601 199.333 729.459C201.494 730.502 203.426 730.383 205.538 729.453C209.929 727.512 214.441 725.671 218.763 723.676C221.272 722.514 223.383 722.461 225.803 723.724C229.418 725.612 233.263 727.351 236.878 729.245C239.775 730.758 242.425 731.074 245.621 729.477C249.426 727.577 253.658 725.969 257.373 724.021C260.241 722.514 262.501 722.324 265.509 723.872C269.522 725.933 273.755 727.857 278.136 729.626C279.232 730.067 281.702 730.043 282.807 729.596C287.179 727.821 291.451 725.915 295.405 723.819C298.323 722.264 300.573 722.586 303.212 723.902C306.389 725.487 309.795 726.91 312.962 728.5C316.945 730.502 320.7 730.615 324.803 728.554C328.219 726.839 332.013 725.391 335.508 723.729C338.088 722.497 340.01 722.735 342.44 724.015C346.154 725.975 350.317 727.631 354.181 729.489C356.472 730.585 358.573 730.567 360.804 729.501C364.289 727.833 368.083 726.344 371.24 724.474C374.716 722.419 377.484 722.461 380.86 724.474C383.31 725.933 386.427 726.999 388.887 728.459C393 730.895 396.695 730.74 400.798 728.441C404.383 726.434 408.297 724.641 412.25 722.657C415.158 723.992 417.857 725.296 420.665 726.505C431.719 731.282 428.343 731.735 439.507 725.987C441.798 724.807 445.034 723.241 445.154 721.776C445.741 714.676 445.423 707.552 445.423 700.029H5.12875C5.12875 707.326 5.06898 714.735 5.22832 722.151C5.24823 722.913 6.33375 723.837 7.35949 724.397C11.582 726.702 15.9737 728.9 20.5348 731.252C26.6495 728.227 32.2263 725.469 37.8928 722.663C42.4838 724.897 46.8357 727.023 51.2076 729.132C53.767 730.365 56.1969 730.698 58.9655 729.144C62.0925 727.387 65.827 725.993 68.8047 724.152C71.6528 722.389 73.9134 722.437 76.8413 723.95C80.5957 725.886 84.6489 727.619 88.4332 729.537C90.6241 730.645 92.4366 730.526 94.5379 729.489C98.372 727.601 102.485 725.909 106.16 723.926C108.908 722.443 111.039 722.383 113.788 723.878C117.343 725.808 121.267 727.488 124.892 729.364C127.75 730.847 130.359 730.865 133.267 729.418C137.838 727.148 142.529 724.962 147.15 722.753H147.16ZM7.57855 31.0177H445.343C445.343 24.4658 445.393 18.1223 445.273 11.7789C445.263 11.1058 444.526 10.2481 443.65 9.81329C440.214 8.10383 436.49 6.60285 433.074 4.88148C430.654 3.66639 428.802 3.90464 426.65 5.07208C423.344 6.87088 419.759 8.50291 416.503 10.3315C414.043 11.7074 412.111 11.5942 409.77 10.2362C406.803 8.51482 403.546 6.97214 400.449 5.3282C397.083 3.54727 393.876 3.39836 390.441 5.34607C387.433 7.04361 384.077 8.51482 381.01 10.1885C378.421 11.6061 376.429 11.9635 373.551 10.1766C370.473 8.27061 366.59 6.8411 363.084 5.17929C359.977 3.70809 357.059 3.5294 353.842 5.18525C350.078 7.12105 345.965 8.81264 342.161 10.7246C339.681 11.9695 337.899 12.0171 335.459 10.5459C331.973 8.44335 328.159 6.47777 324.096 4.79809C322.682 4.21437 319.565 4.17864 318.121 4.73257C313.679 6.43607 309.516 8.44335 305.543 10.534C303.252 11.7372 301.868 11.6359 299.737 10.4268C296.261 8.45526 292.427 6.71602 288.752 4.86957C285.576 3.27328 282.598 3.34475 279.461 5.0006C275.866 6.90066 271.992 8.62203 268.387 10.5221C266.186 11.6776 264.613 11.5823 262.481 10.3672C258.896 8.32422 254.962 6.49563 251.178 4.57771C248.529 3.23754 245.95 3.22563 243.251 4.59558C239.845 6.3229 236.011 7.78815 232.924 9.70012C229.339 11.9218 226.451 11.8027 222.846 9.80734C219.46 7.9311 215.895 6.09061 211.971 4.67301C210.308 4.07142 207.001 4.07738 205.338 4.68492C200.847 6.32886 196.764 8.38974 192.651 10.3911C189.713 11.8206 187.333 11.9159 184.495 10.1945C181.487 8.36592 177.972 6.83514 174.725 5.14355C171.668 3.55322 168.81 3.41623 165.603 5.13164C162.147 6.97214 158.244 8.51482 154.798 10.3672C151.522 12.1243 148.982 12.2971 145.646 10.2541C142.32 8.21105 138.217 6.62667 134.502 4.81C132.431 3.79743 130.588 3.68426 128.358 4.76831C124.245 6.75771 119.813 8.52078 115.74 10.534C112.971 11.904 110.81 12.0588 108.032 10.4983C104.536 8.53864 100.573 6.87684 96.938 4.99465C94.1894 3.57705 91.8092 3.67235 89.1004 5.05421C84.3402 7.47842 79.4106 9.78351 74.4213 12.2018C71.9416 10.9152 69.7606 9.70012 67.4502 8.5863C54.6832 2.45131 57.9795 2.50491 45.1328 8.37187C38.3012 11.487 38.4306 11.5942 31.6587 8.23488C21.6601 3.27923 21.6104 3.24945 12.0102 8.43143C10.2575 9.37848 7.86739 10.6591 7.79768 11.8325C7.37941 18.1521 7.59849 24.4896 7.59849 31.0118L7.57855 31.0177Z" fill="#DF3838"/>
<path d="M147.227 723.289C142.6 725.554 137.903 727.794 133.326 730.12C130.414 731.603 127.801 731.585 124.939 730.065C121.309 728.136 117.38 726.414 113.82 724.443C111.057 722.91 108.933 722.971 106.181 724.491C102.491 726.524 98.3824 728.264 94.543 730.193C92.4388 731.249 90.6239 731.377 88.4299 730.242C84.6404 728.276 80.5817 726.5 76.8221 724.516C73.8902 722.965 71.6265 722.91 68.7744 724.723C65.8026 726.61 62.0629 728.038 58.9216 729.839C56.1493 731.432 53.7161 731.096 51.1532 729.827C46.7753 727.666 42.4174 725.486 37.8201 723.197C32.1458 726.072 26.5613 728.899 20.4383 732C15.8709 729.589 11.4731 727.336 7.24484 724.974C6.21768 724.4 5.13068 723.454 5.11074 722.672C4.95118 715.078 5.01098 707.478 5.01098 700H445.91C445.91 707.71 446.239 715.011 445.641 722.288C445.521 723.789 442.28 725.395 439.986 726.604C428.797 732.488 432.188 732.024 421.118 727.135C418.306 725.889 415.604 724.559 412.692 723.191C408.723 725.224 404.804 727.061 401.223 729.119C397.115 731.475 393.415 731.634 389.297 729.137C386.833 727.641 383.712 726.555 381.259 725.053C377.878 722.99 375.106 722.947 371.625 725.053C368.464 726.97 364.675 728.49 361.174 730.205C358.941 731.298 356.836 731.316 354.543 730.193C350.664 728.288 346.495 726.597 342.785 724.583C340.362 723.27 338.437 723.026 335.845 724.29C332.344 725.999 328.545 727.477 325.124 729.235C321.016 731.347 317.266 731.231 313.267 729.18C310.096 727.55 306.685 726.091 303.504 724.467C300.852 723.118 298.608 722.788 295.686 724.381C291.727 726.53 287.449 728.484 283.071 730.303C281.954 730.767 279.491 730.785 278.394 730.333C274.006 728.526 269.758 726.555 265.749 724.436C262.737 722.849 260.473 723.045 257.601 724.589C253.872 726.591 249.643 728.233 245.834 730.181C242.643 731.817 239.98 731.493 237.078 729.943C233.458 728.001 229.609 726.219 225.989 724.284C223.556 722.984 221.451 723.045 218.938 724.235C214.62 726.28 210.093 728.172 205.695 730.156C203.581 731.109 201.646 731.231 199.482 730.163C195.613 728.258 191.524 726.518 187.745 724.559C185.192 723.234 183.337 722.947 180.635 724.571C177.344 726.555 173.405 728.136 169.834 729.955C167.012 731.396 164.33 731.506 161.398 730.065C156.88 727.843 152.283 725.694 147.237 723.289H147.227Z" fill="#F5F5F5"/>
<path d="M8.05724 30.9941C8.05724 24.5783 7.83856 18.3441 8.25605 12.1275C8.33558 10.9732 10.7212 9.71347 12.4607 8.78185C22.0431 3.68433 22.0929 3.71363 32.0729 8.5885C38.8421 11.8931 38.7129 11.7935 45.5219 8.72326C58.3548 2.95193 55.0547 2.89334 67.798 8.93419C70.1141 10.0299 72.291 11.2193 74.7562 12.4907C79.7362 10.1119 84.6566 7.84438 89.4081 5.45968C92.1217 4.10034 94.4974 4.00659 97.231 5.40108C100.859 7.2526 104.815 8.88146 108.304 10.815C111.078 12.3501 113.235 12.1978 115.998 10.8502C120.064 8.86388 124.487 7.13541 128.592 5.17844C130.819 4.11206 132.658 4.22338 134.726 5.21945C138.433 7.00651 142.529 8.57092 145.849 10.5748C149.169 12.5845 151.703 12.4146 154.984 10.6861C158.423 8.86974 162.32 7.35221 165.769 5.53585C168.97 3.85425 171.822 3.98315 174.874 5.54757C178.115 7.21158 181.624 8.7174 184.625 10.5162C187.458 12.2154 189.834 12.1216 192.766 10.7095C196.862 8.74084 200.937 6.71355 205.43 5.09641C207.09 4.49877 210.391 4.49291 212.051 5.08469C215.967 6.47918 219.526 8.28968 222.905 10.1353C226.504 12.0982 229.386 12.2154 232.965 10.0299C236.036 8.14906 239.863 6.70769 243.273 5.00852C245.967 3.6609 248.541 3.67262 251.185 4.99094C254.962 6.87761 258.889 8.67639 262.467 10.6861C264.595 11.8814 266.165 11.9751 268.362 10.8384C271.96 8.96935 275.817 7.27604 279.415 5.40695C282.547 3.77808 285.519 3.70777 288.69 5.27804C292.348 7.0944 296.185 8.80529 299.654 10.7447C301.781 11.9341 303.163 12.0337 305.449 10.8502C309.415 8.79357 313.57 6.81902 318.003 5.14328C319.445 4.59837 322.556 4.63353 323.967 5.20773C328.033 6.86003 331.83 8.79357 335.309 10.8619C337.745 12.3091 339.524 12.2681 341.999 11.0377C345.796 9.15684 349.902 7.49283 353.659 5.58858C356.88 3.95972 359.792 4.13549 362.884 5.58272C366.382 7.21744 370.269 8.62365 373.331 10.4986C376.203 12.2505 378.191 11.899 380.776 10.5103C383.828 8.86974 387.187 7.42251 390.189 5.74678C393.629 3.83082 396.829 3.97144 400.179 5.7292C403.271 7.34635 406.521 8.86388 409.483 10.5572C411.819 11.8931 413.748 12.0103 416.203 10.6509C419.463 8.85217 423.032 7.2526 426.332 5.47726C428.479 4.32299 430.338 4.08862 432.743 5.28976C436.153 6.98307 439.871 8.4596 443.3 10.1412C444.175 10.5689 444.91 11.4185 444.92 12.0747C445.039 18.3148 444.99 24.5549 444.99 31H8.0374L8.05724 30.9941Z" fill="#F5F5F5"/>
<path d="M47.7221 443.22C47.7221 402.603 47.762 361.987 47.6723 321.364C47.6723 316.788 49.0377 312.449 55.1673 309.601C58.845 307.891 63.968 306.389 68.483 306.347C115.487 305.93 162.5 305.823 209.514 305.65C265.328 305.442 321.142 305.34 376.957 305.001C389.983 304.923 406.05 311.359 406 322.514C405.641 399.38 405.811 476.245 405.801 553.11C405.801 557.282 405.023 561.489 405.761 565.606C407.026 572.674 399.88 578.24 389.086 580.272C385.04 581.034 380.644 581.463 376.408 581.475C311.783 581.624 247.158 581.66 182.543 581.755C145.995 581.809 109.457 581.892 72.9182 582C57.659 582.047 47.0144 575.761 47.0044 566.548C46.9945 525.437 47.0044 484.319 47.0044 443.208C47.2536 443.208 47.5028 443.208 47.742 443.208L47.7221 443.22ZM219.191 515.318C223.019 516.617 226.836 517.916 230.883 519.287C231.052 518.995 231.819 518.286 231.839 517.565C232.029 512.19 234.56 510.128 243.391 508.31C245.265 507.923 247.109 507.494 248.962 507.089C246.222 506.678 243.55 507.238 241.378 506.827C231.64 505.003 226.278 508.024 222.052 512.595C221.185 513.537 220.228 514.454 219.321 515.39C214.268 519.329 209.225 523.262 204.022 527.32C213.012 527.618 219.281 524.9 224.863 520.699C221.902 519.192 217.188 518.387 219.182 515.324L219.191 515.318ZM256.378 315.775C255.281 310.411 262.657 313.898 266.195 312.086C266.624 311.502 267.501 310.298 268.378 309.089H250.208C252.69 311.693 254.604 313.701 256.517 315.709C256.158 318.051 255.67 320.387 255.511 322.735C255.461 323.39 256.039 324.356 256.876 324.689C263.384 327.293 270.022 329.778 276.63 332.299C280.248 324.397 273.561 313.415 256.378 315.775ZM317.554 482.311C319.009 482.287 320.475 482.192 321.92 482.258C328.986 482.568 336.043 482.997 343.119 483.217C347.355 483.348 350.485 482.544 349.996 479.379C349.817 478.235 350.036 476.912 350.863 475.899C353.784 472.318 351.661 469.392 347.993 466.478C342.073 469.13 335.614 471.126 328.398 468.802C324.671 467.598 322.219 467.998 319.089 469.362C324.95 470 326.036 470.673 324.421 473.677C323.195 475.959 320.863 478.021 319.069 480.196C318.501 480.893 318.092 481.638 317.604 482.353C317.146 482.317 316.418 482.15 316.259 482.27C311.275 485.809 306.342 489.379 300.68 493.461C307.029 492.99 311.953 492.728 316.817 492.233C323.315 491.578 325.418 490.141 325.837 486.268C322.269 485.66 313.667 488.401 317.554 482.317V482.311ZM150.939 509.699C147.988 509.3 144.988 508.9 141.171 508.382C143.563 506.35 145.218 504.938 146.862 503.531C146.693 503.281 146.533 503.037 146.364 502.786C144.889 502.941 142.796 502.769 142.048 503.293C131.434 510.682 117.669 512.41 102.191 511.642C102.34 512.81 102.649 514.156 102.619 515.497C102.609 515.992 101.962 516.731 101.294 516.897C100.706 517.046 99.2107 516.689 98.9018 516.319C95.9914 512.881 89.7223 513.268 84.998 511.963C83.7422 511.618 81.5595 512.249 79.9449 512.643C76.8253 513.411 73.8152 514.335 70.576 515.241C69.8484 513.024 69.2804 511.314 68.6126 509.264C63.2006 509.824 58.1275 510.343 53.0942 510.861V519.758C60.2504 522.076 66.6889 523.095 74.8518 520.377C79.4565 518.84 86.6525 519.537 92.4632 520.074C95.5131 520.354 97.2772 520.437 99.8785 519.335C106.865 516.361 114.54 513.894 123.39 515.777C126.739 516.486 128.553 516.272 131.264 515.134C139.696 511.594 148.666 508.966 159.49 511.052C160.248 511.195 161.304 510.819 162.211 510.646C166.238 509.878 170.254 509.091 174.44 508.281C174.43 508.215 174.341 507.727 174.201 506.916C179.374 507.798 184.038 508.591 188.773 509.395C191.504 508.156 194.444 506.821 198.411 505.015C195.251 504.473 192.55 503.406 191.035 503.835C180.331 506.892 169.517 506.469 158.523 504.795C155.782 504.378 153.64 504.58 152.782 506.481C152.364 507.405 151.766 508.299 150.968 509.687L150.939 509.699ZM137.184 497.262C149.125 501.851 180.769 505.802 188.504 500.838C174.879 487.609 155.733 480.172 139.327 481.805C140.115 483.914 140.463 486.131 141.789 488.109C144.39 491.977 143.005 494.962 137.184 497.257V497.262ZM141.4 427.059C140.523 430.164 136.437 430.939 131.882 430.736C127.836 430.551 123.59 430.182 119.902 429.234C112.756 427.399 106.297 424.253 97.6958 425.993C96.9882 426.136 96.0114 425.993 95.2539 425.832C91.0878 424.95 86.9715 423.99 82.7854 423.138C81.7189 422.924 80.493 423.007 79.3368 422.954C79.6757 423.633 79.6558 424.598 80.4133 424.938C82.008 425.653 83.9316 426.261 85.8652 426.511C88.0977 426.797 90.4997 426.594 92.812 426.714C103.078 427.232 105.898 428.942 108.699 435.021C108.948 435.557 109.148 436.105 109.108 436.016C114.41 437.035 118.875 437.988 123.44 438.727C126.141 439.168 128.992 439.4 131.792 439.49C137.354 439.663 142.945 439.579 148.507 439.782C154.357 439.99 160.258 440.89 166.008 440.592C172.298 440.264 177.381 441.176 182.155 443.393C183.211 443.882 184.427 444.245 185.573 444.668C183.321 442.314 180.73 440.312 177.859 438.459C176.693 437.708 175.018 436.945 173.414 436.79C165.49 436.034 157.666 434.669 153.261 430.587C150.271 427.816 147.39 426.499 141.41 427.065L141.4 427.059ZM195.411 473.778C192.779 471.943 190.019 470.352 187.945 468.486C184.916 465.763 180.949 464.589 175.776 465.656C169.178 467.02 162.889 467.05 156.56 465.072C155.364 464.702 152.703 464.833 151.935 465.364C148.616 467.646 145.756 470.167 142.517 472.771C154.038 472.991 163.766 470.322 173.514 467.277C172.696 468.653 171.729 469.833 170.175 470.542C162.58 473.998 153.969 475.887 144.37 475.542C140.194 475.393 137.105 475.84 135.071 478.146C135.59 478.349 135.829 478.503 136.118 478.545C136.596 478.611 137.115 478.664 137.593 478.629C148.048 477.83 157.616 479.177 166.477 482.615C167.444 482.991 169.606 482.758 170.793 482.365C176.703 480.404 183.032 479.278 189.321 480.947C195.74 482.645 201.76 480.941 208.308 481.411C203.653 477.425 198.381 475.703 190.736 477.49C186.49 478.486 181.955 479.034 177.66 479.761C175.457 477.657 177.032 476.74 179.852 476.269C184.896 475.417 189.969 474.642 195.421 473.778H195.411ZM245.594 309.112C241.268 309.112 236.932 309.369 232.716 309.047C227.932 308.683 225.411 309.953 224.524 312.426C223.268 315.93 219.55 318.349 215.564 320.762C212.872 322.395 210.431 324.177 207.839 325.923C209.673 326.721 210.899 327.103 211.766 327.669C217.088 331.131 222.471 334.575 227.564 338.163C230.245 340.052 235.567 340.993 237.451 339.581C239.514 338.037 239.055 334.379 236.623 332.937C235.328 332.168 233.932 331.453 232.766 330.619C227.404 326.793 227.683 321.191 233.185 317.938C234.979 316.877 237.122 316.555 237.969 317.973C240.182 321.644 246.002 321.537 250.278 323.104C255.132 317.407 248.673 313.468 245.604 309.106L245.594 309.112ZM134.214 345.611C130.666 343.71 126.55 341.827 123.111 339.569C120.59 337.918 118.756 335.845 116.982 333.842C114.909 331.494 112.526 330.476 107.583 330.821C103.985 331.071 99.9582 329.939 96.3602 329.069C94.2273 328.551 92.5728 327.341 90.3203 326.262C89.1642 329.576 88.3668 332.114 93.0512 334.73C98.2439 337.626 100.158 341.756 99.8187 346.124C99.7689 346.821 99.8187 347.769 100.506 348.204C103.646 350.182 107.045 352.011 110.673 354.085C111.31 353.585 111.749 353.156 112.327 352.81C115.028 351.213 119.433 350.206 117.619 347.042C117.47 346.785 119.414 345.713 120.44 345.683C125.384 345.534 130.347 345.617 134.214 345.617V345.611ZM147.311 460.203C142.018 455.597 137.473 451.104 132.002 447.058C127.427 443.673 121.626 441.003 114.021 440.133C111.33 439.829 109.158 439.531 108.051 441.492C106.955 443.447 105.051 445.401 108.749 447.111C109.965 447.671 111.281 448.154 112.198 448.53C109.905 450.454 107.942 452.105 106.018 453.714C113.413 459.202 134.154 462.557 147.301 460.203H147.311ZM170.055 529.942C177.032 530.776 182.693 530.281 188.474 528.678C204.999 524.102 212.514 514.728 222.481 506.517C218.235 506.719 214.188 507.184 210.201 507.047C203.853 506.821 198.57 508.173 194.793 510.915C186.431 516.987 178.607 523.321 170.045 529.942H170.055ZM318.76 393.784C325.667 398.688 334.269 400.166 344.564 399.034C343.01 396.561 341.355 394.41 340.328 392.151C339.232 389.768 336.79 388.415 332.993 387.849C328.677 387.205 324.262 386.776 319.996 386.025C318.282 385.728 315.92 384.995 315.501 384.166C314.385 381.961 311.943 381.217 308.634 381.079C306.84 381.008 304.318 380.835 303.341 381.425C301.577 382.498 300.86 383.904 302.514 385.68C304.647 387.968 305.943 390.554 307.298 393.075C308.754 395.786 309.72 398.593 311.225 401.292C311.564 401.906 313.179 402.627 314.265 402.663C318.91 402.812 323.574 402.729 328.607 402.729C326.614 401.763 324.601 400.643 322.348 399.737C320.066 398.814 317.544 398.098 315.092 397.282C316.378 396.06 317.494 395 318.77 393.79L318.76 393.784ZM67.4364 552.604C73.5959 553.796 80.9316 552.074 83.3435 548.534C84.7987 546.406 83.6425 545.018 79.9847 545.316C74.6325 545.757 69.4099 546.746 63.3102 547.622C62.8418 546.538 62.0942 544.78 61.3467 543.022C58.6955 542.789 55.9946 542.557 53.2238 542.319V560.458C56.3135 560.458 59.1441 560.285 61.885 560.506C64.6258 560.726 67.2471 561.53 69.988 561.715C71.6923 561.828 73.8551 561.56 75.2505 560.976C84.719 557.002 90.2406 556.763 100.417 560.416C100.287 555.059 94.2572 552.586 88.616 549.887C83.2638 554.684 67.0079 558.73 61.5959 556.638C63.3999 555.393 65.1939 554.153 67.4364 552.61V552.604ZM67.875 354.705C68.5328 360.771 71.2238 365.568 79.0877 368.315C92.5529 373.017 106.457 377.266 120.719 381.884C120.53 380.537 120.789 379.232 120.121 378.118C117.699 374.06 114.39 370.139 108.011 367.922C95.0845 363.423 81.8186 359.269 67.875 354.711V354.705ZM356.435 421.488C355.538 423.472 354.242 425.2 354.063 426.964C353.515 432.297 358.059 436.451 363.95 440.044C372.023 444.972 380.465 449.68 388.767 454.471C388.907 454.554 389.345 454.453 389.624 454.441C393.9 450.407 391.239 446.676 388.259 442.964C381.222 434.168 369.083 428.066 356.435 421.494V421.488ZM54.2105 336.768C52.247 343.633 55.7554 347.989 66.4199 351.481C72.3302 353.418 78.7787 354.753 84.8286 356.54C92.7622 358.888 100.536 361.427 108.889 364.037C108.719 362.69 108.669 361.54 108.42 360.402C107.174 354.669 100.467 351.85 92.4333 349.717C79.1774 346.195 65.8418 342.757 54.2105 336.762V336.768ZM383.864 537.849C380.036 532.021 367.658 529.161 358.448 529.799C345.81 530.675 334.727 534.083 323.056 537.295C328.677 541.246 335.584 542.301 343.069 541.788C350.415 541.288 357.651 540.221 364.956 539.5C371.076 538.892 377.226 538.427 383.864 537.849ZM277.368 422.244C270.61 416.947 265.458 412.424 259.468 408.354C252.78 403.807 245.275 399.886 233.673 402.317C228.76 403.348 227.952 404.349 231.431 406.65C236.773 410.177 242.255 413.64 247.766 417.078C252.869 420.266 259.338 422.095 266.444 422.852C269.564 423.186 272.973 422.524 277.368 422.244ZM101.383 487.484C104.254 484.159 104.224 482.609 101.513 478.384C95.2639 468.653 81.9083 462.408 69.4996 454.715C68.4431 456.95 66.9381 458.684 66.9082 460.424C66.8086 467.003 73.2571 471.674 80.6425 475.935C87.4 479.832 94.3768 483.598 101.383 487.484ZM237.441 478.724C249.072 480.148 261.341 477.33 267.032 471.871C272.355 466.764 277.059 461.419 282.003 456.169C282.929 455.186 283.697 454.155 284.843 452.784C271.358 452.993 262.119 456.533 255.74 462.956C250.408 468.331 247.567 474.69 237.441 478.718V478.724ZM290.813 363.78C287.414 347.465 264.431 342.829 244.796 335.868C244.278 337.507 243.83 338.747 243.491 339.998C242.763 342.709 243.57 345.218 247.268 347.006C250.707 348.674 254.135 350.587 258.142 351.559C270.242 354.502 280.777 358.775 290.813 363.78ZM297.88 381.509C299.185 376.449 296.783 372.612 291.64 369.37C279.86 361.927 265.836 356.481 249.441 352.864C249.68 358.876 252.75 363.852 261.979 366.98C274.338 371.164 287.285 374.828 297.87 381.509H297.88ZM353.076 526.366C344.654 521.855 335.176 520.449 325.209 522.69C315.83 524.799 307.039 527.82 297.989 530.448C295.438 531.187 292.916 531.968 290.175 532.796C297.351 536.437 305.116 537.653 313.268 535.853C326.514 532.921 339.541 529.62 353.076 526.366ZM234.65 549.13C229.318 549.13 224.912 548.796 220.687 549.201C212.464 549.988 206.175 552.967 200.922 556.644C195.132 560.702 189.68 564.945 184.248 568.979C193.706 571.303 204.59 570.284 211.517 565.642C219.201 560.494 226.368 555.065 234.64 549.13H234.65ZM297.441 547.193C287.066 546.406 277.208 546.794 269.803 550.78C261.212 555.405 254.016 560.964 245.952 566.292C258.75 569.283 267.371 567.811 275.285 562.198C281.873 557.532 289.009 553.14 295.886 548.617C296.385 548.284 296.714 547.86 297.431 547.193H297.441ZM244.069 439.77C238.268 433.513 224.305 429.342 213.799 430.718C204.152 431.981 194.653 433.632 185.095 435.152C183.989 435.324 183.002 435.759 181.816 436.117C186.231 440.002 191.982 441.939 199.318 441.54C205.367 441.212 211.308 440.056 217.348 439.847C226.029 439.543 234.77 439.77 244.059 439.77H244.069ZM100.606 469.857C103.287 465.531 104.543 460.918 99.9383 456.717C95.3337 452.522 89.9515 448.619 84.5794 444.758C81.4897 442.535 77.7123 440.652 74.184 438.572C67.5561 444.18 68.4033 448.25 76.9548 454.775C84.0412 460.18 92.6625 464.857 100.616 469.857H100.606ZM67.9547 473.111C67.6956 477.681 66.6391 482.18 71.2737 485.899C79.9548 492.847 89.1243 499.575 98.1443 506.439C98.6027 506.147 98.8619 506.022 99.0313 505.861C99.2905 505.611 99.5396 505.355 99.6991 505.081C103.895 497.835 100.148 491.506 92.0346 486.268C84.8286 481.614 76.3568 477.651 67.9448 473.111H67.9547ZM357.461 474.261C349.727 483.241 363.91 500.296 382.668 504.711C384.741 500.218 386.525 495.433 381.85 491.566C374.594 485.565 365.913 480.172 357.461 474.261ZM234.819 486.226C242.185 490.833 249.082 495.654 256.896 499.867C263.514 503.43 272.963 505.319 282.77 501.845C271.567 488.36 254.315 482.693 234.819 486.226ZM79.7256 542.241C88.9947 541.997 97.6659 541.174 103.656 537.087C108.689 533.654 112.536 529.578 116.613 525.675C119.065 523.327 120.968 520.771 123.46 517.91C110.912 517.839 101.952 520.735 95.7323 526.384C90.2206 531.384 85.3469 536.634 79.7256 542.241ZM356.076 438.983C355.628 439.043 355.169 439.102 354.721 439.162C354.342 440.741 353.076 442.475 353.754 443.876C355.518 447.505 356.943 451.551 360.681 454.417C368.246 460.221 377.256 465.352 385.707 470.781C389.734 465.978 389.604 463.743 386.146 459.238C379.518 450.603 364.897 446.384 356.076 438.983ZM314.793 448.166C307.049 448.118 298.846 448.518 294.092 452.224C285.87 458.642 279.122 465.739 271.328 472.956C283.507 473.397 293.434 470.632 298.737 465.358C304.308 459.816 309.312 454.066 314.793 448.166ZM302.843 399.141C301.807 382.718 281.375 376.962 261.72 370.508C259.767 375.585 262.497 379.369 268.368 382.301C279.76 387.986 291.341 393.534 302.843 399.141ZM111.659 537.176C122.294 537.313 131.752 536.258 137.683 531.384C144.321 525.925 149.424 519.794 155.553 513.608C143.992 513.674 134.533 515.765 128.174 521.301C122.473 526.253 117.52 531.509 111.669 537.176H111.659ZM343.767 444.692C334.926 443.381 325.099 445.24 320.106 449.894C313.358 456.181 307.318 462.742 300.75 469.398C313.737 468.641 323.843 465.519 330.401 459.065C335.176 454.369 339.352 449.465 343.767 444.686V444.692ZM191.135 409.266C189.56 403.879 188.135 398.641 186.48 393.427C184.537 387.283 175.417 382.057 166.447 381.628C167.454 387.056 168.43 392.527 169.487 397.985C171.092 406.274 177.191 409.409 191.135 409.26V409.266ZM220.467 502.655C215.613 499.068 210.839 495.57 206.125 492.042C200.982 488.187 195.261 484.862 186.879 483.622C181.906 482.889 177.54 483.324 174.002 485.106C179.912 489.277 185.932 493.216 191.344 497.429C199.995 504.169 207.431 505.563 220.457 502.655H220.467ZM164.603 401.531C163.577 396.609 162.131 391.83 161.723 387.015C161.414 383.415 158.683 380.942 153.949 379.28C149.922 377.868 145.387 376.974 140.065 375.591C140.633 380.442 140.493 384.637 141.739 388.683C143.792 395.375 151.726 402.633 164.593 401.525L164.603 401.531ZM256.517 377.152C254.833 372.522 249.261 372.88 244.956 372.475C228.241 370.896 216.062 378.1 201.002 380.341C206.065 384.482 214.338 386.615 221.384 385.167C233.165 382.742 244.697 379.876 256.517 377.152ZM213.799 427.083C206.035 422.769 197.663 420.433 187.995 421.529C178.158 422.644 168.58 424.592 158.912 426.231C157.945 426.398 157.148 426.94 156.301 427.298C160.666 431.606 169.058 434.162 176.723 433.066C188.882 431.32 200.882 429.193 213.809 427.083H213.799ZM338.953 382.748C341.285 386.246 343.518 389.416 345.531 392.634C350.724 400.905 360.8 404.236 376.319 402.323C372.442 397.938 368.844 393.641 364.887 389.458C362.026 386.437 358.079 384.148 351.81 383.749C349.936 383.63 348.132 383.064 345.97 382.641C347.285 381.616 348.272 380.841 349.568 379.828C345.591 380.919 342.242 381.842 338.953 382.742V382.748ZM233.424 459.786C239.175 459.238 244.457 458.439 249.79 458.326C253.218 458.255 255.491 457.689 258.042 456.354C266.046 452.171 274.727 448.822 286.268 450.383C287.325 450.526 288.69 449.984 289.866 449.698C295.627 448.309 301.268 446.712 307.149 445.55C312.481 444.495 319.607 447.099 323.345 442.702C330.511 442.177 337.677 441.671 344.833 441.111C345.97 441.021 347.534 440.92 348.103 440.467C351.82 437.499 351.561 434.198 347.624 430.903C344.285 434.961 333.91 440.056 325.906 441.522C324.541 441.772 322.986 442.243 321.74 442.064C314.285 441.003 307.348 441.712 300.531 443.685C298.508 444.269 296.056 444.537 293.803 444.555C289.408 444.585 284.704 443.697 280.697 444.376C276.65 445.061 273.551 447.582 269.534 448.583C265.169 449.674 260.225 449.936 255.521 450.556C256.896 453.899 255.102 455.651 247.826 456.753C242.952 457.492 237.82 457.605 232.437 458.022C232.886 458.827 233.324 459.607 233.424 459.786ZM138.41 309.273C132.012 309.273 125.603 309.142 119.234 309.351C117.271 309.416 114.819 310.155 113.583 311.067C109.088 314.368 105.031 317.878 100.785 321.293C99.2705 322.514 97.6958 323.7 96.1908 324.862C102.57 328.396 108.55 328.64 115.208 326.257C126.231 322.318 129.938 314.797 138.41 309.267V309.273ZM202.507 484.427C206.344 487.21 209.534 489.832 213.261 492.15C218.703 495.534 223.995 499.146 230.334 501.827C236.803 504.568 244.428 504.223 251.893 502.018C246.401 498.454 241.059 495.219 236.165 491.762C227.215 485.446 215.075 484.79 202.507 484.421V484.427ZM142.915 533.601C152.404 534.25 161.125 532.433 166.626 528.088C172.876 523.154 178.597 517.97 184.567 512.881C172.427 509.359 161.872 513.203 155.314 519.674C150.809 524.114 147.111 528.851 142.925 533.607L142.915 533.601ZM170.972 375.24C175.906 378.452 182.813 379.917 189.909 378.982C193.258 378.541 196.547 377.874 199.766 377.158C209.404 375.019 219.002 372.802 228.61 370.615C228.51 370.294 228.421 369.978 228.321 369.656C223.358 368.47 218.514 366.98 213.381 366.194C209.823 365.652 205.358 365.383 202.158 366.2C191.613 368.899 181.457 372.141 170.982 375.234L170.972 375.24ZM217.537 566.339C225.311 568.932 236.305 568.592 241.009 565.291C249.261 559.492 257.135 553.504 265.079 547.664C252.102 546.812 241.049 549.326 232.517 555.81C227.833 559.373 222.7 562.722 217.527 566.339H217.537ZM353.235 356.671C367.109 357.601 372.093 357.392 377.634 353.739C385.299 348.686 391.867 343.043 399.541 337.156C388.827 335.946 380.325 337.132 374.016 341.19C366.77 345.856 360.601 351.112 353.226 356.665L353.235 356.671ZM200.763 343.913C192.72 343.264 184.208 344.116 178.327 348.001C170.693 353.048 164.394 358.823 157.447 364.347C162.909 366.283 168.042 366.82 172.726 365.002C177.072 363.316 181.537 361.367 184.567 358.918C190.467 354.151 195.401 348.948 200.763 343.907V343.913ZM192.291 390.429C192.241 391.097 191.982 391.776 192.171 392.408C193.836 397.836 195.51 403.259 197.324 408.67C198.759 412.948 203.972 415.076 210.301 416.476C212.813 417.036 215.374 417.513 218.065 418.061C218.065 417.477 218.235 416.887 218.035 416.333C216.371 411.614 214.667 406.906 212.932 402.198C210.64 395.959 202.358 391.18 192.291 390.429ZM262.707 527.254C267.062 529.852 271.079 531.914 276.62 531.414C292.099 530.007 304.747 524.591 319.886 520.664C315.511 519.376 312.541 518.226 309.302 517.624C306.272 517.064 302.395 516.313 299.823 516.963C287.434 520.103 275.365 523.691 262.717 527.254H262.707ZM84.4897 373.774C81.9482 377.147 83.513 379.637 86.1542 381.866C96.2805 390.382 111.859 393.212 128.025 396.329C125.832 391.49 122.683 387.39 116.463 384.953C106.307 380.966 95.4832 377.576 84.4798 373.774H84.4897ZM172.118 346.303C165.729 346.708 160.178 346.905 154.746 347.477C152.633 347.697 150.151 348.496 148.895 349.497C142.297 354.782 136.028 360.223 129.55 365.687C132.35 367.517 135.719 367.868 139.517 367.439C147.062 366.581 152.075 363.643 156.251 360.086C161.364 355.736 166.337 351.332 172.118 346.303ZM53.1839 368.315C53.1839 371.843 53.0045 375.115 53.2836 378.368C53.3733 379.405 54.2703 380.644 55.4962 381.377C59.4331 383.749 63.7986 385.871 67.8152 388.201C73.4265 391.466 79.9548 392.3 87.3502 391.287C88.2472 386.532 64.8351 370.711 53.1839 368.315ZM292.557 426.32C279.999 424.503 277.667 424.986 270.84 430.813C269.703 431.785 268.727 432.822 267.7 433.841C263.215 438.268 258.959 442.833 249.092 444.138C250.009 445.473 250.727 446.504 251.434 447.54C251.743 447.487 252.062 447.433 252.371 447.38C252.202 446.831 252.032 446.283 251.833 445.604C260.743 447.987 267.989 446.301 274.697 442.785C283.159 438.352 288.122 432.595 292.547 426.332L292.557 426.32ZM94.7157 346.672C95.224 341.255 91.935 336.828 84.6193 334.158C74.7621 330.565 64.1973 327.657 53.772 324.403C53.772 326.709 53.5925 328.992 53.8616 331.25C53.9613 332.102 54.7686 333.151 55.8351 333.693C67.297 339.48 80.5827 343.347 94.7058 346.672H94.7157ZM221.075 309.166C215.564 309.166 210.102 309.309 204.68 309.118C200.912 308.981 198.75 309.774 196.607 311.633C191.553 316.007 185.952 320.154 180.61 324.409C180.062 324.85 179.753 325.392 179.344 325.869C185.264 328.277 194.593 327.52 200.843 324.183C205.158 321.877 209.055 319.231 213.73 317.235C218.474 315.208 220.039 312.473 221.075 309.166ZM383.973 485.648C387.282 481.173 386.604 476.889 381.352 473.182C373.06 467.318 364.378 461.645 355.448 455.615C351.87 461.842 352.608 467.152 360.013 471.633C367.807 476.346 375.85 480.917 383.963 485.648H383.973ZM365.704 360.628C357.402 359.645 348.93 359.889 342.78 364.108C334.767 369.602 329.963 376.688 318.162 381.157C332.734 382.015 343.528 379.637 351.292 373.029C356.106 368.935 360.85 364.811 365.714 360.628H365.704ZM367.777 339.217C359.774 338.097 351.661 338.83 345.85 342.62C338.465 347.429 332.215 352.864 325.229 358.209C337.189 360.622 344.525 359.24 350.983 353.716C356.624 348.895 362.186 344.038 367.767 339.217H367.777ZM318.9 472.783C305.365 471.543 287.454 476.895 282.511 483.557C285.471 483.998 288.601 484.236 291.401 484.945C293.783 485.547 295.109 486.471 292.826 488.324C289.119 491.327 286.149 494.664 282.87 497.858C292.109 495.916 318.81 476.614 318.9 472.789V472.783ZM224.434 365.026C226.976 366.033 230.464 367.433 233.992 368.792C234.66 369.048 235.477 369.263 236.255 369.299C242.733 369.614 249.222 369.882 256.218 370.186C256.069 369.739 256.278 368.631 255.511 368.28C246.052 363.971 244.517 357.845 244.218 351.374C244.178 350.534 243.71 349.628 243.052 348.883C241.188 346.785 239.105 344.759 237.82 343.43C236.923 344.134 235.607 345.516 233.773 346.559C227.135 350.337 226.258 354.204 232.537 356.606C236.783 358.227 235.996 360.056 233.833 361.391C231.172 363.036 227.275 363.971 224.434 365.026ZM288.202 515.747C278.863 510.652 269.085 510.438 259.567 514.752C252.62 517.904 245.364 520.807 238.308 523.875C236.743 524.555 235.457 525.455 233.564 526.521C255.301 528.178 271.228 521.432 288.212 515.741L288.202 515.747ZM187.268 418.168C184.328 416.804 181.706 415.278 178.617 414.235C173.494 412.501 167.922 411.524 162.002 412.781C153.46 414.593 144.968 416.47 136.467 418.335C135.301 418.591 134.214 418.967 133.556 419.158C135.331 423.603 140.753 424.241 146.683 423.955C151.427 423.722 156.201 423.281 160.816 422.59C169.427 421.297 177.929 419.748 187.268 418.174V418.168ZM187.328 362.797C195.361 364.341 208.617 361.373 213.481 356.802C218.314 352.256 223.178 347.715 227.912 343.287C220.049 341.714 206.882 344.342 201.271 349.306C196.308 353.698 191.922 358.322 187.328 362.797ZM174.032 461.914C170.573 458.731 167.633 455.633 164.045 452.826C160.258 449.864 156.311 446.873 151.626 444.454C145.985 441.54 139.168 441.403 133.746 443.184C140.085 448.446 146.344 453.762 152.812 458.988C157.686 462.927 166.387 464.142 174.022 461.914H174.032ZM104.483 422.256C99.6393 416.893 95.234 411.596 90.1808 406.536C85.7754 402.121 76.6957 400.411 68.8618 402.067C70.7953 404.338 72.669 406.626 74.6624 408.872C77.6624 412.251 80.3236 415.773 83.8917 418.925C87.9582 422.513 96.7888 423.806 104.483 422.256ZM340.029 340.683C328.308 338.478 316.498 343.019 311.714 348.132C307.597 352.53 303.172 356.814 298.956 361.075C306.71 360.759 315.651 361.057 321.551 356.272C327.81 351.201 333.76 345.993 340.029 340.689V340.683ZM138.281 549.052C137.354 552.973 136.895 556.823 135.46 560.541C133.387 565.928 135.849 570.707 139.616 575.433C141.171 577.381 143.165 578.758 146.772 577.924C147.899 575.206 148.925 572.727 149.952 570.249C150.819 568.145 152.165 566.071 152.483 563.938C153.49 557.115 147.54 552.503 138.281 549.052ZM132.978 427.178C130.427 425.468 128.055 424.455 127.048 423.085C124.536 419.67 122.035 416.178 120.659 412.567C118.078 405.78 105.51 403.885 96.43 405.899C100.148 410.303 103.915 414.659 107.523 419.056C111.709 424.175 119.404 426.171 127.985 427.351C129.41 427.548 131.015 427.262 132.988 427.184L132.978 427.178ZM206.334 443.685C209.643 445.782 211.866 447.058 213.819 448.464C221.314 453.863 234.65 456.098 245.683 453.72C248.444 453.124 250.428 452.498 248.344 450.311C247.009 448.917 247.148 447.04 245.992 445.562C245.145 444.477 243.242 442.875 241.836 442.88C230.394 442.952 218.952 443.351 206.334 443.685ZM341.455 324.427C357.182 327.907 372.83 319.785 381.99 308.499C374.824 308.499 367.787 308.445 360.76 308.564C359.814 308.582 358.687 309.363 358.01 309.947C352.488 314.714 347.056 319.517 341.455 324.433V324.427ZM160.796 444.525C163.746 446.968 166.457 449.203 169.148 451.444C172.995 454.655 176.444 458.082 180.779 461.038C185.902 464.536 195.361 465.191 200.813 463.165C195.7 458.577 190.816 453.887 185.404 449.412C179.593 444.609 170.813 442.94 160.796 444.519V444.525ZM153.002 324.916C158.962 327.305 165.181 327.639 170.972 325.029C180.261 320.84 187.178 315.334 194.334 309.249C187.108 309.249 180.869 309.184 174.63 309.309C173.384 309.333 171.809 309.929 171.012 310.555C164.992 315.244 159.131 320.005 152.992 324.922L153.002 324.916ZM312.71 324.499C320.066 326.554 328.059 326.775 334.249 322.967C341.186 318.706 346.956 313.772 354.023 308.546C346.528 308.546 340.717 308.379 334.956 308.636C332.873 308.731 330.262 309.547 329.026 310.543C323.425 315.042 318.232 319.725 312.7 324.505L312.71 324.499ZM237.271 482.001C234.69 481.06 232.059 480.1 229.467 479.153C229.398 479.439 229.557 480.136 229.069 480.571C228.351 481.209 227.175 481.668 226.198 482.204C225.78 481.477 224.883 480.702 225.042 480.023C225.431 478.384 226.258 476.781 227.016 475.184C228.62 471.794 225.082 468.659 219.291 468.176C216.7 467.962 213.75 467.795 211.726 466.949C204.65 463.981 198.999 467.354 192.421 467.724C199.298 471.74 205.716 475.435 212.025 479.189C219.072 483.372 228.162 484.355 237.271 482.001ZM393.462 358.447C385.269 358.507 377.226 358.787 371.565 362.744C364.867 367.421 358.737 372.391 352.269 377.296C360.262 379.965 374.236 376.831 378.053 372.862C382.707 368.017 388.09 363.423 393.462 358.441V358.447ZM367.189 385.739C371.305 389.976 375.342 394.243 379.558 398.444C384.541 403.414 389.565 404.695 400.767 403.616C400.1 401.4 400.468 398.76 398.545 397.02C394.478 393.343 389.485 389.982 384.372 386.776C378.641 383.177 374.744 383.088 367.179 385.739H367.189ZM303.451 422.584C295.896 416.416 288.86 410.666 281.823 404.922C279.182 406.06 277.268 406.876 275.105 407.806C271.647 404.635 268.258 401.948 260.923 404.159C267.092 409.021 272.893 413.806 279.082 418.413C285.062 422.864 292.996 424.05 303.461 422.59L303.451 422.584ZM186.809 562.657C181.577 560.792 176.354 559.779 173.394 557.645C170.254 555.381 167.783 554.064 162.062 555.613C162.769 551.317 163.876 546.883 156.181 545.346C150.311 544.172 143.822 544.106 137.244 543.516C137.473 544.44 137.404 544.708 137.583 544.792C138.48 545.209 139.427 545.596 140.394 545.96C148.327 548.909 154.846 552.544 157.297 558.211C157.606 558.932 158.224 559.725 159.111 560.225C163.597 562.764 168.211 565.213 172.786 567.692C176.842 566.238 181.587 564.534 186.799 562.663L186.809 562.657ZM276.242 565.779C288.371 569.146 304.428 564.736 308.674 557.163C310.049 554.713 312.013 552.377 314.016 549.565C312.651 548.057 309.68 547.461 306.282 548.587C302.295 549.904 297.989 551.186 294.88 553.093C288.331 557.097 282.461 561.501 276.252 565.785L276.242 565.779ZM243.83 544.297C238.437 540.018 233.145 535.752 227.723 531.551C225.182 529.578 221.932 528.202 217.497 528.762C213.072 529.322 208.726 530.097 204.361 530.776C213.909 541.824 226.198 545.989 243.83 544.297ZM189.421 447.958C196.098 452.939 202.148 457.707 208.696 462.217C211.926 464.44 216.789 464.851 221.544 464.422C223.487 464.244 226.966 463.326 226.886 463.01C226.378 461.038 225.939 458.63 223.826 457.331C218.952 454.334 212.952 452.01 207.75 449.185C201.221 445.645 199.248 445.336 189.421 447.958ZM166.158 309.309C159.291 309.309 153.381 309.255 147.47 309.351C146.314 309.369 144.759 309.774 144.101 310.31C138.311 315.024 132.679 319.815 126.928 324.642C135.958 326.59 145.287 325.702 149.812 322.312C155.254 318.236 160.317 313.981 166.158 309.303V309.309ZM328.239 423.746C324.85 420.433 321.391 417.435 318.591 414.229C312.79 407.561 305.833 405.321 291.032 406.167C291.202 406.548 291.212 406.971 291.551 407.257C297.033 411.84 302.295 416.524 308.136 420.933C313.388 424.902 319.597 425.659 328.239 423.752V423.746ZM59.3833 576.088C69.8285 579.968 77.5528 579.086 84.5794 572.954C88.307 569.7 91.7257 566.322 95.2041 562.973C95.6626 562.526 95.6925 561.918 96.0712 561.012C93.739 560.905 91.7954 560.607 89.9516 560.768C81.5694 561.489 74.8418 563.926 69.7587 568.002C66.4298 570.672 62.9813 573.294 59.3833 576.088ZM234.81 321.99C233.115 325.994 235.398 328.479 239.843 330.321C243.64 331.894 247.657 333.276 251.564 334.742C260.374 338.049 269.185 341.357 277.996 344.664C278.843 344.986 279.7 345.302 280.826 345.719C279.9 339.348 274.169 334.992 266.076 332.019C256.159 328.378 245.564 325.392 234.81 321.984V321.99ZM325.079 308.624C318.421 308.624 312.342 308.57 306.262 308.671C305.195 308.689 303.76 309.208 303.172 309.75C297.69 314.833 292.358 319.976 287.076 325.017C299.395 327.573 309.88 323.253 325.079 308.624ZM391.997 515.759C374.345 510.194 361.03 513.423 349.059 520.324C350.644 521.158 352.628 521.921 353.973 522.976C358.568 526.587 362.126 526.295 368.206 524.376C376.109 521.879 383.545 518.858 391.997 515.765V515.759ZM84.9083 578.097C90.2805 578.097 95.0147 578.144 99.739 578.055C100.736 578.037 101.982 577.644 102.649 577.179C107.772 573.681 112.806 570.135 117.799 566.566C118.447 566.101 119.144 565.356 118.975 564.838C117.56 560.523 111.749 559.01 105.58 561.423C103.277 562.323 101.085 563.527 99.5098 564.874C94.636 569.057 90.0811 573.377 84.9083 578.097ZM230.584 530.121C237.6 534.441 243.62 538.457 250.198 542.11C256.208 545.447 264.092 543.451 270.909 544.726C271.019 544.494 271.119 544.255 271.228 544.023C265.647 539.208 260.065 534.399 254.384 529.495C247.746 529.668 240.202 529.864 230.584 530.115V530.121ZM228.819 422.834C221.075 421.577 213.032 420.278 205.806 419.104C209.773 421.41 213.989 423.937 218.384 426.344C219.52 426.97 221.175 427.327 222.7 427.619C228.092 428.662 233.524 429.628 239.285 430.688C243.6 428.591 248.773 426.082 253.677 423.704C249.481 421.601 245.344 419.342 240.83 417.406C239.584 416.875 236.374 416.857 235.437 417.424C232.866 418.973 231.022 420.957 228.829 422.828L228.819 422.834ZM315.411 406.113C325.916 413.365 329.813 423.961 348.422 426.654C348.631 425.307 349.628 423.818 348.89 422.769C346.807 419.825 343.588 417.167 341.574 414.218C337.019 407.543 327.94 404.54 315.421 406.113H315.411ZM53.3035 397.312C53.3035 402.931 53.2536 408.229 53.3633 413.526C53.3732 414.247 53.7719 415.249 54.6191 415.63C61.0776 418.556 68.2039 420.129 77.3734 419.116C68.6325 411.888 67.8252 402.186 53.3135 397.312H53.3035ZM61.556 529.501C63.2105 530.412 64.7454 531.443 66.5793 532.236C70.9149 534.101 71.5827 536.33 69.3302 539.154C68.3434 540.388 68.0145 541.818 67.3866 543.153C81.2206 538.541 84.2605 529.536 93.5097 522.94C81.5993 521.665 67.7156 524.585 61.556 529.501ZM152.683 342.113C149.523 338.824 146.444 335.803 143.693 332.68C141.4 330.076 138.51 328.503 133.138 328.956C131.344 329.105 129.101 328.676 127.497 328.086C123.57 326.638 120.799 327.061 118.666 329.403C127.826 340.826 136.576 344.163 152.683 342.108V342.113ZM379.967 573.782C379.767 572.507 379.418 571.44 379.468 570.38C379.687 565.452 380.146 560.523 380.246 555.589C380.285 553.831 379.578 552.074 379.209 550.31C378.681 550.304 378.163 550.298 377.634 550.286C374.226 554.773 367.199 553.915 360.531 554.32C360.83 556.024 360.491 557.723 361.468 559.075C364.209 562.853 368.246 566.345 370.319 570.225C371.953 573.294 375.362 573.347 379.967 573.776V573.782ZM316.727 515.867C327.431 521.42 347.216 519.829 360.232 511.588C347.385 507.274 336.142 506.386 325.009 513.036C322.817 514.347 319.448 514.961 316.737 515.861L316.727 515.867ZM136.078 487.192C134.872 487.746 134.015 488.038 133.367 488.449C124.885 493.854 116.364 499.235 108.051 504.729C106.945 505.462 106.935 506.797 106.257 508.173C119.105 508.924 129.759 507.822 136.935 501.577C133.726 500.212 130.586 498.877 127.537 497.572C129.749 496.184 131.135 494.694 133.228 494.122C138.939 492.561 138.241 490.249 136.068 487.186L136.078 487.192ZM176.992 534.882C181.716 537.7 186.042 540.793 191.215 543.254C198.819 546.871 204.431 546.347 211.427 542.098C206.324 538.129 201.231 534.173 196.158 530.228C190.039 531.712 184.039 533.172 177.002 534.882H176.992ZM114.689 365.932C118.477 365.139 122.364 365.044 124.108 363.834C130.427 359.466 136.028 354.729 142.337 349.795C139.955 349.413 138.57 349.056 137.154 348.996C133.078 348.829 128.025 347.852 125.115 348.913C120.251 350.683 116.742 353.793 112.696 356.35C112.516 356.463 112.526 356.737 112.576 356.928C113.224 359.728 113.882 362.529 114.689 365.932ZM129.221 564.689C129.649 562.478 130.038 560.428 130.437 558.372C131.115 554.844 132.241 551.329 132.39 547.795C132.61 542.396 128.105 540.138 118.825 540.662C116.334 545.459 117.161 550.286 118.546 555.184C119.722 559.338 121.556 563.056 129.221 564.689ZM94.1974 508.078C85.626 501.958 77.3036 496.023 68.8218 489.969C63.2205 495.445 65.3235 501.976 73.8551 507.327C78.5694 510.283 86.5728 510.694 94.1974 508.078ZM400.289 516.427C393.312 516.868 390.761 520.586 385.857 522.159C380.893 523.75 376.089 525.508 371.305 527.159C374.315 528.226 378.163 528.947 380.385 530.502C385.458 534.047 390.332 533.261 395.684 531.11C395.953 531.002 396.252 530.895 396.571 530.847C399.631 530.365 400.488 529.191 400.359 527.338C400.11 523.887 400.289 520.425 400.289 516.427ZM262.777 388.451C263.135 389.023 263.434 389.494 263.863 390.179C265.597 389.023 267.202 387.95 268.806 386.872L267.82 387.569C263.873 385.364 259.916 383.159 255.042 380.436C248.813 382.242 240.441 384.667 232.069 387.092C239.574 393.325 255.949 394.13 262.767 388.451H262.777ZM365.614 325.512C362.056 326.286 359.016 326.948 354.92 327.836C360.581 330.327 365.505 332.764 370.917 334.718C372.81 335.404 376.06 335.261 378.412 334.879C385.398 333.753 392.266 332.46 399.531 334.099C399.82 330.869 398.445 329.165 392.365 326.739C390.92 326.161 387.92 326.721 385.787 327.079C378.601 328.295 371.515 329.48 365.614 325.506V325.512ZM147.769 463.88C142.038 464.22 137.463 465.197 133.606 464.565C127.188 463.523 124.427 465.328 121.477 468.051C118.118 471.15 114.251 474.052 110.174 477.395C118.347 478.45 125.344 478.039 130.865 474.898C136.566 471.668 141.54 467.98 147.769 463.874V463.88ZM84.719 330.106C84.719 328.688 84.8385 327.597 84.699 326.519C83.8618 320.196 74.8817 315.226 65.5029 315.792C61.7952 316.019 58.0676 316.096 53.6324 316.269C53.6922 317.139 52.9646 318.879 54.0311 319.481C57.7188 321.549 61.7654 323.497 66.1707 324.975C71.8917 326.888 78.0811 328.306 84.719 330.106ZM330.591 492.918C326.823 493.592 322.986 494.414 319.029 494.944C315.82 495.373 312.421 495.278 309.212 495.707C302.863 496.553 302.494 497.012 303.581 500.993C314.564 499.753 322.039 500.021 328.518 503.472C333.521 506.135 338.315 505.778 343.169 505.373C338.903 501.148 334.607 496.893 330.591 492.918ZM315.84 428.388C313.139 427.548 310.737 426.261 308.185 426.142C304.916 425.987 299.803 426.1 298.498 427.28C293.594 431.719 289.906 436.647 285.72 441.438C301.777 442.338 309.73 436.296 315.84 428.388ZM147.57 402.049C144.002 398.915 140.444 395.78 136.696 392.491C135.351 392.604 133.626 392.741 131.992 392.878C132.59 395.512 133.148 397.991 133.826 400.989C126.649 399.642 120.44 398.474 114.41 397.342C112.447 399.076 110.742 400.577 108.938 402.174C116.553 404.326 123.889 406.393 131.623 408.574C130.925 403.122 132.45 402.574 147.56 402.055L147.57 402.049ZM389.535 436.898C392.874 433.275 388.837 430.289 384.661 427.488C375.133 421.112 365.395 414.855 355.02 408.086C354.76 409.814 353.654 411.679 354.461 413.175C355.528 415.153 357.681 417.072 360.093 418.609C369.741 424.783 379.678 430.802 389.535 436.898ZM282.78 327.597C282.042 330.464 280.208 333.109 281.046 335.41C282.361 339.015 285.481 342.382 287.833 345.85C294.65 344.747 290.484 340.32 293.714 337.573C301.378 338.83 309.142 340.284 317.335 340.117C309.112 338.061 300.8 336.25 295.627 331.697C292.428 328.884 287.504 328.61 282.78 327.591V327.597ZM368.814 412.65C374.794 411.035 380.176 409.581 386.355 407.913C397.907 413.437 400 420.57 391.558 429.187C394.428 428.472 396.143 428.138 397.698 427.625C398.714 427.286 400.269 426.708 400.279 426.219C400.458 420.022 400.399 413.818 400.399 407.514C387.093 406.852 374.614 406.238 360.471 405.535C363.85 408.414 366.332 410.529 368.824 412.65H368.814ZM387.87 309.738C382.209 314.523 376.668 319.213 370.957 324.052C376.937 325.47 382.837 325.017 388.1 323.247C392.415 321.793 396.023 319.606 399.95 317.741C397.937 314.225 394.349 311.508 388.727 309.822C388.588 309.78 388.408 309.786 387.87 309.738ZM109.118 309.345C100.626 309.345 93.5895 309.267 86.5529 309.381C83.2439 309.434 79.1675 314.201 80.9416 315.834C83.6625 318.343 86.5728 320.774 90.0612 323.813C96.3104 319.07 102.33 314.499 109.118 309.345ZM199.507 339.962C193.258 334.146 184.856 330.243 173.882 327.728C172.158 328.229 169.507 329.004 167.334 329.635C172.288 333.86 177.351 338.181 182.264 342.37C188.085 341.553 193.656 340.779 199.507 339.956V339.962ZM388.777 576.923C394.07 574.873 400.548 573.514 400.359 569.271C400.09 563.384 394.239 559.117 387.103 555.226C383.216 560.732 383.893 569.182 388.777 576.929V576.923ZM53.2238 383.022C53.4032 389.053 50.2138 395.041 62.3534 397.407C62.6524 397.467 62.8517 397.723 63.1407 397.753C64.4663 397.908 65.9215 398.289 67.1176 398.104C75.9083 396.758 83.3435 398.337 90.2306 401.549C91.5163 402.151 93.3801 402.317 95.6526 402.836C92.6525 399.6 90.3702 397.133 87.9084 394.481C71.1541 397.383 62.6823 390.328 53.2138 383.016L53.2238 383.022ZM175.965 343.532C170.882 337.06 166.288 330.851 153.4 329.117C150.679 328.753 148.158 326.638 145.746 329.027C149.454 332.829 153.131 336.458 156.57 340.165C158.882 342.656 161.553 344.145 166.866 343.329C169.417 342.936 172.347 343.418 175.965 343.526V343.532ZM359.435 507.875C363.262 508.549 366.531 509.687 369.651 509.562C376.678 509.276 383.066 510.08 389.405 511.755C392.624 512.607 396.143 513.048 399.272 513.632C399.94 513.042 400.279 512.881 400.289 512.714C400.339 510.629 400.359 508.549 400.349 506.463C400.349 501.624 398.395 500.534 389.894 500.701C389.146 502.369 388.578 504.121 387.591 505.784C385.269 509.705 382.608 510.146 377.206 507.637C370.249 504.401 368.126 504.389 359.435 507.881V507.875ZM298.388 328.277C304.179 333.711 313.468 335.32 321.142 338.288C321.501 338.425 322.129 338.425 322.568 338.347C326.235 337.728 329.883 337.072 333.033 336.512C329.983 328.652 317.744 329.075 308.514 326.96C305.863 326.352 301.916 327.764 298.388 328.271V328.277ZM299.385 308.63C292.248 308.63 286.767 308.928 281.424 308.552C275.225 308.117 272.225 309.655 271.228 312.765C275.056 316.031 278.674 319.13 282.79 322.651C288.162 318.111 293.405 313.683 299.385 308.63ZM73.6956 426.016C69.7787 428.448 69.6192 430.557 74.2338 433.698C83.3535 439.907 92.822 445.937 102.849 452.498C102.849 451.003 103.437 449.733 102.739 448.822C100.766 446.265 98.7622 443.607 95.8419 441.438C88.8153 436.212 81.2605 431.248 73.6956 426.016ZM119.443 369.9C125.075 374.101 126.041 378.982 125.593 384.148C125.254 388.057 130.407 390.548 136.277 389.941C135.679 384.375 135.101 378.839 134.463 373.309C134.374 372.546 134.414 371.611 133.706 371.074C131.354 369.263 123.759 368.673 119.433 369.906L119.443 369.9ZM312.82 438.352C327.491 439.138 337.039 436.111 342.382 429.085C340.348 428.466 338.325 427.816 336.262 427.214C332.943 426.243 322.867 427.762 321.013 429.622C318.252 432.399 315.72 435.253 312.82 438.358V438.352ZM300.82 512.631C312.272 514.532 319.926 513.066 328.777 507.405C323.225 503.877 313.528 501.928 307.707 503.68C301.717 505.486 302.265 509.389 300.83 512.631H300.82ZM264.8 533.434C264.61 533.124 264.66 533.398 264.909 533.583C267.84 535.734 271.308 537.688 273.63 540.048C277.159 543.624 281.574 544.947 288.481 544.071C292.707 543.534 296.604 543.23 298.129 539.792C293.046 538.058 287.723 536.223 282.371 534.429C282.003 534.304 281.385 534.465 280.896 534.429C275.454 534.095 270.012 533.756 264.79 533.428L264.8 533.434ZM337.249 362.994C325.617 360.092 316.837 361.963 310.408 368.059C313.966 370.49 317.534 372.928 321.75 375.806C327.142 371.342 332.215 367.147 337.249 362.988V362.994ZM329.126 465.936C335.724 468.284 346.737 465.227 348.033 460.513C348.461 458.958 348.641 457.266 349.837 455.919C352.608 452.784 351.212 450.216 347.465 447.332C341.275 453.613 335.295 459.685 329.126 465.942V465.936ZM304.777 578.007C307.817 578.007 310.109 577.834 312.302 578.037C320.455 578.8 326.993 577.519 331.588 573.186C333.342 571.524 335.614 570.058 337.787 568.395C327.352 565.511 314.584 569.313 304.777 578.007ZM360.192 334.939C349.468 327.49 339.501 325.494 330.421 328.658C333.79 331.518 337.009 334.474 340.687 337.209C341.734 337.99 344.445 338.711 345.87 338.443C350.694 337.537 355.279 336.184 360.192 334.939ZM379.747 376.425C384.452 376.723 387.86 377.105 391.269 377.123C400.149 377.17 400.139 377.105 400.1 371.76C400.07 367.684 400.1 363.614 400.1 359.538C399.512 359.43 398.923 359.323 398.335 359.222C392.325 364.788 386.305 370.353 379.747 376.425ZM112.008 540.126C109.895 540.287 107.324 540.161 105.251 540.704C99.5596 542.193 94.0679 543.963 87.5794 545.9C95.3934 548.838 103.596 551.925 112.008 555.089V540.126ZM193.049 329.796C197.225 333.068 201.161 336.309 205.417 339.396C206.534 340.207 208.716 341.106 210.211 340.993C214.397 340.683 218.474 339.867 223.966 339.039C218.584 336.035 213.62 333.235 208.597 330.47C205.168 328.575 201.779 326.602 196.806 329.141C195.809 329.653 194.055 329.635 193.049 329.796ZM332.873 545.507C327.92 543.397 323.544 541.52 319.139 539.661C318.352 539.333 317.395 538.779 316.647 538.844C312.222 539.244 307.827 539.792 302.185 540.436C312.541 544.947 322.179 549.148 332.873 553.802V545.507ZM399.771 559.04C399.771 556.09 401.475 552.717 399.402 550.786C395.505 547.151 389.654 544.196 384.143 541.288C382.478 540.412 379.408 540.841 379.598 542.992C379.687 543.963 379.847 544.988 380.425 545.876C384.143 551.579 390.9 555.703 399.761 559.04H399.771ZM251.763 460.924C239.733 458.445 236.205 465.674 226.956 467.324C233.165 470.155 234.59 473.307 231.251 477.401C244.418 474.136 245.793 466.675 251.773 460.918L251.763 460.924ZM269.773 425.951C265.159 425.951 261.082 425.343 257.943 426.106C254.125 427.035 250.846 428.972 247.766 430.742C243.012 433.471 243.461 434.955 249.102 437.19C254.833 439.466 256.049 439.43 259.806 436.028C263.155 432.994 266.016 429.777 269.773 425.945V425.951ZM314.136 557.639C316.936 559.862 319.308 561.876 321.95 563.759C322.717 564.301 324.302 564.772 325.458 564.725C329.315 564.576 333.152 564.176 337.269 563.849C336.431 561.912 336.601 559.105 334.338 557.782C330.112 555.321 324.481 553.724 319.239 551.698C317.385 553.855 315.74 555.768 314.136 557.639ZM296.215 358.197C301.089 353.036 305.813 348.049 310.528 343.061C310.119 342.697 309.72 342.334 309.312 341.97C305.445 342.757 301.548 343.508 297.72 344.348C294.82 344.986 292.019 345.784 289.129 346.428C286.537 347 285.042 347.745 286.896 349.467C289.826 352.178 292.717 354.913 296.225 358.197H296.215ZM182.474 543.403C178.407 539.917 174.889 536.741 171.022 533.726C170.274 533.142 167.882 532.725 166.776 532.993C161.683 534.244 156.779 535.764 151.596 537.247C159.988 542.45 170.593 543.54 182.474 543.403ZM53.0743 348.942C53.0743 353.346 53.0743 357.178 53.0743 361.009C53.0643 365.157 61.9148 368.744 67.8252 367.433C66.1308 363.125 64.4763 358.882 62.762 354.651C62.6225 354.306 62.164 353.96 61.7055 353.71C59.1042 352.244 56.453 350.808 53.0842 348.954L53.0743 348.942ZM171.949 577.977C169.138 572.376 166.796 566.977 158.145 563.628C156.181 568.497 154.317 573.139 152.374 577.977H171.949ZM347.046 544.69C354.9 551.436 368.883 553.307 374.784 548.653C373.817 546.24 372.97 544.142 372.103 541.979C364.398 542.813 356.056 543.713 347.036 544.684L347.046 544.69ZM357.043 560.529C352.598 557.782 357.89 553.504 350.774 551.245C346.239 549.803 342.88 547.044 338.315 544.488C336.172 556.441 343.907 561.286 357.043 560.529ZM258.232 571.726C251.683 572.167 246.6 568.425 239.384 569.778C231.909 571.178 230.643 575.433 225.63 577.894C229.806 578.198 233.604 578.251 237.401 578.174C239.474 578.132 241.886 578.228 243.521 577.644C248.584 575.832 253.348 573.723 258.232 571.732V571.726ZM347.006 503.376C348.202 497.989 349.338 492.877 350.584 487.287C344.505 486.81 338.275 486.316 332.046 485.827C331.787 486.095 331.528 486.357 331.269 486.626C336.581 492.281 341.893 497.936 347.006 503.376ZM253.238 481.668C257.085 482.603 261.361 483.92 265.886 484.629C268.617 485.058 273.002 485.261 274.497 484.331C278.973 481.543 282.401 478.146 285.401 475.673C281.694 475.798 276.68 475.947 271.667 476.144C270.082 476.203 268.248 476.114 266.973 476.549C262.198 478.188 257.604 480.017 253.238 481.662V481.668ZM226.527 572.078C212.693 567.388 204.152 571.577 196.397 578.168C201.251 578.168 205.657 577.793 209.813 578.246C218.992 579.247 222.839 575.761 226.527 572.078ZM229.238 391.418C228.062 389.744 226.647 387.885 222.032 388.481C211.577 389.839 203.863 386.77 196.547 382.903C195.421 382.307 193.427 382.051 191.833 382.051C188.135 382.051 184.427 382.301 180.47 382.462C184.766 384.44 187.517 387.581 194.793 387.432C198.67 387.354 202.647 389.19 206.593 390.143C208.407 390.584 210.221 391.299 212.075 391.353C217.816 391.514 223.577 391.412 229.248 391.412L229.238 391.418ZM52.9048 477.073C60.1009 476.269 66.2704 471.537 64.7255 468.206C63.4398 465.447 62.0245 462.718 60.6889 460.019C59.174 460.466 57.1706 460.93 55.4264 461.628C54.3699 462.051 53.0444 462.825 53.0145 463.463C52.8052 467.986 52.9048 472.515 52.9048 477.079V477.073ZM273.581 389.47C266.175 394.052 269.753 398.45 275.145 401.835C275.913 402.317 278.554 402.359 279.6 401.942C283.258 400.488 286.607 398.748 290.126 397.091C284.504 394.505 279.042 391.99 273.581 389.47ZM137.115 371.968C139.098 372.522 140.902 373.142 142.826 373.541C147.61 374.525 152.503 375.311 157.238 376.354C161.015 377.182 164.623 378.273 168.311 379.244C168.65 378.928 168.989 378.618 169.327 378.303C159.719 376.366 163.078 368.309 154.557 366.724C148.407 368.572 143.374 370.085 137.105 371.968H137.115ZM108.819 479.767C106.795 483.908 107.922 485.005 113.902 485.696C118.188 486.191 122.374 486.983 127.128 487.728C128.932 487.007 131.573 486.131 133.766 484.957C134.583 484.516 134.892 482.77 134.483 482.633C131.653 481.686 128.414 480.208 125.593 480.398C119.822 480.792 114.261 481.602 108.809 479.767H108.819ZM233.883 413.157C228.351 411.089 229.507 404.314 219.092 402.46C219.231 408.771 221.175 414.331 223.756 419.819C224.314 419.914 224.873 420.004 225.441 420.099C228.162 417.865 230.883 415.624 233.883 413.157ZM308.993 364.156C305.315 364.156 302.046 364.15 298.777 364.156C294.77 364.168 294.222 364.811 295.886 366.951C298.488 370.294 300.67 373.756 303.501 377.027C304.278 377.927 306.69 378.803 308.375 378.815C310.597 378.839 312.85 378.005 315.082 377.534C314.375 376.509 313.867 375.407 312.91 374.477C311.793 373.392 310.378 372.403 308.943 371.456C304.009 368.196 303.969 367.898 308.993 364.15V364.156ZM383.525 577.799C383.555 577.53 383.575 577.262 383.604 576.994C370.628 576.106 358.368 572.942 344.823 573.574C338.993 573.848 334.617 574.336 332.355 577.882H336.093C336.561 576.827 336.97 575.91 337.388 574.956H343.797C344.245 576.07 344.634 577.054 344.933 577.793H383.525V577.799ZM389.036 425.707C393.093 420.224 392.455 415.505 387.631 413.33C383.764 411.584 378.222 412.269 373.119 415.153C378.312 418.597 383.505 422.036 389.036 425.707ZM400.498 450.86C399.123 451.301 398.126 451.408 397.837 451.736C395.136 454.9 389.854 457.552 392.874 461.848C393.801 463.171 393.312 464.923 393.013 466.448C392.714 468.01 391.847 469.535 391.149 471.293C393.751 470.608 395.983 470.185 397.877 469.458C399.013 469.023 400.349 468.129 400.379 467.42C400.588 462.033 400.488 456.646 400.488 450.854L400.498 450.86ZM124.098 566.465C118.706 570.511 113.872 574.146 108.649 578.067C113.493 578.067 117.639 578.132 121.776 578.025C122.882 577.995 124.228 577.608 124.985 577.119C127.257 575.641 129.291 574.027 132.111 571.959C130.188 570.636 127.317 568.669 124.098 566.465ZM140.912 414.283C147.819 412.895 154.666 411.518 161.803 410.088C154.796 405.488 146.723 404.987 137.274 406.167C138.46 408.801 139.576 411.292 140.912 414.289V414.283ZM188.244 560.75C194.105 556.841 199.975 552.92 205.816 549.028C193.916 547.086 188.324 553.706 178.985 555.774C182.444 557.633 185.254 559.141 188.244 560.75ZM387.631 488.497C398.425 488.175 402.372 482.848 399.651 472.753C397.777 473.182 395.764 473.414 394.239 474.064C392.824 474.666 390.721 475.911 391.01 476.519C393.063 480.78 390.342 484.486 387.631 488.497ZM53.0145 440.312C59.9912 437.863 64.0478 434.687 65.6823 430.492C66.4199 428.597 63.4298 426.755 59.8716 426.583C55.0776 426.356 53.0643 427.25 53.0244 429.723C52.9746 433.072 53.0145 436.421 53.0145 440.312ZM107.344 501.332C113.105 497.251 118.676 493.294 123.669 489.754C119.862 489.516 115.776 489.26 111.689 489.003C105.161 488.598 103.576 489.617 104.792 493.484C105.58 495.987 106.417 498.484 107.344 501.332ZM278.076 578.019C284.395 578.019 289.677 578.061 294.949 577.989C296.155 577.971 297.81 577.811 298.468 577.328C300.989 575.469 303.192 573.46 305.584 571.44C294.202 569.76 285.65 572.257 278.076 578.019ZM121.048 463.314C116.623 461.818 112.497 460.43 109.128 459.286C107.473 463.278 106.815 467.068 104.234 470.316C102.56 472.425 103.058 473.373 105.45 474.982C110.722 471.043 115.726 467.295 121.048 463.314ZM364.817 570.779C362.993 568.741 361.488 566.911 359.704 565.177C359.216 564.707 357.94 564.409 356.933 564.278C351.611 563.563 346.259 562.931 340.608 562.228C342.033 564.427 343.029 567.251 345.621 569.384C346.807 570.362 351.132 570.004 354.053 570.195C357.461 570.415 360.87 570.57 364.817 570.779ZM53.154 458.66C60.9979 457.724 66.8484 454.161 66.0012 450.967C65.3833 448.649 59.164 447.111 53.154 447.862V458.66ZM265.886 400.029C264.232 396.263 261.371 395.018 255.142 394.97C248.624 394.916 242.125 394.589 235.218 394.362C241.816 396.722 248.374 399.088 254.982 401.388C255.551 401.584 256.567 401.394 257.335 401.287C260.195 400.887 263.036 400.452 265.886 400.029ZM384.601 355.039C389.395 355.277 394.698 355.545 400.169 355.819V342.221C394.578 346.827 389.455 351.046 384.601 355.039ZM168.829 546.579C168.919 547.372 169.507 548.576 169.098 549.642C168.082 552.282 168.61 552.729 173.165 552.64C180.72 552.485 186.371 549.952 192.092 547.491C192.082 547.187 192.062 546.883 192.052 546.585H168.829V546.579ZM284.883 504.491C289.308 506.249 292.817 507.637 297.601 509.532V496.214C294.441 497.572 291.71 498.752 288.81 499.998C289.219 500.266 289.737 500.611 289.976 500.772C288.272 502.012 286.777 503.108 284.883 504.485V504.491ZM54.2404 573.264C54.8882 573.311 55.5361 573.353 56.1739 573.401C60.061 570.374 63.9381 567.346 68.5029 563.795C62.463 563.568 57.8185 563.396 52.2071 563.187C52.9547 566.911 53.5925 570.088 54.2304 573.264H54.2404ZM195.55 573.675C188.723 572.972 181.746 572.251 173.314 571.381C175.587 573.973 176.703 577.375 179.364 577.876C187.856 579.485 190.676 578.335 195.56 573.669L195.55 573.675ZM93.9483 390.906C93.4499 391.073 92.9616 391.234 92.4632 391.4C94.7456 394.38 96.8885 397.401 99.3602 400.327C100.696 401.906 102.938 402.037 104.942 400.691C106.965 399.326 108.749 397.83 110.862 396.227C107.553 395.292 104.712 394.559 101.972 393.701C99.2307 392.837 96.6094 391.847 93.9383 390.912L93.9483 390.906ZM397.887 446.819C400.737 445.532 401.714 437.327 399.591 430.384C398.276 431.111 396.611 431.588 396.502 432.172C395.565 437.07 389.734 442.118 397.887 446.819ZM261.531 510.056C252.72 508.561 243.411 510.354 238.019 514.377C240.281 515.283 242.524 516.188 244.776 517.088C245.743 516.737 246.62 516.456 247.418 516.111C251.962 514.174 256.477 512.22 261.531 510.051V510.056ZM102.33 441.009C107.214 434.419 100.078 429.413 86.0944 429.8C91.5861 433.59 96.9483 437.291 102.33 441.009ZM333.71 402.669C333.521 402.937 333.332 403.211 333.152 403.485C335.395 404.57 338.106 405.452 339.77 406.799C342.122 408.705 345.043 408.837 347.794 407.955C350.375 407.12 352.319 405.583 354.691 404.278C347.325 400.583 340.299 403.658 333.72 402.675L333.71 402.669ZM53.0244 500.748C53.6324 500.897 54.2304 501.046 54.8384 501.195C57.6092 497.763 60.3899 494.331 63.3102 490.708C59.5129 489.587 56.5029 488.705 53.0244 487.68V500.743V500.748ZM364.528 502.119C361.448 499.056 358.418 496.041 355.378 493.02C351.85 496.53 352 501.678 355.787 505.194C358.757 504.151 361.727 503.108 364.528 502.119ZM213.57 394.964C219.122 399.082 226.009 401.912 235.517 398.545C228.979 394.875 222.012 393.689 213.57 394.964ZM65.5726 536.056C61.4563 533.958 57.4696 531.926 52.8849 529.59C52.8849 532.129 53.0942 534.101 52.8351 536.062C52.546 538.266 54.4497 539.053 57.6491 539.327C61.6757 539.673 64.3268 538.779 65.5726 536.056ZM252.182 577.697C268.757 578.984 270.89 578.663 276.232 574.176C268.089 572.93 260.404 574.009 252.182 577.697ZM400.199 488.61C397.159 489.957 394.1 490.982 391.817 492.442C390.472 493.306 389.874 494.861 389.913 496.094C389.933 496.583 392.535 497.125 394.07 497.483C395.953 497.924 397.947 498.192 400.189 498.591V488.61H400.199ZM389.724 384.911C392.375 382.933 399.003 384.101 399.92 380.704C391.927 380.084 384.462 379.435 376.967 378.994C375.711 378.916 374.315 379.715 372.98 380.108C372.96 380.406 372.94 380.698 372.92 380.996C380.355 379.387 384.093 382.784 389.714 384.917L389.724 384.911ZM230.105 360.193C227.434 357.756 225.192 355.712 222.939 353.662C219.53 356.755 216.461 359.55 213.381 362.344C213.55 362.571 213.73 362.791 213.899 363.018C219.072 362.118 224.255 361.212 230.105 360.193ZM147.291 537.093C139.869 536.516 134.38 537.196 130.826 539.131C136.616 542.813 143.603 540.12 149.882 540.978C148.895 539.494 148.188 538.433 147.291 537.093ZM294.511 513.817C294.68 513.596 294.85 513.376 295.019 513.155C293.584 512.255 292.308 511.213 290.664 510.48C287.145 508.906 283.697 506.69 279.73 506.213C274.517 505.587 268.826 506.386 262.627 506.594C266.394 507.232 269.614 508.018 272.953 508.287C279.212 508.787 284.704 509.967 289.278 512.708C290.454 513.411 292.737 513.465 294.511 513.817ZM61.2969 477.288C58.9946 478.885 57.1108 480.202 55.1972 481.501C54.5095 481.966 53.1839 482.371 53.154 482.83C53.1141 483.42 53.8218 484.308 54.659 484.594C57.7786 485.642 61.0776 486.5 64.9846 487.621C63.7189 484.069 62.5727 480.869 61.2969 477.288ZM78.8784 309.494C66.2106 308.767 61.7255 309.494 58.6358 312.902H75.9382C76.6857 312.032 77.6525 310.912 78.8884 309.494H78.8784ZM399.063 545.209C399.731 545.09 400.399 544.964 401.066 544.845C399.522 541.788 398.196 538.678 396.203 535.728C395.894 535.275 392.525 535.567 391.06 535.525C388.379 540.799 395.455 542.414 399.053 545.215L399.063 545.209ZM63.0909 445.3C65.4929 442.326 67.9846 439.436 70.1175 436.451C70.5361 435.867 69.5893 434.943 69.4199 434.52C64.2072 437.946 59.2936 441.182 54.8185 444.12C57.071 444.442 60.4696 444.93 63.0909 445.3ZM280.348 494.289C282.67 491.691 284.634 489.486 287.365 486.435C281.514 487.108 277.318 487.591 272.345 488.163C275.285 490.41 277.587 492.173 280.348 494.289ZM305.584 403.134C301.278 401.34 297.74 399.862 294.351 398.456C291.351 400.047 288.73 401.435 285.521 403.134H305.584ZM302.405 567.329C302.554 567.627 302.694 567.924 302.843 568.228C307.627 567.466 312.401 566.697 317.893 565.821C315.342 563.658 313.587 562.168 311.943 560.786C308.614 563.074 305.504 565.201 302.405 567.335V567.329ZM66.2105 506.648C64.3866 504.306 62.9813 502.5 61.0178 499.974C59.4331 503.37 52.845 503.931 52.9447 507.667C57.5095 507.315 61.5162 507.005 66.2105 506.642V506.648ZM125.663 409.581C125.264 409.814 124.865 410.046 124.477 410.285C125.882 412.579 127.277 414.879 128.962 417.632C131.762 416.214 133.776 415.195 135.998 414.075C132.131 412.388 128.902 410.988 125.673 409.581H125.663ZM185.334 412.65C190.896 414.343 192.132 418.997 199.886 417.936C196.168 415.225 194.354 411.167 185.334 412.65ZM73.0578 369.781C71.9116 370.085 70.4664 370.466 68.9216 370.878C72.1109 372.892 75.1906 374.84 78.4 376.866C79.3269 373.708 78.9183 371.062 73.0677 369.781H73.0578ZM53.2736 423.257C57.669 423.102 61.4763 422.971 66.6491 422.787C61.2471 421.357 57.3401 420.32 53.2736 419.247V423.257ZM392.345 386.961C394.927 389.088 397.119 390.894 399.801 393.105V385.537C397.249 386.025 395.076 386.443 392.345 386.967V386.961ZM265.986 570.904C269.375 570.904 272.365 570.695 275.235 570.952C280.537 571.416 280.507 571.53 282.371 569.772C276.969 570.243 271.308 567.174 265.986 570.91V570.904ZM187.537 367.058C182.035 364.674 178.906 366.802 174.799 368.393C180.301 370.413 183.45 368.095 187.537 367.058ZM223.348 525.985C225.59 526.468 226.816 526.736 226.816 526.73C231.062 523.929 234.65 521.563 238.238 519.198L237.421 518.661C232.976 520.973 228.53 523.286 223.348 525.979V525.985ZM161.474 404.802C165.41 408.545 165.999 408.789 170.444 408.515C168.989 406.042 167.384 403.849 161.474 404.802ZM57.4098 524.751C57.9281 524.835 58.4563 524.918 58.9746 524.996C57.1008 524.662 55.2271 524.328 52.8251 523.899C52.9945 525.651 53.1141 526.92 53.2038 527.826C54.649 526.772 56.0344 525.758 57.4098 524.745V524.751ZM349.309 412.996C348.8 413.103 348.302 413.216 347.794 413.324C348.481 414.796 349.089 416.279 349.927 417.716C350.076 417.972 351.152 418.031 351.81 418.18C352.069 417.775 352.727 417.275 352.528 416.983C351.581 415.618 350.405 414.319 349.319 412.99L349.309 412.996ZM394.887 324.415C396.591 325.16 398.116 325.827 400.159 326.721V322.049C398.136 322.955 396.601 323.646 394.887 324.421V324.415ZM171.251 370.157C171.211 369.966 171.161 369.781 171.121 369.59C168.65 369.507 166.168 369.424 163.048 369.316C163.746 370.496 164.244 371.342 164.793 372.26C167.175 371.479 169.218 370.818 171.261 370.151L171.251 370.157Z" fill="#DF3838"/>
<path d="M150.661 509.822C151.457 508.45 152.054 507.566 152.471 506.653C153.326 504.773 155.465 504.573 158.2 504.985C169.169 506.641 179.96 507.059 190.641 504.037C192.152 503.613 194.857 504.661 198 505.203C194.032 506.988 191.098 508.308 188.383 509.534C183.659 508.738 178.995 507.949 173.843 507.083C173.983 507.884 174.072 508.367 174.082 508.432C169.905 509.233 165.897 510.011 161.879 510.771C160.984 510.942 159.92 511.313 159.164 511.171C148.364 509.103 139.423 511.707 131 515.207C128.295 516.332 126.485 516.55 123.143 515.843C114.312 513.981 106.654 516.421 99.6824 519.36C97.0967 520.45 95.3265 520.368 92.2833 520.091C86.4853 519.561 79.3049 518.877 74.7102 520.391C66.5652 523.078 60.1406 522.07 53 519.779V510.983C58.0123 510.47 63.0844 509.952 68.4846 509.404C69.1608 511.436 69.7178 513.127 70.4438 515.313C73.676 514.412 76.6893 513.504 79.7922 512.744C81.4033 512.35 83.5813 511.725 84.8344 512.073C89.5484 513.363 95.8138 512.98 98.7078 516.379C99.0161 516.745 100.518 517.098 101.095 516.951C101.771 516.78 102.407 516.055 102.417 515.566C102.447 514.241 102.139 512.909 101.99 511.755C117.435 512.509 131.169 510.806 141.76 503.501C142.506 502.982 144.605 503.153 146.067 503C146.236 503.247 146.395 503.489 146.564 503.736C144.913 505.127 143.262 506.523 140.885 508.532C144.704 509.039 147.688 509.439 150.631 509.834L150.661 509.822Z" fill="#F5F5F5"/>
<path d="M137 498C142.784 495.659 144.161 492.611 141.576 488.664C140.249 486.645 139.912 484.382 139.13 482.229C155.443 480.556 174.47 488.153 188 501.656C180.314 506.716 148.866 502.69 137 498.006V498Z" fill="#F5F5F5"/>
<path d="M140.935 427.166C146.902 426.592 149.776 427.926 152.759 430.734C157.155 434.869 164.962 436.258 172.868 437.019C174.469 437.176 176.139 437.948 177.303 438.709C180.167 440.587 182.753 442.615 185 445C183.856 444.571 182.643 444.203 181.589 443.708C176.826 441.462 171.754 440.538 165.479 440.87C159.741 441.172 153.853 440.261 148.016 440.049C142.467 439.85 136.888 439.935 131.339 439.754C128.544 439.663 125.7 439.422 123.005 438.981C118.45 438.232 113.995 437.266 108.705 436.234C108.744 436.324 108.546 435.769 108.297 435.226C105.502 429.074 102.698 427.341 92.4451 426.81C90.138 426.689 87.7413 426.9 85.5137 426.604C83.5845 426.351 81.6651 425.735 80.074 425.01C79.3182 424.666 79.3282 423.688 79 423C80.1536 423.054 81.3867 422.97 82.4408 423.187C86.6176 424.05 90.7247 425.029 94.8816 425.916C95.6374 426.079 96.612 426.224 97.318 426.079C105.9 424.316 112.334 427.504 119.475 429.363C123.154 430.323 127.381 430.698 131.428 430.885C135.973 431.096 140.05 430.305 140.925 427.16L140.935 427.166Z" fill="#F5F5F5"/>
<path d="M195.154 473.946C189.72 474.818 184.654 475.595 179.637 476.444C176.835 476.922 175.255 477.837 177.451 479.946C181.743 479.211 186.263 478.667 190.485 477.669C198.105 475.87 203.361 477.597 208 481.602C201.463 481.13 195.472 482.839 189.074 481.136C182.806 479.462 176.497 480.598 170.606 482.558C169.414 482.953 167.268 483.186 166.304 482.809C157.472 479.361 147.935 478.01 137.513 478.811C137.037 478.847 136.52 478.799 136.043 478.727C135.755 478.685 135.517 478.536 135 478.327C137.027 476.02 140.106 475.565 144.269 475.715C153.836 476.061 162.42 474.167 169.99 470.7C171.55 469.989 172.503 468.805 173.318 467.425C163.602 470.479 153.916 473.157 142.421 472.935C145.65 470.323 148.501 467.795 151.809 465.506C152.574 464.974 155.237 464.837 156.419 465.213C162.728 467.192 168.996 467.162 175.573 465.799C180.729 464.729 184.683 465.907 187.703 468.638C189.77 470.509 192.522 472.099 195.145 473.946H195.154Z" fill="#F5F5F5"/>
<path d="M134 345.783C130.124 345.783 125.126 345.702 120.159 345.846C119.127 345.875 117.184 346.922 117.324 347.165C119.147 350.235 114.73 351.207 112.006 352.763C111.425 353.098 110.985 353.514 110.344 354C106.698 351.988 103.283 350.206 100.128 348.292C99.427 347.87 99.3769 346.951 99.437 346.274C99.7776 342.035 97.8446 338.028 92.6366 335.217C87.9294 332.679 88.7306 330.209 89.8924 327C92.1558 328.052 93.8284 329.226 95.9617 329.724C99.5772 330.568 103.623 331.667 107.239 331.424C112.207 331.088 114.6 332.077 116.683 334.356C118.456 336.299 120.309 338.311 122.843 339.913C126.298 342.105 130.435 343.932 134 345.777V345.783Z" fill="#F5F5F5"/>
<path d="M146.99 460.239C133.927 462.587 113.343 459.241 106 453.766C107.91 452.156 109.86 450.515 112.136 448.595C111.225 448.221 109.919 447.745 108.712 447.181C105.05 445.475 106.93 443.519 108.019 441.575C109.117 439.62 111.275 439.917 113.947 440.22C121.497 441.088 127.257 443.751 131.799 447.127C137.232 451.163 141.735 455.645 147 460.239H146.99Z" fill="#F5F5F5"/>
<path d="M67.1546 553.067C64.9212 554.582 63.1345 555.789 61.3379 557.007C66.7179 559.053 82.9172 555.095 88.2475 550.403C93.8756 553.043 99.871 555.462 100 560.703C89.8655 557.129 84.3664 557.368 74.9367 561.25C73.547 561.822 71.393 562.09 69.6957 561.973C66.966 561.793 64.3554 561.006 61.6258 560.79C58.8961 560.574 56.0771 560.743 53 560.743V543C55.7594 543.233 58.4494 543.466 61.0898 543.688C61.8342 545.413 62.5787 547.127 63.0452 548.188C69.1199 547.331 74.3212 546.369 79.6515 545.932C83.2944 545.635 84.4359 546.993 82.9966 549.08C80.5945 552.542 73.2889 554.227 67.1546 553.061V553.067Z" fill="#F5F5F5"/>
<path d="M68 355.006C81.9847 359.54 95.2897 363.661 108.255 368.13C114.652 370.332 117.961 374.233 120.4 378.259C121.07 379.366 120.81 380.662 121 382C106.695 377.412 92.7507 373.185 79.2458 368.521C71.3587 365.792 68.6598 361.026 68 355V355.006Z" fill="#F5F5F5"/>
<path d="M54.5165 337C66.0965 342.934 79.3946 346.338 92.6033 349.825C100.598 351.936 107.282 354.727 108.533 360.402C108.781 361.528 108.831 362.667 109 364C100.678 361.416 92.931 358.903 85.0256 356.579C78.9973 354.803 72.5717 353.488 66.6824 351.571C56.0658 348.114 52.56 343.802 54.5165 337.006V337Z" fill="#F5F5F5"/>
<path d="M100.879 488C93.9941 484.081 87.148 480.289 80.4977 476.37C73.2402 472.079 66.8936 467.374 67.0014 460.749C67.0307 458.997 68.5096 457.244 69.5478 455C81.7416 462.747 94.8658 469.043 101.007 478.836C103.671 483.091 103.7 484.651 100.879 488Z" fill="#F5F5F5"/>
<path d="M100.619 470C92.7173 465.04 84.1522 460.405 77.1119 455.055C68.6161 448.589 67.7745 444.556 74.3592 439C77.8744 441.061 81.6173 442.927 84.6869 445.129C90.0339 448.955 95.3809 452.829 99.9457 456.98C104.53 461.143 103.273 465.713 100.609 470H100.619Z" fill="#F5F5F5"/>
<path d="M68.2709 473C76.492 477.632 84.7617 481.675 91.8139 486.422C99.7427 491.766 103.405 498.216 99.3044 505.614C99.1486 505.894 98.9051 506.161 98.6518 506.41C98.4862 506.574 98.2329 506.702 97.7849 507C88.9697 499.997 80.0083 493.134 71.5242 486.046C66.9949 482.258 68.0274 477.669 68.2807 473H68.2709Z" fill="#F5F5F5"/>
<path d="M80 543C85.5269 537.245 90.3286 531.851 95.7379 526.708C101.853 520.903 110.653 517.928 123 518.001C120.55 520.94 118.678 523.567 116.268 525.979C112.26 529.989 108.477 534.177 103.528 537.704C97.639 541.898 89.1135 542.749 80 543Z" fill="#F5F5F5"/>
<path d="M112.01 537.988C117.741 532.22 122.604 526.871 128.179 521.83C134.418 516.196 143.674 514.067 155 514C149.005 520.302 144.006 526.537 137.493 532.093C131.684 537.054 122.418 538.128 112 537.988H112.01Z" fill="#F5F5F5"/>
<path d="M164.99 401.887C151.87 402.994 143.788 395.749 141.706 389.069C140.447 385.03 140.579 380.842 140 376C145.422 377.38 150.043 378.272 154.145 379.682C158.968 381.342 161.751 383.81 162.065 387.403C162.482 392.203 163.954 396.974 165 401.893L164.99 401.887Z" fill="#F5F5F5"/>
<path d="M214 427.793C200.963 429.892 188.86 432.008 176.597 433.745C168.867 434.842 160.413 432.299 156 428.006C156.854 427.651 157.659 427.105 158.634 426.945C168.384 425.315 178.044 423.376 187.965 422.268C197.716 421.177 206.159 423.501 213.99 427.793H214Z" fill="#F5F5F5"/>
<path d="M138 310.036C129.572 315.391 125.894 322.673 114.918 326.487C108.295 328.79 102.346 328.559 96 325.137C97.4873 324.012 99.0638 322.858 100.571 321.681C104.795 318.368 108.83 314.97 113.302 311.779C114.531 310.896 116.97 310.186 118.923 310.117C125.269 309.909 131.644 310.042 138 310.042V310.036Z" fill="#F5F5F5"/>
<path d="M143.01 533.877C147.14 529.161 150.78 524.47 155.205 520.062C161.66 513.644 172.06 509.833 184 513.325C178.123 518.372 172.502 523.512 166.34 528.405C160.915 532.719 152.34 534.521 143 533.871L143.01 533.877Z" fill="#F5F5F5"/>
<path d="M201 344.188C195.563 349.139 190.552 354.242 184.548 358.93C181.47 361.335 176.935 363.249 172.52 364.905C167.762 366.69 162.548 366.163 157 364.261C164.067 358.83 170.455 353.165 178.21 348.208C184.184 344.393 192.83 343.556 201 344.194V344.188Z" fill="#F5F5F5"/>
<path d="M84.2872 374C95.343 377.877 106.199 381.334 116.394 385.4C122.637 387.885 125.789 392.066 128 397C111.762 393.822 96.1334 390.936 85.9681 382.252C83.3067 379.979 81.7459 377.439 84.2972 374H84.2872Z" fill="#F5F5F5"/>
<path d="M172 347C166.161 351.958 161.137 356.3 155.972 360.588C151.753 364.096 146.689 366.998 139.068 367.838C135.232 368.261 131.829 367.914 129 366.111C135.544 360.723 141.867 355.36 148.542 350.149C149.81 349.156 152.317 348.375 154.452 348.157C159.939 347.593 165.536 347.399 172 347Z" fill="#F5F5F5"/>
<path d="M53.0564 298C64.6232 300.363 87.8656 315.923 86.9751 320.601C79.6333 321.598 73.1524 320.777 67.5817 317.564C63.604 315.266 59.2702 313.185 55.3519 310.851C54.1349 310.13 53.2443 308.911 53.1553 307.891C52.8782 304.689 53.0564 301.477 53.0564 298Z" fill="#F5F5F5"/>
<path d="M94.9393 347C80.8346 343.715 67.566 339.894 56.119 334.178C55.0439 333.642 54.2476 332.606 54.1481 331.764C53.8793 329.533 54.0585 327.278 54.0585 325C64.4802 328.214 75.0215 331.081 84.8659 334.637C92.1621 337.269 95.4569 341.649 94.9492 347H94.9393Z" fill="#F5F5F5"/>
<path d="M187 418.558C177.611 420.024 169.063 421.468 160.406 422.674C155.766 423.318 150.967 423.734 146.197 423.946C140.235 424.212 134.784 423.618 133 419.474C133.661 419.302 134.754 418.946 135.926 418.708C144.473 416.963 153.021 415.219 161.598 413.531C167.55 412.359 173.142 413.27 178.302 414.886C181.399 415.858 184.044 417.286 187 418.552V418.558Z" fill="#F5F5F5"/>
<path d="M173.99 461.893C166.41 464.121 157.77 462.906 152.931 458.967C146.509 453.742 140.284 448.427 134 443.166C139.383 441.384 146.152 441.521 151.754 444.435C156.405 446.854 160.324 449.845 164.084 452.806C167.647 455.613 170.566 458.711 174 461.893H173.99Z" fill="#F5F5F5"/>
<path d="M104 422.369C96.4398 423.885 87.7633 422.62 83.7678 419.108C80.2619 416.023 77.6374 412.576 74.6995 409.269C72.7409 407.07 70.8998 404.831 69 402.608C76.6973 400.987 85.6187 402.661 89.9471 406.983C94.9122 411.934 99.2406 417.12 104 422.369Z" fill="#F5F5F5"/>
<path d="M138.598 549C147.914 552.555 153.902 557.312 152.889 564.336C152.578 566.533 151.224 568.67 150.341 570.837C149.308 573.391 148.275 575.945 147.142 578.744C143.512 579.603 141.506 578.185 139.942 576.178C136.151 571.31 133.674 566.386 135.76 560.836C137.204 557.005 137.665 553.033 138.598 549Z" fill="#F5F5F5"/>
<path d="M133 427.757C131.003 427.843 129.379 428.132 127.936 427.929C119.251 426.711 111.474 424.651 107.227 419.367C103.576 414.822 99.7625 410.331 96 405.786C105.189 403.707 117.91 405.669 120.522 412.669C121.914 416.396 124.456 420.001 126.988 423.525C128.007 424.94 130.408 425.985 132.99 427.751L133 427.757Z" fill="#F5F5F5"/>
<path d="M153 325.139C159.079 320.395 164.901 315.801 170.871 311.276C171.662 310.678 173.223 310.103 174.459 310.074C180.636 309.953 186.834 310.017 194 310.017C186.893 315.887 180.043 321.2 170.831 325.242C165.088 327.76 158.921 327.438 153.01 325.133L153 325.139Z" fill="#F5F5F5"/>
<path d="M186.99 563.007C181.732 564.865 176.946 566.557 172.854 568C168.239 565.539 163.574 563.102 159.059 560.588C158.164 560.091 157.551 559.31 157.229 558.588C154.756 552.962 148.18 549.354 140.177 546.425C139.202 546.071 138.257 545.68 137.342 545.266C137.161 545.183 137.231 544.917 137 544C143.626 544.586 150.171 544.651 156.103 545.816C163.865 547.342 162.749 551.744 162.035 556.009C167.806 554.465 170.3 555.778 173.467 558.026C176.453 560.144 181.711 561.15 187 563.001L186.99 563.007Z" fill="#F5F5F5"/>
<path d="M166 310.009C160.184 314.582 155.15 318.742 149.75 322.727C145.252 326.042 135.967 326.91 127 325.005C132.717 320.286 138.316 315.602 144.072 310.993C144.726 310.469 146.272 310.073 147.421 310.055C153.297 309.962 159.173 310.015 166 310.015V310.009Z" fill="#F5F5F5"/>
<path d="M59 576.622C62.6286 573.775 66.1065 571.115 69.4637 568.401C74.59 564.256 81.3749 561.778 89.8283 561.045C91.6878 560.888 93.6479 561.184 96 561.294C95.608 562.221 95.5879 562.839 95.1255 563.287C91.6175 566.692 88.1698 570.127 84.4105 573.435C77.3241 579.67 69.5341 580.567 59 576.622Z" fill="#F5F5F5"/>
<path d="M85 577.988C90.1588 573.489 94.7013 569.371 99.5618 565.383C101.122 564.099 103.309 562.957 105.615 562.094C111.768 559.793 117.563 561.236 118.974 565.349C119.143 565.843 118.447 566.553 117.801 566.996C112.831 570.399 107.812 573.779 102.693 577.113C102.017 577.551 100.784 577.925 99.7904 577.948C95.079 578.033 90.3476 577.988 85 577.988Z" fill="#F5F5F5"/>
<path d="M53.0178 327C67.4826 331.856 68.2774 341.502 77 348.693C67.8701 349.701 60.7668 348.142 54.3192 345.225C53.4847 344.846 53.0873 343.85 53.0675 343.132C52.9681 337.862 53.0079 332.591 53.0079 327H53.0178Z" fill="#F5F5F5"/>
<path d="M62 530.024C68.1684 524.992 82.0823 521.997 94 523.308C84.7274 530.067 81.6931 539.278 67.8391 544C68.4679 542.627 68.7972 541.17 69.7854 539.907C72.0511 537.021 71.3725 534.734 67.0306 532.824C65.1941 532.013 63.6469 530.958 62 530.024Z" fill="#F5F5F5"/>
<path d="M153 342.446C136.902 344.444 128.155 341.2 119 330.095C121.132 327.818 123.911 327.407 127.826 328.814C129.42 329.388 131.672 329.805 133.465 329.66C138.834 329.22 141.713 330.749 144.014 333.281C146.774 336.316 149.852 339.254 153 342.451V342.446Z" fill="#F5F5F5"/>
<path d="M136.374 488C138.588 491.035 139.309 493.326 133.48 494.873C131.347 495.44 129.936 496.916 127.681 498.292C130.799 499.579 133.988 500.902 137.258 502.26C129.946 508.442 119.08 509.54 106 508.796C106.691 507.432 106.691 506.109 107.828 505.383C116.297 499.939 124.98 494.607 133.622 489.252C134.282 488.844 135.156 488.555 136.384 488.006L136.374 488Z" fill="#F5F5F5"/>
<path d="M115.083 366C114.307 362.696 113.657 359.976 113.026 357.256C112.987 357.07 112.968 356.81 113.143 356.694C117.082 354.206 120.498 351.191 125.233 349.472C128.066 348.442 132.986 349.397 136.954 349.553C138.332 349.611 139.681 349.958 142 350.328C135.858 355.126 130.405 359.727 124.253 363.963C122.555 365.132 118.78 365.23 115.083 366Z" fill="#F5F5F5"/>
<path d="M128.859 565C121.282 563.374 119.469 559.671 118.306 555.535C116.937 550.657 116.119 545.85 118.582 541.074C127.746 540.551 132.209 542.8 131.992 548.177C131.855 551.696 130.741 555.203 130.061 558.71C129.667 560.751 129.283 562.798 128.859 565Z" fill="#F5F5F5"/>
<path d="M94 508.252C86.5076 510.883 78.643 510.474 74.0104 507.495C65.6267 502.102 63.5602 495.519 69.0645 490C77.3991 496.102 85.5772 502.09 94 508.252Z" fill="#F5F5F5"/>
<path d="M148 464C141.704 468.094 136.667 471.766 130.914 474.992C125.323 478.118 118.261 478.534 110 477.482C114.12 474.149 118.029 471.255 121.424 468.165C124.416 465.444 127.197 463.643 133.685 464.689C137.573 465.313 142.207 464.345 148 464.006V464Z" fill="#F5F5F5"/>
<path d="M84.9513 259C78.1689 257.239 71.8447 255.862 65.9992 253.997C61.4979 252.562 57.3633 250.662 53.5953 248.64C52.5057 248.059 53.2593 246.357 53.188 245.509C57.7198 245.34 61.5285 245.265 65.3169 245.044C74.8998 244.486 84.0754 249.338 84.9309 255.502C85.0735 256.554 84.9513 257.617 84.9513 259Z" fill="#F5F5F5"/>
<path d="M147.99 402.515C132.736 403.03 131.197 403.582 131.901 409C124.093 406.83 116.697 404.773 109 402.633C110.821 401.044 112.542 399.551 114.524 397.825C120.611 398.952 126.88 400.114 134.125 401.453C133.44 398.472 132.877 396.006 132.273 393.385C133.913 393.255 135.664 393.113 137.022 393C140.806 396.272 144.398 399.391 148 402.509L147.99 402.515Z" fill="#F5F5F5"/>
<path d="M109 310.023C102.356 315.002 96.4641 319.418 90.3474 324C86.9329 321.064 84.0843 318.71 81.421 316.292C79.6845 314.714 83.6746 310.109 86.9134 310.057C93.7911 309.953 100.679 310.023 109 310.023Z" fill="#F5F5F5"/>
<path d="M53.2429 383C62.7824 390.378 71.3177 397.498 88.1977 394.569C90.6779 397.245 92.9875 399.741 96 403C93.7005 402.471 91.8327 402.308 90.5374 401.701C83.5986 398.454 76.1076 396.866 67.2509 398.225C66.0459 398.412 64.5799 398.027 63.2443 397.871C62.9531 397.835 62.7423 397.576 62.4511 397.522C50.2204 395.135 53.4337 389.091 53.2529 383.006L53.2429 383Z" fill="#F5F5F5"/>
<path d="M176 343.971C172.408 343.856 169.509 343.368 166.966 343.77C161.683 344.605 159.031 343.082 156.745 340.535C153.332 336.746 149.681 333.035 146 329.148C148.394 326.705 150.898 328.862 153.599 329.24C166.402 331.013 170.954 337.355 176 343.978V343.971Z" fill="#F5F5F5"/>
<path d="M73.9027 426C81.4023 431.334 88.8822 436.401 95.8292 441.724C98.7205 443.935 100.694 446.645 102.658 449.251C103.358 450.181 102.766 451.475 102.766 453C92.8392 446.311 83.4647 440.162 74.4356 433.831C69.8668 430.63 70.0246 428.479 73.9027 426Z" fill="#F5F5F5"/>
<path d="M119 370.626C123.366 369.438 131.031 370.012 133.405 371.75C134.109 372.272 134.079 373.167 134.169 373.901C134.813 379.225 135.396 384.554 136 389.912C130.065 390.497 124.864 388.105 125.217 384.336C125.669 379.357 124.693 374.664 119.01 370.62L119 370.626Z" fill="#F5F5F5"/>
<path d="M112 541V555C103.736 552.039 95.6867 549.151 88 546.403C94.3745 544.591 99.7699 542.935 105.361 541.541C107.398 541.033 109.914 541.151 112 541Z" fill="#F5F5F5"/>
<path d="M182 543.989C170.457 544.127 160.154 542.985 152 537.544C157.036 535.991 161.8 534.4 166.748 533.089C167.823 532.802 170.147 533.245 170.873 533.857C174.631 537.02 178.049 540.346 182 543.989Z" fill="#F5F5F5"/>
<path d="M53.0101 278.012C56.4358 279.888 59.1317 281.349 61.777 282.827C62.2331 283.086 62.7094 283.43 62.8513 283.78C64.5946 288.064 66.277 292.36 68 296.722C61.9899 298.049 52.9899 294.417 53 290.218C53.0101 286.338 53 282.459 53 278L53.0101 278.012Z" fill="#F5F5F5"/>
<path d="M172 578H152C153.986 573.279 155.9 568.75 157.896 564C166.735 567.267 169.138 572.535 172 578Z" fill="#F5F5F5"/>
<path d="M53.0236 406C53.0236 401.452 52.9246 396.939 53.1324 392.432C53.1621 391.797 54.4783 391.025 55.5272 390.603C57.259 389.908 59.248 389.451 60.7522 389C62.0782 391.69 63.4834 394.409 64.76 397.159C66.3037 400.484 60.1683 405.192 53.0236 405.994V406Z" fill="#F5F5F5"/>
<path d="M137 372.445C143.226 370.49 148.224 368.918 154.331 367C162.794 368.646 159.458 377.005 169 379.022C168.663 379.35 168.327 379.672 167.99 380C164.328 378.991 160.735 377.859 156.994 376.999C152.282 375.916 147.423 375.099 142.681 374.079C140.761 373.664 138.98 373.02 137.01 372.445H137Z" fill="#F5F5F5"/>
<path d="M108.923 480C114.421 481.844 120.041 481.03 125.852 480.635C128.697 480.443 131.964 481.928 134.819 482.88C135.231 483.018 134.919 484.772 134.095 485.216C131.883 486.395 129.209 487.275 127.4 488C122.594 487.251 118.372 486.455 114.06 485.958C108.028 485.263 106.892 484.162 108.933 480H108.923Z" fill="#F5F5F5"/>
<path d="M124.144 567C127.3 569.087 130.114 570.954 132 572.2C129.235 574.157 127.242 575.686 125.014 577.084C124.281 577.547 122.952 577.914 121.868 577.942C117.813 578.043 113.749 577.981 109 577.981C114.12 574.27 118.859 570.83 124.144 567Z" fill="#F5F5F5"/>
<path d="M140.708 415C139.336 411.892 138.199 409.304 137 406.561C146.64 405.341 154.859 405.861 162 410.635C154.727 412.127 147.758 413.551 140.708 414.994V415Z" fill="#F5F5F5"/>
<path d="M53.0153 370C53.0153 366.042 52.9748 362.635 53.0255 359.229C53.066 356.713 55.1114 355.804 59.982 356.034C63.597 356.204 66.6348 358.083 65.8855 360.011C64.2248 364.278 60.1035 367.515 53.0153 370Z" fill="#F5F5F5"/>
<path d="M107.041 502C106.079 499.023 105.209 496.402 104.391 493.781C103.128 489.731 104.774 488.658 111.555 489.089C115.8 489.357 120.035 489.625 124 489.875C118.813 493.582 113.026 497.725 107.041 502Z" fill="#F5F5F5"/>
<path d="M121 463.85C115.618 467.654 110.549 471.236 105.228 475C102.799 473.462 102.305 472.557 103.998 470.541C106.608 467.437 107.274 463.815 108.947 460C112.363 461.088 116.525 462.42 121 463.85Z" fill="#F5F5F5"/>
<path d="M53 388V377.19C59.033 376.444 65.2966 377.978 65.918 380.298C66.7698 383.496 60.8871 387.057 53 388Z" fill="#F5F5F5"/>
<path d="M54.1107 502.866C53.4453 499.756 52.7798 496.641 52 493C57.8538 493.204 62.6991 493.373 69 493.595C64.2379 497.078 60.1828 500.042 56.1382 503C55.4624 502.953 54.7865 502.912 54.1211 502.866H54.1107Z" fill="#F5F5F5"/>
<path d="M93.5233 391.006C96.2817 391.967 98.9886 392.983 101.819 393.871C104.639 394.759 107.583 395.512 111 396.467C108.818 398.113 106.976 399.65 104.886 401.052C102.817 402.435 100.502 402.3 99.1224 400.678C96.5699 397.679 94.357 394.569 92 391.508C92.5146 391.337 93.0189 391.171 93.5336 391L93.5233 391.006Z" fill="#F5F5F5"/>
<path d="M102.446 441C96.994 437.358 91.5626 433.739 86 430.021C100.164 429.641 107.392 434.544 102.446 441Z" fill="#F5F5F5"/>
<path d="M53 430.531V417C56.3818 418.062 59.3081 418.975 63 420.136C60.1609 423.889 57.4574 427.444 54.7636 431C54.1725 430.846 53.5911 430.691 53 430.537V430.531Z" fill="#F5F5F5"/>
<path d="M66 465.592C64.7212 468.369 62.0317 469.28 57.9314 468.928C54.6735 468.648 52.735 467.84 53.0294 465.598C53.2932 463.605 53.0801 461.588 53.0801 459C57.7487 461.382 61.7983 463.454 66 465.592Z" fill="#F5F5F5"/>
<path d="M147.416 537.234C148.311 538.815 149.016 540.066 150 541.816C143.73 540.804 136.774 543.98 131 539.637C134.551 537.356 140.023 536.554 147.416 537.234Z" fill="#F5F5F5"/>
<path d="M61.26 407C62.5538 410.466 63.7163 413.563 65 417C61.0376 415.916 57.6918 415.085 54.528 414.07C53.6789 413.799 52.9612 412.94 53.0016 412.363C53.032 411.919 54.3763 411.527 55.0738 411.077C57.0146 409.82 58.925 408.54 61.26 407Z" fill="#F5F5F5"/>
<path d="M79 239.211C77.7894 240.372 76.8346 241.288 76.0866 242H59C62.061 239.211 66.4803 238.612 78.9901 239.211H79Z" fill="#F5F5F5"/>
<path d="M63.0551 375C60.5027 374.617 57.203 374.124 55 373.796C59.3478 370.798 64.142 367.496 69.2176 364C69.3826 364.426 70.3046 365.374 69.897 365.97C67.8201 369.017 65.3939 371.966 63.0551 375Z" fill="#F5F5F5"/>
<path d="M66 435.934C61.4001 436.312 57.474 436.634 53.0011 437C52.9034 433.108 59.3687 432.532 60.9118 429C62.8357 431.627 64.2128 433.505 66 435.94V435.934Z" fill="#F5F5F5"/>
<path d="M125.246 410C128.609 411.397 131.972 412.789 136 414.465C133.696 415.578 131.588 416.597 128.671 418C126.917 415.264 125.464 412.979 124 410.699C124.415 410.468 124.83 410.237 125.235 410H125.246Z" fill="#F5F5F5"/>
<path d="M73.2055 299C79.1397 300.266 79.5541 302.88 78.6139 306C75.3588 303.998 72.235 302.073 69 300.083C70.5669 299.677 72.0328 299.3 73.1954 299H73.2055Z" fill="#F5F5F5"/>
<path d="M53 353V349C57.2563 350.076 61.3457 351.104 67 352.53C61.5753 352.715 57.6006 352.845 53 353Z" fill="#F5F5F5"/>
<path d="M57.4732 453.862C56.1215 454.894 54.7795 455.926 53.3695 457C53.282 456.077 53.1653 454.778 53 453C55.3436 453.437 57.1718 453.777 59 454.117C58.4943 454.032 57.9789 453.947 57.4732 453.868V453.862Z" fill="#F5F5F5"/>
<path d="M234.22 199C186.066 198.389 144.029 194.699 107.042 179.587C89.6389 172.477 76.7587 163.24 72.9136 150.362C69.8355 140.042 74.6967 130.841 85.0666 122.659C99.5406 111.23 119.513 104.438 141.439 99.7296C196.894 87.8277 252.41 88.0074 307.407 100.814C326.683 105.3 344.384 111.512 357.544 121.533C378.184 137.256 376.57 156.214 353.678 170.824C333.496 183.702 308.144 190.836 280.083 194.597C263.517 196.82 246.503 197.856 234.22 199ZM215.403 95.1054C201.228 94.9137 181.195 96.4351 161.621 99.6637C136.597 103.791 113.288 109.984 94.9085 121.497C76.2905 133.153 73.1925 148.463 86.8796 161.731C95.6756 170.261 108.446 176.268 122.9 180.958C147.107 188.817 173.216 192.765 200.52 194.232C230.704 195.849 260.419 194.711 289.467 189.302C312.886 184.942 334.273 178.515 350.76 167.158C369.936 153.95 370.414 137.22 352.114 123.599C343.378 117.094 332.251 112.5 320.218 108.619C289.417 98.6754 256.155 95.1473 215.403 95.1114V95.1054Z" fill="#F5F5F5"/>
<path d="M113.639 207.615L119.707 206.625V158.603L113.639 157.679V156.228H134.352C140.86 156.228 145.698 157.613 148.864 160.384C152.03 163.154 153.613 167.156 153.613 172.389C153.613 177.623 152.03 181.625 148.864 184.395C145.698 187.166 140.86 188.551 134.352 188.551H126.964V206.625L133.032 207.615V209H113.639V207.615ZM133.428 186.968C141.564 186.968 145.632 182.548 145.632 173.709V171.07C145.632 162.275 141.564 157.877 133.428 157.877H126.964V186.968H133.428ZM197.057 209.66C194.595 209.66 192.748 209.066 191.516 207.879C190.285 206.691 189.449 204.668 189.01 201.81L187.756 192.971C187.317 189.98 186.283 187.649 184.656 185.978C183.073 184.263 180.588 183.406 177.202 183.406H172.057V206.625L178.125 207.615V209H158.732V207.615L164.801 206.625V158.603L158.732 157.679V156.228H177.202C184.37 156.228 189.559 157.349 192.77 159.592C195.98 161.835 197.585 165.243 197.585 169.817C197.585 177.381 193.012 181.756 183.864 182.944V183.34C187.251 183.823 189.955 185.033 191.978 186.968C194.045 188.903 195.342 191.475 195.87 194.686L196.728 200.359C197.079 202.821 197.475 204.492 197.915 205.372C198.399 206.251 199.124 206.691 200.092 206.691C200.751 206.691 201.455 206.493 202.203 206.098C202.95 205.658 203.654 205.108 204.314 204.448L205.435 205.636C204.16 207.087 202.84 208.12 201.477 208.736C200.114 209.352 198.641 209.66 197.057 209.66ZM179.445 181.822C182.655 181.822 185.14 180.855 186.899 178.92C188.702 176.941 189.603 174.039 189.603 170.213V168.827C189.603 161.527 185.47 157.877 177.202 157.877H172.057V181.822H179.445ZM202.174 209V207.615L208.638 204.976L227.702 154.909H228.758L246.766 206.625L252.835 207.615V209H233.441V207.615L238.85 206.757L233.243 191.124H215.697L210.353 204.976L216.29 207.615V209H202.174ZM216.224 189.738H232.782L224.866 166.519L216.224 189.738ZM260.186 209V207.615L266.255 206.625V157.877H255.37L250.357 170.938H248.444V156.228H291.387V170.938H289.408L284.461 157.877H273.511V206.625L279.579 207.615V209H260.186ZM286.498 209V207.615L292.963 204.976L312.026 154.909H313.082L331.09 206.625L337.159 207.615V209H317.765V207.615L323.175 206.757L317.568 191.124H300.021L294.678 204.976L300.615 207.615V209H286.498ZM300.549 189.738H317.106L309.19 166.519L300.549 189.738Z" fill="#DF3838"/>
<path d="M223.181 85.0001C264.652 84.9658 301.135 91.4572 335.3 108.131C351.303 115.948 365.881 125.777 377.315 139.674C398.305 165.182 398.468 195.251 377.547 221.022C360.14 242.45 336.633 254.69 310.946 263.364C275.796 275.227 239.51 279.25 202.608 275.822C162.97 272.13 125.35 262.085 93.1455 237.525C80.9456 228.21 70.7172 217.148 64.768 202.839C55.2238 179.902 60.6279 159.217 75.4603 140.451C90.6406 121.24 111.585 109.983 134.059 101.251C163.828 89.6858 194.873 84.9201 223.181 85.023V85.0001ZM235.416 270.564C248.903 268.553 270.67 266.542 291.835 261.867C321.801 255.25 348.914 242.462 369.986 219.365C389.909 197.536 391.73 170.714 374.288 147.023C360.94 128.886 342.246 117.434 321.592 109.366C267.006 88.0515 211.225 86.4516 154.934 101.857C127.727 109.309 102.632 120.886 83.0215 141.983C63.156 163.342 61.7412 191.799 79.6584 214.736C88.3908 225.925 99.2571 234.588 111.434 241.787C147.083 262.85 186.489 269.102 235.427 270.576L235.416 270.564Z" fill="#DF3838"/>
</svg>
