<svg width="517" height="640" viewBox="0 0 517 640" fill="none" xmlns="http://www.w3.org/2000/svg">
<mask id="mask0_245_53" style="mask-type:alpha" maskUnits="userSpaceOnUse" x="0" y="0" width="517" height="640">
<rect width="517" height="640" transform="matrix(-1 0 0 1 517 0)" fill="#D9D9D9"/>
</mask>
<g mask="url(#mask0_245_53)">
<path d="M-97.7573 27.1161C-96.2277 29.1367 -95.6102 36.7 -94.249 40.0924C-80.9315 73.3488 -51.1108 59.0378 -48.1358 25.077C-33.0922 21.7958 -36.9092 28.8216 -32.2502 39.7587C-26.286 53.7731 -21.1078 59.6681 -8.25333 58.2963C6.45349 56.7206 9.59692 40.7968 14.8033 25.7443C29.6504 21.5919 25.679 28.4693 29.5662 39.6846C37.8739 63.6722 61.1129 65.804 71.2589 42.836C75.8618 32.4178 72.7745 21.3138 85.7272 24.8174C89.9512 25.9668 90.1757 36.2551 92.407 41.9462C101.037 64.0059 123.912 64.3395 133.314 43.2252C137.524 33.7896 133.552 24.113 144.625 24.7804C153.536 25.318 150.968 33.9935 154.883 42.8174C164.917 65.4703 188.535 63.5053 196.576 39.6475C199.986 29.526 196.688 21.6661 209.206 24.8174C214.257 26.0965 214.075 36.7742 216.629 42.8174C227 67.3426 250.94 62.4858 259.346 37.2932C262.237 28.6176 257.803 23.0008 269.591 24.7062C277.042 25.7814 276.074 36.6629 279.793 44.6156C289.56 65.4889 311.381 62.597 319.914 41.2973C323.085 33.3633 321.163 24.6506 329.863 24.6321C340.332 24.595 336.501 30.4158 339.701 39.6475C351.46 73.6269 382.712 58.63 386.656 25.596L398.654 26.6156C405.222 70.5311 441.357 68.6588 448.416 25.596H458.309C461.355 29.044 458.773 47.6001 470.406 56.0718C478.896 62.2633 490.221 54.8112 485.73 74.9616C461.986 78.1871 449.96 117.005 472.736 134.56C477.114 137.934 485.492 138.49 486.376 144.348C488.972 161.513 480.678 157.324 472.736 163.46C457.06 175.546 456.682 202.556 471.613 215.754C476.174 219.777 485.478 220.166 486.376 225.913C489.14 243.728 477.886 239.761 469.494 248.14C455.04 262.562 459.109 290.683 475.135 300.1C479.317 302.566 485.59 301.491 486.418 307.571C488.649 323.717 481.212 321.103 473.872 326.238C462.968 333.876 458.927 346.667 461.425 362.702C464.288 381.054 486.039 385.429 486.418 387.505L485.099 402.242C478.475 406.413 472.918 406.765 467.361 414.032C457.313 427.157 458.716 449.661 470.462 460.135C474.77 463.972 484.944 466.049 486.081 470.998C490.656 490.982 477.086 484.753 468.806 493.781C456.71 506.98 458.604 532.821 471.866 543.554C479.977 550.117 489.463 545.556 485.758 564.372C470.448 566.559 458.73 577.033 459.572 599.297L447.392 599.019C444.402 566.374 414.105 553.824 402.092 585.449C398.514 594.866 402.162 601.966 391.609 601.428C382.825 600.984 385.14 591.029 380.888 582.112C370.307 559.941 347.854 563.093 339.715 586.45C335.715 597.925 339.181 606.452 324.236 599.482C317.149 557.42 281.547 555.585 274.516 598.722C272.987 601.521 261.844 601.614 260.651 599.111C260.244 566.986 229.006 554.566 216.882 583.614C211.9 595.552 214.552 606.934 198.975 599.037C193.993 554.881 155.823 558.588 149.663 600.483L137.636 599.464C134.184 568.079 105.149 553.342 92.6596 584.504C88.7443 594.254 91.7615 601.966 81.4751 601.428C72.6061 600.965 74.8374 589.286 69.5609 579.98C55.5277 555.159 28.2611 569.284 27.2086 599.13C26.535 600.446 15.2663 602.708 14.0876 599.482C6.60784 556.605 -28.798 556.456 -36.2496 599.63L-47.4061 601.373C-50.8723 591.826 -51.6301 581.797 -58.1134 574.364C-68.484 562.444 -86.0957 566.467 -93.0281 582.094C-96.6908 590.362 -94.5577 601.428 -103.735 601.466C-114.12 601.503 -110.443 595.775 -113.573 586.45C-121.445 563.093 -144.249 560.09 -154.746 582.112C-156.725 586.265 -159.279 599.315 -160.528 600.427C-162.24 601.929 -168.906 601.985 -170.506 600.483C-172.105 598.982 -172.596 586.932 -173.916 582.761C-175.558 577.552 -180.68 571.286 -184.581 569.043C-189.015 566.504 -197.505 567.82 -198.488 561.443C-200.916 545.723 -190.405 549.801 -182.981 542.98C-168.232 529.447 -169.818 503.661 -184.876 491.556C-191.766 486.032 -198.137 489.332 -198.516 477.968C-199.007 463.602 -192.243 468.088 -184.848 462.638C-162.787 446.362 -173.186 405.802 -197.225 403.67L-198.319 386.448C-165.734 382.555 -163.461 326.906 -196.832 322.939C-205.196 298.302 -184.174 305.476 -176.259 288.626C-165.369 265.417 -179.641 243.802 -197.113 238.945C-202.6 219.054 -195.246 223.41 -186.307 217.905C-162.422 203.204 -172.723 161.495 -196.762 157.843C-199.203 152.449 -199.105 145.571 -196.79 140.103C-174.365 138.638 -163.517 102.712 -182.364 84.1191C-190.573 76.0182 -203.652 79.6145 -197.169 60.8174C-187.233 60.5579 -176.582 53.699 -173.158 40.63C-171.867 35.7175 -172.568 26.3746 -169.537 25.0399C-157.216 19.5528 -159.04 37.0893 -152.908 47.0625C-137.513 72.1439 -112.534 54.3663 -110.163 25.596C-108.03 23.6125 -99.6518 24.5765 -97.7713 27.0605L-97.7573 27.1161Z" fill="#DF3838"/>
</g>
<path d="M88.08 263V262.2L90.88 261.8V243.48L88.08 243.08V242.28H111.28V243.08L108.48 243.48V261.8L111.28 262.2V263H102.08V262.2L104.48 261.8V243.28H94.88V261.8L97.28 262.2V263H88.08ZM124.432 263.4C122.512 263.4 120.765 262.96 119.192 262.08C117.618 261.173 116.365 259.907 115.432 258.28C114.525 256.627 114.072 254.747 114.072 252.64C114.072 250.533 114.525 248.667 115.432 247.04C116.365 245.413 117.618 244.16 119.192 243.28C120.765 242.373 122.512 241.92 124.432 241.92C126.352 241.92 128.098 242.373 129.672 243.28C131.245 244.16 132.485 245.413 133.392 247.04C134.325 248.667 134.792 250.533 134.792 252.64C134.792 254.747 134.325 256.627 133.392 258.28C132.485 259.907 131.245 261.173 129.672 262.08C128.098 262.96 126.352 263.4 124.432 263.4ZM124.432 262.52C126.405 262.52 127.885 261.8 128.872 260.36C129.885 258.92 130.392 257.013 130.392 254.64V250.64C130.392 248.267 129.885 246.373 128.872 244.96C127.885 243.52 126.405 242.8 124.432 242.8C122.458 242.8 120.965 243.52 119.952 244.96C118.965 246.373 118.472 248.267 118.472 250.64V254.64C118.472 257.013 118.965 258.92 119.952 260.36C120.965 261.8 122.458 262.52 124.432 262.52ZM156.601 269.6H155.481L151.961 263H139.081L135.601 269.6H134.481L135.081 262H136.361C136.948 262 137.521 261.747 138.081 261.24C138.641 260.733 139.135 260 139.561 259.04C139.935 258.16 140.228 257.067 140.441 255.76C140.681 254.453 140.895 252.4 141.081 249.6L141.401 244.8L137.761 243.08V242.28H155.961V243.08L153.161 243.48V262H156.001L156.601 269.6ZM149.161 243.28H142.521L142.081 249.6C141.895 252.427 141.681 254.52 141.441 255.88C141.201 257.213 140.908 258.333 140.561 259.24C140.321 259.827 140.055 260.333 139.761 260.76C139.495 261.16 139.255 261.453 139.041 261.64C138.855 261.827 138.735 261.947 138.681 262H149.161V243.28ZM178.203 269.6H177.083L173.563 263H160.683L157.203 269.6H156.083L156.683 262H157.963C158.549 262 159.123 261.747 159.683 261.24C160.243 260.733 160.736 260 161.163 259.04C161.536 258.16 161.829 257.067 162.043 255.76C162.283 254.453 162.496 252.4 162.683 249.6L163.003 244.8L159.363 243.08V242.28H177.563V243.08L174.763 243.48V262H177.603L178.203 269.6ZM170.763 243.28H164.123L163.683 249.6C163.496 252.427 163.283 254.52 163.043 255.88C162.803 257.213 162.509 258.333 162.163 259.24C161.923 259.827 161.656 260.333 161.363 260.76C161.096 261.16 160.856 261.453 160.643 261.64C160.456 261.827 160.336 261.947 160.283 262H170.763V243.28ZM190.764 263.4C188.791 263.4 187.004 262.96 185.404 262.08C183.804 261.173 182.538 259.907 181.604 258.28C180.671 256.653 180.204 254.773 180.204 252.64C180.204 250.507 180.658 248.64 181.564 247.04C182.498 245.413 183.738 244.16 185.284 243.28C186.858 242.373 188.604 241.92 190.524 241.92C192.204 241.92 193.711 242.293 195.044 243.04C196.378 243.787 197.418 244.827 198.164 246.16C198.911 247.467 199.298 248.973 199.324 250.68L184.604 250.68V254.64C184.604 256.987 185.124 258.893 186.164 260.36C187.231 261.8 188.764 262.52 190.764 262.52C192.604 262.52 194.231 262 195.644 260.96C197.058 259.92 197.924 258.573 198.244 256.92H199.164C198.791 258.893 197.844 260.467 196.324 261.64C194.804 262.813 192.951 263.4 190.764 263.4ZM194.924 249.68C194.924 247.36 194.564 245.64 193.844 244.52C193.124 243.373 192.004 242.8 190.484 242.8C188.698 242.8 187.311 243.427 186.324 244.68C185.338 245.933 184.778 247.6 184.644 249.68L194.924 249.68ZM201.746 273.52L204.546 273.12V243.52L201.746 243.12V242.32H208.546V246.52C209.213 245.08 210.106 243.96 211.226 243.16C212.373 242.333 213.733 241.92 215.306 241.92C217.2 241.92 218.866 242.373 220.306 243.28C221.746 244.16 222.866 245.413 223.666 247.04C224.466 248.64 224.866 250.52 224.866 252.68C224.866 254.84 224.466 256.733 223.666 258.36C222.866 259.96 221.746 261.2 220.306 262.08C218.866 262.96 217.2 263.4 215.306 263.4C213.733 263.4 212.373 263 211.226 262.2C210.106 261.373 209.213 260.253 208.546 258.84V273.12L212.306 273.52V274.32H201.746V273.52ZM214.906 262.4C218.613 262.4 220.466 259.827 220.466 254.68V250.68C220.466 245.507 218.613 242.92 214.906 242.92C213.733 242.92 212.666 243.267 211.706 243.96C210.746 244.627 209.986 245.533 209.426 246.68C208.866 247.827 208.573 249.067 208.546 250.4V254.68C208.546 256.04 208.813 257.32 209.346 258.52C209.906 259.693 210.666 260.64 211.626 261.36C212.613 262.053 213.706 262.4 214.906 262.4ZM230.21 263.48C229.544 263.48 228.864 263.32 228.17 263C227.477 262.707 226.877 262.267 226.37 261.68L226.97 261.08C227.45 261.56 227.917 261.8 228.37 261.8C228.77 261.8 229.077 261.653 229.29 261.36C229.504 261.04 229.69 260.453 229.85 259.6L230.53 256.08C230.77 254.667 231.29 253.613 232.09 252.92C232.917 252.227 234.21 251.8 235.97 251.64C235.384 251.107 234.944 250.227 234.65 249L233.89 246.12C233.677 245.373 233.25 245 232.61 245C232.29 245 232.024 245.12 231.81 245.36C231.597 245.6 231.49 245.893 231.49 246.24C231.49 246.453 231.53 246.68 231.61 246.92C231.237 247.053 230.85 247.12 230.45 247.12C229.704 247.12 229.104 246.88 228.65 246.4C228.224 245.893 228.01 245.293 228.01 244.6C228.01 243.853 228.277 243.227 228.81 242.72C229.344 242.187 230.09 241.92 231.05 241.92C232.197 241.92 233.037 242.253 233.57 242.92C234.13 243.56 234.57 244.533 234.89 245.84L235.61 248.72C235.85 249.707 236.17 250.413 236.57 250.84C236.97 251.267 237.504 251.507 238.17 251.56H241.57V243.52L238.69 243.12V242.28H248.45V243.12L245.57 243.52V251.56H248.89C249.557 251.533 250.09 251.307 250.49 250.88C250.917 250.453 251.264 249.733 251.53 248.72L252.25 245.84C252.57 244.533 252.997 243.56 253.53 242.92C254.09 242.253 254.944 241.92 256.09 241.92C257.05 241.92 257.797 242.187 258.33 242.72C258.864 243.227 259.13 243.853 259.13 244.6C259.13 245.293 258.904 245.893 258.45 246.4C258.024 246.88 257.437 247.12 256.69 247.12C256.29 247.12 255.904 247.053 255.53 246.92C255.61 246.68 255.65 246.453 255.65 246.24C255.65 245.893 255.544 245.6 255.33 245.36C255.117 245.12 254.85 245 254.53 245C253.89 245 253.464 245.373 253.25 246.12L252.49 249C252.197 250.2 251.744 251.08 251.13 251.64C252.89 251.8 254.184 252.227 255.01 252.92C255.837 253.613 256.37 254.667 256.61 256.08L257.29 259.6C257.45 260.453 257.637 261.04 257.85 261.36C258.064 261.653 258.37 261.8 258.77 261.8C259.224 261.8 259.69 261.56 260.17 261.08L260.77 261.68C260.264 262.267 259.664 262.707 258.97 263C258.277 263.32 257.597 263.48 256.93 263.48C255.757 263.48 254.89 263.24 254.33 262.76C253.77 262.253 253.384 261.413 253.17 260.24L252.37 255.92C252.13 254.613 251.717 253.72 251.13 253.24C250.544 252.733 249.73 252.48 248.69 252.48H245.57V261.76L248.45 262.2V263H238.69V262.2L241.57 261.76V252.48H238.25C237.264 252.507 236.49 252.773 235.93 253.28C235.37 253.787 234.984 254.667 234.77 255.92L233.97 260.24C233.757 261.413 233.37 262.253 232.81 262.76C232.25 263.24 231.384 263.48 230.21 263.48ZM261.635 263V262.2L264.435 261.8V243.48L261.635 243.08V242.28H270.835V243.08L268.435 243.48V259.04L278.555 244.28V243.48L276.155 243.08V242.28H285.355V243.08L282.555 243.48V261.8L285.355 262.2V263H276.155V262.2L278.555 261.8V245.96L268.435 260.76V261.8L270.835 262.2V263H261.635ZM287.533 262.2L290.333 261.8V243.48L287.533 243.08V242.28H298.493C301.24 242.28 303.2 242.667 304.373 243.44C305.546 244.187 306.133 245.413 306.133 247.12C306.133 249.6 304.56 251.187 301.413 251.88V252C305.466 252.56 307.493 254.36 307.493 257.4C307.493 259.267 306.813 260.667 305.453 261.6C304.093 262.533 302.2 263 299.773 263H287.533V262.2ZM297.533 251.64C298.92 251.64 299.973 251.28 300.693 250.56C301.44 249.84 301.813 248.76 301.813 247.32V247.16C301.813 245.853 301.44 244.88 300.693 244.24C299.946 243.6 298.813 243.28 297.293 243.28H294.333V251.64H297.533ZM298.573 262C300.04 262 301.173 261.613 301.973 260.84C302.773 260.067 303.173 258.933 303.173 257.44V257.16C303.173 255.64 302.773 254.507 301.973 253.76C301.2 252.987 300.066 252.6 298.573 252.6H294.333V262H298.573ZM316.672 263.4C314.966 263.4 313.566 262.96 312.472 262.08C311.379 261.173 310.832 259.84 310.832 258.08C310.832 255.573 311.886 253.8 313.992 252.76C316.099 251.693 318.539 251.16 321.312 251.16H323.992V248.08C323.992 246.693 323.832 245.627 323.512 244.88C323.219 244.107 322.752 243.573 322.112 243.28C321.472 242.96 320.606 242.8 319.512 242.8C318.259 242.8 317.326 243.053 316.712 243.56C316.099 244.04 315.792 244.693 315.792 245.52C315.792 246.293 316.166 246.8 316.912 247.04C316.912 247.707 316.659 248.293 316.152 248.8C315.646 249.307 315.046 249.56 314.352 249.56C313.606 249.56 313.006 249.36 312.552 248.96C312.099 248.533 311.872 247.893 311.872 247.04C311.872 245.493 312.646 244.253 314.192 243.32C315.739 242.387 317.672 241.92 319.992 241.92C325.326 241.92 327.992 244.24 327.992 248.88V260.32C327.992 260.907 328.112 261.36 328.352 261.68C328.619 261.973 328.992 262.12 329.472 262.12C329.926 262.12 330.286 261.973 330.552 261.68C330.819 261.36 330.952 260.933 330.952 260.4H331.792C331.792 261.333 331.486 262.067 330.872 262.6C330.286 263.133 329.459 263.4 328.392 263.4C327.166 263.4 326.126 263.053 325.272 262.36C324.446 261.64 324.019 260.533 323.992 259.04C323.352 260.4 322.366 261.467 321.032 262.24C319.726 263.013 318.272 263.4 316.672 263.4ZM318.872 261.64C319.592 261.64 320.326 261.427 321.072 261C321.846 260.573 322.499 259.96 323.032 259.16C323.566 258.333 323.886 257.347 323.992 256.2V252.04H321.312C319.126 252.04 317.486 252.533 316.392 253.52C315.326 254.48 314.792 255.84 314.792 257.6C314.792 259.067 315.139 260.107 315.832 260.72C316.526 261.333 317.539 261.64 318.872 261.64ZM343.968 263.4C341.994 263.4 340.208 262.96 338.608 262.08C337.008 261.173 335.741 259.907 334.808 258.28C333.874 256.653 333.408 254.773 333.408 252.64C333.408 250.507 333.861 248.64 334.768 247.04C335.701 245.413 336.941 244.16 338.488 243.28C340.061 242.373 341.808 241.92 343.728 241.92C345.408 241.92 346.914 242.293 348.248 243.04C349.581 243.787 350.621 244.827 351.368 246.16C352.114 247.467 352.501 248.973 352.528 250.68L337.808 250.68V254.64C337.808 256.987 338.328 258.893 339.368 260.36C340.434 261.8 341.968 262.52 343.968 262.52C345.808 262.52 347.434 262 348.848 260.96C350.261 259.92 351.128 258.573 351.448 256.92H352.368C351.994 258.893 351.048 260.467 349.528 261.64C348.008 262.813 346.154 263.4 343.968 263.4ZM348.128 249.68C348.128 247.36 347.768 245.64 347.048 244.52C346.328 243.373 345.208 242.8 343.688 242.8C341.901 242.8 340.514 243.427 339.528 244.68C338.541 245.933 337.981 247.6 337.848 249.68L348.128 249.68ZM359.789 263V262.2L362.989 261.8V243.28H359.549L356.069 249.88H354.949L355.549 242.28H374.429L375.029 249.88H373.909L370.389 243.28H366.989V261.8L370.189 262.2V263H359.789ZM97.04 318.8C95.3867 318.8 93.8667 318.48 92.48 317.84C91.12 317.2 90.04 316.333 89.24 315.24C88.44 314.147 88.04 312.92 88.04 311.56C88.04 310.467 88.3467 309.613 88.96 309C89.5733 308.36 90.3067 308.04 91.16 308.04C91.96 308.04 92.6533 308.293 93.24 308.8C93.8267 309.307 94.12 310.04 94.12 311C92.7067 311.693 92 312.76 92 314.2C92 315.293 92.4533 316.187 93.36 316.88C94.2933 317.547 95.52 317.88 97.04 317.88C99.04 317.88 100.613 317.027 101.76 315.32C102.933 313.613 103.52 311.4 103.52 308.68C103.52 305.533 102.827 303.173 101.44 301.6C100.08 300 98.2667 299.2 96 299.2C94.8 299.2 93.4933 299.427 92.08 299.88L91.36 299.36L93.12 286H103.72C105.32 286 106.48 285.88 107.2 285.64C107.947 285.373 108.453 284.773 108.72 283.84L109.64 283.88C109.427 286.467 108.773 288.253 107.68 289.24C106.613 290.2 105.093 290.68 103.12 290.68H93.56L92.52 298.64C93.8533 298.267 95.2533 298.08 96.72 298.08C99.0933 298.08 101.213 298.547 103.08 299.48C104.973 300.413 106.44 301.693 107.48 303.32C108.52 304.947 109.04 306.747 109.04 308.72C109.04 310.4 108.613 312.013 107.76 313.56C106.907 315.08 105.573 316.333 103.76 317.32C101.973 318.307 99.7333 318.8 97.04 318.8ZM125.178 318.8C122.858 318.8 120.831 318.173 119.098 316.92C117.364 315.667 116.018 313.787 115.058 311.28C114.098 308.747 113.618 305.653 113.618 302C113.618 298.347 114.098 295.267 115.058 292.76C116.018 290.227 117.364 288.333 119.098 287.08C120.831 285.827 122.858 285.2 125.178 285.2C127.498 285.2 129.524 285.827 131.258 287.08C132.991 288.333 134.338 290.227 135.298 292.76C136.258 295.267 136.738 298.347 136.738 302C136.738 305.653 136.258 308.747 135.298 311.28C134.338 313.787 132.991 315.667 131.258 316.92C129.524 318.173 127.498 318.8 125.178 318.8ZM125.178 317.88C127.178 317.88 128.751 316.907 129.898 314.96C131.044 313.013 131.618 309.973 131.618 305.84V298.12C131.618 294.013 131.044 290.987 129.898 289.04C128.751 287.093 127.178 286.12 125.178 286.12C123.178 286.12 121.604 287.093 120.458 289.04C119.311 290.987 118.738 294.013 118.738 298.12V305.84C118.738 309.947 119.311 312.987 120.458 314.96C121.604 316.907 123.178 317.88 125.178 317.88ZM149.52 328.52L152.32 328.12V298.52L149.52 298.12V297.32H156.32V301.52C156.986 300.08 157.88 298.96 159 298.16C160.146 297.333 161.506 296.92 163.08 296.92C164.973 296.92 166.64 297.373 168.08 298.28C169.52 299.16 170.64 300.413 171.44 302.04C172.24 303.64 172.64 305.52 172.64 307.68C172.64 309.84 172.24 311.733 171.44 313.36C170.64 314.96 169.52 316.2 168.08 317.08C166.64 317.96 164.973 318.4 163.08 318.4C161.506 318.4 160.146 318 159 317.2C157.88 316.373 156.986 315.253 156.32 313.84V328.12L160.08 328.52V329.32H149.52V328.52ZM162.68 317.4C166.386 317.4 168.24 314.827 168.24 309.68V305.68C168.24 300.507 166.386 297.92 162.68 297.92C161.506 297.92 160.44 298.267 159.48 298.96C158.52 299.627 157.76 300.533 157.2 301.68C156.64 302.827 156.346 304.067 156.32 305.4V309.68C156.32 311.04 156.586 312.32 157.12 313.52C157.68 314.693 158.44 315.64 159.4 316.36C160.386 317.053 161.48 317.4 162.68 317.4ZM182.024 318.4C180.317 318.4 178.917 317.96 177.824 317.08C176.73 316.173 176.184 314.84 176.184 313.08C176.184 310.573 177.237 308.8 179.344 307.76C181.45 306.693 183.89 306.16 186.664 306.16H189.344V303.08C189.344 301.693 189.184 300.627 188.864 299.88C188.57 299.107 188.104 298.573 187.464 298.28C186.824 297.96 185.957 297.8 184.864 297.8C183.61 297.8 182.677 298.053 182.064 298.56C181.45 299.04 181.144 299.693 181.144 300.52C181.144 301.293 181.517 301.8 182.264 302.04C182.264 302.707 182.01 303.293 181.504 303.8C180.997 304.307 180.397 304.56 179.704 304.56C178.957 304.56 178.357 304.36 177.904 303.96C177.45 303.533 177.224 302.893 177.224 302.04C177.224 300.493 177.997 299.253 179.544 298.32C181.09 297.387 183.024 296.92 185.344 296.92C190.677 296.92 193.344 299.24 193.344 303.88V315.32C193.344 315.907 193.464 316.36 193.704 316.68C193.97 316.973 194.344 317.12 194.824 317.12C195.277 317.12 195.637 316.973 195.904 316.68C196.17 316.36 196.304 315.933 196.304 315.4H197.144C197.144 316.333 196.837 317.067 196.224 317.6C195.637 318.133 194.81 318.4 193.744 318.4C192.517 318.4 191.477 318.053 190.624 317.36C189.797 316.64 189.37 315.533 189.344 314.04C188.704 315.4 187.717 316.467 186.384 317.24C185.077 318.013 183.624 318.4 182.024 318.4ZM184.224 316.64C184.944 316.64 185.677 316.427 186.424 316C187.197 315.573 187.85 314.96 188.384 314.16C188.917 313.333 189.237 312.347 189.344 311.2V307.04H186.664C184.477 307.04 182.837 307.533 181.744 308.52C180.677 309.48 180.144 310.84 180.144 312.6C180.144 314.067 180.49 315.107 181.184 315.72C181.877 316.333 182.89 316.64 184.224 316.64ZM206.999 318.4C204.039 318.4 201.879 317.987 200.519 317.16C199.186 316.307 198.519 315.24 198.519 313.96C198.519 313.16 198.746 312.52 199.199 312.04C199.679 311.533 200.306 311.28 201.079 311.28C201.586 311.28 202.039 311.413 202.439 311.68C202.839 311.947 203.119 312.32 203.279 312.8C202.826 313.333 202.599 313.893 202.599 314.48C202.599 315.387 202.999 316.147 203.799 316.76C204.626 317.347 205.692 317.64 206.999 317.64C208.599 317.64 209.879 317.227 210.839 316.4C211.826 315.547 212.319 314.307 212.319 312.68V312.16C212.319 310.693 211.772 309.573 210.679 308.8C209.612 308 208.279 307.6 206.679 307.6H204.439V306.64H206.679C208.199 306.64 209.359 306.28 210.159 305.56C210.959 304.813 211.359 303.733 211.359 302.32V302.16C211.359 299.173 209.946 297.68 207.119 297.68C205.599 297.68 204.199 298.053 202.919 298.8L200.519 304.52H199.679L200.119 296.92L202.519 298.08C204.012 297.307 205.572 296.92 207.199 296.92C210.186 296.92 212.346 297.36 213.679 298.24C215.012 299.093 215.679 300.387 215.679 302.12C215.679 303.373 215.212 304.413 214.279 305.24C213.372 306.067 211.999 306.627 210.159 306.92V306.96C212.319 307.173 213.932 307.747 214.999 308.68C216.092 309.613 216.639 310.853 216.639 312.4C216.639 314.293 215.839 315.773 214.239 316.84C212.639 317.88 210.226 318.4 206.999 318.4ZM221.342 318.4C220.409 318.4 219.676 318.173 219.142 317.72C218.609 317.267 218.342 316.6 218.342 315.72C218.342 314.973 218.569 314.387 219.022 313.96C219.476 313.533 220.022 313.32 220.662 313.32C221.089 313.32 221.449 313.413 221.742 313.6C222.036 313.76 222.249 313.933 222.382 314.12C222.542 314.307 222.636 314.427 222.662 314.48C222.316 314.8 222.142 315.147 222.142 315.52C222.142 315.947 222.409 316.16 222.942 316.16C224.756 316.16 225.862 312.293 226.262 304.56L226.502 299.8L222.862 298.08V297.28H240.822V298.08L238.022 298.48L238.022 316.76L240.902 317.16V318H231.542V317.16L234.022 316.76L234.022 298.28H227.542L227.222 304.6C227.062 307.827 226.756 310.44 226.302 312.44C225.876 314.44 225.262 315.933 224.462 316.92C223.662 317.907 222.622 318.4 221.342 318.4ZM243.08 318V317.2L245.88 316.8L245.88 298.48L243.08 298.08V297.28H252.28V298.08L249.88 298.48L249.88 314.04L260 299.28V298.48L257.6 298.08V297.28H266.8V298.08L264 298.48V316.8L266.8 317.2V318H257.6V317.2L260 316.8V300.96L249.88 315.76V316.8L252.28 317.2V318H243.08ZM280.378 317.2L284.378 316.8V309.04C283.658 309.413 282.738 309.747 281.618 310.04C280.525 310.333 279.272 310.48 277.858 310.48C275.672 310.48 273.965 310.027 272.738 309.12C271.538 308.213 270.938 306.747 270.938 304.72V298.48L268.138 298.08V297.28H277.338V298.08L274.938 298.48V304.72C274.938 306.213 275.245 307.347 275.858 308.12C276.472 308.893 277.485 309.28 278.898 309.28C280.125 309.28 281.192 309.147 282.098 308.88C283.032 308.613 283.792 308.307 284.378 307.96V298.48L281.978 298.08V297.28H291.178V298.08L288.378 298.48V316.8L291.178 317.2V318H280.378V317.2ZM293.353 318V317.2L296.153 316.8V298.48L293.353 298.08V297.28H302.553V298.08L300.153 298.48V307L310.033 307V298.48L307.633 298.08V297.28L316.833 297.28V298.08L314.033 298.48V316.8L316.833 317.2V318L307.633 318V317.2L310.033 316.8V308L300.153 308V316.8L302.553 317.2V318H293.353ZM318.978 317.2L321.778 316.8V298.48L318.978 298.08V297.28H328.578V298.08L325.778 298.48V306H330.818C333.245 306 335.138 306.507 336.498 307.52C337.858 308.533 338.538 310.027 338.538 312C338.538 313.973 337.858 315.467 336.498 316.48C335.138 317.493 333.245 318 330.818 318H318.978V317.2ZM339.018 318V317.2L341.818 316.8V298.48L339.018 298.08V297.28H348.618V298.08L345.818 298.48V316.8L348.618 317.2V318H339.018ZM329.618 317C331.085 317 332.218 316.573 333.018 315.72C333.818 314.867 334.218 313.64 334.218 312.04V311.96C334.218 310.36 333.818 309.133 333.018 308.28C332.218 307.427 331.085 307 329.618 307H325.778V317H329.618ZM370.335 316.84L372.895 317.2V318H363.135V317.2L365.535 316.8L360.015 309.24L354.135 316.28L357.375 317.2V318H350.215V317.2L352.895 316.2L359.375 308.32L352.175 298.44L349.735 298.08V297.28H359.495V298.08L356.975 298.52L361.975 305.36L367.335 299.04L364.175 298.12V297.32H371.535V298.12L368.615 299.16L362.615 306.28L370.335 316.84ZM90.44 373.4C89.7733 373.4 89.0933 373.253 88.4 372.96C87.7067 372.64 87.1067 372.187 86.6 371.6L87.2 371C87.68 371.48 88.1467 371.72 88.6 371.72C89 371.72 89.2933 371.573 89.48 371.28C89.6933 370.987 89.8933 370.4 90.08 369.52L90.52 367.2C90.76 365.893 91.2 364.92 91.84 364.28C92.48 363.64 93.52 363.213 94.96 363V362.8C93.5467 362.56 92.3867 362.04 91.48 361.24C90.6 360.44 90.16 359.267 90.16 357.72C90.16 355.933 90.76 354.587 91.96 353.68C93.16 352.747 95.1067 352.28 97.8 352.28H109.24V353.12L106.36 353.52V371.76L109.24 372.2V373H99.48V372.2L102.36 371.76V363.48H98.68C97.5333 363.48 96.64 363.733 96 364.24C95.3867 364.747 94.9867 365.587 94.8 366.76L94.2 370.16C93.9867 371.333 93.6 372.173 93.04 372.68C92.48 373.16 91.6133 373.4 90.44 373.4ZM102.36 362.48V353.28H99C97.4533 353.28 96.3067 353.627 95.56 354.32C94.84 355.013 94.48 356.12 94.48 357.64V358.16C94.48 359.653 94.8533 360.747 95.6 361.44C96.3467 362.133 97.3733 362.48 98.68 362.48H102.36ZM120.28 373.4C117.32 373.4 115.16 372.987 113.8 372.16C112.467 371.307 111.8 370.24 111.8 368.96C111.8 368.16 112.027 367.52 112.48 367.04C112.96 366.533 113.587 366.28 114.36 366.28C114.867 366.28 115.32 366.413 115.72 366.68C116.12 366.947 116.4 367.32 116.56 367.8C116.107 368.333 115.88 368.893 115.88 369.48C115.88 370.387 116.28 371.147 117.08 371.76C117.907 372.347 118.974 372.64 120.28 372.64C121.88 372.64 123.16 372.227 124.12 371.4C125.107 370.547 125.6 369.307 125.6 367.68V367.16C125.6 365.693 125.054 364.573 123.96 363.8C122.894 363 121.56 362.6 119.96 362.6H117.72V361.64H119.96C121.48 361.64 122.64 361.28 123.44 360.56C124.24 359.813 124.64 358.733 124.64 357.32V357.16C124.64 354.173 123.227 352.68 120.4 352.68C118.88 352.68 117.48 353.053 116.2 353.8L113.8 359.52H112.96L113.4 351.92L115.8 353.08C117.294 352.307 118.854 351.92 120.48 351.92C123.467 351.92 125.627 352.36 126.96 353.24C128.294 354.093 128.96 355.387 128.96 357.12C128.96 358.373 128.494 359.413 127.56 360.24C126.654 361.067 125.28 361.627 123.44 361.92V361.96C125.6 362.173 127.214 362.747 128.28 363.68C129.374 364.613 129.92 365.853 129.92 367.4C129.92 369.293 129.12 370.773 127.52 371.84C125.92 372.88 123.507 373.4 120.28 373.4ZM132.689 372.2L135.489 371.8V353.48L132.689 353.08V352.28H142.289V353.08L139.489 353.48V361H144.529C146.956 361 148.849 361.507 150.209 362.52C151.569 363.533 152.249 365.027 152.249 367C152.249 368.973 151.569 370.467 150.209 371.48C148.849 372.493 146.956 373 144.529 373H132.689V372.2ZM152.729 373V372.2L155.529 371.8L155.529 353.48L152.729 353.08V352.28H162.329V353.08L159.529 353.48L159.529 371.8L162.329 372.2V373H152.729ZM143.329 372C144.796 372 145.929 371.573 146.729 370.72C147.529 369.867 147.929 368.64 147.929 367.04V366.96C147.929 365.36 147.529 364.133 146.729 363.28C145.929 362.427 144.796 362 143.329 362H139.489V372H143.329ZM183.126 373.4C181.953 373.4 181.086 373.16 180.526 372.68C179.966 372.173 179.58 371.333 179.366 370.16L178.566 365.92C178.326 364.667 177.926 363.787 177.366 363.28C176.806 362.773 176.046 362.507 175.086 362.48H171.366V371.76L174.246 372.2V373H164.486V372.2L167.366 371.76L167.366 353.52L164.486 353.12V352.28H174.246V353.12L171.366 353.52L171.366 361.56H175.126C175.793 361.507 176.326 361.28 176.726 360.88C177.126 360.453 177.46 359.733 177.726 358.72L178.446 355.84C178.766 354.533 179.193 353.56 179.726 352.92C180.286 352.253 181.14 351.92 182.286 351.92C183.246 351.92 183.993 352.187 184.526 352.72C185.06 353.227 185.326 353.853 185.326 354.6C185.326 355.293 185.1 355.893 184.646 356.4C184.22 356.88 183.633 357.12 182.886 357.12C182.486 357.12 182.1 357.053 181.726 356.92C181.806 356.68 181.846 356.453 181.846 356.24C181.846 355.893 181.74 355.6 181.526 355.36C181.313 355.12 181.046 355 180.726 355C180.086 355 179.66 355.373 179.446 356.12L178.686 359C178.34 360.253 177.886 361.133 177.326 361.64C179.086 361.8 180.366 362.227 181.166 362.92C181.993 363.613 182.54 364.667 182.806 366.08L183.486 369.52C183.673 370.4 183.86 370.987 184.046 371.28C184.26 371.573 184.566 371.72 184.966 371.72C185.42 371.72 185.886 371.48 186.366 371L186.966 371.6C186.46 372.187 185.86 372.64 185.166 372.96C184.473 373.253 183.793 373.4 183.126 373.4ZM198.846 373.4C196.926 373.4 195.179 372.96 193.606 372.08C192.032 371.173 190.779 369.907 189.846 368.28C188.939 366.627 188.486 364.747 188.486 362.64C188.486 360.533 188.939 358.667 189.846 357.04C190.779 355.413 192.032 354.16 193.606 353.28C195.179 352.373 196.926 351.92 198.846 351.92C200.766 351.92 202.512 352.373 204.086 353.28C205.659 354.16 206.899 355.413 207.806 357.04C208.739 358.667 209.206 360.533 209.206 362.64C209.206 364.747 208.739 366.627 207.806 368.28C206.899 369.907 205.659 371.173 204.086 372.08C202.512 372.96 200.766 373.4 198.846 373.4ZM198.846 372.52C200.819 372.52 202.299 371.8 203.286 370.36C204.299 368.92 204.806 367.013 204.806 364.64V360.64C204.806 358.267 204.299 356.373 203.286 354.96C202.299 353.52 200.819 352.8 198.846 352.8C196.872 352.8 195.379 353.52 194.366 354.96C193.379 356.373 192.886 358.267 192.886 360.64V364.64C192.886 367.013 193.379 368.92 194.366 370.36C195.379 371.8 196.872 372.52 198.846 372.52ZM211.986 372.2L214.786 371.8L214.786 353.48L211.986 353.08V352.28H222.946C225.693 352.28 227.653 352.667 228.826 353.44C230 354.187 230.586 355.413 230.586 357.12C230.586 359.6 229.013 361.187 225.866 361.88V362C229.92 362.56 231.946 364.36 231.946 367.4C231.946 369.267 231.266 370.667 229.906 371.6C228.546 372.533 226.653 373 224.226 373H211.986V372.2ZM221.986 361.64C223.373 361.64 224.426 361.28 225.146 360.56C225.893 359.84 226.266 358.76 226.266 357.32V357.16C226.266 355.853 225.893 354.88 225.146 354.24C224.4 353.6 223.266 353.28 221.746 353.28H218.786V361.64H221.986ZM223.026 372C224.493 372 225.626 371.613 226.426 370.84C227.226 370.067 227.626 368.933 227.626 367.44V367.16C227.626 365.64 227.226 364.507 226.426 363.76C225.653 362.987 224.52 362.6 223.026 362.6H218.786V372H223.026Z" fill="#F5F5F5"/>
</svg>
