<svg width="345" height="1075" viewBox="0 0 345 1075" fill="none" xmlns="http://www.w3.org/2000/svg">
<path d="M102.6 220.16L106.28 219.56V190.44L102.6 189.88V189H115.16C119.107 189 122.04 189.84 123.96 191.52C125.88 193.2 126.84 195.627 126.84 198.8C126.84 201.973 125.88 204.4 123.96 206.08C122.04 207.76 119.107 208.6 115.16 208.6H110.68V219.56L114.36 220.16V221H102.6V220.16ZM114.6 207.64C119.533 207.64 122 204.96 122 199.6V198C122 192.667 119.533 190 114.6 190H110.68V207.64H114.6ZM153.184 221.4C151.69 221.4 150.57 221.04 149.824 220.32C149.077 219.6 148.57 218.373 148.304 216.64L147.544 211.28C147.277 209.467 146.65 208.053 145.664 207.04C144.704 206 143.197 205.48 141.144 205.48H138.024V219.56L141.704 220.16V221H129.944V220.16L133.624 219.56V190.44L129.944 189.88V189H141.144C145.49 189 148.637 189.68 150.584 191.04C152.53 192.4 153.504 194.467 153.504 197.24C153.504 201.827 150.73 204.48 145.184 205.2V205.44C147.237 205.733 148.877 206.467 150.104 207.64C151.357 208.813 152.144 210.373 152.464 212.32L152.984 215.76C153.197 217.253 153.437 218.267 153.704 218.8C153.997 219.333 154.437 219.6 155.024 219.6C155.424 219.6 155.85 219.48 156.304 219.24C156.757 218.973 157.184 218.64 157.584 218.24L158.264 218.96C157.49 219.84 156.69 220.467 155.864 220.84C155.037 221.213 154.144 221.4 153.184 221.4ZM142.504 204.52C144.45 204.52 145.957 203.933 147.024 202.76C148.117 201.56 148.664 199.8 148.664 197.48V196.64C148.664 192.213 146.157 190 141.144 190H138.024V204.52H142.504ZM156.286 221V220.16L160.206 218.56L171.766 188.2H172.406L183.326 219.56L187.006 220.16V221H175.246V220.16L178.526 219.64L175.126 210.16H164.486L161.246 218.56L164.846 220.16V221H156.286ZM164.806 209.32H174.846L170.046 195.24L164.806 209.32ZM191.464 221V220.16L195.144 219.56V190H188.544L185.504 197.92H184.344V189H210.384V197.92H209.184L206.184 190H199.544V219.56L203.224 220.16V221H191.464ZM207.419 221V220.16L211.339 218.56L222.899 188.2H223.539L234.459 219.56L238.139 220.16V221H226.379V220.16L229.659 219.64L226.259 210.16H215.619L212.379 218.56L215.979 220.16V221H207.419ZM215.939 209.32H225.979L221.179 195.24L215.939 209.32Z" fill="#DF3838"/>
<path d="M40.0031 12.1729C44.9037 8.69265 49.728 5.30442 54.5097 1.85762C58.2129 -0.802778 61.848 -0.484869 65.3982 2.04167C70.0866 5.37971 74.6985 8.80978 79.2764 12.1478C83.4721 9.13605 87.7273 6.17448 91.8721 3.07905C96.1357 -0.100032 100.518 -0.0665681 104.867 2.60219C109.87 5.68089 114.719 9.01056 119.79 12.3402C123.314 9.64638 127.026 6.89396 130.644 4.04115C135.579 0.142583 140.471 -0.233888 145.627 3.67304C149.534 6.63461 153.585 9.40376 157.823 12.4406C161.722 9.3703 165.679 6.06572 169.841 3.02886C175.277 -0.945 177.069 -0.90317 182.641 2.9201C184.84 4.42598 186.921 6.10755 189.028 7.75566C191.007 9.30337 192.943 10.918 194.973 12.5578C199.576 9.03566 204.129 5.77291 208.418 2.20062C211.798 -0.610359 214.949 -0.443039 218.313 1.96637C222.755 5.14546 227.205 8.31618 231.826 11.6208C235.775 8.56716 239.877 5.63069 243.691 2.37631C247.462 -0.827876 251.004 -0.551797 254.724 2.24245C259.106 5.5303 263.489 8.80978 267.982 12.1729C272.135 8.99383 276.45 5.88167 280.544 2.5018C284.264 -0.568529 287.814 -0.551797 291.585 2.24245C296.095 5.58049 300.647 8.86834 305.09 12.106C309.99 8.55043 314.891 5.05343 319.715 1.44768C322.221 -0.426307 324.633 -0.376111 327.028 1.46441C331.92 5.22076 336.872 8.91854 341.552 12.9091C342.588 13.7876 343.055 15.8038 343.063 17.3013C343.31 69.3045 343.556 121.316 343.615 173.319C343.785 333.102 343.802 492.884 344.023 652.667C344.201 785.954 344.541 919.242 345 1052.54C345.017 1058.25 343.743 1062.41 338.902 1065.64C335.878 1067.65 333.254 1070.26 330.408 1072.55C327.198 1075.14 323.8 1075.42 320.31 1073.13C315.273 1069.81 310.262 1066.46 305.183 1063.08C301.047 1066.03 296.732 1069.14 292.383 1072.21C288.714 1074.8 284.943 1074.59 281.351 1072.16C277.18 1069.34 273.154 1066.32 268.942 1063.32C265.162 1066.13 261.23 1069.04 257.306 1071.97C252.533 1075.54 247.768 1075.59 242.986 1072.01C239.181 1069.14 235.367 1066.29 231.792 1063.6C227.052 1066.66 222.356 1069.69 217.659 1072.72C214.457 1074.78 211.255 1074.6 208.18 1072.52C203.781 1069.53 199.441 1066.46 194.88 1063.29C190.395 1066.27 185.596 1069.39 180.9 1072.64C178.258 1074.47 175.574 1074.56 172.992 1072.96C167.633 1069.64 162.409 1066.12 156.94 1062.57C153.296 1065.22 149.27 1068.01 145.406 1071C140.514 1074.8 135.664 1074.9 130.687 1071.3C126.729 1068.43 122.779 1065.55 119 1062.79C114.286 1066.05 109.504 1069.21 104.892 1072.61C100.196 1076.07 95.7196 1075.6 91.3115 1072.31C87.3876 1069.37 83.5656 1066.31 79.6246 1063.24C75.5053 1066.11 71.3946 1069.01 67.2583 1071.85C62.4256 1075.18 57.4569 1075.2 52.6752 1071.91C48.5134 1069.05 44.5555 1065.89 40.4362 1062.8C35.1534 1066.07 29.6751 1069.38 24.2988 1072.83C21.2412 1074.79 18.4384 1074.6 15.746 1072.36C11.3295 1068.69 6.72607 1065.19 2.7172 1061.12C1.1884 1059.56 0.432485 1056.65 0.423992 1054.35C0.194671 979.736 -0.0686232 905.137 0.0163105 830.545C0.271111 619.312 0.704273 408.078 0.993047 196.844C1.07798 137.872 0.959074 78.8919 0.831674 19.9198C0.831674 16.8495 1.59608 14.6325 4.08463 12.7418C8.55214 9.35357 12.9262 5.83147 17.1814 2.18389C19.67 0.0505563 22.1925 0.293171 24.5706 1.80742C29.7686 5.112 34.7966 8.65919 40.0031 12.1729ZM5.70687 53.1915C5.2737 376.044 4.84054 698.345 4.40738 1020.45H340.481C339.904 697.76 339.326 375.568 338.757 53.1915H5.70687ZM4.80657 1025.74C4.80657 1032.61 5.70687 1039.29 4.61122 1045.63C2.65775 1056.85 8.74749 1062.95 17.1559 1068.17C17.2748 1068.25 17.3768 1068.4 17.4957 1068.41C19.2453 1068.53 21.4196 1069.34 22.6851 1068.63C27.6792 1065.78 32.5629 1062.68 37.1408 1059.22C39.8672 1057.16 41.7357 1057.53 44.0714 1059.5C47.6131 1062.48 51.2908 1065.3 54.9429 1068.15C57.9496 1070.49 61.0921 1070.77 64.2601 1068.45C68.2265 1065.56 72.3203 1062.8 76.0489 1059.65C78.4525 1057.62 80.0578 1056.93 82.6822 1059.46C86.0966 1062.76 90.0885 1065.47 93.7661 1068.51C96.9256 1071.13 100.026 1071.24 103.304 1068.73C107.542 1065.49 111.925 1062.43 116.087 1059.1C118.371 1057.26 119.994 1057.37 122.253 1059.26C126.228 1062.59 130.398 1065.73 134.789 1068.46C136.19 1069.33 139.019 1069.4 140.437 1068.57C145.032 1065.88 149.432 1062.8 153.593 1059.5C156.6 1057.11 158.834 1057.36 161.637 1059.76C165.034 1062.67 168.873 1065.08 172.381 1067.87C175.277 1070.18 177.944 1069.82 180.747 1067.82C184.628 1065.05 188.696 1062.49 192.4 1059.51C194.837 1057.56 196.323 1057.99 198.506 1059.91C202.073 1063.04 205.87 1066.02 209.921 1068.47C211.442 1069.4 214.38 1069.45 215.969 1068.61C219.791 1066.58 223.315 1063.95 226.738 1061.28C231.8 1057.33 231.639 1057.32 236.404 1061.37C239.495 1064 242.867 1066.32 246.103 1068.78C248.812 1070.83 251.445 1070.75 254.112 1068.64C257.968 1065.6 261.926 1062.68 265.74 1059.58C267.982 1057.77 269.63 1057.25 272.161 1059.61C275.728 1062.93 279.779 1065.83 283.941 1068.41C285.325 1069.26 288.179 1069.29 289.538 1068.44C293.921 1065.69 298.04 1062.48 302.032 1059.19C304.334 1057.28 305.93 1057.53 308.181 1059.3C312.7 1062.83 317.413 1066.15 322.238 1069.27C323.376 1070.01 325.779 1070.31 326.714 1069.63C331.249 1066.33 335.496 1062.65 339.785 1059.04C340.244 1058.65 340.507 1057.82 340.507 1057.19C340.549 1046.77 340.541 1036.37 340.541 1025.75H4.80657V1025.74ZM338.723 48.1217C338.723 37.7144 338.783 27.8257 338.647 17.9287C338.63 16.7324 337.925 15.1763 336.999 14.4317C333.398 11.5287 329.542 8.94363 325.864 6.13265C324.115 4.79409 322.688 4.97814 321.04 6.26651C316.946 9.45396 312.666 12.4239 308.665 15.7201C306.262 17.6945 304.393 17.6945 301.972 15.7703C297.692 12.3737 293.326 9.04403 288.714 6.11592C287.517 5.35461 284.85 5.53866 283.601 6.3669C279.397 9.15278 275.371 12.2566 271.583 15.5779C269.044 17.8116 267.116 17.7698 264.602 15.695C260.712 12.4825 256.558 9.57108 252.617 6.40873C250.222 4.48455 248.116 4.73553 245.874 6.59278C242.196 9.63801 238.4 12.5327 234.773 15.6364C232.565 17.5272 230.925 17.569 228.615 15.5361C224.836 12.2147 220.64 9.3452 216.623 6.28324C214.567 4.71043 212.665 4.6937 210.601 6.42546C206.94 9.48742 203.042 12.2649 199.449 15.4022C196.629 17.8618 194.26 18.0291 191.304 15.5361C187.346 12.198 183.057 9.25318 178.946 6.08246C177.086 4.65187 175.498 4.80245 173.697 6.27487C169.901 9.37867 165.688 12.0391 162.189 15.4273C159.292 18.2383 157.254 18.7235 154.086 15.8791C150.663 12.8004 146.714 10.2906 142.994 7.52141C139.749 5.112 136.598 5.14546 133.43 7.70546C130.16 10.3575 126.72 12.8255 123.561 15.5863C120.919 17.8953 118.805 18.2048 115.84 15.8038C111.713 12.4657 107.177 9.60455 102.676 6.75174C99.9917 5.05343 97.1634 4.96977 94.4286 7.08638C90.3348 10.2655 86.0456 13.2019 82.0113 16.448C80.0323 18.0459 78.6479 18.2885 76.5755 16.5149C72.5327 13.0513 68.2095 9.89736 64.0223 6.60115C61.194 4.37579 58.3657 4.48455 55.5799 6.60115C51.6645 9.57108 47.6811 12.4657 43.944 15.6364C40.9543 18.1714 38.6441 18.2634 35.595 15.4608C32.0023 12.1645 27.8915 9.36193 23.7892 6.66808C22.6766 5.94023 20.29 5.70598 19.3132 6.392C14.8372 9.52925 10.6415 13.0597 6.40332 16.5149C5.94468 16.883 5.68139 17.728 5.67289 18.347C5.63042 28.2022 5.63892 38.0574 5.63892 48.0966H338.723V48.1217Z" fill="#DF3838"/>
<path d="M5.29923 53.2568H338.276C338.854 375.723 339.431 697.989 340 1020.76H4C4.43308 698.566 4.86615 376.192 5.29923 53.2568ZM314.618 598.241C314.618 556.542 314.618 514.844 314.618 473.145C314.618 433.539 314.635 393.932 314.601 354.326C314.601 342.585 308.564 333.222 298.611 330.301C294.765 329.171 290.536 328.954 286.477 328.954C209.907 328.837 133.329 328.812 56.759 328.778C40.9389 328.778 31.8188 337.757 31.8104 353.498C31.7934 515.271 31.7934 677.044 31.8613 838.817C31.8613 841.678 32.4133 844.649 33.3049 847.386C37.5083 860.264 46.3991 865.896 62.3805 865.921C112.346 865.98 162.302 865.996 212.268 866.021C236.613 866.03 260.959 865.754 285.305 866.105C302.696 866.356 315.017 854.214 314.882 837.151C314.287 757.52 314.618 677.889 314.61 598.257L314.618 598.241ZM173.512 288.887C191.395 289.029 209.041 287.163 226.355 282.695C249.529 276.711 270.665 267.063 287.428 249.624C308.173 228.059 312.606 198.201 292.081 172.854C281.322 159.574 267.6 150.202 251.839 143.825C208.149 126.16 163.355 124.001 117.882 135.867C95.3708 141.742 74.7444 151.373 58.3045 168.269C37.3894 189.758 35.258 217.716 52.683 241.967C60.9454 253.465 71.9167 261.925 84.2636 268.636C112.032 283.741 142.169 288.996 173.503 288.879L173.512 288.887Z" fill="#F5F5F5"/>
<path d="M4.53621 1025.7H339.999C339.999 1036.21 340.008 1046.53 339.965 1056.85C339.965 1057.47 339.694 1058.3 339.244 1058.68C334.959 1062.26 330.707 1065.9 326.184 1069.17C325.251 1069.84 322.849 1069.54 321.712 1068.81C316.892 1065.72 312.191 1062.43 307.668 1058.93C305.419 1057.19 303.824 1056.94 301.524 1058.83C297.536 1062.09 293.42 1065.27 289.042 1067.99C287.675 1068.84 284.833 1068.81 283.45 1067.96C279.291 1065.41 275.244 1062.53 271.68 1059.24C269.151 1056.91 267.505 1057.42 265.264 1059.22C261.454 1062.28 257.5 1065.17 253.647 1068.19C250.983 1070.29 248.352 1070.36 245.645 1068.33C242.403 1065.89 239.043 1063.59 235.954 1060.99C231.194 1056.98 231.355 1056.99 226.297 1060.9C222.877 1063.54 219.356 1066.15 215.537 1068.16C213.95 1069 211.014 1068.94 209.495 1068.03C205.439 1065.59 201.654 1062.64 198.09 1059.54C195.909 1057.64 194.416 1057.21 191.989 1059.15C188.289 1062.11 184.224 1064.64 180.346 1067.38C177.554 1069.36 174.89 1069.71 171.988 1067.43C168.483 1064.66 164.647 1062.27 161.253 1059.39C158.453 1057.01 156.221 1056.77 153.217 1059.13C149.05 1062.41 144.655 1065.46 140.072 1068.12C138.655 1068.94 135.829 1068.87 134.429 1068.01C130.034 1065.3 125.867 1062.18 121.904 1058.9C119.647 1057.03 118.026 1056.92 115.743 1058.74C111.594 1062.04 107.207 1065.07 102.972 1068.28C99.6967 1070.75 96.6078 1070.65 93.4426 1068.06C89.7682 1065.04 85.7799 1062.37 82.3685 1059.1C79.7464 1056.59 78.1426 1057.26 75.7411 1059.28C72.0073 1062.42 67.9256 1065.14 63.9627 1068C60.7975 1070.29 57.6577 1070.02 54.6537 1067.7C51.0048 1064.89 47.3219 1062.08 43.7918 1059.13C41.4582 1057.19 39.5913 1056.82 36.8673 1058.86C32.2935 1062.28 27.4141 1065.36 22.4244 1068.18C21.16 1068.89 18.9961 1068.08 17.2395 1067.96C17.1207 1067.95 17.0189 1067.8 16.9001 1067.73C8.4991 1062.56 2.41474 1056.51 4.36649 1045.39C5.46965 1039.11 4.56166 1032.49 4.56166 1025.69L4.53621 1025.7Z" fill="#F5F5F5"/>
<path d="M337.982 48.3004H6.00271C6.00271 38.2041 5.98578 28.2928 6.03657 18.3816C6.03657 17.7506 6.30746 16.9092 6.76459 16.539C10.9888 13.0642 15.1707 9.52208 19.632 6.35857C20.6055 5.66865 22.9843 5.90423 24.0933 6.63622C28.182 9.3454 32.2793 12.164 35.8601 15.4789C38.8992 18.2975 41.1933 18.1965 44.1816 15.6556C47.9149 12.4668 51.8851 9.55574 55.7792 6.56891C58.5559 4.44026 61.3833 4.33089 64.1938 6.56891C68.3672 9.88387 72.6761 13.0558 76.7057 16.539C78.7712 18.3227 80.1511 18.0787 82.1235 16.4717C86.1446 13.2072 90.4196 10.2541 94.4999 7.0569C97.2258 4.92825 100.036 5.00398 102.72 6.72035C107.206 9.58939 111.727 12.4753 115.841 15.8239C118.796 18.2302 120.903 17.9189 123.536 15.6051C126.694 12.8202 130.114 10.3466 133.373 7.6795C136.531 5.09653 139.671 5.06287 142.905 7.49441C146.613 10.2793 150.549 12.8034 153.961 15.8996C157.118 18.7602 159.15 18.2722 162.037 15.4453C165.525 12.0378 169.715 9.35381 173.507 6.24078C175.311 4.75998 176.894 4.60854 178.739 6.04726C182.836 9.22761 187.111 12.1976 191.056 15.5546C194.002 18.0619 196.364 17.8936 199.174 15.42C202.755 12.2733 206.641 9.4716 210.29 6.39222C212.347 4.6506 214.243 4.66743 216.291 6.24919C220.296 9.33699 224.469 12.2144 228.245 15.5546C230.547 17.5991 232.189 17.5571 234.382 15.6556C237.988 12.5342 241.781 9.61463 245.446 6.56049C247.681 4.69267 249.781 4.44026 252.168 6.37539C256.096 9.55574 260.227 12.4837 264.112 15.7145C266.618 17.8011 268.548 17.8431 271.071 15.5967C274.838 12.2565 278.859 9.13506 283.05 6.33333C284.294 5.50038 286.952 5.30687 288.146 6.08092C292.742 9.02568 297.094 12.3743 301.36 15.7902C303.773 17.7169 305.644 17.7254 308.031 15.7397C312.018 12.4248 316.285 9.43795 320.365 6.23236C322.016 4.93667 323.43 4.75157 325.173 6.09775C328.83 8.93313 332.682 11.5329 336.272 14.444C337.194 15.1929 337.897 16.7578 337.914 17.9609C338.041 27.9058 337.99 37.8591 337.99 48.3256L337.982 48.3004Z" fill="#F5F5F5"/>
<path d="M314.736 597.982C314.736 677.638 314.405 757.294 314.999 836.951C315.126 854.019 302.808 866.165 285.431 865.914C261.101 865.562 236.753 865.847 212.415 865.83C162.464 865.805 112.522 865.788 62.5708 865.729C46.594 865.713 37.7057 860.079 33.5035 847.188C32.6122 844.451 32.0604 841.479 32.0604 838.617C31.9925 676.793 31.9925 514.969 32.0094 353.145C32.0094 337.399 41.1354 328.409 56.9509 328.417C133.499 328.459 210.055 328.484 286.602 328.593C290.66 328.593 294.888 328.811 298.734 329.941C308.683 332.871 314.71 342.238 314.719 353.973C314.744 393.592 314.736 433.211 314.736 472.83C314.736 514.542 314.736 556.253 314.736 597.965V597.982ZM60.2702 333.465V860.674H71.459V333.465H60.2702ZM166.573 860.816V333.423H156.148V860.816H166.573ZM230.038 333.49V860.766H239.309V333.49H230.038ZM265.99 860.841V333.566H257.391V860.841H265.99ZM243.944 333.406V860.807H252.866V333.406H243.944ZM87.4104 333.381V860.724H95.4073V333.381H87.4104ZM217.423 333.432V860.849H225.335V333.432H217.423ZM45.2017 857.375V335.993C43.02 337.374 41.0081 338.914 40.4732 340.856C38.9791 346.272 37.12 351.856 37.1115 357.38C36.9417 518.225 37.0011 679.069 36.9587 839.914C36.9587 846.962 39.446 852.612 45.2017 857.375ZM270.116 333.482V860.715H277.247V333.482H270.116ZM129.373 860.958V333.507H122.259V860.958H129.373ZM200.81 860.866V333.507H193.67V860.858H200.81V860.866ZM289.03 860.9V333.599H282.086V860.9H289.03ZM188.84 860.858V333.499H181.701V860.858H188.84ZM100.484 333.365V860.874H107.224V333.365H100.484ZM76.3404 333.34V860.581H82.7158V333.34H76.3404ZM145.163 333.39V860.807H151.088V333.39H145.163ZM206.039 333.432V860.874H212.644V333.44H206.039V333.432ZM171.318 333.448V860.774H177.498V333.457H171.318V333.448ZM293.742 860.607C299.616 859.702 300.177 859.008 300.185 852.847C300.202 681.572 300.219 510.289 300.236 339.015C300.236 333.792 299.71 333.34 293.742 333.599V860.607ZM55.5926 332.594C53.1222 334.135 49.3275 331.716 49.3275 336.788C49.4294 432.743 49.4039 528.697 49.4209 624.659C49.4379 701.512 49.4803 778.355 49.5228 855.207C49.5228 860.858 49.8454 861.1 55.5841 860.59V332.594H55.5926ZM139.798 860.95V333.49H134.135V860.95H139.798ZM111.97 333.331V860.807H117.556V333.331H111.97ZM303.946 855.224C309.09 850.746 309.812 845.296 309.804 839.428C309.744 725.201 309.744 610.965 309.727 496.737C309.727 448.622 309.685 400.498 309.693 352.383C309.693 346.95 308.292 342.112 303.946 337.583V855.216V855.224Z" fill="#DF3838"/>
<path d="M173.309 288.952C142.028 289.069 111.942 283.804 84.2211 268.67C71.8865 261.938 60.9423 253.47 52.6938 241.95C35.2983 217.652 37.4261 189.641 58.3058 168.11C74.718 151.182 95.3094 141.532 117.783 135.646C163.187 123.757 207.897 125.921 251.513 143.62C267.247 150.008 280.955 159.399 291.687 172.705C312.177 198.1 307.752 228.015 287.041 249.621C270.299 267.086 249.199 276.761 226.072 282.756C208.779 287.233 191.171 289.103 173.318 288.96L173.309 288.952ZM174.2 283.946C190.68 284.248 208.262 282.219 225.538 277.734C247.546 272.016 267.628 262.768 283.659 246.251C304.369 224.913 305.709 197.949 287.126 174.851C276.462 161.595 262.398 152.893 246.715 146.873C205.498 131.052 163.323 129.207 120.631 139.972C98.3782 145.582 77.9648 154.88 61.6374 171.539C42.4786 191.083 40.461 217.426 56.8223 239.2C65.4692 250.711 76.744 259.238 89.5618 265.795C115.68 279.142 143.681 284.148 174.208 283.938L174.2 283.946Z" fill="#DF3838"/>
<path d="M60 333.349H72V860.986H60V333.349Z" fill="#F5F5F5"/>
<path d="M167 860.986H156V333.349H167V860.986Z" fill="#F5F5F5"/>
<path d="M230 333.349H239V860.986H230V333.349Z" fill="#F5F5F5"/>
<path d="M266 860.986H257V333.349H266V860.986Z" fill="#F5F5F5"/>
<path d="M244 333.349H253V860.986H244V333.349Z" fill="#F5F5F5"/>
<path d="M88 333.349H96V860.986H88V333.349Z" fill="#F5F5F5"/>
<path d="M217 333.349H225V860.986H217V333.349Z" fill="#F5F5F5"/>
<path d="M45 857.041C39.414 852.284 36.9918 846.641 37 839.602C37.0412 678.957 36.9918 518.313 37.1483 357.668C37.1483 352.159 38.9609 346.582 40.4109 341.165C40.93 339.234 42.8826 337.687 45 336.307V857.033V857.041Z" fill="#F5F5F5"/>
<path d="M270 333.349H277V860.986H270V333.349Z" fill="#F5F5F5"/>
<path d="M129 860.986H122V333.349H129V860.986Z" fill="#F5F5F5"/>
<path d="M201 860.986H194V333.349H201V860.978V860.986Z" fill="#F5F5F5"/>
<path d="M289 860.986H282V333.349H289V860.986Z" fill="#F5F5F5"/>
<path d="M189 860.986H182V333.349H189V860.986Z" fill="#F5F5F5"/>
<path d="M101 333.349H107V860.986H101V333.349Z" fill="#F5F5F5"/>
<path d="M76 333.349H83V860H76V333.349Z" fill="#F5F5F5"/>
<path d="M145 333.349H151V860.986H145V333.349Z" fill="#F5F5F5"/>
<path d="M206 333.349H213V860.986H206V333.349Z" fill="#F5F5F5"/>
<path d="M171 333.349H178V860.986H171V333.349Z" fill="#F5F5F5"/>
<path d="M294 860V333.408C299.514 333.14 300 333.592 300 338.819C299.984 509.959 299.969 681.107 299.953 852.246C299.953 858.402 299.435 859.097 294 860Z" fill="#F5F5F5"/>
<path d="M55.9905 332.371V860.807C49.5691 861.318 49.2182 861.075 49.2182 855.42C49.1707 778.502 49.1233 701.593 49.1043 624.676C49.0759 528.64 49.1043 432.604 49 336.56C49 331.483 53.2398 333.904 56 332.362L55.9905 332.371Z" fill="#F5F5F5"/>
<path d="M140 860.986H134V333.349H140V860.986Z" fill="#F5F5F5"/>
<path d="M112 333.349H118V860.986H112V333.349Z" fill="#F5F5F5"/>
<path d="M304 855.069V337.293C308.452 341.823 309.887 346.663 309.887 352.097C309.887 400.225 309.913 448.361 309.922 496.488C309.939 610.746 309.939 725.012 310 839.269C310 845.147 309.27 850.589 304 855.069Z" fill="#F5F5F5"/>
<path d="M174.728 283.999C144.128 284.209 116.061 279.2 89.8796 265.843C77.0312 259.291 65.7294 250.75 57.0619 239.231C40.6616 217.442 42.684 191.081 61.8885 171.525C78.2549 154.854 98.7256 145.55 121.023 139.937C163.826 129.164 206.093 131.01 247.408 146.842C263.129 152.866 277.235 161.574 287.916 174.839C306.534 197.953 305.2 224.934 284.44 246.287C268.372 262.815 248.249 272.069 226.181 277.79C208.863 282.279 191.239 284.309 174.72 284.007L174.728 283.999ZM170.998 138.393C150.255 138.318 127.507 141.816 105.694 150.307C89.2253 156.717 73.8786 164.989 62.7553 179.084C51.8784 192.868 47.927 208.046 54.9205 224.884C59.2798 235.388 66.7747 243.509 75.7141 250.347C99.3119 268.377 126.878 275.76 155.923 278.462C182.962 280.987 209.551 278.025 235.307 269.317C254.13 262.949 271.363 253.972 284.109 238.232C299.439 219.313 299.32 197.239 283.939 178.513C275.561 168.311 264.879 161.096 253.152 155.357C228.118 143.117 201.394 138.351 170.998 138.376V138.393Z" fill="#F5F5F5"/>
<path d="M171.025 139.06C201.274 139.035 227.885 143.77 252.805 155.932C264.478 161.634 275.111 168.803 283.451 178.939C298.762 197.545 298.88 219.477 283.621 238.275C270.924 253.905 253.778 262.833 235.042 269.16C209.403 277.812 182.935 280.747 156.019 278.246C127.107 275.553 99.6667 268.226 76.1765 250.312C67.2778 243.518 59.8172 235.449 55.4778 225.012C48.5162 208.282 52.458 193.194 63.2768 179.506C74.3494 165.493 89.626 157.282 106.019 150.913C127.733 142.477 150.377 139.001 171.025 139.076V139.06ZM179.949 274.411C189.787 272.944 205.664 271.477 221.101 268.068C242.959 263.241 262.736 253.913 278.105 237.066C292.638 221.144 293.966 201.58 281.244 184.299C271.508 171.07 257.872 162.717 242.807 156.832C202.991 141.285 162.304 140.118 121.245 151.355C101.401 156.79 83.0958 165.235 68.792 180.623C54.302 196.203 53.27 216.96 66.3389 233.69C72.7084 241.851 80.6343 248.17 89.5161 253.421C115.518 268.784 144.262 273.344 179.958 274.42L179.949 274.411Z" fill="#DF3838"/>
</svg>
